<?xml version="1.0" encoding="UTF-8"?>
<svg version="1.1" xmlns="http://www.w3.org/2000/svg" width="512" height="512">
<path d="M0 0 C6.81773755 5.26261725 12.99266387 11.33587217 19.25390625 17.23828125 C22.37810582 20.18115082 25.50720123 23.10874516 28.80334473 25.85978699 C30.10665387 26.9724735 31.37368263 28.12892643 32.60290527 29.32295227 C39.07573328 35.15956338 44.29330052 35.40669854 52.76953125 35.0546875 C54.61617371 35.02560051 54.61617371 35.02560051 56.50012207 34.9959259 C60.41439336 34.9305919 64.32531308 34.81856066 68.23828125 34.69921875 C72.15095939 34.59579676 76.06298748 34.50303684 79.97644043 34.43464661 C82.40441783 34.39074225 84.8321394 34.32629179 87.25891113 34.23808289 C96.7473775 34.04262034 104.13900618 36.16014852 111.18774414 42.71777344 C117.61115182 50.1495479 118.88401636 59.20158106 120.05078125 68.63671875 C120.21900391 69.879375 120.38722656 71.12203125 120.56054688 72.40234375 C120.96906779 75.43707054 121.36123336 78.47294938 121.73828125 81.51171875 C128.6227067 78.71447102 135.42460022 75.87842068 141.98828125 72.38671875 C142.69645996 72.0112793 143.40463867 71.63583984 144.13427734 71.24902344 C150.78156438 67.6376791 156.98785991 63.4640628 163.15234375 59.08984375 C163.74821289 58.66767578 164.34408203 58.24550781 164.95800781 57.81054688 C166.17257157 56.92444166 167.36688225 56.01006316 168.54199219 55.07226562 C171.27342104 52.94399613 173.24673037 51.62702894 176.65234375 50.828125 C181.31950306 51.8619894 184.39719581 54.53708832 188.11328125 57.44921875 C196.31107484 63.60906712 204.62522894 68.8287778 213.73828125 73.51171875 C214.39586426 73.85541504 215.05344727 74.19911133 215.73095703 74.55322266 C235.21905324 84.63555648 255.83718431 89.67817613 277.390625 93.08984375 C278.37160156 93.2496875 279.35257812 93.40953125 280.36328125 93.57421875 C281.15992188 93.68894531 281.9565625 93.80367188 282.77734375 93.921875 C285.30083315 94.68093257 286.22158685 95.34174935 287.73828125 97.51171875 C288.43359375 100.48828125 288.43359375 100.48828125 288.86328125 104.13671875 C288.9411084 104.79696045 289.01893555 105.45720215 289.09912109 106.13745117 C294.13592962 151.14666785 290.05570445 199.39456935 267.73828125 239.51171875 C267.16335938 240.57390625 266.5884375 241.63609375 265.99609375 242.73046875 C259.14464331 254.98098843 250.37660904 265.40973962 240.73828125 275.51171875 C239.62839844 276.70087891 239.62839844 276.70087891 238.49609375 277.9140625 C225.46178378 291.49743681 209.20991181 301.1787787 192.73828125 310.01171875 C191.57304932 310.64400391 191.57304932 310.64400391 190.38427734 311.2890625 C179.1008557 317.20855268 179.1008557 317.20855268 172.9296875 315.9296875 C172.06214844 315.52363281 171.19460938 315.11757813 170.30078125 314.69921875 C169.28886719 314.23 168.27695312 313.76078125 167.234375 313.27734375 C148.61128341 303.8721623 148.61128341 303.8721623 143.421875 300.234375 C140.54668427 298.38872855 139.25873631 298.17149085 135.94921875 298.8828125 C130.84873291 300.33365741 125.78387473 301.88043665 120.73828125 303.51171875 C120.73828125 307.2716606 122.03245055 310.15029968 123.421875 313.57714844 C123.70828857 314.29522675 123.99470215 315.01330505 124.28979492 315.75314331 C125.24679179 318.14866112 126.21121743 320.54111379 127.17578125 322.93359375 C127.85530398 324.62933406 128.53441401 326.32523981 129.21313477 328.02130127 C130.64936897 331.60726598 132.08898148 335.19184872 133.53125 338.77539062 C135.32830338 343.24051411 137.11984822 347.70781637 138.90904236 352.17609406 C144.99674216 367.37735018 151.10476052 382.569783 157.3359375 397.71289062 C157.89431557 399.07029043 157.89431557 399.07029043 158.463974 400.45511246 C160.24656744 404.78607089 162.03320716 409.11530139 163.82592773 413.44207764 C164.46341511 414.98643525 165.10086823 416.53080701 165.73828125 418.07519531 C166.02909073 418.77339134 166.31990021 419.47158737 166.61952209 420.19094086 C169.00518199 425.98176127 170.62979034 431.1734555 169.73828125 437.51171875 C167.71134753 441.34841472 165.63756699 444.50938283 161.73828125 446.51171875 C154.15880473 447.89940258 147.89503417 446.91813602 140.40625 445.3515625 C139.25208084 445.12344376 138.09791168 444.89532501 136.9087677 444.66029358 C133.24511763 443.93587295 129.58520264 443.19468766 125.92578125 442.44921875 C121.08881353 441.46399831 116.24885448 440.49614416 111.40625 439.5390625 C110.29581833 439.30686508 109.18538666 439.07466766 108.04130554 438.83543396 C106.49368279 438.53005455 106.49368279 438.53005455 104.91479492 438.21850586 C104.00928391 438.03339951 103.10377289 437.84829315 102.17082214 437.65757751 C99.32470316 437.48691999 98.09356065 437.94477268 95.73828125 439.51171875 C93.99482991 441.52003499 92.38997721 443.51314148 90.80078125 445.63671875 C89.82818974 446.90599642 88.85417188 448.17418212 87.87890625 449.44140625 C87.36908203 450.10624023 86.85925781 450.77107422 86.33398438 451.45605469 C83.63088687 454.93831922 80.84031605 458.34858834 78.05078125 461.76171875 C74.41401388 466.21623969 70.80040455 470.68451257 67.23828125 475.19921875 C59.32500794 485.09497527 59.32500794 485.09497527 53.6875 485.75 C49.78358695 485.87810768 47.13040539 485.67761743 43.48828125 484.13671875 C36.94591797 477.89173562 34.48937791 468.40437639 31.84106445 459.97509766 C31.48576157 458.86815552 31.13045868 457.76121338 30.76438904 456.62072754 C29.99916002 454.23624159 29.23706964 451.8507465 28.47783852 449.46434402 C27.27251417 445.68641267 26.05271269 441.91335552 24.82646179 438.1421814 C24.61857617 437.50254129 24.41069055 436.86290118 24.19650537 436.20387805 C23.77188236 434.89738171 23.34723056 433.59089473 22.92255056 432.28441691 C20.07505756 423.52074282 17.24161366 414.75293531 14.45336914 405.97021484 C12.56445987 400.02083317 10.64781121 394.08118837 8.69906682 388.15112627 C7.6716002 385.02068517 6.66328867 381.88602979 5.68020058 378.74132156 C4.58342123 375.23872212 3.43906189 371.75519962 2.2824707 368.27197266 C1.97095062 367.23608002 1.65943054 366.20018738 1.33847046 365.13290405 C-0.51151102 359.71751823 -0.51151102 359.71751823 -4.64914894 355.97965622 C-11.36728026 353.19689215 -17.03832094 352.66887849 -24.1015625 354.5390625 C-28.24012991 356.28133992 -30.00199546 358.09571058 -31.72071838 362.26478577 C-32.75544536 365.1713933 -33.68914685 368.09871749 -34.57180786 371.05496216 C-35.34519623 373.6444565 -36.164422 376.21545029 -36.99584961 378.78686523 C-38.30982625 382.86442889 -39.6029564 386.94798339 -40.88671875 391.03515625 C-45.04337614 404.19640449 -49.41976546 417.28719729 -53.77408504 430.3840704 C-55.47081057 435.49030687 -57.1537565 440.60081065 -58.82512093 445.7154026 C-59.88830429 448.96297866 -60.96020713 452.20763333 -62.0340271 455.45170593 C-62.53619206 456.97490483 -63.0347546 458.49929687 -63.52941895 460.02494812 C-69.55099121 478.5787692 -69.55099121 478.5787692 -76.26171875 484.51171875 C-81.62083828 486.29809193 -85.53378997 486.30099463 -90.60546875 483.984375 C-94.99606857 481.32736984 -97.8791272 477.63580972 -101.01171875 473.63671875 C-101.61661133 472.88293945 -102.22150391 472.12916016 -102.84472656 471.35253906 C-104.66222853 469.08137941 -106.46336411 466.79805389 -108.26171875 464.51171875 C-109.26123002 463.25351785 -110.26119541 461.9956775 -111.26171875 460.73828125 C-117.34678205 453.06262256 -123.30654862 445.28831836 -129.26171875 437.51171875 C-137.03175842 438.58747296 -144.71215694 439.95679782 -152.40234375 441.4921875 C-153.30150513 441.67024933 -154.2006665 441.84831116 -155.1270752 442.0317688 C-158.87044624 442.77343378 -162.61348402 443.51588191 -166.35253906 444.27905273 C-169.11685181 444.84152488 -171.88410342 445.38692204 -174.65234375 445.9296875 C-175.4838092 446.10356491 -176.31527466 446.27744232 -177.17193604 446.45658875 C-183.71774038 447.71769375 -189.92667947 447.96173583 -196.13671875 445.26171875 C-199.36893265 442.59989553 -200.99049738 440.5484377 -201.55690002 436.29507446 C-201.86892851 427.94496018 -199.36771971 421.3796876 -196.1640625 413.78515625 C-195.61929451 412.45377669 -195.07628019 411.12167843 -194.53488159 409.78892517 C-193.07923269 406.21853361 -191.60076611 402.65801702 -190.11792374 399.09885025 C-188.57640389 395.38705521 -187.05687833 391.66628858 -185.53588867 387.94604492 C-183.34760521 382.5984594 -181.15308995 377.25351923 -178.95021152 371.91192913 C-175.04026529 362.42960488 -171.17879255 352.92848126 -167.34765625 343.4140625 C-166.94289031 342.40892986 -166.94289031 342.40892986 -166.52994728 341.38349152 C-165.21677751 338.12185103 -163.90444273 334.85987554 -162.59255981 331.59771729 C-160.18189837 325.60454928 -157.76238965 319.61495182 -155.34375 313.625 C-154.54400017 311.64364677 -153.74427381 309.66228407 -152.94458008 307.6809082 C-152.38362986 306.29117695 -151.82267763 304.90144651 -151.26171875 303.51171875 C-152.01907318 303.30544357 -152.77642761 303.0991684 -153.55673218 302.88664246 C-154.54911896 302.61620621 -155.54150574 302.34576996 -156.56396484 302.06713867 C-157.54819427 301.79898849 -158.53242371 301.53083832 -159.54647827 301.25456238 C-169.39087729 298.56130219 -178.19389088 295.37406549 -183.671875 286.1328125 C-184.6784968 283.9427787 -185.53626809 281.80897918 -186.26171875 279.51171875 C-186.555625 278.63773437 -186.555625 278.63773437 -186.85546875 277.74609375 C-188.11386725 270.82490202 -186.82296122 264.4210381 -185.29296875 257.67578125 C-184.8827457 255.78777493 -184.47259158 253.89975363 -184.0625 252.01171875 C-183.4136929 249.07320616 -182.76144481 246.13548939 -182.10693359 243.19824219 C-181.47274894 240.33841933 -180.85119493 237.47605061 -180.23046875 234.61328125 C-180.03360474 233.74941803 -179.83674072 232.88555481 -179.63391113 231.99551392 C-178.0331985 224.5837635 -176.54476388 216.9722514 -180.4296875 210.1171875 C-181.41431472 208.62981099 -182.42210985 207.15758323 -183.44921875 205.69921875 C-184.54696684 204.05301199 -185.64326602 202.40583834 -186.73828125 200.7578125 C-187.31352539 199.90687012 -187.88876953 199.05592773 -188.48144531 198.17919922 C-191.53388838 193.60555784 -194.42685356 188.9345293 -197.32421875 184.26171875 C-197.87166748 183.39313232 -198.41911621 182.5245459 -198.9831543 181.62963867 C-205.28651728 171.51768635 -208.02208009 163.26507212 -205.828125 151.109375 C-202.5946744 140.96718522 -193.18645145 134.90379525 -185.04394531 128.85009766 C-182.01664548 126.57671989 -179.04625721 124.2316112 -176.07421875 121.88671875 C-175.4918042 121.42740967 -174.90938965 120.96810059 -174.30932617 120.49487305 C-173.16961257 119.59560671 -172.03020021 118.69595844 -170.89111328 117.79589844 C-169.3402928 116.57364556 -167.78357771 115.35888288 -166.2265625 114.14453125 C-165.33066406 113.44070312 -164.43476563 112.736875 -163.51171875 112.01171875 C-162.733125 111.40328125 -161.95453125 110.79484375 -161.15234375 110.16796875 C-157.955764 107.36765922 -156.99180779 104.98591508 -156.43969727 100.90771484 C-156.30938614 99.97599457 -156.17907501 99.04427429 -156.04481506 98.08432007 C-155.84474098 96.57498398 -155.84474098 96.57498398 -155.640625 95.03515625 C-155.4951976 93.995336 -155.3497702 92.95551575 -155.19993591 91.88418579 C-154.57780563 87.43561375 -153.97331832 82.98469921 -153.36889648 78.53369141 C-152.92481621 75.28316741 -152.47050635 72.03418359 -152.015625 68.78515625 C-151.88426651 67.79107758 -151.75290802 66.7969989 -151.61756897 65.77279663 C-150.44444335 57.41684921 -148.99365792 49.62463134 -143.19921875 43.19921875 C-142.50699219 42.39871094 -141.81476563 41.59820312 -141.1015625 40.7734375 C-133.15146246 34.44178973 -125.02892536 34.02371703 -115.203125 34.4375 C-112.68818168 34.49294423 -110.17320601 34.54693627 -107.65820312 34.59960938 C-103.73622765 34.7049451 -99.8159297 34.82452831 -95.89526367 34.97094727 C-92.08107509 35.10464836 -88.26895616 35.18083213 -84.453125 35.25 C-83.29446426 35.30899979 -82.13580353 35.36799957 -80.94203186 35.42878723 C-72.73481597 35.52944877 -68.59639204 33.33134769 -62.5643158 27.80851746 C-61.42453026 26.6716021 -61.42453026 26.6716021 -60.26171875 25.51171875 C-59.58617447 24.85226761 -58.91063019 24.19281647 -58.21461487 23.51338196 C-57.10555545 22.41360726 -56.00817884 21.30194466 -54.921875 20.1796875 C-52.55888042 17.80557295 -50.03292055 15.64495697 -47.48828125 13.46875 C-45.84513902 12.02451446 -44.24108208 10.53552421 -42.66015625 9.0234375 C-30.70619523 -2.34124375 -15.41875198 -10.14601814 0 0 Z M-92.74487305 117.27685547 C-111.06963605 138.47199444 -119.08098391 165.78155722 -117.26171875 193.51171875 C-114.79678785 215.16303052 -106.30339168 233.87189844 -92.26171875 250.51171875 C-91.81699219 251.10210937 -91.37226562 251.6925 -90.9140625 252.30078125 C-76.18437013 271.30974205 -50.80362818 281.90293407 -27.6015625 285.04296875 C-1.62784313 288.0710376 24.70866502 280.49705917 45.48828125 264.69921875 C58.39051563 254.48535719 72.84625384 239.81847677 77.73828125 223.51171875 C77.21087445 220.14958817 76.31287294 216.99337998 75.25 213.765625 C67.73560983 190.42732475 63.19478435 166.4801958 63.90234375 141.86328125 C63.93360352 140.56849854 63.96486328 139.27371582 63.99707031 137.93969727 C64.07272821 135.4231184 64.18481619 132.90728563 64.33886719 130.39428711 C64.53686977 124.10770514 64.27351523 120.3047344 60.05078125 115.453125 C58.64693804 114.10341895 57.21183304 112.78495372 55.73828125 111.51171875 C54.80242187 110.65320313 53.8665625 109.7946875 52.90234375 108.91015625 C50.19743772 106.75455421 47.48385499 104.61536962 44.73828125 102.51171875 C43.94679688 101.89296875 43.1553125 101.27421875 42.33984375 100.63671875 C0.58293992 69.56181358 -58.93205767 79.77839162 -92.74487305 117.27685547 Z M171.10546875 118.34765625 C170.03897095 118.94791626 170.03897095 118.94791626 168.95092773 119.56030273 C168.17950439 119.99802002 167.40808105 120.4357373 166.61328125 120.88671875 C158.69369146 125.22365562 150.61129345 128.73643491 142.17578125 131.94921875 C141.09474121 132.36155762 140.01370117 132.77389648 138.89990234 133.19873047 C133.18447941 135.33661426 127.46215897 137.26954891 121.58618164 138.91821289 C119.74260361 139.35506095 119.74260361 139.35506095 118.73828125 140.51171875 C118.55337923 175.53216168 128.54042473 207.83147102 152.73828125 233.51171875 C153.27839844 234.11628906 153.81851563 234.72085938 154.375 235.34375 C158.15470829 239.40907856 162.44360079 242.64367862 166.92578125 245.88671875 C167.83589966 246.54897461 167.83589966 246.54897461 168.7644043 247.22460938 C172.89076612 250.32915578 172.89076612 250.32915578 177.73828125 251.51171875 C199.0221207 242.30885662 216.10969638 217.98480537 224.73828125 197.51171875 C226.72535921 192.27246523 228.29112367 186.92162779 229.73828125 181.51171875 C230.18494141 179.85269531 230.18494141 179.85269531 230.640625 178.16015625 C233.55786131 165.99774815 234.85625704 153.01576432 234.73828125 140.51171875 C230.29357413 138.83506767 225.84169132 137.18361567 221.375 135.56640625 C192.34757529 124.97600975 192.34757529 124.97600975 180.96875 117.75390625 C177.24371876 115.67937046 174.57304251 116.32650898 171.10546875 118.34765625 Z " fill="#3175B2" transform="translate(214.26171875,15.48828125)"/>
<path d="M0 0 C4.87467654 2.8610758 8.81246263 6.43754165 12.875 10.3125 C14.11770238 11.48260743 15.36118553 12.65188625 16.60546875 13.8203125 C17.19505371 14.37493164 17.78463867 14.92955078 18.39208984 15.50097656 C20.87609174 17.81676333 23.43285655 20.04112446 26.01171875 22.25 C27.58482316 23.63457913 29.12165808 25.06035624 30.64453125 26.5 C38.06585064 33.48477119 44.8317944 39.2206401 55.4777832 39.03417969 C56.59937332 39.0179657 57.72096344 39.00175171 58.87654114 38.98504639 C60.08904037 38.96419983 61.30153961 38.94335327 62.55078125 38.921875 C65.11131543 38.8946136 67.67186327 38.86861125 70.23242188 38.84375 C74.2749646 38.80192463 78.31704742 38.75226197 82.35913086 38.67773438 C86.25645905 38.61110118 90.15301783 38.57634104 94.05078125 38.546875 C95.86042107 38.50345978 95.86042107 38.50345978 97.70661926 38.45916748 C107.06424941 38.42933891 107.06424941 38.42933891 110.73388672 41.28076172 C113.79499799 44.95396333 113.79499799 44.95396333 114.20703125 47.9609375 C114.37428711 49.03988281 114.37428711 49.03988281 114.54492188 50.140625 C114.63322266 50.87796875 114.72152344 51.6153125 114.8125 52.375 C114.92013672 53.10460937 115.02777344 53.83421875 115.13867188 54.5859375 C115.34965186 56.03561595 115.54790115 57.4872085 115.73291016 58.94042969 C115.97560965 60.81192232 116.2719758 62.67625899 116.57421875 64.5390625 C117.05137649 68.41761071 117.06849958 72.0955238 117 76 C107.39775388 78.42112938 98.04559502 80.45081009 88.171875 81.41015625 C84.81567578 82.03427704 82.86950846 83.22340835 80 85 C75.36449964 85 75.16493186 84.5964771 72.0625 81.5 C59.58627407 69.92369856 43.23381575 62.59045318 27 58 C25.88238281 57.67773438 24.76476562 57.35546875 23.61328125 57.0234375 C4.71717634 52.57484955 -19.62787479 52.41485048 -38 59 C-38.78197754 59.26844727 -39.56395508 59.53689453 -40.36962891 59.81347656 C-58.74110288 66.22981421 -73.21416686 75.3667072 -87 89 C-87.73605469 89.66386719 -88.47210938 90.32773438 -89.23046875 91.01171875 C-109.15707235 109.34737596 -119.98956579 139.61692205 -121.25 166.16796875 C-122.11595679 199.38302441 -109.85812893 230.21616611 -87.18969727 254.27246094 C-80.79786827 260.81293712 -73.85279177 266.28446502 -66 271 C-65.36610352 271.38140137 -64.73220703 271.76280273 -64.07910156 272.15576172 C-37.38143591 287.89271826 -4.98592843 292.91142324 25.265625 285.3828125 C57.43661801 276.39582819 81.26302393 256.964041 99 229 C102.13349856 231.9259821 104.39236478 234.94898522 106.6875 238.5625 C113.48347953 248.86849094 121.26693169 257.50845171 130.12329102 266.05004883 C131.06966431 266.970802 131.06966431 266.970802 132.03515625 267.91015625 C132.89185913 268.73205444 132.89185913 268.73205444 133.76586914 269.57055664 C135 271 135 271 135 273 C133.92105469 273.33733154 132.84210938 273.67466309 131.73046875 274.0222168 C127.69379638 275.28757189 123.66195657 276.56776953 119.63134766 277.85229492 C117.89270459 278.40415036 116.15280916 278.95207733 114.41162109 279.49584961 C111.89594198 280.28226964 109.38524173 281.08313489 106.875 281.88671875 C106.10696045 282.12339767 105.3389209 282.3600766 104.54760742 282.60392761 C92.36376384 286.55245377 86.52833686 293.05709016 80.6328125 304.1953125 C79.45746172 306.5021206 78.28839071 308.81213703 77.125 311.125 C75.89234402 313.53738055 74.65295819 315.94628802 73.4140625 318.35546875 C72.8252832 319.50321777 72.23650391 320.6509668 71.62988281 321.83349609 C69.62693775 325.72477791 67.6106732 329.60352169 65.5 333.4375 C64.9534375 334.44683594 64.406875 335.45617187 63.84375 336.49609375 C61.53577942 339.63043516 59.46459105 341.22145386 56 343 C49.90364264 343.61100719 45.60229622 341.97494483 40.13671875 339.60546875 C39.30469437 339.25744705 38.47266998 338.90942535 37.61543274 338.55085754 C34.96771202 337.44136232 32.32738352 336.31550068 29.6875 335.1875 C27.05734368 334.07279743 24.42572805 332.96180626 21.79170227 331.85627747 C20.15850108 331.16987099 18.52760195 330.47794892 16.89958191 329.77934265 C1.6288976 323.32589565 -8.05098634 323.39807444 -23.64819336 329.4050293 C-27.38170694 330.93045253 -31.10016309 332.48650337 -34.8125 334.0625 C-58.09813828 343.87434988 -58.09813828 343.87434988 -64 343 C-70.31843788 339.08901225 -72.97609315 333.16041754 -76.29196167 326.68218994 C-77.26225596 324.78858149 -78.24971976 322.90489183 -79.24243164 321.02294922 C-81.69472857 316.36806091 -84.12156326 311.70020915 -86.53662109 307.02587891 C-87.82103281 304.55012879 -89.12659217 302.08678757 -90.4375 299.625 C-90.9648877 298.57662964 -90.9648877 298.57662964 -91.50292969 297.50708008 C-97.62779343 286.08882693 -109.07409675 283.56895418 -120.625 279.9375 C-122.20489708 279.43049873 -123.78432856 278.92204415 -125.36328125 278.41210938 C-126.13819916 278.16190033 -126.91311707 277.91169128 -127.71151733 277.65390015 C-128.86365219 277.28187973 -128.86365219 277.28187973 -130.0390625 276.90234375 C-130.7994986 276.65779449 -131.55993469 276.41324524 -132.34341431 276.1612854 C-137.22460947 274.5880684 -142.09392937 272.98658846 -146.9375 271.30078125 C-148.03191406 270.92219971 -149.12632812 270.54361816 -150.25390625 270.15356445 C-154.44257892 268.39400912 -155.95716885 267.08566229 -158 263 C-158.56971735 255.10419903 -156.92935354 247.92568557 -155.1875 240.25 C-154.92646484 239.0640625 -154.66542969 237.878125 -154.39648438 236.65625 C-153.34736856 231.91061993 -152.27952138 227.17106356 -151.15112305 222.44360352 C-150.88211182 221.31365967 -150.61310059 220.18371582 -150.3359375 219.01953125 C-150.09278809 218.01768799 -149.84963867 217.01584473 -149.59912109 215.98364258 C-147.40156028 205.03971809 -149.20798768 197.35359182 -155 188 C-155.42925781 187.30100586 -155.85851562 186.60201172 -156.30078125 185.88183594 C-160.74552733 178.68514308 -165.30431059 171.56262331 -169.96484375 164.50390625 C-170.4247168 163.79588867 -170.88458984 163.08787109 -171.35839844 162.35839844 C-172.2150923 161.03968158 -173.0834368 159.72842516 -173.96582031 158.42675781 C-176.87860602 153.91546252 -178.02702305 150.42082378 -178 145 C-175.72336998 140.45779156 -172.66037104 137.55354182 -168.75 134.375 C-168.23622803 133.95532959 -167.72245605 133.53565918 -167.19311523 133.10327148 C-162.90521988 129.63755579 -158.48774447 126.34961232 -154.0625 123.0625 C-148.89056897 119.20829781 -143.74837578 115.32794404 -138.75 111.25 C-137.73421875 110.43015625 -136.7184375 109.6103125 -135.671875 108.765625 C-129.48628105 102.36299266 -128.19571344 95.28793572 -127 86.6875 C-126.83830322 85.61532227 -126.67660645 84.54314453 -126.51000977 83.43847656 C-125.61731915 77.47687075 -124.79204978 71.50613635 -123.96484375 65.53515625 C-123.70670898 63.7094812 -123.70670898 63.7094812 -123.44335938 61.84692383 C-123.11192126 59.49022606 -122.79120509 57.13198978 -122.48242188 54.7722168 C-122.33224609 53.6975415 -122.18207031 52.62286621 -122.02734375 51.515625 C-121.90093506 50.56977539 -121.77452637 49.62392578 -121.64428711 48.64941406 C-120.74478266 44.95050452 -119.51980202 41.97465607 -116.23439026 39.8677063 C-113.52460804 38.81538561 -111.46929659 38.78625205 -108.56396484 38.83642578 C-106.93109024 38.85601852 -106.93109024 38.85601852 -105.26522827 38.87600708 C-104.09231232 38.89887787 -102.91939636 38.92174866 -101.7109375 38.9453125 C-99.2174536 38.97061834 -96.72396371 38.99533927 -94.23046875 39.01953125 C-90.30693825 39.06903488 -86.38372066 39.12485098 -82.46044922 39.19189453 C-78.66892605 39.25263926 -74.87779486 39.28796128 -71.0859375 39.3203125 C-69.92516693 39.34723175 -68.76439636 39.374151 -67.56845093 39.40188599 C-57.50542522 39.46328663 -49.68987217 37.37781552 -42.375 30.1875 C-41.45332031 29.30320312 -40.53164062 28.41890625 -39.58203125 27.5078125 C-38.72996094 26.68023437 -37.87789062 25.85265625 -37 25 C-35.69697154 23.84340712 -34.38534864 22.69637026 -33.0625 21.5625 C-30.19748847 19.07909861 -27.40262974 16.52979547 -24.62573242 13.94824219 C-22.10275363 11.61085187 -19.55358336 9.30395963 -17 7 C-16.17886719 6.25363281 -15.35773438 5.50726563 -14.51171875 4.73828125 C-9.52594397 0.49305333 -6.576479 -1.18592244 0 0 Z " fill="#7EB9E4" transform="translate(202,28)"/>
<path d="M0 0 C2.80383949 1.34888048 5.41089565 2.84491836 8.01953125 4.5390625 C35.96924159 22.54385542 64.06403348 33.55050772 97 39 C102.64117751 86.73457023 96.21335948 138.83789667 66.68359375 178.078125 C64.51561012 180.77773592 62.28267497 183.39702073 60 186 C59.30519531 186.82757813 58.61039063 187.65515625 57.89453125 188.5078125 C45.45536172 202.96353228 29.85610534 213.27211547 13.375 222.5625 C12.61678955 222.99248291 11.8585791 223.42246582 11.07739258 223.86547852 C3.61789128 227.97677116 3.61789128 227.97677116 0 228 C-2.60470612 227.01098388 -4.87281341 225.98832812 -7.3125 224.6875 C-8.00819092 224.32648193 -8.70388184 223.96546387 -9.4206543 223.59350586 C-21.48235831 217.22049227 -32.7567324 210.04796754 -43 201 C-43.98613281 200.14664063 -44.97226562 199.29328125 -45.98828125 198.4140625 C-77.54393868 170.67800986 -92.69918418 130.2381523 -95.78173828 89.09228516 C-96.26373508 81.00955039 -96.25647986 72.90691038 -96.25 64.8125 C-96.24940582 63.98381409 -96.24881165 63.15512817 -96.24819946 62.30133057 C-96.2416509 59.91558111 -96.22516852 57.53018432 -96.203125 55.14453125 C-96.1987291 54.4403154 -96.19433319 53.73609955 -96.18980408 53.01054382 C-96.12317288 48.26377151 -95.6550878 43.69293613 -95 39 C-94.27748047 38.86013672 -93.55496094 38.72027344 -92.81054688 38.57617188 C-58.76511027 31.88752324 -27.7016793 21.41493837 0 0 Z M-4.6328125 47.8359375 C-5.6993103 48.43619751 -5.6993103 48.43619751 -6.78735352 49.04858398 C-7.55877686 49.48630127 -8.3302002 49.92401855 -9.125 50.375 C-17.04458979 54.71193687 -25.1269878 58.22471616 -33.5625 61.4375 C-34.64354004 61.84983887 -35.72458008 62.26217773 -36.83837891 62.68701172 C-42.55380184 64.82489551 -48.27612228 66.75783016 -54.15209961 68.40649414 C-55.99567764 68.8433422 -55.99567764 68.8433422 -57 70 C-57.18490202 105.02044293 -47.19785652 137.31975227 -23 163 C-22.45988281 163.60457031 -21.91976562 164.20914063 -21.36328125 164.83203125 C-17.58357296 168.89735981 -13.29468046 172.13195987 -8.8125 175.375 C-7.90238159 176.03725586 -7.90238159 176.03725586 -6.97387695 176.71289062 C-2.84751513 179.81743703 -2.84751513 179.81743703 2 181 C23.28383945 171.79713787 40.37141513 147.47308662 49 127 C50.98707796 121.76074648 52.55284242 116.40990904 54 111 C54.44666016 109.34097656 54.44666016 109.34097656 54.90234375 107.6484375 C57.81958006 95.4860294 59.11797579 82.50404557 59 70 C54.55529288 68.32334892 50.10341007 66.67189692 45.63671875 65.0546875 C16.60929404 54.464291 16.60929404 54.464291 5.23046875 47.2421875 C1.50543751 45.16765171 -1.16523874 45.81479023 -4.6328125 47.8359375 Z " fill="#7EB9E4" transform="translate(390,86)"/>
<path d="M0 0 C1.36125 1.0828125 1.36125 1.0828125 2.75 2.1875 C3.49407104 2.7585144 3.49407104 2.7585144 4.25317383 3.34106445 C6.54862797 6.1726612 7.38826453 9.48608121 8.44921875 12.91796875 C8.6891304 13.66838943 8.92904205 14.41881012 9.17622375 15.19197083 C9.93866702 17.58365709 10.68821526 19.97916264 11.4375 22.375 C11.95293048 23.99961746 12.4691969 25.62396997 12.98632812 27.24804688 C14.25059717 31.22485791 15.50331859 35.20514215 16.75 39.1875 C17.86971191 39.1968457 18.98942383 39.20619141 20.14306641 39.21582031 C24.31436316 39.25582161 28.48493022 39.32160805 32.65576172 39.39501953 C34.45774939 39.42317053 36.25985919 39.44441422 38.06201172 39.45849609 C40.65916198 39.48000755 43.25485295 39.52669757 45.8515625 39.578125 C46.6517984 39.57935364 47.4520343 39.58058228 48.27651978 39.58184814 C54.46109406 39.74223963 58.2224447 41.55261751 62.58984375 46.10546875 C64.03358945 48.69643325 64.24970329 50.54018178 64.3125 53.5 C64.37630859 54.85544922 64.37630859 54.85544922 64.44140625 56.23828125 C62.67518726 63.77215323 55.51941907 68.11473772 49.4375 72.1875 C43.36732854 76.31897248 37.50242615 80.62135871 31.75 85.1875 C32.20439453 86.5175708 32.20439453 86.5175708 32.66796875 87.87451172 C33.79828026 91.20675699 34.91472498 94.54302626 36.02246094 97.8828125 C36.50211347 99.31983861 36.98702485 100.75512161 37.47753906 102.18847656 C43.99236166 121.25430434 43.99236166 121.25430434 40.1875 129.625 C37.1724087 132.79471137 34.96252445 133.9939514 30.75 135.1875 C23.78313286 135.01918283 19.97005717 132.83863958 14.5 128.6875 C13.7685376 128.15157227 13.0370752 127.61564453 12.28344727 127.06347656 C10.09374429 125.45346423 7.92085188 123.82280468 5.75 122.1875 C4.4941356 121.25433828 3.23766992 120.32198497 1.98046875 119.390625 C-0.77700796 117.34112766 -3.51854825 115.27161347 -6.25 113.1875 C-13.71580908 117.67963936 -20.65552323 122.63045021 -27.50195312 128.01074219 C-32.06658087 131.53130843 -36.58062183 134.77477557 -42.47265625 135.4375 C-47.79599484 134.71415887 -50.52213527 133.0928821 -54.25 129.1875 C-57.10127499 124.7246348 -56.19552795 120.16702042 -55.25 115.1875 C-53.67974078 109.71411776 -51.81832322 104.34066837 -49.96484375 98.95776367 C-49.32994239 97.10367112 -48.70775501 95.24524018 -48.0859375 93.38671875 C-47.71001465 92.29190186 -47.3340918 91.19708496 -46.94677734 90.0690918 C-46.2458497 87.17033603 -46.00437189 85.8669209 -47.25 83.1875 C-48.74477679 81.68428982 -48.74477679 81.68428982 -50.6796875 80.453125 C-51.38786621 79.96545654 -52.09604492 79.47778809 -52.82568359 78.9753418 C-53.58445801 78.467854 -54.34323242 77.96036621 -55.125 77.4375 C-56.67714862 76.36597998 -58.22923187 75.29436527 -59.78125 74.22265625 C-61.87599277 72.79470448 -63.97361103 71.37202941 -66.08203125 69.96435547 C-76.83725691 62.7803011 -76.83725691 62.7803011 -78.25 56.1875 C-78.34408886 51.27606176 -77.42457943 47.01888897 -74.25 43.1875 C-69.18768465 39.98355801 -65.13768448 39.78257491 -59.3515625 39.89453125 C-58.51660248 39.89877609 -57.68164246 39.90302094 -56.82138062 39.90739441 C-54.17224965 39.92409667 -51.5238984 39.96173225 -48.875 40 C-47.07162562 40.0150578 -45.26823924 40.02874429 -43.46484375 40.04101562 C-39.0595985 40.07397238 -34.65493114 40.12569531 -30.25 40.1875 C-30.07911865 39.53700684 -29.9082373 38.88651367 -29.73217773 38.21630859 C-27.80621884 31.0068983 -25.64143454 23.90133314 -23.3125 16.8125 C-22.97798828 15.75933594 -22.64347656 14.70617187 -22.29882812 13.62109375 C-18.48430788 2.02318825 -18.48430788 2.02318825 -12.9375 -1.125 C-7.94580534 -2.40194515 -4.56657841 -2.54674565 0 0 Z " fill="#3175B2" transform="translate(205.25,132.8125)"/>
<path d="M0 0 C1.02101135 1.73291016 1.02101135 1.73291016 1.94750977 4.0390625 C2.48337959 5.34944992 2.48337959 5.34944992 3.03007507 6.68630981 C3.41331436 7.65607758 3.79655365 8.62584534 4.19140625 9.625 C4.60538162 10.64689423 5.01935699 11.66878845 5.44587708 12.72164917 C6.82883118 16.14354156 8.19564811 19.57164725 9.5625 23 C10.52399094 25.38855067 11.48641028 27.77672781 12.44970703 30.16455078 C14.80153479 36.00024154 17.1406882 41.8409342 19.47516632 47.68358421 C21.50680836 52.76799803 23.54258193 57.85074243 25.58056641 62.93261719 C33.07199823 81.61445981 40.54530273 100.3034685 48 119 C44.97333858 119.93786723 42.86942789 120.00160625 39.76977539 119.39501953 C38.94534439 119.23800568 38.12091339 119.08099182 37.27149963 118.91921997 C36.38913132 118.74220551 35.506763 118.56519104 34.59765625 118.3828125 C33.68294052 118.20620087 32.76822479 118.02958923 31.82579041 117.84762573 C28.90307793 117.28138066 25.9828393 116.70334689 23.0625 116.125 C21.09976042 115.74271329 19.13687119 115.36119402 17.17382812 114.98046875 C11.13219519 113.80612794 5.09048354 112.63139187 -0.93969727 111.39941406 C-3.30877192 110.94014091 -5.58851751 110.72296648 -8 110.625 C-9.2375 110.55152344 -9.2375 110.55152344 -10.5 110.4765625 C-16.40025583 111.71192856 -20.4733581 118.88943608 -24.125 123.4375 C-24.6912207 124.13834717 -25.25744141 124.83919434 -25.84082031 125.5612793 C-29.96858937 130.68287747 -34.04172541 135.84620424 -38.09155273 141.02954102 C-42.31087067 146.42223713 -46.63770387 151.72216023 -51 157 C-52.67441734 154.48837399 -53.52678319 152.79453748 -54.45535278 150.00816345 C-54.72735504 149.19917099 -54.9993573 148.39017853 -55.27960205 147.55667114 C-55.57163513 146.67292816 -55.86366821 145.78918518 -56.16455078 144.87866211 C-56.47695709 143.94509384 -56.7893634 143.01152557 -57.11123657 142.04966736 C-58.14371082 138.96035737 -59.16964864 135.86892087 -60.1953125 132.77734375 C-60.90959534 130.63397678 -61.62418886 128.49071332 -62.33908081 126.34754944 C-63.83647477 121.8552778 -65.33075907 117.36198755 -66.82275391 112.86791992 C-68.73893379 107.09667286 -70.66176194 101.32766806 -72.58677864 95.55936337 C-74.06285083 91.13448176 -75.53593598 86.70861049 -77.00805283 82.28241158 C-77.71617253 80.15419356 -78.42510856 78.02624699 -79.13486099 75.89857292 C-80.12428455 72.9306715 -81.10981337 69.9615059 -82.09423828 66.99194336 C-82.39031982 66.10617615 -82.68640137 65.22040894 -82.99145508 64.30780029 C-83.39099899 63.09854134 -83.39099899 63.09854134 -83.7986145 61.86485291 C-84.03199587 61.16265594 -84.26537724 60.46045897 -84.50583076 59.7369833 C-85 58 -85 58 -85 56 C-83.43662827 56.45535099 -81.87434151 56.91442776 -80.3125 57.375 C-79.00732422 57.75785156 -79.00732422 57.75785156 -77.67578125 58.1484375 C-75 59 -75 59 -72.52734375 60.08203125 C-65.89384186 62.49141756 -57.64543643 61.68754982 -51.16455078 59.05249023 C-43.66078116 55.40386054 -40.05926813 49.32679827 -36.375 42.125 C-35.87282959 41.1777002 -35.37065918 40.23040039 -34.85327148 39.25439453 C-33.22224555 36.17638937 -31.61033057 33.08887666 -30 30 C-27.70284841 25.61670596 -25.38658151 21.24406008 -23.0625 16.875 C-22.53124512 15.85035645 -21.99999023 14.82571289 -21.45263672 13.77001953 C-17.89731295 7.07916806 -14.85502703 2.59087638 -7.375 0.1875 C-6.61960937 -0.06644531 -5.86421875 -0.32039063 -5.0859375 -0.58203125 C-3 -1 -3 -1 0 0 Z " fill="#7EB9E4" transform="translate(318,325)"/>
<path d="M0 0 C14.21883462 3.51113079 14.21883462 3.51113079 17.57055664 8.19458008 C18.01262451 9.04431396 18.45469238 9.89404785 18.91015625 10.76953125 C19.67356323 12.21114624 19.67356323 12.21114624 20.45239258 13.68188477 C20.98372803 14.71498779 21.51506348 15.74809082 22.0625 16.8125 C22.62541748 17.87460693 23.18833496 18.93671387 23.76831055 20.03100586 C26.08295764 24.39866115 28.36838577 28.78108217 30.64257812 33.16992188 C32.18600442 36.14125422 33.74854006 39.10193927 35.3125 42.0625 C35.7669751 42.95880127 36.2214502 43.85510254 36.68969727 44.77856445 C40.5013121 51.97311565 45.2394489 56.71417482 52.1875 60.9375 C62.05074117 63.68627213 70.11418992 62.1489779 79.3203125 57.99609375 C82 57 82 57 85 58 C74.11 90.67 63.22 123.34 52 157 C48.47672863 155.23836431 47.4182062 154.64741124 45.15234375 151.796875 C44.63510742 151.15322998 44.11787109 150.50958496 43.58496094 149.84643555 C43.04129883 149.15461182 42.49763672 148.46278809 41.9375 147.75 C41.36676758 147.03561768 40.79603516 146.32123535 40.20800781 145.58520508 C38.4634484 143.39675651 36.72996152 141.2000001 35 139 C34.4942041 138.35788574 33.9884082 137.71577148 33.46728516 137.05419922 C31.60975542 134.69422805 29.75446653 132.33254357 27.90429688 129.96679688 C20.62749349 118.72423843 20.62749349 118.72423843 11.00802612 111.73547363 C4.44281141 111.77984707 -1.69328593 112.65676074 -8.1171875 113.96875 C-9.64655441 114.26839661 -9.64655441 114.26839661 -11.20681763 114.57409668 C-14.4313684 115.20721848 -17.65323832 115.85284865 -20.875 116.5 C-24.11853557 117.14514702 -27.36256743 117.78757756 -30.60745239 118.42590332 C-32.61831741 118.82211989 -34.62835018 119.22258976 -36.63742065 119.62780762 C-37.54581696 119.80799438 -38.45421326 119.98818115 -39.39013672 120.17382812 C-40.5839949 120.41365417 -40.5839949 120.41365417 -41.80197144 120.6583252 C-44 121 -44 121 -48 121 C-45.97322878 114.68394514 -43.68937637 108.51487216 -41.2109375 102.36328125 C-40.83871063 101.43346939 -40.46648376 100.50365753 -40.08297729 99.54566956 C-38.84958512 96.46689661 -37.61235695 93.38968142 -36.375 90.3125 C-35.50471833 88.14280685 -34.63460494 85.9730462 -33.76464844 83.80322266 C-22.5515605 55.85204157 -11.27552422 27.92603887 0 0 Z " fill="#7EB9E4" transform="translate(79,324)"/>
<path d="M0 0 C5.08146118 0.39346389 8.71489672 1.60074581 13.1484375 4.0625 C14.30666016 4.69051514 15.46488281 5.31853027 16.65820312 5.96557617 C17.56711304 6.46424698 17.56711304 6.46424698 18.49438477 6.97299194 C35.42756327 16.22023744 53.02870367 23.23218664 71.7421875 28.05078125 C74.59374261 29.24961843 75.41333138 30.35573892 77 33 C77.38818359 35.72290039 77.38818359 35.72290039 77.3984375 38.84765625 C77.40464111 40.00080322 77.41084473 41.1539502 77.41723633 42.34204102 C77.40329834 43.56979248 77.38936035 44.79754395 77.375 46.0625 C77.36557373 47.32441162 77.35614746 48.58632324 77.34643555 49.88647461 C77.18204513 60.16709733 76.25227803 69.9736598 74 80 C73.82307617 80.79196777 73.64615234 81.58393555 73.46386719 82.39990234 C68.59530616 103.54324726 60.49103081 123.57869675 46 140 C45.29101562 140.82886719 44.58203125 141.65773437 43.8515625 142.51171875 C34.91613459 152.74827038 25.09300736 160.76563527 13.62646484 167.95996094 C12.23318058 168.85089323 10.88622683 169.81356956 9.55078125 170.7890625 C5.98729312 172.48076437 2.82406976 172.67842063 -1 172 C-3.79485065 170.8827664 -6.19593067 169.36461952 -8.6875 167.6875 C-9.37593994 167.23963135 -10.06437988 166.7917627 -10.77368164 166.33032227 C-17.65666963 161.75092453 -23.90330839 156.56869667 -30 151 C-31.19689453 149.92685547 -31.19689453 149.92685547 -32.41796875 148.83203125 C-57.80299143 124.88474436 -70.19384803 88.29823698 -71.2734375 54.015625 C-71.31301641 51.42716454 -71.34672324 48.8386086 -71.375 46.25 C-71.41238281 44.93644531 -71.44976562 43.62289062 -71.48828125 42.26953125 C-71.49988281 41.01011719 -71.51148438 39.75070313 -71.5234375 38.453125 C-71.54325684 37.31004883 -71.56307617 36.16697266 -71.58349609 34.98925781 C-71 32 -71 32 -68.8137207 29.71289062 C-66.00257057 28.00156487 -63.61976808 27.0185511 -60.45703125 26.140625 C-59.39250732 25.83406982 -58.3279834 25.52751465 -57.23120117 25.21166992 C-56.10302979 24.89431885 -54.9748584 24.57696777 -53.8125 24.25 C-24.9108673 15.83894066 -24.9108673 15.83894066 0 0 Z M-2.6328125 20.8359375 C-3.6993103 21.43619751 -3.6993103 21.43619751 -4.78735352 22.04858398 C-5.55877686 22.48630127 -6.3302002 22.92401855 -7.125 23.375 C-15.04458979 27.71193687 -23.1269878 31.22471616 -31.5625 34.4375 C-32.64354004 34.84983887 -33.72458008 35.26217773 -34.83837891 35.68701172 C-40.55380184 37.82489551 -46.27612228 39.75783016 -52.15209961 41.40649414 C-53.99567764 41.8433422 -53.99567764 41.8433422 -55 43 C-55.18490202 78.02044293 -45.19785652 110.31975227 -21 136 C-20.45988281 136.60457031 -19.91976562 137.20914063 -19.36328125 137.83203125 C-15.58357296 141.89735981 -11.29468046 145.13195987 -6.8125 148.375 C-5.90238159 149.03725586 -5.90238159 149.03725586 -4.97387695 149.71289062 C-0.84751513 152.81743703 -0.84751513 152.81743703 4 154 C25.28383945 144.79713787 42.37141513 120.47308662 51 100 C52.98707796 94.76074648 54.55284242 89.40990904 56 84 C56.44666016 82.34097656 56.44666016 82.34097656 56.90234375 80.6484375 C59.81958006 68.4860294 61.11797579 55.50404557 61 43 C56.55529288 41.32334892 52.10341007 39.67189692 47.63671875 38.0546875 C18.60929404 27.464291 18.60929404 27.464291 7.23046875 20.2421875 C3.50543751 18.16765171 0.83476126 18.81479023 -2.6328125 20.8359375 Z " fill="#3175B2" transform="translate(388,113)"/>
<path d="M0 0 C1.9248443 2.88726645 2.77981981 5.08617596 3.8046875 8.3671875 C4.14113281 9.41777344 4.47757813 10.46835938 4.82421875 11.55078125 C5.52178639 13.75758444 6.21453941 15.96591561 6.90234375 18.17578125 C7.24136719 19.22894531 7.58039063 20.28210938 7.9296875 21.3671875 C8.23116699 22.32737793 8.53264648 23.28756836 8.84326172 24.27685547 C10.5515882 28.29852571 12.46298941 31.15368866 16.33666992 33.28662109 C19.49068708 34.13143163 22.34841115 34.324614 25.61328125 34.4140625 C26.86044922 34.45273438 28.10761719 34.49140625 29.39257812 34.53125 C30.68615234 34.5621875 31.97972656 34.593125 33.3125 34.625 C34.62541016 34.66367188 35.93832031 34.70234375 37.29101562 34.7421875 C40.52720437 34.83633117 43.76338935 34.92196352 47 35 C42.29386424 40.0998762 36.81665676 43.7094379 31.0625 47.5390625 C25.42221202 51.30328841 25.42221202 51.30328841 22 57 C21.07930102 64.3818874 23.5753559 70.49071801 26.0625 77.375 C26.83082116 79.52629924 27.59289034 81.67984514 28.34765625 83.8359375 C28.85824585 85.25205322 28.85824585 85.25205322 29.37915039 86.69677734 C30 89 30 89 29 91 C28.55720703 90.66266846 28.11441406 90.32533691 27.65820312 89.9777832 C25.60812566 88.41915901 23.5540983 86.86582079 21.5 85.3125 C20.80390625 84.78205078 20.1078125 84.25160156 19.390625 83.70507812 C17.27820753 82.11098531 15.14261026 80.55319514 13 79 C12.02740234 78.25242432 12.02740234 78.25242432 11.03515625 77.48974609 C6.62730394 74.34682323 2.97126322 73.13971141 -2.47460938 73.43554688 C-7.18743195 74.48891557 -10.54875227 77.26985743 -14.25 80.25 C-15.77555295 81.42251114 -17.30158446 82.59439993 -18.828125 83.765625 C-19.53775391 84.32185547 -20.24738281 84.87808594 -20.97851562 85.45117188 C-23.57341737 87.43934297 -26.25158434 89.23191095 -29 91 C-27.59018054 83.91833607 -25.48391301 77.26881486 -23.03515625 70.48632812 C-21.14567708 65.055239 -19.76941713 60.57303691 -22.375 55.125 C-27.79160054 47.82684349 -36.6268009 42.74612845 -43.9453125 37.56640625 C-44.62335938 37.04949219 -45.30140625 36.53257812 -46 36 C-46 35.67 -46 35.34 -46 35 C-45.18321777 34.98541748 -44.36643555 34.97083496 -43.52490234 34.95581055 C-39.8078024 34.88113077 -36.09158081 34.78453388 -32.375 34.6875 C-30.44720703 34.65366211 -30.44720703 34.65366211 -28.48046875 34.61914062 C-27.23652344 34.58369141 -25.99257812 34.54824219 -24.7109375 34.51171875 C-23.56931152 34.48553467 -22.42768555 34.45935059 -21.25146484 34.43237305 C-16.7582145 33.83486994 -13.44311998 32.49331723 -10.26635742 29.20605469 C-8.6858202 26.4526839 -7.72112482 23.72287624 -6.73828125 20.703125 C-6.14370117 18.89521484 -6.14370117 18.89521484 -5.53710938 17.05078125 C-5.13298828 15.79652344 -4.72886719 14.54226562 -4.3125 13.25 C-3.89327305 11.9672206 -3.47335825 10.68466578 -3.05273438 9.40234375 C-2.02836779 6.27037235 -1.01107964 3.1362809 0 0 Z " fill="#7EB9E4" transform="translate(198,155)"/>
<path d="M0 0 C2.5 2.125 2.5 2.125 4 5 C3.72473909 10.16413402 2.74276854 13.0462768 -0.625 16.9375 C-1.429375 17.87078125 -2.23375 18.8040625 -3.0625 19.765625 C-7.73800803 24.95990429 -12.53500596 30.04228515 -17.3515625 35.10546875 C-21.83770268 39.85004241 -26.23199388 44.67633481 -30.1875 49.875 C-32.12242213 52.14352939 -33.13923444 53.18263841 -36 54 C-40.08955003 54.16379335 -42.05283385 53.73618602 -45.31811523 51.19824219 C-47.89885265 48.76477721 -50.36528047 46.25510543 -52.8125 43.6875 C-53.67037109 42.81931641 -54.52824219 41.95113281 -55.41210938 41.05664062 C-62.59895089 33.68885581 -62.59895089 33.68885581 -64 30 C-63.86339823 26.17515054 -63.50903182 23.76354773 -61.375 20.5625 C-57.88777372 18.26827219 -56.11242371 18.24605565 -52 19 C-49.04468085 21.0464299 -46.56481531 23.49218058 -44 26 C-42.84391168 26.99163414 -41.67845505 27.97255328 -40.5 28.9375 C-39.675 29.618125 -38.85 30.29875 -38 31 C-33.76589413 26.88172073 -29.74723685 22.64910356 -25.890625 18.17578125 C-23.00278028 14.85237317 -20.03416468 11.60254741 -17.078125 8.33984375 C-15.36507239 6.41104955 -13.73099555 4.45466911 -12.125 2.4375 C-8.44081904 -1.78847227 -5.17815926 -1.27182859 0 0 Z " fill="#3074B2" transform="translate(421,168)"/>
</svg>
