<?xml version="1.0" encoding="UTF-8"?>
<svg version="1.1" xmlns="http://www.w3.org/2000/svg" width="512" height="512">
<path d="M0 0 C0.69732855 0.00148362 1.39465711 0.00296725 2.11311683 0.00449583 C2.85089159 0.0021436 3.58866635 -0.00020863 4.34879792 -0.00263214 C6.85254609 -0.00935659 9.35624279 -0.00886289 11.85999927 -0.00845411 C13.66055013 -0.0117506 15.46110024 -0.0154757 17.2616494 -0.01959559 C22.23415646 -0.02964822 27.20665145 -0.03333761 32.17916724 -0.0359849 C37.53238299 -0.03987831 42.88558909 -0.04945727 48.23879871 -0.05819777 C61.17881554 -0.07798928 74.11883319 -0.08803168 87.05886137 -0.09692556 C93.14561192 -0.10130397 99.23236159 -0.10667192 105.31911144 -0.11191443 C125.5409085 -0.12892921 145.762705 -0.14342482 165.98450813 -0.15066317 C171.23590781 -0.15257321 176.48730749 -0.15449352 181.73870715 -0.15644911 C183.04399107 -0.15693285 184.34927498 -0.15741659 185.69411295 -0.15791499 C206.85308197 -0.16622061 228.01199456 -0.19156539 249.17093892 -0.22402979 C270.87174918 -0.25705538 292.57253071 -0.27510784 314.27336624 -0.27830741 C326.46677242 -0.28047666 338.66009629 -0.28928581 350.85347804 -0.31476858 C361.23506537 -0.33641418 371.61655042 -0.34455638 381.99815775 -0.3348018 C387.29886267 -0.33023925 392.5993563 -0.33225623 397.90003261 -0.35156325 C402.7478146 -0.36906882 407.59522917 -0.36830067 412.44301438 -0.35266595 C414.20146028 -0.35027057 415.95993079 -0.35471224 417.71833885 -0.3664946 C420.10010024 -0.38147159 422.48053566 -0.3720413 424.86226234 -0.35626772 C425.55256739 -0.36648993 426.24287245 -0.37671213 426.95409584 -0.38724411 C430.26144102 -0.33910054 431.93827973 -0.04228917 434.60282615 1.98271778 C436.78339444 4.97028019 436.66900392 7.01443041 436.65746936 10.69395372 C436.66088706 11.3507398 436.66430476 12.00752588 436.66782603 12.68421456 C436.67441089 14.88336096 436.65242115 17.08128469 436.63055286 19.28031847 C436.6294245 20.85724282 436.63005801 22.43416927 436.63232288 24.01109239 C436.63347142 28.29189462 436.60993964 32.57224931 436.58202705 36.85294744 C436.55703665 41.32657853 436.55467326 45.80021966 436.54992542 50.27390978 C436.53748868 58.74537499 436.50465766 67.21663393 436.46452746 75.68800828 C436.41983144 85.3323866 436.39782817 94.97677472 436.37774572 104.62123081 C436.33592562 124.46050801 436.26556001 144.29959947 436.1764513 164.13871691 C437.33169299 164.11776964 438.48693469 164.09682238 439.67718372 164.07524034 C443.97279277 164.00271292 448.26834794 163.95687098 452.56439075 163.91899034 C454.42190528 163.89890385 456.2793568 163.87162912 458.13665637 163.83695909 C460.81023593 163.78830953 463.48297786 163.76571881 466.15692005 163.74809191 C466.98419101 163.72744676 467.81146198 163.70680162 468.66380176 163.68553087 C469.44423343 163.68522875 470.2246651 163.68492662 471.02874622 163.68461534 C471.71047397 163.6757329 472.39220172 163.66685045 473.09458789 163.65769884 C476.27397774 164.39230225 477.91659014 165.82042313 480.1764513 168.13871691 C480.79744378 170.84124896 480.79744378 170.84124896 480.79169044 174.00328371 C480.80662197 175.81322943 480.80662197 175.81322943 480.82185516 177.6597397 C480.80759488 178.99959976 480.79286795 180.33945492 480.77772388 181.67930529 C480.77991085 183.0982555 480.78429518 184.51720375 480.79069385 185.93614122 C480.80193061 189.84787773 480.78181356 193.75893244 480.75681494 197.67058232 C480.73502218 201.94875474 480.7422853 206.22689441 480.74590454 210.50510713 C480.74856579 218.81447792 480.7254508 227.12357913 480.69339789 235.4328806 C480.65743949 245.04172133 480.65342647 254.65039947 480.64947376 264.25932238 C480.62320731 289.63583004 480.55340193 315.0122775 480.4889513 340.38871691 C480.3858263 397.06621691 480.2827013 453.74371691 480.1764513 512.13871691 C356.4264513 512.13871691 232.6764513 512.13871691 105.1764513 512.13871691 C105.1764513 488.04871691 105.1764513 463.95871691 105.1764513 439.13871691 C173.4864513 439.13871691 241.7964513 439.13871691 312.1764513 439.13871691 C312.1764513 389.63871691 312.1764513 340.13871691 312.1764513 289.13871691 C296.3364513 289.13871691 280.4964513 289.13871691 264.1764513 289.13871691 C264.1764513 300.02871691 264.1764513 310.91871691 264.1764513 322.13871691 C272.08900225 322.02060582 272.08900225 322.02060582 280.00091419 321.86845323 C286.15113219 321.82226327 290.83081116 321.95802395 296.1764513 325.13871691 C298.19116726 328.16079085 298.51364163 329.05598389 298.6139513 332.51371691 C298.65391223 333.26395128 298.69387317 334.01418566 298.73504505 334.78715441 C297.88481009 338.36646518 295.9677231 339.81605952 293.1764513 342.13871691 C290.10763416 342.76792261 290.10763416 342.76792261 286.61053333 342.77363512 C285.64161497 342.78533505 285.64161497 342.78533505 284.65312251 342.79727134 C282.49624998 342.8171597 280.34114828 342.80144213 278.1842638 342.78568956 C276.63499797 342.7924672 275.08574021 342.80137117 273.53649768 342.81223986 C269.33391158 342.8350228 265.13193959 342.82620131 260.92934284 342.81034443 C256.53008749 342.79768011 252.1308845 342.80942701 247.73162708 342.81727526 C240.34399855 342.82637029 232.95661999 342.81438783 225.56902942 342.79057238 C217.02951709 342.76336126 208.49060164 342.77217554 199.95110378 342.7997044 C192.61760024 342.82239872 185.28427632 342.82559401 177.95074901 342.81251106 C173.57147685 342.80471827 169.19248519 342.80367007 164.81323108 342.8201935 C160.69585365 342.83464384 156.57924527 342.82460704 152.46195087 342.79572222 C150.95148107 342.7891143 149.44094648 342.79100418 147.9305025 342.80203554 C145.86691977 342.81571649 143.80579556 342.7985515 141.74236926 342.77363512 C140.58832599 342.77174999 139.43428272 342.76986486 138.24526843 342.76792261 C134.22386606 341.94340645 132.73329041 340.27981693 130.1764513 337.13871691 C128.92219186 333.45432983 129.01048271 331.66774177 130.1764513 327.95121691 C132.68080537 324.42946899 135.08521554 323.17433538 139.1764513 322.13871691 C143.49905599 321.78773618 147.78094374 321.85589018 152.1139513 321.95121691 C156.0945763 322.01309191 160.0752013 322.07496691 164.1764513 322.13871691 C164.1764513 311.24871691 164.1764513 300.35871691 164.1764513 289.13871691 C137.1164513 289.13871691 110.0564513 289.13871691 82.1764513 289.13871691 C82.23445911 298.82602159 82.29246692 308.51332628 82.35223255 318.49418566 C82.37777398 324.62374959 82.40205 330.75327505 82.42059192 336.88285753 C82.45027223 346.61647117 82.48518315 356.34986856 82.55364856 366.08329698 C82.60348572 373.17180812 82.63574276 380.26014402 82.64689377 387.34882548 C82.65341213 391.10231002 82.66872989 394.8552932 82.70510158 398.60861704 C82.74537736 402.79880816 82.74640055 406.98812779 82.74407825 411.17851183 C82.76205463 412.42288515 82.78003101 413.66725847 82.79855213 414.94934008 C82.74918612 423.15711606 82.74918612 423.15711606 80.26817188 427.40928575 C75.84520095 429.88338505 72.13620388 429.83151352 67.14129505 429.76982042 C66.13422504 429.77697573 65.12715503 429.78413103 64.08956775 429.79150316 C60.76389947 429.80839838 57.43957757 429.78898167 54.1139513 429.76762316 C51.80136878 429.76845177 49.48878632 429.77091087 47.17620715 429.77493212 C42.33073048 429.7777907 37.4857159 429.76308228 32.64031848 429.73564073 C26.42921535 429.70155851 20.21893858 429.70757596 14.0077959 429.72630331 C9.23281841 429.73687167 4.45803322 429.72793682 -0.31692639 429.71291849 C-2.60706137 429.70773506 -4.89721642 429.70822041 -7.18734875 429.71446344 C-10.38813594 429.71991343 -13.58774005 429.69954603 -16.78839245 429.67216417 C-17.73503766 429.67869005 -18.68168286 429.68521593 -19.65701428 429.69193956 C-20.53173382 429.67921511 -21.40645337 429.66649065 -22.30767956 429.6533806 C-23.06350827 429.65057368 -23.81933697 429.64776676 -24.59806958 429.64487478 C-27.92802274 428.88751786 -29.50917033 427.64153851 -31.8235487 425.13871691 C-32.32304168 422.41204634 -32.49278866 420.30359976 -32.44500867 417.57864305 C-32.45139749 416.81371776 -32.45778631 416.04879247 -32.46436873 415.26068762 C-32.47964007 412.69532987 -32.45914475 410.13151131 -32.43878308 407.56620714 C-32.44228362 405.72813837 -32.44794145 403.89007262 -32.45559826 402.05201647 C-32.46986453 397.05820887 -32.45276731 392.06495067 -32.42931309 387.07119557 C-32.40923334 381.85022007 -32.4150821 376.62926803 -32.41742077 371.40826342 C-32.41736718 362.6409947 -32.39759332 353.87394132 -32.36554089 345.10673448 C-32.32863548 334.96262727 -32.31986663 324.81880209 -32.3268384 314.67463651 C-32.33313752 304.92492877 -32.32240082 295.17531801 -32.30287305 285.42562982 C-32.29468652 281.27216706 -32.29199179 277.11875377 -32.29356518 272.9652836 C-32.29444235 268.07738779 -32.28027339 263.18976118 -32.25433865 258.30193636 C-32.24715988 256.50520497 -32.24510141 254.70844497 -32.24845639 252.91170236 C-32.25215476 250.4647759 -32.23748186 248.01864226 -32.21795788 245.57180712 C-32.22328581 244.85566679 -32.22861374 244.13952646 -32.23410311 243.40168491 C-32.19520479 240.58887984 -32.13926561 238.60983823 -30.54889813 236.23664877 C-26.29652427 233.53063648 -21.44153489 234.02031247 -16.5735487 234.07621691 C-15.82847058 234.08072863 -15.08339245 234.08524034 -14.3157362 234.08988878 C-12.4849723 234.10162445 -10.65424998 234.1195584 -8.8235487 234.13871691 C-8.82631408 232.96827491 -8.82907946 231.79783291 -8.83192864 230.59192297 C-8.89688989 202.81346199 -8.94636409 175.03500692 -8.97674469 147.25648593 C-8.98049685 143.83807906 -8.98437982 140.41967236 -8.98834363 137.00126573 C-8.98913056 136.32071712 -8.98991749 135.6401685 -8.99072827 134.9389972 C-9.0037853 123.91692251 -9.02744077 112.89489472 -9.05500709 101.87284786 C-9.08305304 90.56479398 -9.09949866 79.25676355 -9.10581419 67.94867316 C-9.10973048 61.59641449 -9.11895625 55.24426222 -9.14073887 48.8920376 C-9.16106622 42.91591348 -9.16739006 36.93993984 -9.16287175 30.96378443 C-9.16369863 28.76796071 -9.16968648 26.57213208 -9.18116513 24.37633821 C-9.19605031 21.38262307 -9.19251664 18.38947906 -9.18431225 15.39575121 C-9.19305078 14.5231792 -9.2017893 13.6506072 -9.21079263 12.75159362 C-9.15749573 5.57618824 -7.94714475 0.04143329 0 0 Z M124.8014513 469.88871691 C123.83480038 473.3686602 123.49094006 476.6025649 124.1764513 480.13871691 C125.92402559 483.15961671 128.00862896 485.55480574 131.1764513 487.13871691 C137.16167932 487.81856624 137.16167932 487.81856624 142.1139513 484.76371691 C145.23555898 480.79076167 145.51725308 478.341033 145.46160755 473.39652941 C145.03578502 470.02494834 143.64167956 468.39850948 141.1764513 466.13871691 C135.07125691 462.00294006 129.19597104 464.29569178 124.8014513 469.88871691 Z " fill="#D476E1" transform="translate(31.823548704385757,-0.1387169063091278)"/>
<path d="M0 0 C0.64976452 -0.00611336 1.29952903 -0.01222672 1.96898338 -0.01852533 C4.1556392 -0.03417941 6.34119437 -0.02123866 8.52785587 -0.00850582 C10.10754978 -0.01382873 11.68723863 -0.02089293 13.26691777 -0.02955288 C17.61513829 -0.0482413 21.96301967 -0.04185403 26.31125462 -0.03139985 C30.99778915 -0.02442533 35.68425277 -0.04039245 40.37076664 -0.05339718 C49.55481848 -0.07507194 58.73874658 -0.07490138 67.92281561 -0.06677163 C75.38550502 -0.06047912 82.84815827 -0.06160179 90.31084728 -0.06804371 C91.90231395 -0.06939619 91.90231395 -0.06939619 93.52593147 -0.070776 C95.68110768 -0.07262714 97.83628389 -0.0744897 99.99146009 -0.07636356 C120.21525552 -0.09295419 140.43898124 -0.08421214 160.66277248 -0.06737798 C179.17609993 -0.05268045 197.68926508 -0.06730795 216.20257162 -0.09614814 C235.19937861 -0.12552177 254.19611064 -0.13652033 273.19293934 -0.12696594 C275.34062007 -0.12594336 277.48830081 -0.12494875 279.63598156 -0.12398243 C281.22113764 -0.12326784 281.22113764 -0.12326784 282.83831708 -0.12253882 C290.2935384 -0.12037197 297.74868899 -0.13019319 305.20389462 -0.14475346 C314.28730089 -0.16224571 323.37050022 -0.16220422 332.45389824 -0.1394018 C337.09050736 -0.12823118 341.72675146 -0.12516061 346.36334515 -0.14370251 C350.60547657 -0.16044895 354.84692297 -0.15423623 359.08900953 -0.12948572 C360.62597783 -0.12458271 362.16300077 -0.12817158 363.69992357 -0.14097316 C365.78571494 -0.15709663 367.86912067 -0.14256996 369.95480347 -0.12025452 C371.11419967 -0.11998483 372.27359587 -0.11971514 373.46812528 -0.11943728 C377.48937721 0.69941506 378.99429504 2.35887892 381.5403223 5.50615788 C382.15556145 8.19850731 382.15556145 8.19850731 382.14159489 11.15662479 C382.15190487 12.84555851 382.15190487 12.84555851 382.16242313 14.5686121 C382.14444675 15.79428394 382.12647038 17.01995579 382.10794926 18.2827692 C382.10867939 19.58072422 382.10940952 20.87867924 382.11016178 22.21596622 C382.11159451 25.76755758 382.0822295 29.31830207 382.04729199 32.86969686 C382.0160038 36.58389713 382.01309584 40.29811751 382.00716496 44.01242924 C381.99163363 51.04251918 381.9506152 58.07221966 381.90041751 65.10213822 C381.84450158 73.10688352 381.81703195 81.11164757 381.79194033 89.1165396 C381.73969838 105.57997356 381.65177041 122.04301599 381.5403223 138.50615788 C380.39884235 138.50758289 379.2573624 138.50900791 378.08129215 138.51047611 C367.32515237 138.52714387 356.56939103 138.56991082 345.81345177 138.63824844 C340.28363271 138.67254274 334.75409064 138.69763226 329.22416019 138.70171452 C323.88765115 138.70599217 318.55176721 138.73441108 313.21545315 138.77958965 C311.17933829 138.79258164 309.1431487 138.79686634 307.10699749 138.79231167 C304.2550652 138.78741784 301.40496846 138.81344396 298.55326176 138.84673405 C297.71097019 138.83810841 296.86867863 138.82948277 296.00086308 138.82059574 C295.21988758 138.83588322 294.43891209 138.85117069 293.63427067 138.86692142 C292.96044 138.8696868 292.28660933 138.87245218 291.59235954 138.87530136 C288.2373471 139.90673072 286.69435115 141.79711911 284.5403223 144.50615788 C283.78590967 147.65892378 283.78590967 147.65892378 283.88089848 151.13237858 C283.87041477 151.77684437 283.85993107 152.42131016 283.84912968 153.08530521 C283.8204809 155.20134577 283.8266579 157.3157402 283.83329105 159.43193913 C283.82016959 160.90455001 283.80486397 162.37714291 283.78746891 163.84970951 C283.74765728 167.71476093 283.73743106 171.57934114 283.73343754 175.4445734 C283.72409868 179.39298099 283.68668056 183.34111255 283.65165043 187.289361 C283.58711393 195.0282957 283.55384178 202.76694803 283.5403223 210.50615788 C254.60699818 210.52921449 225.67367473 210.54679084 196.74034322 210.5572232 C193.28638116 210.55847318 189.83241911 210.55976758 186.37845707 210.56108952 C185.69113891 210.56135183 185.00382076 210.56161414 184.29567478 210.5618844 C173.31980241 210.56617797 162.34393555 210.5740287 151.36806639 210.58331067 C140.01680683 210.59282649 128.66555163 210.59817597 117.31428796 210.60024637 C110.97599905 210.60152384 104.6377224 210.60441239 98.29943752 210.61188793 C62.0342129 210.65301676 25.7972216 210.23526658 -10.4596777 209.50615788 C-10.55304375 182.84659518 -10.62361901 156.18705693 -10.66692638 129.52736378 C-10.68756759 117.14930862 -10.71571802 104.77135494 -10.76143551 92.39336491 C-10.80125548 81.60699849 -10.82709916 70.82070554 -10.83603168 60.03426766 C-10.84125461 54.32083337 -10.85356287 48.60760932 -10.88259792 42.89424229 C-10.90969048 37.51971116 -10.91813513 32.14547744 -10.91210842 26.77088451 C-10.91321142 24.795553 -10.92120179 22.82021182 -10.9364996 20.84493923 C-10.95633115 18.15284717 -10.95164204 15.46188562 -10.94069576 12.76976871 C-10.95234713 11.98377568 -10.96399849 11.19778265 -10.97600293 10.38797164 C-10.9397402 7.10027144 -10.81712358 4.98930986 -8.8326456 2.30693322 C-5.72182237 -0.05377877 -3.88551868 0.00399361 0 0 Z " fill="#FEF6F1" transform="translate(60.45967769622803,25.493842124938965)"/>
<path d="M0 0 C48.18 0 96.36 0 146 0 C146.08060607 50.24444933 146.08060607 50.24444933 146.09765625 71.25390625 C146.10953649 85.77654427 146.1235239 100.29915913 146.15087891 114.82177734 C146.17078944 125.39719241 146.18371089 135.97258874 146.18817699 146.54802203 C146.19078833 152.1496047 146.19694195 157.75113376 146.21146011 163.35269928 C146.22500711 168.62211259 146.22922848 173.89145006 146.22621536 179.16087914 C146.22676682 181.09749704 146.23076137 183.03411741 146.23841095 184.97072029 C146.24832707 187.60998904 146.24598108 190.24896953 146.24050903 192.88824463 C146.24633472 193.65867387 146.2521604 194.42910311 146.25816262 195.22287869 C146.21953442 202.09203794 146.21953442 202.09203794 144 205 C140.87944878 207.16461174 138.16262528 207.25833208 134.42750549 207.28088379 C132.72623001 207.29801422 132.72623001 207.29801422 130.99058533 207.31549072 C129.13041527 207.3188443 129.13041527 207.3188443 127.23266602 207.32226562 C125.92338135 207.33219543 124.61409668 207.34212524 123.26513672 207.35235596 C119.67631132 207.37855666 116.08756066 207.39148374 112.4986546 207.40037727 C110.25596379 207.40624462 108.01329329 207.41445519 105.77061272 207.42338562 C98.75202868 207.45071912 91.73349121 207.47006209 84.71485764 207.4777894 C76.61539199 207.48675621 68.5166005 207.52188301 60.41733986 207.57979059 C54.15394921 207.62301707 47.89074832 207.64319742 41.62721008 207.64587164 C37.88715581 207.64796775 34.14773595 207.6597809 30.40783882 207.69551086 C26.23705186 207.7345847 22.06767813 207.72589861 17.89672852 207.71289062 C16.65863937 207.73132019 15.42055023 207.74974976 14.14494324 207.76873779 C13.00793976 207.75759949 11.87093628 207.74646118 10.69947815 207.73498535 C9.71374597 207.73791847 8.72801378 207.74085159 7.71241093 207.7438736 C4.52066645 206.86854368 2.92172711 205.47262996 0.95296866 202.82263112 C-0.75096754 199.56371267 -0.66943417 196.22613785 -0.60127258 192.6477356 C-0.60554471 191.82181502 -0.60981683 190.99589445 -0.61421841 190.14494598 C-0.62243569 187.38529917 -0.59498512 184.62718187 -0.56762695 181.86767578 C-0.56621621 179.88652075 -0.56700898 177.90536311 -0.56983948 175.92420959 C-0.57127399 170.55054007 -0.54187808 165.17742863 -0.50696969 159.8038888 C-0.47571232 154.18649786 -0.47277593 148.56909412 -0.46684265 142.95162964 C-0.45130244 132.31629109 -0.41027137 121.68120953 -0.3600952 111.04598415 C-0.29375727 96.67313941 -0.26676866 82.30022439 -0.23758411 67.92726517 C-0.1905698 45.28465095 -0.09095841 22.64257905 0 0 Z " fill="#FEF6F1" transform="translate(355,218)"/>
<path d="M0 0 C123.75 0 247.5 0 375 0 C375 24.09 375 48.18 375 73 C251.25 73 127.5 73 0 73 C0 48.91 0 24.82 0 0 Z M19.625 30.75 C18.65834909 34.22994329 18.31448877 37.463848 19 41 C20.7475743 44.02089981 22.83217766 46.41608883 26 48 C31.98522802 48.67984933 31.98522802 48.67984933 36.9375 45.625 C40.05910768 41.65204477 40.34080179 39.20231609 40.28515625 34.2578125 C39.85933373 30.88623144 38.46522826 29.25979257 36 27 C29.89480561 22.86422316 24.01951974 25.15697487 19.625 30.75 Z " fill="#FE8354" transform="translate(137,439)"/>
<path d="M0 0 C0.69732855 0.00148362 1.39465711 0.00296725 2.11311683 0.00449583 C2.85089159 0.0021436 3.58866635 -0.00020863 4.34879792 -0.00263214 C6.85254609 -0.00935659 9.35624279 -0.00886289 11.85999927 -0.00845411 C13.66055013 -0.0117506 15.46110024 -0.0154757 17.2616494 -0.01959559 C22.23415646 -0.02964822 27.20665145 -0.03333761 32.17916724 -0.0359849 C37.53238299 -0.03987831 42.88558909 -0.04945727 48.23879871 -0.05819777 C61.17881554 -0.07798928 74.11883319 -0.08803168 87.05886137 -0.09692556 C93.14561192 -0.10130397 99.23236159 -0.10667192 105.31911144 -0.11191443 C125.5409085 -0.12892921 145.762705 -0.14342482 165.98450813 -0.15066317 C171.23590781 -0.15257321 176.48730749 -0.15449352 181.73870715 -0.15644911 C183.04399107 -0.15693285 184.34927498 -0.15741659 185.69411295 -0.15791499 C206.85308197 -0.16622061 228.01199456 -0.19156539 249.17093892 -0.22402979 C270.87174918 -0.25705538 292.57253071 -0.27510784 314.27336624 -0.27830741 C326.46677242 -0.28047666 338.66009629 -0.28928581 350.85347804 -0.31476858 C361.23506537 -0.33641418 371.61655042 -0.34455638 381.99815775 -0.3348018 C387.29886267 -0.33023925 392.5993563 -0.33225623 397.90003261 -0.35156325 C402.7478146 -0.36906882 407.59522917 -0.36830067 412.44301438 -0.35266595 C414.20146028 -0.35027057 415.95993079 -0.35471224 417.71833885 -0.3664946 C420.10010024 -0.38147159 422.48053566 -0.3720413 424.86226234 -0.35626772 C425.55256739 -0.36648993 426.24287245 -0.37671213 426.95409584 -0.38724411 C430.26144102 -0.33910054 431.93827973 -0.04228917 434.60282615 1.98271778 C436.78339444 4.97028019 436.66900392 7.01443041 436.65746936 10.69395372 C436.66088706 11.3507398 436.66430476 12.00752588 436.66782603 12.68421456 C436.67441089 14.88336096 436.65242115 17.08128469 436.63055286 19.28031847 C436.6294245 20.85724282 436.63005801 22.43416927 436.63232288 24.01109239 C436.63347142 28.29189462 436.60993964 32.57224931 436.58202705 36.85294744 C436.55703665 41.32657853 436.55467326 45.80021966 436.54992542 50.27390978 C436.53748868 58.74537499 436.50465766 67.21663393 436.46452746 75.68800828 C436.41983144 85.3323866 436.39782817 94.97677472 436.37774572 104.62123081 C436.33592561 124.46051111 436.26475511 144.29959376 436.1764513 164.13871691 C427.5964513 164.13871691 419.0164513 164.13871691 410.1764513 164.13871691 C410.16710559 160.13069933 410.15775989 156.12268175 410.14813098 151.99320909 C410.11440549 138.76965044 410.05908333 125.54625675 409.99254856 112.32282564 C409.95272742 104.30328204 409.92035062 96.28383701 409.9054552 88.26420519 C409.89245453 81.27484191 409.86553073 74.28569523 409.82183823 67.29645392 C409.79918738 63.5951369 409.78354276 59.89408736 409.78456745 56.19269487 C409.78545022 52.06209006 409.75525096 47.93227669 409.72234973 43.80180284 C409.7273801 42.57253572 409.73241046 41.3432686 409.73759326 40.07675096 C409.71672405 38.38987924 409.71672405 38.38987924 409.69543323 36.66892931 C409.69174606 35.69182875 409.68805889 34.71472818 409.68425998 33.70801851 C409.01132259 30.30323408 407.88810489 29.27698549 405.1764513 27.13871691 C402.14808164 26.5405141 402.14808164 26.5405141 398.71118698 26.63814566 C398.06082327 26.63263149 397.41045956 26.62711732 396.74038786 26.62143606 C394.55169607 26.60779384 392.36413081 26.62276194 390.17545947 26.63751146 C388.5943417 26.63362026 387.01322741 26.62798128 385.43212143 26.62074056 C381.08002404 26.60594192 376.72828685 26.61619312 372.37620088 26.63047728 C367.68562672 26.64155814 362.99510429 26.6296541 358.30453357 26.62063524 C349.11311936 26.60668137 339.92184227 26.61427462 330.73043456 26.62931082 C320.0343787 26.64614458 309.33835725 26.64296403 298.64229224 26.63921674 C279.56291189 26.6333343 260.48359748 26.64752518 241.4042345 26.67216417 C222.87556352 26.69608943 204.34698065 26.70316761 185.818297 26.69267198 C165.65740333 26.6812723 145.49655044 26.67932069 125.33565727 26.69377008 C123.1874507 26.69529598 121.03924413 26.69681633 118.89103755 26.69833109 C117.83398541 26.6990889 116.77693326 26.69984672 115.68784923 26.70062749 C108.22569964 26.70537741 100.7635682 26.7035139 93.30141887 26.69926569 C84.21286926 26.69434785 75.12440307 26.70028396 66.0358726 26.72015999 C61.39554744 26.73005681 56.75534953 26.73511143 52.1150175 26.72726747 C47.87190325 26.7202415 43.62904644 26.72694242 39.38596628 26.7448711 C37.84634366 26.74893571 36.3066978 26.74788229 34.76708367 26.74135224 C32.68303455 26.73326571 30.59986644 26.74343472 28.51587448 26.75840017 C26.77564101 26.75994387 26.77564101 26.75994387 25.00025132 26.76151875 C22.18981336 26.91812104 22.18981336 26.91812104 20.3042849 28.43931767 C18.33726017 31.40319488 18.75658213 34.84141624 18.77772388 38.28207323 C18.77107705 39.12176474 18.76443022 39.96145625 18.75758198 40.82659295 C18.73887589 43.6504014 18.74156236 46.47378897 18.74407825 49.29765245 C18.73506573 51.31777984 18.72473978 53.33790173 18.71319446 55.35801622 C18.68553842 60.85147933 18.67632827 66.34483893 18.67034039 71.83836266 C18.66097907 77.57595866 18.63477757 83.31347665 18.61033496 89.05102465 C18.56660444 99.92006969 18.53809775 110.78909966 18.51501158 121.65820602 C18.48799499 134.0305154 18.44408134 146.40274656 18.39872286 158.77500018 C18.30578273 184.22953174 18.23474431 209.68408447 18.1764513 235.13871691 C9.2664513 235.13871691 0.3564513 235.13871691 -8.8235487 235.13871691 C-8.89135557 206.05059538 -8.94507092 176.96248839 -8.97674469 147.87430366 C-8.98049685 144.44087552 -8.98437982 141.00744754 -8.98834363 137.57401964 C-8.98913056 136.89048041 -8.98991749 136.20694118 -8.99072827 135.50268864 C-9.00378537 124.43211511 -9.02744088 113.36158827 -9.05500709 102.29104245 C-9.08305284 90.9332644 -9.09949861 79.57552098 -9.10581419 68.21770611 C-9.10973051 61.83750197 -9.1189565 55.45740377 -9.14073887 49.07723352 C-9.16106589 43.07484475 -9.16739013 37.07260579 -9.16287175 31.07018587 C-9.16369864 28.86468685 -9.16968668 26.65918293 -9.18116513 24.45371363 C-9.1960498 21.44686211 -9.19251682 18.44057924 -9.18431225 15.43371508 C-9.19305078 14.55725212 -9.2017893 13.68078917 -9.21079263 12.77776673 C-9.15767302 5.59525186 -7.9617875 0.04150963 0 0 Z " fill="#6770E6" transform="translate(31.823548704385757,-0.1387169063091278)"/>
<path d="M0 0 C31.68 0 63.36 0 96 0 C96.1209091 33.73363964 96.1209091 33.73363964 96.14648438 47.84179688 C96.16430313 57.59306558 96.18527957 67.34425667 96.22631836 77.09545898 C96.25618909 84.19640176 96.27556746 91.29728172 96.28226548 98.39828557 C96.28618172 102.15938954 96.29540669 105.92031379 96.31719017 109.68136024 C96.34129211 113.8766037 96.3419715 118.07153329 96.34057617 122.2668457 C96.351362 123.51840958 96.36214783 124.76997345 96.3732605 126.0594635 C96.36913651 127.19949829 96.36501251 128.33953308 96.36076355 129.51411438 C96.36352893 130.50688542 96.36629431 131.49965647 96.36914349 132.52251148 C96 135 96 135 94.71507835 136.81947899 C91.65000937 138.9292242 87.93191285 138.4051388 84.33764648 138.37231445 C83.45284607 138.37596512 82.56804565 138.37961578 81.65643311 138.38337708 C78.72779225 138.39149224 75.79970296 138.37786549 72.87109375 138.36328125 C70.83993022 138.36276281 68.80876618 138.3632799 66.77760315 138.36479187 C62.51970942 138.36470211 58.26200488 138.35426326 54.00415039 138.33618164 C48.53722166 138.31347997 43.07056913 138.31295254 37.60360622 138.31969929 C33.40954621 138.32303506 29.21554956 138.31641682 25.02150154 138.30657005 C23.00520217 138.30271207 20.98889575 138.3015723 18.97259331 138.3031559 C16.15924432 138.30352534 13.34625424 138.29094108 10.53295898 138.2746582 C9.27443871 138.27837433 9.27443871 138.27837433 7.99049377 138.28216553 C2.22874215 138.22874215 2.22874215 138.22874215 0 136 C-0.24609566 133.62994194 -0.24609566 133.62994194 -0.24050903 130.59640503 C-0.24325836 129.44933075 -0.24600769 128.30225647 -0.24884033 127.12042236 C-0.24164978 125.85591248 -0.23445923 124.59140259 -0.22705078 123.28857422 C-0.22648686 121.94839486 -0.22680286 120.60821489 -0.22793579 119.26803589 C-0.22851104 115.62358864 -0.21672908 111.9792723 -0.20278788 108.33485556 C-0.19030903 104.52851107 -0.18911227 100.72216379 -0.18673706 96.915802 C-0.1805139 89.70514863 -0.16409181 82.49455571 -0.14403808 75.28392899 C-0.11753142 65.5421695 -0.10671319 55.80039355 -0.09503365 46.0586071 C-0.07621177 30.70569277 -0.03637172 15.352906 0 0 Z " fill="#FEF5F0" transform="translate(9,275)"/>
<path d="M0 0 C75.9 0 151.8 0 230 0 C230 8.58 230 17.16 230 26 C214.16 26 198.32 26 182 26 C182 36.89 182 47.78 182 59 C189.91255096 58.88188892 189.91255096 58.88188892 197.82446289 58.72973633 C203.97468089 58.68354637 208.65435986 58.81930705 214 62 C216.01471597 65.02207395 216.33719034 65.91726699 216.4375 69.375 C216.47746094 70.12523437 216.51742187 70.87546875 216.55859375 71.6484375 C215.7083588 75.22774827 213.7912718 76.67734261 211 79 C207.93118286 79.6292057 207.93118286 79.6292057 204.43408203 79.63491821 C203.46516368 79.64661814 203.46516368 79.64661814 202.47667122 79.65855443 C200.31979868 79.6784428 198.16469699 79.66272522 196.0078125 79.64697266 C194.45854668 79.6537503 192.90928891 79.66265426 191.36004639 79.67352295 C187.15746028 79.69630589 182.9554883 79.6874844 178.75289154 79.67162752 C174.35363619 79.6589632 169.95443321 79.67071011 165.55517578 79.67855835 C158.16754725 79.68765338 150.7801687 79.67567092 143.39257812 79.65185547 C134.8530658 79.62464435 126.31415035 79.63345863 117.77465248 79.6609875 C110.44114894 79.68368181 103.10782503 79.68687711 95.77429771 79.67379415 C91.39502555 79.66600137 87.01603389 79.66495316 82.63677979 79.68147659 C78.51940235 79.69592693 74.40279397 79.68589013 70.28549957 79.65700531 C68.77502977 79.65039739 67.26449518 79.65228728 65.75405121 79.66331863 C63.69046847 79.67699958 61.62934426 79.6598346 59.56591797 79.63491821 C58.41187469 79.63303308 57.25783142 79.63114796 56.06881714 79.6292057 C52.04741477 78.80468955 50.55683912 77.14110003 48 74 C46.74574057 70.31561292 46.83403142 68.52902486 48 64.8125 C50.50435407 61.29075208 52.90876424 60.03561848 57 59 C61.32260469 58.64901928 65.60449244 58.71717327 69.9375 58.8125 C73.918125 58.874375 77.89875 58.93625 82 59 C82 48.11 82 37.22 82 26 C54.94 26 27.88 26 0 26 C0 17.42 0 8.84 0 0 Z " fill="#5761C7" transform="translate(114,263)"/>
<path d="M0 0 C114.84 0 229.68 0 348 0 C348 11.55 348 23.1 348 35 C233.16 35 118.32 35 0 35 C0 23.45 0 11.9 0 0 Z " fill="#FE8455" transform="translate(72,26)"/>
<path d="M0 0 C1.2869426 0.00188828 1.2869426 0.00188828 2.59988403 0.0038147 C3.9995491 0.01380745 3.9995491 0.01380745 5.42749023 0.02400208 C6.91102493 0.02877563 6.91102493 0.02877563 8.42453003 0.03364563 C11.69510985 0.04623611 14.96555851 0.0671111 18.23608398 0.0896759 C19.91107468 0.10011146 19.91107468 0.10011146 21.61990356 0.11075783 C27.5249003 0.14813908 33.42980669 0.19215211 39.3347168 0.24128723 C45.44142367 0.29073013 51.5479997 0.31685038 57.65486145 0.33771801 C62.34580025 0.35805787 67.03648035 0.39592226 71.7272644 0.43857765 C73.9791147 0.45594541 76.23102679 0.46661889 78.48294067 0.47052574 C81.62899399 0.47758552 84.77386711 0.50944909 87.91967773 0.54743958 C89.3193428 0.5422506 89.3193428 0.5422506 90.74728394 0.53695679 C94.44505888 0.60314892 96.96988542 0.72068239 100.23739624 2.5247345 C102.48931342 6.57714227 102.34488544 10.45152233 102.40649414 15.02253723 C102.43478617 16.06751027 102.46307819 17.11248331 102.49222755 18.1891222 C102.57936269 21.82915395 102.63009116 25.46839777 102.67358398 29.10920715 C102.69185037 30.46741188 102.71018023 31.82561575 102.72856903 33.18381882 C102.87112851 44.28755686 102.91556603 55.39140489 102.94702148 66.4959259 C102.95239891 68.26157443 102.95777636 70.02722295 102.96315384 71.79287148 C102.98464982 79.12746699 103.00339317 86.46206077 103.01477623 93.7966795 C103.03110845 104.23818768 103.06465975 114.67933009 103.12117708 125.12070054 C103.15982219 132.51398269 103.17939981 139.90716644 103.18469679 147.30054694 C103.18834466 151.69972668 103.20031523 156.09851026 103.23279953 160.49757957 C103.26280083 164.61592968 103.26922098 168.73364148 103.25741577 172.85207748 C103.25719468 174.36098804 103.2655292 175.86992788 103.28306961 177.3787365 C103.30572204 179.43901305 103.29749082 181.49696296 103.28158569 183.55725098 C103.28655091 185.28448411 103.28655091 185.28448411 103.29161644 187.04661083 C102.4718952 191.1086552 100.91177419 192.59609663 97.67358398 195.10920715 C95.44810486 195.73561954 95.44810486 195.73561954 93.15771484 195.73739624 C92.2829953 195.7500502 91.40827576 195.76270416 90.50704956 195.77574158 C89.56040436 195.76404938 88.61375916 195.75235718 87.63842773 195.74031067 C86.63135773 195.74746597 85.62428772 195.75462128 84.58670044 195.76199341 C81.26103215 195.77888862 77.93671026 195.75947192 74.61108398 195.7381134 C72.29850147 195.73894202 69.98591901 195.74140112 67.67333984 195.74542236 C62.82786317 195.74828095 57.98284859 195.73357252 53.13745117 195.70613098 C46.92634804 195.67204876 40.71607127 195.67806621 34.50492859 195.69679356 C29.7299511 195.70736192 24.95516591 195.69842707 20.1802063 195.68340874 C17.89007132 195.67822531 15.59991627 195.67871066 13.30978394 195.68495369 C10.10899675 195.69040368 6.90939263 195.67003627 3.70874023 195.64265442 C2.76209503 195.6491803 1.81544983 195.65570618 0.84011841 195.66242981 C-0.03460114 195.64970535 -0.90932068 195.6369809 -1.81054688 195.62387085 C-2.94428993 195.61966047 -2.94428993 195.61966047 -4.10093689 195.61536503 C-7.43089005 194.85800811 -9.01203764 193.61202876 -11.32641602 191.10920715 C-11.82590899 188.38253659 -11.99565597 186.27409001 -11.94787598 183.5491333 C-11.9542648 182.78420801 -11.96065362 182.01928271 -11.96723604 181.23117787 C-11.98250738 178.66582011 -11.96201206 176.10200156 -11.94165039 173.53669739 C-11.94515093 171.69862862 -11.95080876 169.86056287 -11.95846558 168.02250671 C-11.97273184 163.02869912 -11.95563462 158.03544092 -11.9321804 153.04168582 C-11.91210065 147.82071032 -11.91794941 142.59975827 -11.92028809 137.37875366 C-11.92023449 128.61148495 -11.90046063 119.84443156 -11.8684082 111.07722473 C-11.83150279 100.93311752 -11.82273394 90.78929234 -11.82970572 80.64512676 C-11.83600483 70.89541902 -11.82526813 61.14580825 -11.80574036 51.39612007 C-11.79755383 47.2426573 -11.7948591 43.08924401 -11.7964325 38.93577385 C-11.79730966 34.04787804 -11.7831407 29.16025142 -11.75720596 24.27242661 C-11.75002719 22.47569521 -11.74796873 20.67893521 -11.7513237 18.88219261 C-11.75502207 16.43526615 -11.74034917 13.9891325 -11.7208252 11.54229736 C-11.72615312 10.82615704 -11.73148105 10.11001671 -11.73697042 9.37217516 C-11.6980721 6.55937009 -11.64213292 4.58032848 -10.05176544 2.20713902 C-6.81936737 0.15019172 -3.7592087 -0.01568247 0 0 Z M-2.32641602 41.10920715 C-2.3846532 65.23224748 -2.3846532 65.23224748 -2.42407227 89.3553009 C-2.43595502 99.18784157 -2.44994937 109.02034805 -2.47729492 118.8528595 C-2.49719812 126.012756 -2.51012514 133.17262486 -2.51459301 140.33254826 C-2.51720561 144.12543416 -2.52336708 147.91824094 -2.53787613 151.71110153 C-2.55141162 155.2782291 -2.55564689 158.84524467 -2.55263138 162.41239548 C-2.55344732 164.35148798 -2.56423 166.29056819 -2.57525635 168.22962952 C-2.57250702 169.3767038 -2.56975769 170.52377808 -2.56692505 171.70561218 C-2.56876863 172.70667936 -2.57061222 173.70774654 -2.57251167 174.73914909 C-2.55854509 177.29727502 -2.55854509 177.29727502 -0.32641602 179.10920715 C2.54935744 179.31320633 5.32922422 179.39236143 8.20654297 179.38386536 C9.08959106 179.38897629 9.97263916 179.39408722 10.88244629 179.39935303 C13.81159172 179.41329264 16.74050301 179.41228897 19.66967773 179.4099884 C21.69987578 179.41387298 23.730073 179.41820715 25.76026917 179.42297363 C30.01989372 179.43044528 34.2794354 179.43013776 38.5390625 179.42488098 C44.00485134 179.41908557 49.4703014 179.4360146 54.9360342 179.45922565 C59.13013196 179.47393889 63.32414769 179.47483798 67.51826668 179.47171593 C69.53374973 179.47223037 71.54923723 179.47749103 73.56469536 179.48752785 C76.38043264 179.49982809 79.1955043 179.49313923 82.01123047 179.48152161 C82.84821976 179.48916534 83.68520905 179.49680908 84.54756165 179.50468445 C88.69529085 179.55706915 88.69529085 179.55706915 92.38866234 177.92868614 C94.16484034 175.41357671 94.04289056 173.69026828 94.03434753 170.62332153 C94.03847153 169.48328674 94.04259552 168.34325195 94.04684448 167.16867065 C94.03605865 165.91710678 94.02527283 164.66554291 94.01416016 163.37605286 C94.01459824 162.05888275 94.01503632 160.74171265 94.01548767 159.3846283 C94.01634947 155.77116241 93.99869411 152.15799443 93.9777658 148.54459786 C93.95902963 144.76896434 93.95725098 140.99332421 93.95368958 137.21765137 C93.94436009 130.06720151 93.91973415 122.91688903 93.88964111 115.7664997 C93.84985994 106.10467685 93.83364952 96.44281651 93.81613445 86.78093243 C93.78791363 71.55692108 93.72815027 56.33319964 93.67358398 41.10920715 C61.99358398 41.10920715 30.31358398 41.10920715 -2.32641602 41.10920715 Z " fill="#D376E1" transform="translate(11.326416015625,233.8907928466797)"/>
<path d="M0 0 C76.89 0 153.78 0 233 0 C233 8.91 233 17.82 233 27 C156.77 27 80.54 27 2 27 C1.67 19.08 1.34 11.16 1 3 C0.67 2.01 0.34 1.02 0 0 Z " fill="#FE8355" transform="translate(111,236)"/>
<path d="M0 0 C28.71 0 57.42 0 87 0 C87 22.77 87 45.54 87 69 C58.29 69 29.58 69 0 69 C0 46.23 0 23.46 0 0 Z " fill="#6871E6" transform="translate(305,89)"/>
<path d="M0 0 C28.71 0 57.42 0 87 0 C87 22.77 87 45.54 87 69 C58.29 69 29.58 69 0 69 C0 46.23 0 23.46 0 0 Z " fill="#D477E2" transform="translate(202,89)"/>
<path d="M0 0 C28.71 0 57.42 0 87 0 C87 22.77 87 45.54 87 69 C58.29 69 29.58 69 0 69 C0 46.23 0 23.46 0 0 Z " fill="#6AEBFB" transform="translate(99,89)"/>
<path d="M0 0 C75.9 0 151.8 0 230 0 C230 8.58 230 17.16 230 26 C154.1 26 78.2 26 0 26 C0 17.42 0 8.84 0 0 Z " fill="#666FE5" transform="translate(114,263)"/>
<path d="M0 0 C28.38 0 56.76 0 86 0 C86 22.44 86 44.88 86 68 C57.62 68 29.24 68 0 68 C0 45.56 0 23.12 0 0 Z " fill="#69EBFC" transform="translate(385,247)"/>
<path d="M0 0 C1.12302017 -0.0071553 2.24604034 -0.01431061 3.40309143 -0.02168274 C5.26002121 -0.02571609 5.26002121 -0.02571609 7.15446472 -0.02983093 C8.45370377 -0.03640213 9.75294281 -0.04297333 11.09155273 -0.04974365 C14.66189791 -0.06715818 18.23222969 -0.07770663 21.80260682 -0.08594918 C24.03288331 -0.09109839 26.26315563 -0.09717416 28.49342918 -0.10346031 C35.47037057 -0.12251368 42.44730137 -0.13674449 49.42426378 -0.14507228 C57.47999984 -0.15484624 65.53546124 -0.18116903 73.59110051 -0.22157317 C79.81622293 -0.25172544 86.04126657 -0.26654029 92.2664606 -0.26985329 C95.98516594 -0.27220482 99.70357791 -0.28117798 103.42220497 -0.30631447 C107.57141558 -0.33390816 111.72001198 -0.32976683 115.86930847 -0.32279968 C117.71712921 -0.34201477 117.71712921 -0.34201477 119.60227966 -0.36161804 C120.73375931 -0.35467422 121.86523895 -0.34773041 123.03100586 -0.34057617 C124.01196134 -0.34296453 124.99291681 -0.34535288 126.00359821 -0.34781361 C129.47965821 0.28888299 131.16876136 1.74015637 133.70597839 4.14717102 C138.3295893 13.39439283 134.70597839 24.80846274 134.70597839 35.14717102 C86.52597839 35.14717102 38.34597839 35.14717102 -11.29402161 35.14717102 C-11.29402161 6.14717102 -11.29402161 6.14717102 -7.29402161 1.14717102 C-4.72257957 -0.13855 -2.88037343 0.01256268 0 0 Z " fill="#FE8457" transform="translate(366.2940216064453,182.8528289794922)"/>
<path d="M0 0 C5.94 0 11.88 0 18 0 C18 68.97 18 137.94 18 209 C10.74 209 3.48 209 -4 209 C-4.09252351 182.34043182 -4.16394131 155.6809022 -4.20724869 129.0212059 C-4.22788989 116.64315075 -4.25604033 104.26519706 -4.30175781 91.88720703 C-4.34157779 81.10084061 -4.36742147 70.31454767 -4.37635398 59.52810979 C-4.38157691 53.8146755 -4.39388517 48.10145144 -4.42292023 42.38808441 C-4.45001278 37.01355328 -4.45845744 31.63931957 -4.45243073 26.26472664 C-4.45353372 24.28939512 -4.46152409 22.31405395 -4.4768219 20.33878136 C-4.49665346 17.6466893 -4.49196434 14.95572775 -4.48101807 12.26361084 C-4.49266943 11.47761781 -4.5043208 10.69162477 -4.51632524 9.88181376 C-4.4576007 4.55765196 -4.06313343 4.06313343 0 0 Z " fill="#A2F0FB" transform="translate(54,26)"/>
<path d="M0 0 C1.46749257 -0.00406935 2.93498208 -0.00941327 4.40246582 -0.01593018 C8.37354597 -0.02956649 12.34439139 -0.02432046 16.31547546 -0.01479292 C20.47887792 -0.00717716 24.64226079 -0.01424725 28.80566406 -0.01895142 C35.79626052 -0.0244034 42.78676176 -0.01723202 49.77734375 -0.00292969 C57.84980525 0.01339578 65.9220394 0.00810688 73.99449539 -0.0084089 C80.93568487 -0.02203969 87.87680606 -0.02393566 94.81800461 -0.0160929 C98.95915196 -0.01142512 103.10019259 -0.01076682 107.24133301 -0.02070236 C111.13531594 -0.02939298 115.02900686 -0.02331214 118.92295837 -0.00601959 C120.34874487 -0.00206589 121.77455611 -0.00316962 123.20033264 -0.00980759 C136.89183131 -0.0676553 136.89183131 -0.0676553 142.546875 3.38818359 C144.56159097 6.41025754 144.88406534 7.30545058 144.984375 10.76318359 C145.02433594 11.51341797 145.06429687 12.26365234 145.10546875 13.03662109 C144.2552338 16.61593187 142.3381468 18.06552621 139.546875 20.38818359 C136.47805786 21.0173893 136.47805786 21.0173893 132.98095703 21.02310181 C132.01203868 21.03480174 132.01203868 21.03480174 131.02354622 21.04673803 C128.86667368 21.06662639 126.71157199 21.05090881 124.5546875 21.03515625 C123.00542168 21.04193389 121.45616391 21.05083785 119.90692139 21.06170654 C115.70433528 21.08448949 111.5023633 21.075668 107.29976654 21.05981112 C102.90051119 21.04714679 98.50130821 21.0588937 94.10205078 21.06674194 C86.71442225 21.07583698 79.3270437 21.06385451 71.93945312 21.04003906 C63.3999408 21.01282795 54.86102535 21.02164222 46.32152748 21.04917109 C38.98802394 21.07186541 31.65470003 21.0750607 24.32117271 21.06197774 C19.94190055 21.05418496 15.56290889 21.05313676 11.18365479 21.06966019 C7.06627735 21.08411053 2.94966897 21.07407372 -1.16762543 21.0451889 C-2.67809523 21.03858098 -4.18862982 21.04047087 -5.69907379 21.05150223 C-7.76265653 21.06518318 -9.82378074 21.04801819 -11.88720703 21.02310181 C-13.04125031 21.02121668 -14.19529358 21.01933155 -15.38430786 21.0173893 C-19.40571023 20.19287314 -20.89628588 18.52928362 -23.453125 15.38818359 C-24.70738443 11.70379651 -24.61909358 9.91720846 -23.453125 6.20068359 C-17.99699518 -1.47199897 -8.46605355 -0.03941528 0 0 Z " fill="#666FE5" transform="translate(185.453125,321.61181640625)"/>
<path d="M0 0 C5.61 0 11.22 0 17 0 C22 5 22 5 22.61523914 7.69234943 C22.61063018 8.6685282 22.60602121 9.64470697 22.60127258 10.65046692 C22.61158257 12.33940063 22.61158257 12.33940063 22.62210083 14.06245422 C22.60412445 15.28812607 22.58614807 16.51379791 22.56762695 17.77661133 C22.56835709 19.07456635 22.56908722 20.37252136 22.56983948 21.70980835 C22.57127221 25.26139971 22.54190719 28.81214419 22.50696969 32.36353898 C22.4756815 36.07773925 22.47277354 39.79195964 22.46684265 43.50627136 C22.45131133 50.53636131 22.41029289 57.56606179 22.3600952 64.59598035 C22.30417927 72.60072565 22.27670965 80.60548969 22.25161803 88.61038172 C22.19937606 105.07382212 22.1104392 121.53684597 22 138 C14.74 138 7.48 138 0 138 C0 92.46 0 46.92 0 0 Z " fill="#A0F0FB" transform="translate(420,26)"/>
<path d="M0 0 C0.8260675 0.00607269 1.65213501 0.01214539 2.50323486 0.0184021 C3.37667542 0.01314514 4.25011597 0.00788818 5.15002441 0.00247192 C8.04137986 -0.01074755 10.93218617 -0.00198311 13.82354736 0.00814819 C15.8298961 0.00612802 17.83624412 0.00321705 19.84259033 -0.00054932 C24.04920436 -0.00497531 28.25562739 0.00146729 32.46221924 0.01547241 C37.8596212 0.03256439 43.25657565 0.02272469 48.65396118 0.00475502 C52.79745874 -0.00607535 56.94084986 -0.0026399 61.08435059 0.0051384 C63.07470757 0.00714247 65.06507415 0.00467389 67.05541992 -0.00230026 C69.83516104 -0.00990242 72.61417317 0.00167206 75.39385986 0.0184021 C76.63296112 0.00929306 76.63296112 0.00929306 77.89709473 0 C83.60575063 0.06378896 83.60575063 0.06378896 86.94854736 3.40658569 C86.94854736 10.66658569 86.94854736 17.92658569 86.94854736 25.40658569 C55.26854736 25.40658569 23.58854736 25.40658569 -9.05145264 25.40658569 C-9.05145264 18.14658569 -9.05145264 10.88658569 -9.05145264 3.40658569 C-5.68429038 0.03942344 -4.56105597 0.05096559 0 0 Z " fill="#FE855A" transform="translate(18.05145263671875,249.59341430664063)"/>
<path d="M0 0 C1.05997192 -0.00845947 2.11994385 -0.01691895 3.21203613 -0.02563477 C4.37473022 -0.01956207 5.53742432 -0.01348938 6.73535156 -0.00723267 C7.95992065 -0.01248962 9.18448975 -0.01774658 10.44616699 -0.02316284 C13.80578243 -0.03411571 17.1648447 -0.03153262 20.52442932 -0.02202559 C24.03842926 -0.0144359 27.55240539 -0.02147267 31.06640625 -0.02618408 C36.96781666 -0.03164367 42.86911449 -0.02444477 48.77050781 -0.01016235 C55.59556984 0.00616465 62.42036303 0.00087627 69.24541855 -0.01564157 C75.1028257 -0.02925073 80.96015188 -0.03117892 86.81756973 -0.02332556 C90.31702329 -0.01864587 93.81635044 -0.01803221 97.3157959 -0.02793503 C101.21617096 -0.03820121 105.11624432 -0.02397653 109.01660156 -0.00723267 C110.17929565 -0.01330536 111.34198975 -0.01937805 112.53991699 -0.02563477 C114.12987488 -0.01294556 114.12987488 -0.01294556 115.75195312 0 C117.13571136 0.00169662 117.13571136 0.00169662 118.54742432 0.00342751 C121.33890287 0.45600423 122.22947383 1.11163723 123.87597656 3.38095093 C124.31347656 6.38095093 124.31347656 6.38095093 123.87597656 9.38095093 C120.92075122 12.26501155 118.77589712 12.75682871 114.71435547 12.76190186 C113.14974579 12.77459106 113.14974579 12.77459106 111.55352783 12.78753662 C110.41470154 12.78146393 109.27587524 12.77539124 108.10253906 12.76913452 C106.29713654 12.77701996 106.29713654 12.77701996 104.45526123 12.7850647 C101.15761523 12.7960056 97.86053396 12.79344213 94.56291962 12.78392744 C91.11078638 12.77632816 87.65867716 12.78337719 84.20654297 12.78808594 C78.40946117 12.79354272 72.61249407 12.78635397 66.81542969 12.77206421 C60.11476513 12.75573774 53.41437443 12.76102631 46.71371651 12.77754343 C40.95903239 12.79116055 35.20443067 12.79307688 29.44973564 12.78522742 C26.01342149 12.78055211 22.57723604 12.77992203 19.14093018 12.78983688 C15.31031665 12.80011755 11.48000948 12.78586537 7.64941406 12.76913452 C5.94117462 12.77824356 5.94117462 12.77824356 4.19842529 12.78753662 C3.15535217 12.77907715 2.11227905 12.77061768 1.03759766 12.76190186 C0.13206146 12.76077078 -0.77347473 12.7596397 -1.70645142 12.75847435 C-4.63414907 12.30129068 -6.01384439 11.4403148 -8.12402344 9.38095093 C-8.57920163 6.25972902 -8.81171817 4.32877509 -6.91693115 1.71726036 C-4.51032605 -0.07645667 -2.987879 0.00366342 0 0 Z " fill="#FFAA89" transform="translate(370.1240234375,194.61904907226563)"/>
<path d="M0 0 C1.06701141 -0.00708481 2.13402283 -0.01416962 3.23336792 -0.02146912 C4.99682808 -0.01775299 4.99682808 -0.01775299 6.7959137 -0.01396179 C8.64717865 -0.02162819 8.64717865 -0.02162819 10.5358429 -0.02944946 C13.92639405 -0.04099237 17.31670125 -0.04341512 20.70725513 -0.04088616 C23.53538543 -0.03981824 26.36349305 -0.04469526 29.1916185 -0.04949158 C35.86263121 -0.06059634 42.53358762 -0.06101884 49.2046051 -0.05497742 C56.09155024 -0.04893643 62.97829113 -0.06124945 69.86520141 -0.08254749 C75.77353325 -0.10014884 81.68179999 -0.10616716 87.59015709 -0.10290974 C91.1209363 -0.10109429 94.65156984 -0.10375884 98.18232536 -0.11762428 C102.11870756 -0.13250344 106.0548286 -0.1232453 109.9912262 -0.11161804 C111.16484207 -0.11926178 112.33845795 -0.12690552 113.54763794 -0.13478088 C115.1523848 -0.12425941 115.1523848 -0.12425941 116.78955078 -0.11352539 C117.72072944 -0.11369313 118.65190809 -0.11386087 119.61130428 -0.1140337 C121.95826721 0.26069641 121.95826721 0.26069641 123.79303074 1.59267902 C124.95826721 3.26069641 124.95826721 3.26069641 124.77076721 6.32319641 C123.95826721 9.26069641 123.95826721 9.26069641 121.95826721 11.26069641 C119.73714542 11.51796532 119.73714542 11.51796532 116.91653442 11.52812195 C115.84952301 11.53665192 114.7825116 11.54518188 113.6831665 11.55397034 C112.5075264 11.55306396 111.33188629 11.55215759 110.12062073 11.55122375 C108.26935577 11.56129959 108.26935577 11.56129959 106.38069153 11.57157898 C102.9901458 11.58735514 99.59984495 11.59393591 96.2092793 11.59521055 C93.38114728 11.59710746 90.55303887 11.60446255 87.72491592 11.61155474 C81.05390826 11.62785053 74.3829546 11.63272259 67.71192932 11.63130188 C60.82493308 11.63009994 53.93824998 11.65120908 47.05133301 11.68278921 C41.14299941 11.70891892 35.23476829 11.71967058 29.32637733 11.71839106 C25.7955427 11.71788047 22.26498627 11.72361672 18.73420906 11.74474716 C14.79778365 11.76766136 10.86178958 11.75862886 6.92530823 11.74653625 C5.16488441 11.76339478 5.16488441 11.76339478 3.36889648 11.78059387 C1.76414963 11.76801041 1.76414963 11.76801041 0.12698364 11.75517273 C-1.26978434 11.75680703 -1.26978434 11.75680703 -2.69476986 11.75847435 C-5.04173279 11.26069641 -5.04173279 11.26069641 -6.87649632 9.39385414 C-8.04173279 7.26069641 -8.04173279 7.26069641 -7.85423279 4.63569641 C-6.31394278 0.13331023 -4.39292278 0.00968853 0 0 Z " fill="#FFAB8B" transform="translate(111.04173278808594,37.73930358886719)"/>
<path d="M0 0 C12.21 0 24.42 0 37 0 C37 9.9 37 19.8 37 30 C24.79 30 12.58 30 0 30 C0 20.1 0 10.2 0 0 Z " fill="#6EEBFB" transform="translate(17,283)"/>
<path d="M0 0 C12.21 0 24.42 0 37 0 C37 9.57 37 19.14 37 29 C24.79 29 12.58 29 0 29 C0 19.43 0 9.86 0 0 Z " fill="#6871E6" transform="translate(17,362)"/>
<path d="M0 0 C12.21 0 24.42 0 37 0 C37 9.57 37 19.14 37 29 C24.79 29 12.58 29 0 29 C0 19.43 0 9.86 0 0 Z " fill="#D476E2" transform="translate(17,322)"/>
<path d="M0 0 C0.69787628 -0.00350464 1.39575256 -0.00700928 2.11477661 -0.01062012 C4.421671 -0.01942276 6.72825873 -0.01359359 9.03515625 -0.00683594 C10.63794005 -0.00818301 12.24072346 -0.0101239 13.84350586 -0.01263428 C17.20267629 -0.01558355 20.56174037 -0.01129426 23.92089844 -0.00195312 C28.228617 0.00944134 32.53608636 0.00288081 36.84379578 -0.00909805 C40.15346151 -0.01632199 43.46306808 -0.01402627 46.7727356 -0.00884247 C48.36117584 -0.00750745 49.94962143 -0.00914854 51.53805542 -0.01380157 C53.75728607 -0.01887561 55.97611202 -0.01114452 58.1953125 0 C59.45867432 0.00159119 60.72203613 0.00318237 62.02368164 0.00482178 C65.09765625 0.25878906 65.09765625 0.25878906 68.09765625 2.25878906 C68.53515625 5.69628906 68.53515625 5.69628906 68.09765625 9.25878906 C65.76990642 11.73807217 64.33587468 12.23003688 60.94139099 12.63973999 C59.69801468 12.64212677 58.45463837 12.64451355 57.17358398 12.64697266 C56.48531525 12.65222961 55.79704651 12.65748657 55.08792114 12.66290283 C52.81879817 12.67607897 50.55037978 12.66737474 48.28125 12.65722656 C46.70231492 12.65924777 45.12338074 12.66215959 43.54444885 12.66592407 C40.23828223 12.67034397 36.93235901 12.66392643 33.6262207 12.64990234 C29.38680151 12.63279642 25.14795151 12.64266231 20.90855312 12.66061974 C17.64947715 12.67145476 14.39053639 12.66801282 11.13145638 12.66023636 C9.56813553 12.65823429 8.00480243 12.66069388 6.4414959 12.66767502 C4.25811046 12.6752867 2.07565041 12.66369127 -0.10766602 12.64697266 C-1.35024673 12.64458588 -2.59282745 12.6421991 -3.87306213 12.63973999 C-6.90234375 12.25878906 -6.90234375 12.25878906 -8.80357361 10.95718384 C-10.65582437 8.0941164 -10.26114201 5.54777316 -9.90234375 2.25878906 C-6.21673771 -0.19828163 -4.39753792 0.00553864 0 0 Z " fill="#FFAF90" transform="translate(398.90234375,329.7412109375)"/>
<path d="M0 0 C0.70762985 -0.00525696 1.4152597 -0.01051392 2.14433289 -0.01593018 C4.48381614 -0.02913588 6.82261918 -0.02039056 9.16210938 -0.01025391 C10.78731416 -0.01227449 12.41251805 -0.0151858 14.03771973 -0.01895142 C17.44401684 -0.02337552 20.85007797 -0.01694107 24.25634766 -0.00292969 C28.62470534 0.01416243 32.99251009 0.00432168 37.36084747 -0.01364708 C40.71685967 -0.02448268 44.07274058 -0.02103965 47.42875671 -0.0132637 C49.03952601 -0.01126107 50.6503072 -0.01372321 52.26106262 -0.02070236 C54.51160298 -0.02831338 56.76124535 -0.01671869 59.01171875 0 C60.29284546 0.00238678 61.57397217 0.00477356 62.8939209 0.00723267 C66.00585938 0.38818359 66.00585938 0.38818359 67.92346191 1.72103882 C69.59626097 4.29753988 69.32350442 6.40232022 69.00585938 9.38818359 C66.12305366 12.27098931 64.07030807 11.6485468 60.03344727 11.6628418 C58.95759117 11.67050819 58.95759117 11.67050819 57.86000061 11.67832947 C55.48275469 11.69225988 53.10579757 11.69126612 50.72851562 11.68896484 C49.07946158 11.69284999 47.43040854 11.69718428 45.78135681 11.70195007 C42.32205972 11.70941977 38.86286467 11.70911569 35.40356445 11.70385742 C30.96682576 11.69806281 26.53050453 11.71498971 22.09383488 11.7382021 C18.68722586 11.75292256 15.28071775 11.75381344 11.87408257 11.75069237 C10.23818574 11.75120647 8.60228339 11.7564608 6.96641731 11.76650429 C4.67988976 11.77881861 2.39418013 11.77210781 0.10766602 11.76049805 C-1.19424179 11.76112747 -2.4961496 11.7617569 -3.83750916 11.7624054 C-6.99414062 11.38818359 -6.99414062 11.38818359 -8.91456604 10.02116394 C-10.46913612 7.66969845 -10.40771734 6.1453617 -9.99414062 3.38818359 C-7.433581 -0.45862635 -4.33755097 0.008081 0 0 Z " fill="#FFAB8B" transform="translate(26.994140625,256.61181640625)"/>
<path d="M0 0 C0.71884369 -0.00350464 1.43768738 -0.00700928 2.17831421 -0.01062012 C4.56037991 -0.01944059 6.9421499 -0.0135873 9.32421875 -0.00683594 C10.9756679 -0.0081825 12.62711666 -0.01012296 14.27856445 -0.01263428 C17.74206308 -0.01558596 21.20545865 -0.01128651 24.66894531 -0.00195312 C29.11467186 0.00944148 33.56015695 0.00288224 38.00587463 -0.00909805 C41.41672596 -0.01631548 44.82751977 -0.01402928 48.2383728 -0.00884247 C49.87787911 -0.00750564 51.5173906 -0.00915483 53.15689087 -0.01380157 C55.44588101 -0.01886494 57.73447683 -0.01115956 60.0234375 0 C61.97963013 0.00238678 61.97963013 0.00238678 63.9753418 0.00482178 C67.01171875 0.25878906 67.01171875 0.25878906 69.01171875 2.25878906 C69.56019906 7.41450393 69.56019906 7.41450393 67.92932129 9.92494202 C65.01287154 11.95356777 62.54010463 11.647986 59.01757812 11.6628418 C58.30994827 11.66970505 57.60231842 11.6765683 56.87324524 11.68363953 C54.53378242 11.70194367 52.19498782 11.69806555 49.85546875 11.69238281 C48.23026307 11.69694257 46.60505933 11.70224753 44.9798584 11.70826721 C41.5735694 11.71720514 38.16751478 11.71476717 34.76123047 11.70483398 C30.39275934 11.6933372 26.02509567 11.71356249 21.65673065 11.74275112 C18.30070851 11.76108233 14.94488104 11.76082699 11.58882141 11.7551136 C9.97804124 11.75496004 8.36724817 11.76103311 6.7565155 11.77340508 C4.50577871 11.7882579 2.25654849 11.77768279 0.00585938 11.76049805 C-1.27526733 11.76033188 -2.55639404 11.76016571 -3.87634277 11.75999451 C-6.98828125 11.25878906 -6.98828125 11.25878906 -8.93713379 9.39149475 C-9.98828125 7.25878906 -9.98828125 7.25878906 -9.80078125 4.63378906 C-7.99677112 -0.63947132 -5.0373097 0.0061461 0 0 Z " fill="#FFAC8C" transform="translate(215.98828125,172.7412109375)"/>
<path d="M0 0 C0.71884369 -0.00350464 1.43768738 -0.00700928 2.17831421 -0.01062012 C4.56037991 -0.01944059 6.9421499 -0.0135873 9.32421875 -0.00683594 C10.9756679 -0.0081825 12.62711666 -0.01012296 14.27856445 -0.01263428 C17.74206308 -0.01558596 21.20545865 -0.01128651 24.66894531 -0.00195312 C29.11467186 0.00944148 33.56015695 0.00288224 38.00587463 -0.00909805 C41.41672596 -0.01631548 44.82751977 -0.01402928 48.2383728 -0.00884247 C49.87787911 -0.00750564 51.5173906 -0.00915483 53.15689087 -0.01380157 C55.44588101 -0.01886494 57.73447683 -0.01115956 60.0234375 0 C61.97963013 0.00238678 61.97963013 0.00238678 63.9753418 0.00482178 C67.01171875 0.25878906 67.01171875 0.25878906 69.01171875 2.25878906 C69.56019906 7.41450393 69.56019906 7.41450393 67.92932129 9.92494202 C65.01287154 11.95356777 62.54010463 11.647986 59.01757812 11.6628418 C58.30994827 11.66970505 57.60231842 11.6765683 56.87324524 11.68363953 C54.53378242 11.70194367 52.19498782 11.69806555 49.85546875 11.69238281 C48.23026307 11.69694257 46.60505933 11.70224753 44.9798584 11.70826721 C41.5735694 11.71720514 38.16751478 11.71476717 34.76123047 11.70483398 C30.39275934 11.6933372 26.02509567 11.71356249 21.65673065 11.74275112 C18.30070851 11.76108233 14.94488104 11.76082699 11.58882141 11.7551136 C9.97804124 11.75496004 8.36724817 11.76103311 6.7565155 11.77340508 C4.50577871 11.7882579 2.25654849 11.77768279 0.00585938 11.76049805 C-1.27526733 11.76033188 -2.55639404 11.76016571 -3.87634277 11.75999451 C-6.98828125 11.25878906 -6.98828125 11.25878906 -8.93713379 9.39149475 C-9.98828125 7.25878906 -9.98828125 7.25878906 -9.80078125 4.63378906 C-7.99677112 -0.63947132 -5.0373097 0.0061461 0 0 Z " fill="#FFAC8C" transform="translate(112.98828125,172.7412109375)"/>
<path d="M0 0 C1.57194374 -0.01418472 1.57194374 -0.01418472 3.17564392 -0.02865601 C4.87256126 -0.01954697 4.87256126 -0.01954697 6.60375977 -0.01025391 C7.76641861 -0.01312408 8.92907745 -0.01599426 10.12696838 -0.01895142 C12.58741746 -0.02099423 15.0478827 -0.01544927 17.50830078 -0.00292969 C21.27681812 0.01310552 25.0442605 -0.00276455 28.81274414 -0.02197266 C31.20141839 -0.01998998 33.59009196 -0.0161458 35.97875977 -0.01025391 C37.10801376 -0.0163266 38.23726776 -0.02239929 39.40074158 -0.02865601 C40.97741356 -0.01447128 40.97741356 -0.01447128 42.5859375 0 C43.50954575 0.00238678 44.43315399 0.00477356 45.38475037 0.00723267 C48.34666681 0.46351382 49.72512761 1.3039264 51.85766602 3.38818359 C52.35766602 6.38818359 52.35766602 6.38818359 51.85766602 9.38818359 C48.8734829 12.30480404 46.68830162 12.7657659 42.5859375 12.77636719 C41.53482285 12.78582367 40.48370819 12.79528015 39.40074158 12.80502319 C37.70686058 12.79591415 37.70686058 12.79591415 35.97875977 12.78662109 C34.8151442 12.78949127 33.65152863 12.79236145 32.45265198 12.7953186 C29.99398308 12.79735938 27.53529796 12.79182865 25.07666016 12.77929688 C21.30602888 12.76322988 17.53646724 12.77915355 13.76586914 12.79833984 C11.37849698 12.7963577 8.99112548 12.79251462 6.60375977 12.78662109 C4.90684242 12.79573013 4.90684242 12.79573013 3.17564392 12.80502319 C2.12768143 12.79556671 1.07971893 12.78611023 0 12.77636719 C-0.92281265 12.77398041 -1.84562531 12.77159363 -2.79640198 12.76913452 C-5.59756712 12.31425925 -6.49402846 11.66890764 -8.14233398 9.38818359 C-8.78174212 4.27291854 -8.78174212 4.27291854 -6.94029236 1.72494507 C-4.52888887 -0.06790583 -2.99027292 0.0077341 0 0 Z " fill="#EDD5C4" transform="translate(224.142333984375,192.61181640625)"/>
<path d="M0 0 C1.57194374 -0.01418472 1.57194374 -0.01418472 3.17564392 -0.02865601 C4.87256126 -0.01954697 4.87256126 -0.01954697 6.60375977 -0.01025391 C7.76641861 -0.01312408 8.92907745 -0.01599426 10.12696838 -0.01895142 C12.58741746 -0.02099423 15.0478827 -0.01544927 17.50830078 -0.00292969 C21.27681812 0.01310552 25.0442605 -0.00276455 28.81274414 -0.02197266 C31.20141839 -0.01998998 33.59009196 -0.0161458 35.97875977 -0.01025391 C37.10801376 -0.0163266 38.23726776 -0.02239929 39.40074158 -0.02865601 C40.97741356 -0.01447128 40.97741356 -0.01447128 42.5859375 0 C43.50954575 0.00238678 44.43315399 0.00477356 45.38475037 0.00723267 C48.34666681 0.46351382 49.72512761 1.3039264 51.85766602 3.38818359 C52.35766602 6.38818359 52.35766602 6.38818359 51.85766602 9.38818359 C48.8734829 12.30480404 46.68830162 12.7657659 42.5859375 12.77636719 C41.53482285 12.78582367 40.48370819 12.79528015 39.40074158 12.80502319 C37.70686058 12.79591415 37.70686058 12.79591415 35.97875977 12.78662109 C34.8151442 12.78949127 33.65152863 12.79236145 32.45265198 12.7953186 C29.99398308 12.79735938 27.53529796 12.79182865 25.07666016 12.77929688 C21.30602888 12.76322988 17.53646724 12.77915355 13.76586914 12.79833984 C11.37849698 12.7963577 8.99112548 12.79251462 6.60375977 12.78662109 C4.90684242 12.79573013 4.90684242 12.79573013 3.17564392 12.80502319 C2.12768143 12.79556671 1.07971893 12.78611023 0 12.77636719 C-0.92281265 12.77398041 -1.84562531 12.77159363 -2.79640198 12.76913452 C-5.59756712 12.31425925 -6.49402846 11.66890764 -8.14233398 9.38818359 C-8.78174212 4.27291854 -8.78174212 4.27291854 -6.94029236 1.72494507 C-4.52888887 -0.06790583 -2.99027292 0.0077341 0 0 Z " fill="#EDD5C4" transform="translate(121.142333984375,192.61181640625)"/>
<path d="M0 0 C1.07121094 -0.00630432 2.14242188 -0.01260864 3.24609375 -0.019104 C4.40238281 -0.01505554 5.55867188 -0.01100708 6.75 -0.00683594 C8.53083984 -0.00970612 8.53083984 -0.00970612 10.34765625 -0.01263428 C12.85937715 -0.01399611 15.37110509 -0.0102998 17.8828125 -0.00195312 C21.73453533 0.00874611 25.58579173 -0.00184879 29.4375 -0.01464844 C31.87500103 -0.01332684 34.31250177 -0.01076445 36.75 -0.00683594 C37.90628906 -0.0108844 39.06257813 -0.01493286 40.25390625 -0.019104 C41.86072266 -0.00964752 41.86072266 -0.00964752 43.5 0 C44.44359375 0.00159119 45.3871875 0.00318237 46.359375 0.00482178 C48.75 0.25878906 48.75 0.25878906 51.75 2.25878906 C52.40019021 7.3519457 52.40019021 7.3519457 50.5546875 9.92593384 C48.11345769 11.72890854 46.52039301 11.6393327 43.5 11.64697266 C42.42878906 11.65642914 41.35757813 11.66588562 40.25390625 11.67562866 C38.51947266 11.66651962 38.51947266 11.66651962 36.75 11.65722656 C35.56277344 11.66009674 34.37554687 11.66296692 33.15234375 11.66592407 C30.64062015 11.66796683 28.12888072 11.66242229 25.6171875 11.64990234 C21.76526428 11.63385266 17.91439045 11.64974494 14.0625 11.66894531 C11.62499768 11.66696292 9.18749601 11.66311933 6.75 11.65722656 C5.59371094 11.66329926 4.43742187 11.66937195 3.24609375 11.67562866 C2.17488281 11.66617218 1.10367187 11.6567157 0 11.64697266 C-0.94359375 11.64458588 -1.8871875 11.6421991 -2.859375 11.63973999 C-5.25 11.25878906 -5.25 11.25878906 -7.0546875 9.92593384 C-8.90367117 7.34709068 -8.64195729 5.32912114 -8.25 2.25878906 C-4.92354368 0.04115152 -3.87594056 0.00653602 0 0 Z " fill="#EDD4C2" transform="translate(406.25,350.7412109375)"/>
<path d="M0 0 C1.34362885 0.00031689 2.68728332 0.01162897 4.03076172 0.03173828 C4.73820526 0.03456818 5.4456488 0.03739807 6.17453003 0.04031372 C8.43667432 0.05151941 10.69842437 0.07662399 12.96044922 0.10205078 C14.49299559 0.11208011 16.02554816 0.12120604 17.55810547 0.12939453 C21.31737223 0.15145992 25.07634386 0.18599183 28.83544922 0.22705078 C28.83544922 3.85705078 28.83544922 7.48705078 28.83544922 11.22705078 C24.33315447 11.3259438 19.83149195 11.39852788 15.32836914 11.44677734 C13.7966816 11.46689058 12.26507083 11.49418528 10.73364258 11.52880859 C8.53170849 11.57734393 6.3307894 11.60002075 4.12841797 11.61767578 C3.44394089 11.63832092 2.75946381 11.65896606 2.054245 11.68023682 C-1.15942036 11.68175285 -2.7498119 11.61919749 -5.13208008 9.36669922 C-6.49055062 6.55146256 -6.16322241 5.14624476 -5.16455078 2.22705078 C-3.16455078 0.22705078 -3.16455078 0.22705078 0 0 Z " fill="#FFAC8C" transform="translate(315.16455078125,172.77294921875)"/>
<path d="M0 0 C3.96 0 7.92 0 12 0 C12.10788371 3.58413652 12.18726305 7.16503148 12.25 10.75 C12.30027344 12.27367187 12.30027344 12.27367187 12.3515625 13.828125 C12.45053818 21.35027652 12.45053818 21.35027652 10.14453125 24.67578125 C7.47833657 26.32212004 6.07926435 26.55268847 3 26 C1.3659668 24.80541992 1.3659668 24.80541992 0 23 C-0.34057617 20.5480957 -0.34057617 20.5480957 -0.29296875 17.67578125 C-0.2784668 16.13374023 -0.2784668 16.13374023 -0.26367188 14.56054688 C-0.23853516 13.48869141 -0.21339844 12.41683594 -0.1875 11.3125 C-0.16719727 9.68731445 -0.16719727 9.68731445 -0.14648438 8.02929688 C-0.11111023 5.35265296 -0.05730304 2.67626425 0 0 Z " fill="#FFA988" transform="translate(296,439)"/>
<path d="M0 0 C3.96 0 7.92 0 12 0 C12.10788371 3.58413652 12.18726305 7.16503148 12.25 10.75 C12.30027344 12.27367187 12.30027344 12.27367187 12.3515625 13.828125 C12.45027642 21.33038292 12.45027642 21.33038292 10.1796875 24.70703125 C8 26 8 26 4.875 25.9375 C2 25 2 25 0 22 C-0.22705078 19.63989258 -0.22705078 19.63989258 -0.1953125 16.89453125 C-0.18886719 15.91162109 -0.18242187 14.92871094 -0.17578125 13.91601562 C-0.15902344 12.89185547 -0.14226562 11.86769531 -0.125 10.8125 C-0.11597656 9.77673828 -0.10695312 8.74097656 -0.09765625 7.67382812 C-0.07407983 5.11578694 -0.03820876 2.55786447 0 0 Z " fill="#FFA989" transform="translate(251,439)"/>
<path d="M0 0 C3.96 0 7.92 0 12 0 C12.10788371 3.58413652 12.18726305 7.16503148 12.25 10.75 C12.30027344 12.27367187 12.30027344 12.27367187 12.3515625 13.828125 C12.45044022 21.34283143 12.45044022 21.34283143 10.14453125 24.70703125 C8 26 8 26 5.4375 25.9375 C2.79580296 24.92146268 1.7218046 24.21911224 0 22 C-0.34057617 19.63989258 -0.34057617 19.63989258 -0.29296875 16.89453125 C-0.28330078 15.91162109 -0.27363281 14.92871094 -0.26367188 13.91601562 C-0.23853516 12.89185547 -0.21339844 11.86769531 -0.1875 10.8125 C-0.17396484 9.77673828 -0.16042969 8.74097656 -0.14648438 7.67382812 C-0.11111805 5.11566388 -0.05731096 2.55776671 0 0 Z " fill="#FFA989" transform="translate(206,439)"/>
<path d="M0 0 C0.98291016 0.00966797 1.96582031 0.01933594 2.97851562 0.02929688 C4.00267578 0.05443359 5.02683594 0.07957031 6.08203125 0.10546875 C7.11779297 0.11900391 8.15355469 0.13253906 9.22070312 0.14648438 C11.77886737 0.1818507 14.33676454 0.23565779 16.89453125 0.29296875 C16.89453125 4.25296875 16.89453125 8.21296875 16.89453125 12.29296875 C13.2899183 12.37373601 9.68710562 12.43335826 6.08203125 12.48046875 C4.54579102 12.51817383 4.54579102 12.51817383 2.97851562 12.55664062 C1.50415039 12.57114258 1.50415039 12.57114258 0 12.5859375 C-0.90596924 12.60164795 -1.81193848 12.6173584 -2.74536133 12.63354492 C-5.10546875 12.29296875 -5.10546875 12.29296875 -6.90112305 10.9621582 C-8.76839835 8.37416687 -8.49214793 6.38640218 -8.10546875 3.29296875 C-5.77030018 0.05649044 -3.86687964 -0.06705572 0 0 Z " fill="#EDD5C4" transform="translate(327.10546875,192.70703125)"/>
<path d="M0 0 C3.96 0 7.92 0 12 0 C12.10792137 3.41751005 12.18727736 6.83161597 12.25 10.25 C12.30027344 11.70212891 12.30027344 11.70212891 12.3515625 13.18359375 C12.45024614 20.3381575 12.45024614 20.3381575 10.1796875 23.67578125 C8 25 8 25 4.875 24.9375 C2 24 2 24 0 21 C-0.22705078 18.73168945 -0.22705078 18.73168945 -0.1953125 16.11328125 C-0.18886719 15.17548828 -0.18242187 14.23769531 -0.17578125 13.27148438 C-0.15902344 12.29501953 -0.14226562 11.31855469 -0.125 10.3125 C-0.11597656 9.32443359 -0.10695313 8.33636719 -0.09765625 7.31835938 C-0.07408566 4.87880294 -0.03821469 2.43937099 0 0 Z " fill="#FFAA89" transform="translate(430,440)"/>
<path d="M0 0 C3.96 0 7.92 0 12 0 C12.10792137 3.41751005 12.18727736 6.83161597 12.25 10.25 C12.30027344 11.70212891 12.30027344 11.70212891 12.3515625 13.18359375 C12.45024614 20.3381575 12.45024614 20.3381575 10.1796875 23.67578125 C8 25 8 25 4.875 24.9375 C2 24 2 24 0 21 C-0.22705078 18.73168945 -0.22705078 18.73168945 -0.1953125 16.11328125 C-0.18886719 15.17548828 -0.18242187 14.23769531 -0.17578125 13.27148438 C-0.15902344 12.29501953 -0.14226562 11.31855469 -0.125 10.3125 C-0.11597656 9.32443359 -0.10695313 8.33636719 -0.09765625 7.31835938 C-0.07408566 4.87880294 -0.03821469 2.43937099 0 0 Z " fill="#FFAA89" transform="translate(475,440)"/>
<path d="M0 0 C3.96 0 7.92 0 12 0 C12.10792137 3.41751005 12.18727736 6.83161597 12.25 10.25 C12.30027344 11.70212891 12.30027344 11.70212891 12.3515625 13.18359375 C12.45041573 20.3504531 12.45041573 20.3504531 10.14453125 23.67578125 C8 25 8 25 5.4375 24.9375 C2.80225862 23.92394562 1.72523002 23.20625931 0 21 C-0.34057617 18.73168945 -0.34057617 18.73168945 -0.29296875 16.11328125 C-0.28330078 15.17548828 -0.27363281 14.23769531 -0.26367188 13.27148438 C-0.23853516 12.29501953 -0.21339844 11.31855469 -0.1875 10.3125 C-0.17396484 9.32443359 -0.16042969 8.33636719 -0.14648438 7.31835938 C-0.11112661 4.87867383 -0.05731962 2.43926837 0 0 Z " fill="#FFAA89" transform="translate(385,440)"/>
<path d="M0 0 C1.16582108 0.00666183 1.16582108 0.00666183 2.35519409 0.01345825 C3.23595612 0.01360931 4.11671814 0.01376038 5.02416992 0.01391602 C6.4523555 0.02939987 6.4523555 0.02939987 7.90939331 0.04519653 C9.37008743 0.04944138 9.37008743 0.04944138 10.86029053 0.05377197 C13.9783443 0.0649899 17.09611349 0.09009734 20.21408081 0.11550903 C22.32475375 0.12553675 24.43543119 0.13466296 26.54611206 0.14285278 C31.72719916 0.16493445 36.90811966 0.19842774 42.08908081 0.24050903 C42.47126848 1.89665561 42.80303183 3.56507928 43.08908081 5.24050903 C42.08908081 6.24050903 42.08908081 6.24050903 40.26045227 6.36076355 C39.46325272 6.35854294 38.66605316 6.35632233 37.84469604 6.35403442 C36.94383774 6.35395889 36.04297943 6.35388336 35.11482239 6.35380554 C34.1356636 6.34864426 33.15650482 6.34348297 32.14767456 6.33816528 C31.15026749 6.33675034 30.15286041 6.33533539 29.12522888 6.33387756 C25.92564957 6.32826018 22.72613912 6.31570474 19.52658081 6.30300903 C17.36317036 6.29799627 15.19975882 6.29343298 13.03634644 6.28933716 C7.72056756 6.2782851 2.4048291 6.26153007 -2.91091919 6.24050903 C-3.53591919 4.36550903 -3.53591919 4.36550903 -3.91091919 2.24050903 C-1.91091919 0.24050903 -1.91091919 0.24050903 0 0 Z " fill="#B766C3" transform="translate(36.910919189453125,239.75949096679688)"/>
<path d="M0 0 C3.63 0 7.26 0 11 0 C11.08076726 3.60461295 11.14038951 7.20742563 11.1875 10.8125 C11.22520508 12.34874023 11.22520508 12.34874023 11.26367188 13.91601562 C11.27817383 15.39038086 11.27817383 15.39038086 11.29296875 16.89453125 C11.31653442 18.25348511 11.31653442 18.25348511 11.34057617 19.63989258 C11 22 11 22 9.63793945 23.7956543 C7.30355418 25.51208335 5.82730123 25.42409518 3 25 C1.36206055 23.7956543 1.36206055 23.7956543 0 22 C-0.34057617 19.63989258 -0.34057617 19.63989258 -0.29296875 16.89453125 C-0.28330078 15.91162109 -0.27363281 14.92871094 -0.26367188 13.91601562 C-0.23853516 12.89185547 -0.21339844 11.86769531 -0.1875 10.8125 C-0.17396484 9.77673828 -0.16042969 8.74097656 -0.14648438 7.67382812 C-0.11111805 5.11566388 -0.05731096 2.55776671 0 0 Z " fill="#FFAB8B" transform="translate(341,440)"/>
<path d="M0 0 C1.12347839 0.00607269 1.12347839 0.00607269 2.26965332 0.01226807 C3.03894165 0.01035461 3.80822998 0.00844116 4.60083008 0.00646973 C6.22823412 0.00510799 7.85564902 0.00880368 9.48303223 0.01715088 C11.97855963 0.02785086 14.47336714 0.01725555 16.96887207 0.00445557 C18.54830075 0.00577716 20.12772898 0.00833956 21.70715332 0.01226807 C22.45613892 0.0082196 23.20512451 0.00417114 23.97680664 0 C29.25848089 0.04797064 29.25848089 0.04797064 31.48840332 2.27789307 C31.48840332 3.26789307 31.48840332 4.25789307 31.48840332 5.27789307 C28.36886204 6.83766371 25.05880948 6.39893433 21.63684082 6.37554932 C20.86280914 6.37413437 20.08877747 6.37271942 19.29129028 6.3712616 C16.81528891 6.3656571 14.33937744 6.3531039 11.86340332 6.34039307 C10.18632129 6.33537864 8.50923785 6.33081564 6.83215332 6.32672119 C2.71753526 6.31568622 -1.39701546 6.29841861 -5.51159668 6.27789307 C-6.17159668 4.95789307 -6.83159668 3.63789307 -7.51159668 2.27789307 C-4.99454863 -0.23915498 -3.43486769 0.03119707 0 0 Z " fill="#FFB294" transform="translate(68.5115966796875,289.72210693359375)"/>
<path d="M0 0 C12.21 0 24.42 0 37 0 C37.495 1.98 37.495 1.98 38 4 C37 5 37 5 33.48999023 5.11352539 C31.92951578 5.11336626 30.36903607 5.10767142 28.80859375 5.09765625 C27.98875504 5.0962413 27.16891632 5.09482635 26.32423401 5.09336853 C23.69528618 5.08775289 21.06642227 5.07519779 18.4375 5.0625 C16.65950643 5.05748701 14.88151154 5.05292376 13.10351562 5.04882812 C8.73564455 5.03777839 4.36783652 5.02050331 0 5 C0 3.35 0 1.7 0 0 Z " fill="#FFAC8D" transform="translate(62,369)"/>
<path d="M0 0 C12.21 0 24.42 0 37 0 C37.495 1.98 37.495 1.98 38 4 C37 5 37 5 33.48999023 5.11352539 C31.92951578 5.11336626 30.36903607 5.10767142 28.80859375 5.09765625 C27.98875504 5.0962413 27.16891632 5.09482635 26.32423401 5.09336853 C23.69528618 5.08775289 21.06642227 5.07519779 18.4375 5.0625 C16.65950643 5.05748701 14.88151154 5.05292376 13.10351562 5.04882812 C8.73564455 5.03777839 4.36783652 5.02050331 0 5 C0 3.35 0 1.7 0 0 Z " fill="#FFAC8D" transform="translate(62,329)"/>
<path d="M0 0 C1.15757813 -0.00257813 2.31515625 -0.00515625 3.5078125 -0.0078125 C4.72210938 -0.00007813 5.93640625 0.00765625 7.1875 0.015625 C8.40179688 0.00789063 9.61609375 0.00015625 10.8671875 -0.0078125 C12.60355469 -0.00394531 12.60355469 -0.00394531 14.375 0 C15.44105469 0.00225586 16.50710937 0.00451172 17.60546875 0.00683594 C20.1875 0.265625 20.1875 0.265625 22.1875 2.265625 C22.1875 3.255625 22.1875 4.245625 22.1875 5.265625 C19.47348706 6.62263147 17.33903684 6.3780111 14.3046875 6.36328125 C13.13808594 6.36005859 11.97148438 6.35683594 10.76953125 6.35351562 C9.54621094 6.34513672 8.32289062 6.33675781 7.0625 6.328125 C5.83144531 6.32361328 4.60039063 6.31910156 3.33203125 6.31445312 C0.28380608 6.3026383 -2.76432314 6.28616528 -5.8125 6.265625 C-6.4725 4.945625 -7.1325 3.625625 -7.8125 2.265625 C-5.12762835 -0.41924665 -3.74773019 0.00793051 0 0 Z " fill="#EED6C5" transform="translate(68.8125,299.734375)"/>
<path d="M0 0 C9.24 0 18.48 0 28 0 C28.33 1.32 28.66 2.64 29 4 C28 5 28 5 25.31616211 5.11352539 C24.14835205 5.10828857 22.98054199 5.10305176 21.77734375 5.09765625 C20.51728516 5.09443359 19.25722656 5.09121094 17.95898438 5.08789062 C16.61848891 5.07953403 15.27799412 5.07106907 13.9375 5.0625 C12.59310058 5.0574866 11.2486994 5.05292342 9.90429688 5.04882812 C6.60282059 5.03699488 3.30143197 5.02050971 0 5 C0 3.35 0 1.7 0 0 Z " fill="#EDD4C2" transform="translate(62,379)"/>
<path d="M0 0 C9.24 0 18.48 0 28 0 C28.33 1.32 28.66 2.64 29 4 C28 5 28 5 25.31616211 5.11352539 C24.14835205 5.10828857 22.98054199 5.10305176 21.77734375 5.09765625 C20.51728516 5.09443359 19.25722656 5.09121094 17.95898438 5.08789062 C16.61848891 5.07953403 15.27799412 5.07106907 13.9375 5.0625 C12.59310058 5.0574866 11.2486994 5.05292342 9.90429688 5.04882812 C6.60282059 5.03699488 3.30143197 5.02050971 0 5 C0 3.35 0 1.7 0 0 Z " fill="#EDD4C2" transform="translate(62,339)"/>
<path d="M0 0 C0.80566406 0.00322266 1.61132812 0.00644531 2.44140625 0.00976562 C3.70404297 0.02233398 3.70404297 0.02233398 4.9921875 0.03515625 C5.84167969 0.03966797 6.69117188 0.04417969 7.56640625 0.04882812 C9.66669659 0.06062751 11.7669508 0.07856319 13.8671875 0.09765625 C14.24937517 1.75380282 14.58113852 3.42222649 14.8671875 5.09765625 C12.70985917 7.25498458 7.91919997 6.28286544 4.9296875 6.28515625 C4.09244141 6.29740234 3.25519531 6.30964844 2.39257812 6.32226562 C1.19084961 6.32516602 1.19084961 6.32516602 -0.03515625 6.328125 C-0.77241943 6.33223389 -1.50968262 6.33634277 -2.26928711 6.34057617 C-4.1328125 6.09765625 -4.1328125 6.09765625 -6.1328125 4.09765625 C-6.1328125 3.10765625 -6.1328125 2.11765625 -6.1328125 1.09765625 C-3.8362755 -0.05061225 -2.54968083 -0.0179555 0 0 Z " fill="#B766C3" transform="translate(52.1328125,417.90234375)"/>
</svg>
