 <svg  version="1.0" xmlns="http://www.w3.org/2000/svg"  width="300.000000pt" height="300.000000pt" viewBox="0 0 300.000000 300.000000"  preserveAspectRatio="xMidYMid meet">  <g transform="translate(0.000000,300.000000) scale(0.100000,-0.100000)" fill="#025add" stroke="none"> <path d="M1138 2931 c-159 -52 -270 -189 -292 -358 -8 -62 13 -172 44 -234 37 -72 122 -152 200 -188 253 -117 542 38 591 316 31 176 -71 367 -239 446 -87 40 -213 48 -304 18z m264 -104 c116 -52 181 -151 186 -284 4 -71 1 -88 -24 -142 -65 -145 -224 -225 -372 -187 -101 26 -173 83 -224 179 -19 35 -23 58 -23 137 0 84 3 101 27 147 85 160 268 225 430 150z"/> <path d="M1141 2706 c-10 -12 -15 -149 -11 -328 0 -10 9 -22 20 -28 18 -9 45 1 173 65 84 43 158 83 166 90 8 8 11 23 8 37 -5 18 -40 40 -162 101 -85 42 -161 77 -169 77 -7 0 -19 -6 -25 -14z m84 -56 c17 -11 23 -20 16 -20 -8 0 -28 -12 -43 -27 l-28 -27 0 40 c0 60 8 65 55 34z m75 -93 l53 -24 -66 -35 -67 -36 0 70 c0 58 2 68 13 59 8 -6 38 -21 67 -34z m130 -12 c17 -17 11 -25 -44 -54 -45 -23 -57 -20 -33 7 21 23 21 36 0 68 l-16 26 39 -17 c21 -9 46 -22 54 -30z m-198 -111 c20 -6 19 -8 -13 -24 -19 -10 -37 -16 -41 -13 -5 2 -8 25 -8 50 l0 46 20 -26 c11 -14 30 -29 42 -33z"/> <path d="M2141 2889 c-56 -28 -80 -79 -81 -166 0 -50 4 -67 20 -83 11 -11 25 -20 30 -20 6 0 19 9 30 20 16 16 20 33 20 83 0 36 5 68 12 75 17 17 609 17 626 0 19 -19 17 -611 -2 -627 -9 -8 -103 -11 -322 -9 l-309 3 -5 173 c-5 184 -8 192 -57 192 -36 0 -43 -30 -43 -192 0 -187 13 -227 82 -258 39 -18 67 -20 340 -20 338 0 360 4 400 69 23 35 23 41 23 358 0 309 -1 323 -21 349 -11 15 -33 37 -48 48 -26 20 -42 21 -339 24 -304 2 -313 2 -356 -19z"/> <path d="M2471 2702 c-48 -24 -73 -62 -79 -121 -4 -50 -5 -51 -36 -51 -37 0 -56 -15 -56 -45 0 -30 19 -45 57 -45 l33 0 0 -79 c0 -83 12 -111 49 -111 33 0 41 22 41 107 l0 83 40 0 c48 0 69 27 51 66 -9 20 -18 24 -51 24 -38 0 -40 2 -40 30 0 50 31 71 100 69 36 -1 65 3 75 11 21 17 19 57 -4 70 -32 17 -142 12 -180 -8z m-3 -249 l-30 -31 -28 31 -29 32 25 26 c13 14 24 30 24 37 0 6 15 -5 34 -26 l35 -37 -31 -32z"/> <path d="M100 2461 c-6 -13 -10 -156 -10 -398 0 -326 2 -382 16 -401 15 -22 17 -22 314 -22 258 0 301 2 314 16 14 13 16 64 16 408 0 291 -3 395 -12 404 -9 9 -94 12 -320 12 -294 0 -308 -1 -318 -19z m90 -29 c0 -5 -11 -19 -25 -32 l-25 -23 0 25 c0 13 3 28 7 31 9 10 43 9 43 -1z m516 -17 c9 -37 1 -39 -31 -5 l-29 30 27 0 c20 0 28 -6 33 -25z m-46 -355 l0 -330 -235 0 -235 0 0 330 0 330 235 0 235 0 0 -330z m-470 -375 c0 -3 -10 -5 -22 -3 -18 2 -24 11 -26 37 l-4 34 26 -30 c14 -17 26 -34 26 -38z m510 9 c-13 -14 -50 -20 -50 -7 0 4 12 20 28 36 26 27 27 28 30 7 2 -12 -2 -28 -8 -36z"/> <path d="M390 2280 c-11 -11 -20 -24 -20 -30 0 -5 9 -19 20 -30 15 -15 33 -20 76 -20 71 0 94 12 94 50 0 38 -23 50 -94 50 -43 0 -61 -5 -76 -20z"/> <path d="M296 2094 c-9 -8 -16 -23 -16 -33 0 -35 21 -41 140 -41 122 0 140 6 140 45 0 39 -18 45 -136 45 -89 0 -116 -3 -128 -16z"/> <path d="M289 1899 c-8 -16 -8 -28 0 -45 10 -23 14 -24 129 -24 124 0 142 6 142 45 0 39 -18 45 -142 45 -109 0 -118 -1 -129 -21z"/> <path d="M1770 2093 c-46 -61 -80 -116 -80 -129 0 -27 32 -48 58 -39 23 7 172 210 172 233 0 25 -19 42 -47 42 -17 0 -42 -26 -103 -107z"/> <path d="M1940 1889 c-104 -80 -123 -105 -101 -138 19 -29 58 -13 164 68 69 53 107 89 107 101 0 23 -26 50 -48 49 -9 0 -64 -36 -122 -80z"/> <path d="M1163 1646 c-248 -204 -360 -290 -440 -336 -161 -93 -186 -123 -186 -218 0 -48 -3 -54 -27 -67 -110 -57 -113 -203 -5 -255 50 -24 87 -21 143 11 33 19 34 19 59 -1 57 -44 134 -48 202 -9 18 11 36 17 40 14 3 -3 29 -45 57 -93 55 -96 97 -132 151 -132 82 0 143 61 143 141 0 35 -10 61 -51 128 -27 46 -46 87 -42 91 4 4 163 65 353 135 190 71 351 133 358 138 6 5 12 19 12 30 0 11 -55 116 -122 234 -132 229 -152 250 -189 204 -10 -13 -15 -29 -12 -39 4 -9 51 -93 106 -187 54 -93 99 -174 100 -178 1 -5 -170 -73 -381 -152 -290 -109 -408 -158 -488 -204 -114 -65 -147 -73 -186 -41 -39 30 -128 193 -128 234 0 45 20 66 120 124 l85 50 55 -98 c30 -53 61 -104 69 -114 21 -25 59 -20 73 9 10 22 4 37 -52 134 -34 60 -62 113 -62 118 1 9 573 483 583 483 3 0 11 -11 17 -25 16 -35 68 -35 83 -1 10 20 6 33 -23 82 -25 43 -41 60 -59 62 -19 2 -96 -56 -356 -272z m373 199 c18 -27 12 -47 -8 -27 -17 17 -63 15 -78 -3 -7 -8 -16 -15 -21 -15 -14 0 64 69 78 70 7 0 20 -11 29 -25z m-638 -491 c-18 -30 -19 -41 -10 -70 l10 -34 -31 26 c-20 17 -39 24 -54 21 -13 -2 -22 -3 -20 0 6 6 122 92 124 93 1 0 -7 -16 -19 -36z m961 -70 c28 -46 26 -62 -5 -75 -35 -13 -42 -4 -19 21 15 17 17 26 8 55 -14 44 -10 44 16 -1z m-1239 -286 c26 -49 25 -53 -9 -27 -21 15 -37 20 -55 15 l-26 -6 27 39 c30 41 31 41 63 -21z m580 -37 c0 -5 -7 -14 -15 -21 -19 -16 -19 -43 1 -81 13 -27 9 -25 -29 15 -24 25 -50 46 -58 46 -25 0 -79 -39 -91 -66 -9 -19 -9 -33 -1 -55 l11 -29 -30 25 c-26 22 -38 27 -58 27 -3 0 -16 -3 -30 -7 -59 -17 165 109 250 141 43 16 50 16 50 5z m-585 -62 c13 -24 12 -27 -11 -38 -34 -15 -60 -14 -78 5 -22 22 -20 31 15 67 31 30 32 30 46 11 8 -10 21 -31 28 -45z m93 -47 c27 -35 29 -41 11 -31 -13 6 -38 9 -61 5 l-39 -6 22 29 c19 25 20 34 11 63 l-11 33 17 -25 c9 -13 32 -44 50 -68z m455 -59 c53 -94 56 -128 12 -139 -13 -3 -28 -3 -34 0 -11 7 -111 174 -111 184 0 8 60 40 75 41 6 0 32 -38 58 -86z"/> <path d="M2115 1663 c-137 -28 -166 -46 -147 -88 9 -19 19 -25 44 -25 51 1 256 46 273 60 20 17 19 43 -3 63 -23 21 -19 21 -167 -10z"/> <path d="M245 1476 c-14 -21 -16 -83 -13 -515 l3 -491 -57 0 c-79 0 -93 -21 -85 -127 10 -133 77 -219 190 -243 37 -7 251 -10 688 -8 629 3 634 3 675 25 54 29 110 93 123 140 6 21 11 73 11 115 0 90 -7 98 -89 98 l-51 0 0 239 c0 233 -1 240 -21 255 -22 15 -48 11 -61 -8 -4 -6 -8 -118 -8 -248 l0 -238 -610 0 -610 0 0 470 0 470 211 2 c206 3 212 4 220 24 5 14 2 29 -7 43 -15 20 -22 21 -254 21 l-240 0 -15 -24z m85 -24 c0 -5 -11 -19 -25 -32 l-25 -23 0 25 c0 13 3 28 7 31 9 10 43 9 43 -1z m1298 -1004 l26 -28 -58 0 -58 0 26 31 c14 17 26 36 27 42 0 7 3 5 6 -3 3 -8 17 -27 31 -42z m-1323 15 c13 -16 25 -31 25 -35 0 -5 -22 -8 -50 -8 l-49 0 22 35 c12 19 23 34 25 35 2 0 14 -12 27 -27z m-122 -41 c3 -4 -6 -20 -19 -35 l-24 -28 0 30 c0 32 30 55 43 33z m1545 -4 c7 -7 12 -23 12 -37 l0 -25 -30 29 c-29 27 -31 45 -6 45 6 0 17 -5 24 -12z m-38 -73 c0 -46 -21 -94 -54 -125 -24 -21 -39 -25 -107 -29 l-79 -3 0 34 c0 39 -15 58 -45 58 -30 0 -45 -19 -45 -57 l0 -33 -424 0 -424 0 1 36 c1 38 -13 54 -50 54 -25 0 -43 -27 -43 -64 0 -25 -2 -26 -65 -26 -110 0 -165 47 -165 143 l0 47 750 0 750 0 0 -35z m-277 -203 c-25 -2 -47 -1 -50 2 -3 3 5 18 18 33 l23 28 27 -30 28 -30 -46 -3z m-915 27 l24 -29 -52 0 -51 0 23 30 c12 17 24 30 27 29 3 0 16 -13 29 -30z"/> <path d="M2145 1440 c-27 -11 -61 -49 -74 -83 -7 -18 -11 -141 -11 -330 0 -337 2 -350 69 -394 34 -23 38 -23 350 -23 281 0 320 2 351 18 92 45 114 262 27 262 -33 0 -47 -29 -47 -100 0 -58 -3 -71 -19 -80 -27 -14 -585 -14 -612 0 -18 10 -19 24 -19 318 0 226 3 311 12 320 17 17 609 17 626 0 8 -8 12 -60 12 -170 0 -145 2 -160 20 -178 25 -25 35 -25 61 1 20 20 20 29 17 188 -3 185 -9 204 -71 241 -30 19 -52 20 -352 19 -176 0 -329 -4 -340 -9z"/> <path d="M2429 1210 c-102 -31 -158 -152 -115 -253 29 -71 125 -124 197 -111 129 25 195 153 139 269 -39 80 -134 122 -221 95z m124 -121 c37 -40 36 -82 -2 -120 -22 -21 -39 -29 -66 -29 -27 0 -44 8 -66 29 -35 36 -38 77 -8 115 42 54 95 56 142 5z"/> </g> </svg> 