<?xml version="1.0" encoding="UTF-8"?>
<svg version="1.1" xmlns="http://www.w3.org/2000/svg" width="512" height="512">
<path d="M0 0 C6.15246543 4.38560356 11.16103544 8.81869121 15.421875 15.05078125 C17.31164835 17.38493199 19.40444361 18.95873106 21.8125 20.75 C34.39701436 30.45805394 42.9068896 46.27572438 45 62 C46.49692626 81.36268033 42.92545194 94.14909612 34 112 C42.25 120.25 50.5 128.5 59 137 C62.63 134.69 66.26 132.38 70 130 C93.7657114 117.12286454 120.03789374 114.51206069 146 122 C160.20100113 126.66004375 172.08736121 134.88607037 183 145 C188.22948744 140.62970634 193.10289955 136.03088196 197.90234375 131.1953125 C198.6249086 130.4713327 199.34747345 129.74735291 200.0919342 129.00143433 C202.37616922 126.71164735 204.65688312 124.41839007 206.9375 122.125 C208.49521039 120.56226839 210.05315087 118.9997661 211.61132812 117.4375 C215.41021602 113.6276469 219.20622713 109.81494621 223 106 C221.53364629 102.95656468 219.92702051 100.58888925 217.75 98 C206.38175558 83.57653989 203.02640962 67.02027288 204 49 C206.50762875 30.47908848 214.78901475 15.1808445 229 3 C245.80670372 -9.55440519 264.67093504 -13.3350889 285.26513672 -10.71142578 C302.90453583 -7.5713177 316.55707256 2.78307198 327.58203125 16.39453125 C329.23434377 18.26533138 331.03388825 19.82396242 332.9375 21.4375 C345.80999477 32.47106694 353.86942818 47.08586859 356 64 C357.1915866 82.7137699 353.70990094 101.21600759 341.09057617 115.83642578 C328.6699672 129.45651935 313.09866061 139.4816379 294.23828125 140.46875 C292.26328782 140.50285558 290.28774704 140.51270204 288.3125 140.5 C287.26666748 140.49427979 286.22083496 140.48855957 285.14331055 140.48266602 C270.12698342 140.13967985 260.46386408 135.24977297 247 128 C227.2 147.8 227.2 147.8 207 168 C208.67621497 172.19053742 210.37355713 175.26930345 212.8125 179 C220.97464806 191.92940404 225.19752795 206.75303114 226 222 C226.061875 223.1446875 226.061875 223.1446875 226.125 224.3125 C226.73802525 247.60745966 218.51754918 270.62674391 203 288 C201.67825015 289.34481704 200.3481963 290.68169719 199 292 C200.5847358 295.86328627 203.05956887 298.28876923 206.0078125 301.203125 C206.49329559 301.6857782 206.97877869 302.1684314 207.47897339 302.66571045 C209.02299866 304.19858562 210.57384824 305.72434004 212.125 307.25 C213.17624009 308.29120361 214.22702657 309.33286541 215.27734375 310.375 C217.84633004 312.92199464 220.42148161 315.46265177 223 318 C223.72517822 317.32308105 224.45035645 316.64616211 225.19750977 315.94873047 C226.16487061 315.05557129 227.13223145 314.16241211 228.12890625 313.2421875 C229.08095947 312.35901855 230.0330127 311.47584961 231.01391602 310.56591797 C244.46244028 299.00970915 262.48681014 294.01293598 280.06640625 295.1875 C301.4572547 297.64470516 318.1843868 307.81836138 331.58203125 324.3984375 C333.22942847 326.25913408 335.02975815 327.78339823 336.9375 329.375 C350.21433332 340.80923098 357.50090486 357.54248081 358.8125 374.8125 C359.88850542 394.44728 353.45517743 411.17163892 340.875 426.125 C329.33739582 438.44614266 313.56699842 446.63310094 296.58203125 447.3359375 C274.78870397 447.67874126 257.1684933 442.52390221 241 427 C239.42260617 425.03751472 237.99855751 423.02680538 236.578125 420.94921875 C234.68835165 418.61506801 232.59555639 417.04126894 230.1875 415.25 C217.60298564 405.54194606 209.0931104 389.72427562 207 374 C205.79038235 358.35364492 207.01693727 343.8510068 215.14453125 330.05078125 C216.24696465 327.40796146 216.04143751 326.66354107 215 324 C213.38581747 322.07220695 211.7824619 320.31444668 210.01171875 318.54296875 C209.26230766 317.78213737 209.26230766 317.78213737 208.49775696 317.00593567 C207.44159245 315.93898694 206.38144771 314.87596548 205.31762695 313.81665039 C203.68949667 312.18949547 202.08387331 310.54216731 200.47851562 308.89257812 C199.44921944 307.85807715 198.41866198 306.82482925 197.38671875 305.79296875 C196.66774666 305.04940376 196.66774666 305.04940376 195.93424988 304.29081726 C194.42591985 302.75633698 194.42591985 302.75633698 192 301 C188.37995899 301.18152763 185.89228009 303.2482344 182.9375 305.25 C161.78868938 318.94770648 137.14035993 322.68136964 112.62353516 317.90185547 C94.90599226 314.02754338 80.44097819 304.94753617 67 293 C63.81740149 294.40509099 61.68651534 296.06921342 59.24121094 298.53173828 C58.52076599 299.25233429 57.80032104 299.9729303 57.05804443 300.71536255 C56.29123352 301.49249603 55.52442261 302.26962952 54.734375 303.0703125 C53.94097717 303.86654022 53.14757935 304.66276794 52.33013916 305.48312378 C49.79869297 308.02575948 47.27429197 310.57526348 44.75 313.125 C43.03431383 314.85071753 41.31817338 316.57598355 39.6015625 318.30078125 C35.39575752 322.52863032 31.19571493 326.76213869 27 331 C29.72702621 335.10899578 29.72702621 335.10899578 32.52734375 339.16796875 C43.72416562 355.20330645 47.27083194 372.91198966 44.70703125 392.20458984 C41.50081748 410.08440293 30.84632158 425.58617543 16.171875 435.99609375 C-0.1095538 446.28226736 -19.09679436 450.05654205 -38.109375 446.30859375 C-54.12665704 442.05511552 -66.17952253 433.58190854 -77.03100586 421.35302734 C-79.57812343 418.49255055 -82.15238689 415.91229913 -85.125 413.5 C-97.98900799 402.61710207 -105.11449654 386.51584296 -106.71142578 369.98168945 C-108.27602186 349.23327725 -101.19620364 332.01520028 -88.35546875 315.94140625 C-78.66391216 305.31749738 -62.6623935 296.97702711 -48.33349609 295.77661133 C-31.15141234 295.10340543 -17.71164944 296.79508692 -2.7421875 305.51171875 C0.48225054 307.29577825 0.48225054 307.29577825 4 308 C6.08725614 306.64259519 6.08725614 306.64259519 8.03417969 304.53344727 C9.20494049 303.36211998 9.20494049 303.36211998 10.39935303 302.16712952 C11.23178528 301.30889084 12.06421753 300.45065216 12.921875 299.56640625 C13.78186096 298.69934555 14.64184692 297.83228485 15.52789307 296.93894958 C18.2805071 294.15827669 21.01526605 291.36074881 23.75 288.5625 C25.60952923 286.67790319 27.47019225 284.79442435 29.33203125 282.91210938 C33.90127129 278.28764699 38.45595683 273.6492161 43 269 C42.37818848 267.90961426 41.75637695 266.81922852 41.11572266 265.69580078 C40.76595367 265.0824588 40.41618469 264.46911682 40.05581665 263.83718872 C37.94054156 260.15647432 35.75610654 256.51572497 33.5859375 252.8671875 C30.65955535 247.57663456 28.85678931 243.06474912 30.5625 237 C31.17931229 234.18028669 30.57221631 231.79750197 30 229 C28.68 228.67 27.36 228.34 26 228 C24.26872081 222.0487278 23.80716302 216.53320346 23.8125 210.375 C23.81185547 209.65900635 23.81121094 208.9430127 23.81054688 208.20532227 C23.93360011 196.06639989 23.93360011 196.06639989 27 193 C27.99 193 28.98 193 30 193 C30.20625 191.72125 30.4125 190.4425 30.625 189.125 C30.74101562 188.40570313 30.85703125 187.68640625 30.9765625 186.9453125 C30.98429688 186.30335938 30.99203125 185.66140625 31 185 C30.34 184.34 29.68 183.68 29 183 C29.29511189 177.87716029 31.27079314 173.79873888 33.5625 169.3125 C33.91675049 168.61205566 34.27100098 167.91161133 34.63598633 167.18994141 C39.08502291 158.61786253 44.8304207 151.40349516 51 144 C43.08 136.08 35.16 128.16 27 120 C23.37 122.97 19.74 125.94 16 129 C13.30000069 130.62705183 10.81735546 132.04815417 8 133.375 C7.37867188 133.69082031 6.75734375 134.00664062 6.1171875 134.33203125 C-3.11054809 138.83382129 -12.21984907 140.5254239 -22.4375 140.375 C-23.95234985 140.3586853 -23.95234985 140.3586853 -25.49780273 140.34204102 C-42.99659326 139.9678637 -59.08568856 133.31709685 -71.36279297 120.58691406 C-73.27920596 118.53224415 -75.16643712 116.45416926 -77.03149414 114.3527832 C-79.57823889 111.49216155 -82.15251199 108.91219761 -85.125 106.5 C-97.50402593 96.0273949 -104.40030921 80.69734725 -106.6875 64.875 C-106.790625 63.59625 -106.89375 62.3175 -107 61 C-107.07927734 60.04480469 -107.07927734 60.04480469 -107.16015625 59.0703125 C-108.00180895 39.67570682 -99.69525472 21.37210834 -86.8125 7.25 C-62.82570232 -14.96818587 -27.27578432 -17.40715884 0 0 Z M229.32322693 112.55651855 C228.23401695 113.64905945 228.23401695 113.64905945 227.12280273 114.76367188 C225.89163979 115.99494812 225.89163979 115.99494812 224.63560486 117.25109863 C223.74394119 118.14792358 222.85227753 119.04474854 221.93359375 119.96875 C220.57065941 121.33380676 220.57065941 121.33380676 219.18019104 122.72644043 C216.75968031 125.15077694 214.34218698 127.57810106 211.92529297 130.00604248 C209.46046125 132.48108703 206.99281098 134.95331783 204.52539062 137.42578125 C199.68081879 142.28109147 194.83942624 147.13956116 190 152 C192.1490712 157.04349839 192.1490712 157.04349839 200 162 C213.2 148.8 226.4 135.6 240 122 C238.41925789 118.83851578 237.18882303 116.83874491 234.9375 114.25 C234.41027344 113.63640625 233.88304687 113.0228125 233.33984375 112.390625 C232.89769531 111.93171875 232.45554687 111.4728125 232 111 C230.74083933 110.88661046 230.74083933 110.88661046 229.32322693 112.55651855 Z M47.27890015 277.48059082 C46.59051056 278.17342163 45.90212097 278.86625244 45.19287109 279.58007812 C44.41221283 280.36088745 43.63155457 281.14169678 42.82723999 281.94616699 C41.98448517 282.79924438 41.14173035 283.65232178 40.2734375 284.53125 C39.41062164 285.39689575 38.54780579 286.2625415 37.65884399 287.15441895 C34.89285469 289.93164053 32.13388401 292.71572161 29.375 295.5 C27.50622343 297.37991899 25.63588137 299.25827099 23.765625 301.13671875 C19.17183035 305.7526142 14.5837858 310.37416636 10 315 C12.25519266 318.40142694 14.51111399 321.76444819 17 325 C20.72056011 324.42707896 22.41557215 322.95050994 25.03417969 320.30639648 C25.81468689 319.52566269 26.59519409 318.74492889 27.39935303 317.9405365 C28.23178528 317.09262039 29.06421753 316.24470428 29.921875 315.37109375 C30.78186096 314.50686295 31.64184692 313.64263214 32.52789307 312.75221252 C35.27570575 309.98759388 38.01291036 307.21273138 40.75 304.4375 C42.60998825 302.56246749 44.47065707 300.68810982 46.33203125 298.81445312 C50.89594973 294.21743983 55.45119938 289.61197045 60 285 C59.22011719 284.04867188 58.44023437 283.09734375 57.63671875 282.1171875 C57.19803467 281.58206543 56.75935059 281.04694336 56.30737305 280.49560547 C54.71154393 278.67001271 53.05959516 277.27836941 51 276 C48.87431013 275.78261603 48.87431013 275.78261603 47.27890015 277.48059082 Z " fill="#3E3063" transform="translate(130,38)"/>
<path d="M0 0 C1.80404297 0.74443359 1.80404297 0.74443359 3.64453125 1.50390625 C25.60261099 11.55087769 40.8009656 29.33435957 49.41015625 51.65625 C56.51460075 73.45339872 54.20566443 97.11300084 44.1875 117.5625 C40.84547803 124.00277293 36.92301716 129.64849802 32 135 C30.89398438 136.24330078 30.89398438 136.24330078 29.765625 137.51171875 C14.21781085 154.10113483 -6.87359049 162.64043767 -29.43701172 163.40209961 C-53.35230391 163.73242132 -73.80397953 154.42781337 -91 138 C-91.62648437 137.44828125 -92.25296875 136.8965625 -92.8984375 136.328125 C-100.93068586 128.98643193 -105.83822914 118.69395716 -110.578125 109.046875 C-111.98907107 106.53636773 -111.98907107 106.53636773 -116 106 C-116.66 103.03 -117.32 100.06 -118 97 C-119.32 96.67 -120.64 96.34 -122 96 C-123.73127919 90.0487278 -124.19283698 84.53320346 -124.1875 78.375 C-124.1884668 77.30100952 -124.1884668 77.30100952 -124.18945312 76.20532227 C-124.06639989 64.06639989 -124.06639989 64.06639989 -121 61 C-120.01 61 -119.02 61 -118 61 C-117.67 58.69 -117.34 56.38 -117 54 C-116.25621094 53.82597656 -115.51242188 53.65195313 -114.74609375 53.47265625 C-110.87465064 51.39650539 -109.77651116 48.28780859 -108.0625 44.4375 C-107.36871568 42.97329523 -106.67081357 41.51103432 -105.96875 40.05078125 C-105.63230469 39.34775879 -105.29585937 38.64473633 -104.94921875 37.92041016 C-95.88848179 19.58919696 -78.05891226 5.38043128 -58.91674805 -1.28442383 C-40.13350784 -7.48217485 -18.37623211 -7.67466442 0 0 Z " fill="#F8749D" transform="translate(278,170)"/>
<path d="M0 0 C3.61810764 2.75618967 6.83391915 5.7399353 10 9 C10.56074219 9.54011719 11.12148437 10.08023438 11.69921875 10.63671875 C21.84265052 21.2061214 26.5734143 36.91624641 26.56054688 51.23608398 C25.92740973 67.92035219 17.79282191 83.27159472 5.859375 94.64453125 C-7.68535419 105.80227947 -23.22678838 110.5237213 -40.63525391 109.27050781 C-51.55477139 108.0214034 -61.25991534 103.59088352 -70 97 C-71.05574219 96.23429687 -71.05574219 96.23429687 -72.1328125 95.453125 C-82.73706736 87.05289174 -90.71480349 73.34134981 -92.8125 60 C-92.90110562 58.66814675 -92.96068602 57.33421829 -93 56 C-93.061875 55.08347656 -93.12375 54.16695313 -93.1875 53.22265625 C-93.78808184 38.03919663 -89.94203777 25.23186771 -81 13 C-80.51660156 12.31550781 -80.03320312 11.63101563 -79.53515625 10.92578125 C-59.9597705 -14.32362935 -25.41258693 -15.25344152 0 0 Z " fill="#FCD4E3" transform="translate(125,45)"/>
<path d="M0 0 C3.61810764 2.75618967 6.83391915 5.7399353 10 9 C10.56074219 9.54011719 11.12148437 10.08023437 11.69921875 10.63671875 C21.84265052 21.2061214 26.5734143 36.91624641 26.56054688 51.23608398 C25.92374215 68.01699931 17.73355064 83.31062713 5.71484375 94.71484375 C-7.57007652 105.89711477 -23.8016713 110.60637298 -40.93261719 109.23925781 C-55.39775623 107.56521007 -69.79701277 99.63279369 -79.0859375 88.5 C-89.9500376 74.28377979 -94.81598261 58.22286658 -92.68359375 40.34765625 C-92.24530128 37.84820458 -91.6748672 35.44590599 -91 33 C-90.76667969 32.14019531 -90.53335938 31.28039062 -90.29296875 30.39453125 C-85.40409696 14.92426572 -74.30329477 3.28750293 -60.28515625 -4.45703125 C-39.9276827 -14.01850813 -18.93156754 -11.36332791 0 0 Z " fill="#6DC8F5" transform="translate(125,352)"/>
<path d="M0 0 C0.78761719 0.2990625 1.57523437 0.598125 2.38671875 0.90625 C15.41083814 6.61255789 26.1352303 18.98243536 31.296875 32.05078125 C31.52890625 32.69402344 31.7609375 33.33726562 32 34 C32.391875 35.010625 32.78375 36.02125 33.1875 37.0625 C37.55182945 52.84122956 35.09588166 69.58368974 27.6875 84 C19.3109707 98.36229443 6.23154823 108.22474344 -9.84765625 112.8125 C-26.05533269 116.17063728 -42.37908509 113.3650723 -56.5625 104.875 C-70.84642072 95.27767239 -79.72867457 81.77730062 -83.60449219 65.12060547 C-86.47860697 49.71038263 -82.77861291 33.92460969 -74 21 C-71.19146773 17.45676819 -68.18735146 14.20383776 -65 11 C-64.39671875 10.36191406 -63.7934375 9.72382813 -63.171875 9.06640625 C-46.10450787 -7.59282819 -20.99152707 -8.25266893 0 0 Z " fill="#FA78A0" transform="translate(429,347)"/>
<path d="M0 0 C12.35494221 9.56019014 22.78111801 23.0868059 25 39 C25.75923582 50.77082861 25.81214532 62.03313589 21 73 C20.59910156 73.92683594 20.19820313 74.85367188 19.78515625 75.80859375 C13.05409298 89.5633752 1.66091435 99.8111794 -12.5625 105.3125 C-28.67143579 110.61388706 -44.62120011 110.72241528 -60.26171875 103.4921875 C-76.32572623 94.64772756 -85.8146137 81.99943416 -92 65 C-95.4102458 52.86779223 -93.98511143 37.36105331 -89 26 C-88.39865234 24.60974609 -88.39865234 24.60974609 -87.78515625 23.19140625 C-81.0991179 9.52863222 -69.6743671 -0.99857058 -55.42578125 -6.33984375 C-52.29877422 -7.32381797 -49.18042252 -8.20824925 -46 -9 C-45.34644531 -9.19078125 -44.69289063 -9.3815625 -44.01953125 -9.578125 C-29.50405033 -12.61037247 -12.19696258 -7.97684663 0 0 Z " fill="#0188EE" transform="translate(436,45)"/>
<path d="M0 0 C4.01572224 2.59463332 6.18498301 6.59452836 8.74438477 10.53662109 C12.93445329 16.8073415 18.21525553 21.59981698 23.92626953 26.46972656 C25.40292364 27.72967034 26.85666536 29.01632823 28.30859375 30.3046875 C33.00067718 34.31831138 36.21698863 36.8125 42.5 36.8125 C42.2834375 35.760625 42.2834375 35.760625 42.0625 34.6875 C42.64266472 30.87498896 43.84820513 29.37143589 46.83203125 26.984375 C50.60099447 25.32890067 54.04472627 25.25910872 58.125 25.25 C58.86548584 25.24766357 59.60597168 25.24532715 60.36889648 25.24291992 C66.25555612 25.42106273 69.28745382 26.86515189 73.6081543 30.66796875 C76.54701961 35.55280359 76.05139837 40.30710765 75.99609375 45.90234375 C75.99754898 47.0796254 75.99900421 48.25690704 76.00050354 49.46986389 C75.99884515 51.95706662 75.98729076 54.44427966 75.96655273 56.93139648 C75.93763159 60.73270421 75.94593985 64.53261423 75.95898438 68.33398438 C75.95274577 70.75261093 75.94435388 73.17123309 75.93359375 75.58984375 C75.93652939 76.72437485 75.93946503 77.85890594 75.94248962 79.02781677 C75.87532128 84.66497106 75.78768797 88.99718934 72.5 93.8125 C68.25161412 97.51421858 63.85806658 97.26578344 58.5 97.1875 C57.7059375 97.19910156 56.911875 97.21070313 56.09375 97.22265625 C51.42296223 97.19930231 48.28453709 96.84308634 44.5 93.8125 C44.17 93.1525 43.84 92.4925 43.5 91.8125 C39.68211196 92.48228521 36.18151875 93.57964177 32.52148438 94.84399414 C25.61999982 96.98813468 19.34393376 97.37929051 12.15625 97.30859375 C10.94352417 97.31004898 9.73079834 97.31150421 8.48132324 97.31300354 C5.94357882 97.31135685 3.4058231 97.29993549 0.86816406 97.27905273 C-3.01800582 97.24986476 -6.9028279 97.25851721 -10.7890625 97.27148438 C-13.26563162 97.26525274 -15.74219647 97.25686632 -18.21875 97.24609375 C-19.95626526 97.25049721 -19.95626526 97.25049721 -21.72888184 97.25498962 C-22.8077063 97.24230545 -23.88653076 97.22962128 -24.99804688 97.21655273 C-25.94256714 97.21114975 -26.8870874 97.20574677 -27.86022949 97.20018005 C-31.03909401 96.73332797 -32.91107013 95.69095724 -35.5 93.8125 C-38.39584879 89.41879839 -38.98290996 86.02792759 -38.5 80.8125 C-37.943125 79.7296875 -37.943125 79.7296875 -37.375 78.625 C-37.08625 78.026875 -36.7975 77.42875 -36.5 76.8125 C-37.14808564 75.47003688 -37.81822584 74.13817199 -38.5 72.8125 C-38.80399283 68.55660043 -38.83486745 65.46073039 -36.5 61.8125 C-37.16 60.8225 -37.82 59.8325 -38.5 58.8125 C-38.69045751 54.93986397 -38.65060359 51.61571917 -37.9375 47.8125 C-37.53644671 45.06242031 -37.6546007 43.48315408 -38.125 40.8125 C-38.73434533 36.67369989 -37.8730841 34.33121091 -35.5 30.8125 C-32.8430076 28.0580629 -31.51497023 27.81362728 -27.609375 27.51953125 C-26.15595991 27.53935055 -24.70268833 27.57495155 -23.25 27.625 C-22.13238281 27.64530273 -22.13238281 27.64530273 -20.9921875 27.66601562 C-19.16114584 27.70122796 -17.33047831 27.75503149 -15.5 27.8125 C-15.933125 27.0390625 -16.36625 26.265625 -16.8125 25.46875 C-22.65886045 14.53389063 -22.65886045 14.53389063 -21.5 7.8125 C-16.7688536 -1.47456515 -9.4329724 -3.20047278 0 0 Z " fill="#3F2F62" transform="translate(228.5,201.1875)"/>
<path d="M0 0 C15.32424351 9.03737438 23.54057623 24.29151522 28 41 C31.78256082 59.3066245 27.98311519 78.2858372 18 94 C6.65658344 109.10957468 -8.43575925 119.16532835 -27 123 C-30.90711826 123.43176428 -34.75859815 123.52526522 -38.6875 123.5 C-39.73333252 123.49427979 -40.77916504 123.48855957 -41.85668945 123.48266602 C-56.87301658 123.13967985 -66.53613592 118.24977297 -80 111 C-93.2 124.2 -106.4 137.4 -120 151 C-118.32378503 155.19053742 -116.62644287 158.26930345 -114.1875 162 C-106.02535194 174.92940404 -101.80247205 189.75303114 -101 205 C-100.95875 205.763125 -100.9175 206.52625 -100.875 207.3125 C-100.23848769 231.49996772 -109.09796955 255.09010276 -125.6171875 272.7265625 C-126.72046156 273.84230294 -127.85527955 274.92682458 -129 276 C-131.93230193 274.67879172 -133.98664899 273.25361803 -136.234375 270.9609375 C-136.80800781 270.38085938 -137.38164062 269.80078125 -137.97265625 269.203125 C-138.85244141 268.29820312 -138.85244141 268.29820312 -139.75 267.375 C-140.35199219 266.76398438 -140.95398438 266.15296875 -141.57421875 265.5234375 C-143.05405305 264.02011376 -144.52764676 262.51065144 -146 261 C-145.62174072 260.49944092 -145.24348145 259.99888184 -144.85375977 259.4831543 C-143.84456406 258.14453673 -142.84078832 256.80182972 -141.83984375 255.45703125 C-140.59700546 253.7972748 -139.33870558 252.14900092 -138.06640625 250.51171875 C-122.40915024 229.91006611 -117.12988858 206.54001943 -119 181 C-121.12085409 165.56301002 -127.81297166 151.44076754 -137 139 C-136.505 138.01 -136.505 138.01 -136 137 C-132.04 140.465 -132.04 140.465 -128 144 C-122.77051256 139.62970634 -117.89710045 135.03088196 -113.09765625 130.1953125 C-112.3750914 129.4713327 -111.65252655 128.74735291 -110.9080658 128.00143433 C-108.62383078 125.71164735 -106.34311688 123.41839007 -104.0625 121.125 C-102.50478961 119.56226839 -100.94684913 117.9997661 -99.38867188 116.4375 C-95.58978398 112.6276469 -91.79377287 108.81494621 -88 105 C-89.61382757 101.59787701 -91.58603766 98.89675481 -94 96 C-90.07599677 96 -88.01339066 97.45432811 -84.5625 99.3125 C-69.84012132 106.85249217 -52.77903502 108.78850497 -36.7578125 103.96875 C-35.84773438 103.6490625 -34.93765625 103.329375 -34 103 C-33.00742187 102.6596875 -32.01484375 102.319375 -30.9921875 101.96875 C-13.85794183 95.48315318 -1.96025616 83.17264712 6 67 C12.24474291 52.52519128 13.71331023 33.98705283 9.12890625 18.75 C7.26457386 14.2085121 4.96493849 9.96429167 2.5234375 5.71484375 C1 3 1 3 0 0 Z " fill="#E4E5E7" transform="translate(457,55)"/>
<path d="M0 0 C6.03331362 4.98404168 11.5184171 10.41915303 17 16 C4.03781269 30.15772886 -18.89061208 35.83484665 -37.26708984 36.87475586 C-60.69867404 37.7791238 -83.14843946 30.32258946 -101 15 C-102.18724437 14.0205234 -103.37471593 13.04132206 -104.5625 12.0625 C-105.7690625 11.0415625 -105.7690625 11.0415625 -107 10 C-110.18259851 11.40509099 -112.31348466 13.06921342 -114.75878906 15.53173828 C-115.83945648 16.61263229 -115.83945648 16.61263229 -116.94195557 17.71536255 C-117.70876648 18.49249603 -118.47557739 19.26962952 -119.265625 20.0703125 C-120.05902283 20.86654022 -120.85242065 21.66276794 -121.66986084 22.48312378 C-124.20130703 25.02575948 -126.72570803 27.57526348 -129.25 30.125 C-130.96568617 31.85071753 -132.68182662 33.57598355 -134.3984375 35.30078125 C-138.60424248 39.52863032 -142.80428507 43.76213869 -147 48 C-144.27297379 52.10899578 -144.27297379 52.10899578 -141.47265625 56.16796875 C-130.27583438 72.20330645 -126.72916806 89.91198966 -129.29296875 109.20458984 C-132.49918252 127.08440293 -143.15367842 142.58617543 -157.828125 152.99609375 C-174.1095538 163.28226736 -193.09679436 167.05654205 -212.109375 163.30859375 C-228.65320701 158.91528725 -241.17403085 150.06373931 -252 137 C-248.13066951 137 -245.4988892 138.6172767 -242.125 140.3125 C-227.54701745 147.29234626 -210.2750759 150.14215746 -194.57421875 144.97265625 C-193.29998047 144.49119141 -193.29998047 144.49119141 -192 144 C-191.01644531 143.64808594 -190.03289062 143.29617188 -189.01953125 142.93359375 C-181.9122624 140.20418632 -176.01774885 136.63236782 -170 132 C-168.96875 131.2575 -167.9375 130.515 -166.875 129.75 C-155.21448884 118.59646759 -146.90858365 102.2208904 -146 86 C-145.93554688 84.89785156 -145.87109375 83.79570312 -145.8046875 82.66015625 C-145.334995 67.48908852 -150.3750138 55.28719143 -157 42 C-156.25865311 41.58397018 -155.51730621 41.16794037 -154.75349426 40.73930359 C-152.10995139 39.06945315 -150.14049128 37.3822337 -147.9440918 35.17114258 C-146.80347542 34.03029961 -146.80347542 34.03029961 -145.63981628 32.8664093 C-144.4317205 31.64282967 -144.4317205 31.64282967 -143.19921875 30.39453125 C-141.9446563 29.13572395 -141.9446563 29.13572395 -140.66474915 27.85148621 C-138.00092645 25.1764904 -135.34415185 22.49461574 -132.6875 19.8125 C-130.88001795 17.99498448 -129.07208045 16.17792177 -127.26367188 14.36132812 C-122.8371543 9.9127882 -118.41639948 5.45858387 -114 1 C-111.44568663 2.26739591 -108.95338888 3.5766029 -106.49609375 5.0234375 C-84.88362699 17.59844904 -60.21551289 23.29813193 -35.42578125 17.03515625 C-23.55159717 13.44717588 -13.31227918 8.94787854 -3 2 C-2.01 1.34 -1.02 0.68 0 0 Z " fill="#E5E6E7" transform="translate(304,321)"/>
<path d="M0 0 C12.35494221 9.56019014 22.78111801 23.0868059 25 39 C25.75923582 50.77082861 25.81214532 62.03313589 21 73 C20.59910156 73.92683594 20.19820313 74.85367188 19.78515625 75.80859375 C13.05409298 89.5633752 1.66091435 99.8111794 -12.5625 105.3125 C-28.67143579 110.61388706 -44.62120011 110.72241528 -60.26171875 103.4921875 C-76.32572623 94.64772756 -85.8146137 81.99943416 -92 65 C-95.4102458 52.86779223 -93.98511143 37.36105331 -89 26 C-88.39865234 24.60974609 -88.39865234 24.60974609 -87.78515625 23.19140625 C-81.0991179 9.52863222 -69.6743671 -0.99857058 -55.42578125 -6.33984375 C-52.29877422 -7.32381797 -49.18042252 -8.20824925 -46 -9 C-45.34644531 -9.19078125 -44.69289063 -9.3815625 -44.01953125 -9.578125 C-29.50405033 -12.61037247 -12.19696258 -7.97684663 0 0 Z M-71.3125 16.625 C-73.75259809 20.05921213 -74.13014632 21.82650767 -74.16113281 25.99707031 C-74.17074036 27.03865295 -74.1803479 28.0802356 -74.19024658 29.15338135 C-74.19449646 30.28354675 -74.19874634 31.41371216 -74.203125 32.578125 C-74.20882507 33.73745544 -74.21452515 34.89678589 -74.22039795 36.09124756 C-74.2298587 38.5492664 -74.23638618 41.00729799 -74.24023438 43.46533203 C-74.24992415 47.22060418 -74.28093174 50.97532552 -74.3125 54.73046875 C-74.31903148 57.11718425 -74.32428138 59.50390366 -74.328125 61.890625 C-74.3404718 63.01269348 -74.3528186 64.13476196 -74.36553955 65.29083252 C-74.34715872 71.74743931 -74.05374452 76.65201447 -69.5 81.64453125 C-65.05093765 85.10877511 -62.17594125 86.12198444 -56.61401367 86.16113281 C-55.51244431 86.17074036 -54.41087494 86.1803479 -53.27592468 86.19024658 C-52.08529922 86.19449646 -50.89467377 86.19874634 -49.66796875 86.203125 C-48.44346512 86.20882507 -47.21896149 86.21452515 -45.95735168 86.22039795 C-43.36407333 86.22985113 -40.77078295 86.23638319 -38.17749023 86.24023438 C-34.2138162 86.24993559 -30.25066157 86.28095522 -26.28710938 86.3125 C-23.76823225 86.31903049 -21.24935141 86.32428078 -18.73046875 86.328125 C-17.54591599 86.3404718 -16.36136322 86.3528186 -15.14091492 86.36553955 C-8.52710227 86.34767435 -3.47287834 86.167661 1.64453125 81.5 C5.02065157 77.16411304 6.11875168 74.31418858 6.17700195 68.8894043 C6.18983719 67.84789719 6.20267242 66.80639008 6.21589661 65.73332214 C6.22328354 64.60831802 6.23067047 63.4833139 6.23828125 62.32421875 C6.25038887 60.5873455 6.25038887 60.5873455 6.26274109 58.81538391 C6.27657855 56.36334734 6.28730221 53.91129153 6.29516602 51.45922852 C6.31238427 47.71268178 6.35627576 43.96701614 6.40039062 40.22070312 C6.41051714 37.83854816 6.41903337 35.45638569 6.42578125 33.07421875 C6.45204338 31.39582161 6.45204338 31.39582161 6.47883606 29.68351746 C6.46206901 23.66022246 6.38843627 19.53831279 2 15 C-4.33159329 9.24443782 -10.80138658 9.27905912 -19.0390625 9.37109375 C-20.27868744 9.36868179 -21.51831238 9.36626984 -22.79550171 9.36378479 C-25.40601819 9.364761 -28.01655595 9.37810015 -30.62695312 9.40307617 C-33.29737112 9.4260689 -35.96373108 9.43733752 -38.63378906 9.42358398 C-42.49843877 9.40479815 -46.36193343 9.41423932 -50.2265625 9.43359375 C-51.41730377 9.42863388 -52.60804504 9.42367401 -53.83486938 9.41856384 C-61.98365802 9.53431054 -65.83585833 10.40827161 -71.3125 16.625 Z " fill="#FCD5E3" transform="translate(436,45)"/>
<path d="M0 0 C3.61810764 2.75618967 6.83391915 5.7399353 10 9 C10.56074219 9.54011719 11.12148437 10.08023437 11.69921875 10.63671875 C21.84265052 21.2061214 26.5734143 36.91624641 26.56054688 51.23608398 C25.92374215 68.01699931 17.73355064 83.31062713 5.71484375 94.71484375 C-7.57007652 105.89711477 -23.8016713 110.60637298 -40.93261719 109.23925781 C-55.39775623 107.56521007 -69.79701277 99.63279369 -79.0859375 88.5 C-89.9500376 74.28377979 -94.81598261 58.22286658 -92.68359375 40.34765625 C-92.24530128 37.84820458 -91.6748672 35.44590599 -91 33 C-90.76667969 32.14019531 -90.53335938 31.28039062 -90.29296875 30.39453125 C-85.40409696 14.92426572 -74.30329477 3.28750293 -60.28515625 -4.45703125 C-39.9276827 -14.01850813 -18.93156754 -11.36332791 0 0 Z M-69.375 21.6875 C-77.40091965 32.55386858 -79.52585254 43.83516004 -78 57 C-75.9096031 68.91915749 -70.19193166 78.12776336 -60.5625 85.4375 C-49.26951329 93.09163544 -38.51797602 95.4019537 -25 94 C-16.94336542 92.04073457 -10.16301633 88.50853672 -4 83 C-3.39671875 82.49984375 -2.7934375 81.9996875 -2.171875 81.484375 C6.03154225 74.13696651 10.46271249 63.38770322 11.25 52.5625 C11.71931762 38.01365365 7.10041594 27.46606766 -2.625 16.8125 C-12.13567989 7.68443367 -24.12587348 4.58317367 -36.93334961 4.63330078 C-50.18151892 5.02490267 -60.81636118 11.81214752 -69.375 21.6875 Z " fill="#FBD3E2" transform="translate(125,352)"/>
<path d="M0 0 C1.12910294 -0.0038269 2.25820587 -0.00765381 3.42152405 -0.01159668 C5.80438124 -0.01431318 8.18726839 -0.00697046 10.57006836 0.00976562 C14.20689801 0.03115731 17.84174761 0.00996352 21.47851562 -0.015625 C23.79818142 -0.01298129 26.117846 -0.00785542 28.4375 0 C30.0612278 -0.01214539 30.0612278 -0.01214539 31.71775818 -0.02453613 C38.09932046 0.05425752 42.22873403 0.49169082 47.28515625 4.53125 C51.60437456 10.12266007 51.88873723 14.85865517 51.8515625 21.77734375 C51.85776108 22.74728775 51.86395966 23.71723175 51.87034607 24.71656799 C51.87742257 26.75968426 51.87430832 28.80285844 51.86157227 30.84594727 C51.8477116 33.95633029 51.88180453 37.06369888 51.91992188 40.17382812 C51.92087326 42.1666674 51.91901319 44.1595104 51.9140625 46.15234375 C51.92732071 47.07341415 51.94057892 47.99448456 51.95423889 48.94346619 C51.86363038 55.28908373 50.57150425 59.7396371 46.28515625 64.53125 C41.01172031 68.56672688 34.90081605 67.98202514 28.53515625 67.96484375 C27.40368164 67.9700856 26.27220703 67.97532745 25.10644531 67.98072815 C22.71940937 67.98713816 20.33234181 67.98582462 17.9453125 67.97729492 C14.29760455 67.96877906 10.65145989 67.9975726 7.00390625 68.02929688 C4.68099005 68.0309089 2.35807109 68.03033134 0.03515625 68.02734375 C-1.05249023 68.03857773 -2.14013672 68.04981171 -3.26074219 68.06138611 C-9.39769725 68.00501409 -13.04991224 67.64514126 -17.71484375 63.53125 C-20.89862291 59.90832888 -21.83260147 56.83219608 -21.8918457 52.06323242 C-21.90468094 51.16187057 -21.91751617 50.26050873 -21.93074036 49.33183289 C-21.93812729 48.35994522 -21.94551422 47.38805756 -21.953125 46.38671875 C-21.96119675 45.38417557 -21.96926849 44.38163239 -21.97758484 43.34870911 C-21.99141738 41.22622402 -22.00214325 39.10371676 -22.01000977 36.98120117 C-22.02722237 33.74159439 -22.0711165 30.50300825 -22.11523438 27.26367188 C-22.12536162 25.20052833 -22.13387762 23.13737612 -22.140625 21.07421875 C-22.15813309 20.10840378 -22.17564117 19.14258881 -22.19367981 18.14750671 C-22.1753572 12.44312014 -21.70641492 8.93529874 -17.71484375 4.53125 C-12.35363514 -0.45514707 -6.93542944 -0.05177977 0 0 Z " fill="#F8759E" transform="translate(76.71484375,60.46875)"/>
<path d="M0 0 C0.78761719 0.2990625 1.57523437 0.598125 2.38671875 0.90625 C15.41083814 6.61255789 26.1352303 18.98243536 31.296875 32.05078125 C31.52890625 32.69402344 31.7609375 33.33726562 32 34 C32.391875 35.010625 32.78375 36.02125 33.1875 37.0625 C37.55182945 52.84122956 35.09588166 69.58368974 27.6875 84 C19.3109707 98.36229443 6.23154823 108.22474344 -9.84765625 112.8125 C-26.05533269 116.17063728 -42.37908509 113.3650723 -56.5625 104.875 C-70.84642072 95.27767239 -79.72867457 81.77730062 -83.60449219 65.12060547 C-86.47860697 49.71038263 -82.77861291 33.92460969 -74 21 C-71.19146773 17.45676819 -68.18735146 14.20383776 -65 11 C-64.39671875 10.36191406 -63.7934375 9.72382813 -63.171875 9.06640625 C-46.10450787 -7.59282819 -20.99152707 -8.25266893 0 0 Z M-59.8125 20.8125 C-60.35519531 21.43769531 -60.89789063 22.06289063 -61.45703125 22.70703125 C-65.79425994 29.15248249 -66.46707945 34.5716238 -66.46875 42.17578125 C-66.47636353 43.1409819 -66.48397705 44.10618256 -66.49182129 45.10063171 C-66.50258667 47.13533961 -66.50548995 49.17010261 -66.50097656 51.20483398 C-66.50000609 54.29310878 -66.54163102 57.37888126 -66.5859375 60.46679688 C-66.59114687 62.45311988 -66.59383265 64.43945142 -66.59375 66.42578125 C-66.61014526 67.33652908 -66.62654053 68.24727692 -66.64343262 69.18562317 C-66.56361281 76.71334799 -64.39587184 83.28283561 -59.24450684 88.92158508 C-52.49729293 95.23721276 -45.72340448 96.46210376 -36.7890625 96.43359375 C-35.33770401 96.44145653 -35.33770401 96.44145653 -33.85702515 96.44947815 C-31.81810461 96.45587732 -29.77914705 96.45458875 -27.74023438 96.44604492 C-24.64124932 96.43754457 -21.54411542 96.46631096 -18.4453125 96.49804688 C-16.45572971 96.4996595 -14.4661437 96.49908018 -12.4765625 96.49609375 C-11.56065338 96.50732773 -10.64474426 96.51856171 -9.70108032 96.53013611 C-2.2749187 96.45076091 3.80998581 94.67863787 9.55859375 89.8515625 C10.17863281 89.11679687 10.79867187 88.38203125 11.4375 87.625 C12.07558594 86.89539063 12.71367187 86.16578125 13.37109375 85.4140625 C17.37965622 79.47331525 17.34535439 73.4032417 17.40625 66.484375 C17.42335022 64.96786346 17.42335022 64.96786346 17.4407959 63.42071533 C17.45964046 61.28589019 17.47274179 59.15100761 17.48046875 57.01611328 C17.49985639 53.7740159 17.56193385 50.53447041 17.625 47.29296875 C17.63806495 45.21095243 17.64856398 43.12891812 17.65625 41.046875 C17.6809436 40.08924255 17.70563721 39.13161011 17.7310791 38.1449585 C17.68333216 30.8196479 15.50132227 25.77309823 11 20 C4.08112232 13.58381096 -3.22787063 12.68547104 -12.3671875 12.6640625 C-13.36074249 12.6574057 -14.35429749 12.6507489 -15.37796021 12.64389038 C-17.47412268 12.63379201 -19.57031713 12.62907249 -21.66650391 12.62939453 C-24.8576401 12.62502378 -28.04738962 12.58868016 -31.23828125 12.55078125 C-33.2812453 12.54491187 -35.32421588 12.54094329 -37.3671875 12.5390625 C-38.78630936 12.51750595 -38.78630936 12.51750595 -40.23410034 12.49551392 C-48.14422804 12.54953603 -54.59608341 14.58072252 -59.8125 20.8125 Z " fill="#FBD4E2" transform="translate(429,347)"/>
<path d="M0 0 C2.08984375 1.90625 2.08984375 1.90625 3.9375 4.5 C4.62070313 5.4178125 5.30390625 6.335625 6.0078125 7.28125 C6.66523438 8.1784375 7.32265625 9.075625 8 10 C13.37265273 16.6970741 19.55224372 22.35169598 26 28 C26.93585938 28.85851562 27.87171875 29.71703125 28.8359375 30.6015625 C29.75632813 31.41367188 30.67671875 32.22578125 31.625 33.0625 C32.44226563 33.79597656 33.25953125 34.52945313 34.1015625 35.28515625 C37.99008876 37.58578028 41.54872814 37.7991127 46 38 C46.09897181 43.05365292 46.17151603 48.10674024 46.21972656 53.16113281 C46.23982628 54.87998279 46.26711089 56.59876452 46.30175781 58.31738281 C46.35035034 60.78988489 46.37298435 63.2614821 46.390625 65.734375 C46.41127014 66.50118591 46.43191528 67.26799683 46.45318604 68.05804443 C46.45459254 71.41198445 46.29272291 73.56770765 44.39013672 76.37744141 C33.05172959 84.07458684 16.55131069 82.55645705 3.54052734 82.41162109 C0.08271504 82.37454662 -3.37403868 82.37060664 -6.83203125 82.37109375 C-9.03125933 82.36128085 -11.23048016 82.34963192 -13.4296875 82.3359375 C-14.46286102 82.33371185 -15.49603455 82.33148621 -16.56051636 82.32919312 C-17.50975983 82.31643341 -18.4590033 82.30367371 -19.43701172 82.29052734 C-20.27255585 82.28290375 -21.10809998 82.27528015 -21.96896362 82.26742554 C-24 82 -24 82 -26 80 C-25.9375 77.5 -25.9375 77.5 -25 75 C-22.4375 73.6875 -22.4375 73.6875 -20 73 C-20 71.35 -20 69.7 -20 68 C-20.804375 67.773125 -21.60875 67.54625 -22.4375 67.3125 C-25 66 -25 66 -25.9375 63.5 C-25.958125 62.675 -25.97875 61.85 -26 61 C-23.8614515 58.8614515 -22.86724686 58.57344937 -20 58 C-20 56.35 -20 54.7 -20 53 C-21.98 52.01 -23.96 51.02 -26 50 C-25.8125 47.625 -25.8125 47.625 -25 45 C-24.175 44.690625 -23.35 44.38125 -22.5 44.0625 C-21.675 43.711875 -20.85 43.36125 -20 43 C-19.10169161 39.94727535 -19.10169161 39.94727535 -19 37 C-19.969375 36.7525 -20.93875 36.505 -21.9375 36.25 C-25 35 -25 35 -26 33 C-26 31 -26 31 -24 29 C-21.56982422 28.68115234 -21.56982422 28.68115234 -18.5546875 28.5859375 C-17.47832031 28.54726562 -16.40195313 28.50859375 -15.29296875 28.46875 C-14.16503906 28.4378125 -13.03710938 28.406875 -11.875 28.375 C-10.73933594 28.33632812 -9.60367188 28.29765625 -8.43359375 28.2578125 C-5.62256044 28.16332399 -2.81153767 28.07776459 0 28 C1.10444979 23.99855452 1.10444979 23.99855452 -0.58203125 20.24609375 C-1.31808594 19.31925781 -2.05414063 18.39242187 -2.8125 17.4375 C-8.77735174 9.82571575 -8.77735174 9.82571575 -9.3125 5.4375 C-9 3 -9 3 -7.875 1.1875 C-5.11282314 -0.56187868 -3.21427513 -0.36516734 0 0 Z " fill="#FDFDFD" transform="translate(224,208)"/>
<path d="M0 0 C14.04016337 9.41111768 23.72391297 23.58141202 27.5390625 40.10546875 C30.63792002 59.56524354 28.17241659 77.7560729 16.9296875 94.37890625 C5.81447692 109.47669227 -9.24166051 120.00313806 -28 123 C-49.32149349 124.78104574 -66.94852173 120.99650682 -84 107.4375 C-87.77625684 104.21803432 -91.04108157 100.97923512 -94 97 C-93.505 96.01 -93.505 96.01 -93 95 C-91.49373047 95.81404297 -91.49373047 95.81404297 -89.95703125 96.64453125 C-73.14082289 105.5348132 -55.83826851 109.34480657 -37.1875 103.9375 C-18.08456906 97.85342972 -4.87156571 86.98832376 4.42578125 69.28515625 C11.86767564 53.98427015 13.51496983 36.65053862 9.12890625 20.14453125 C7.34286506 15.16957223 5.00588403 10.55957128 2.5234375 5.8984375 C1 3 1 3 0 0 Z " fill="#E5E6E7" transform="translate(460,362)"/>
<path d="M0 0 C0.99259827 -0.0066568 1.98519653 -0.0133136 3.00787354 -0.02017212 C5.10581616 -0.03028234 7.20379085 -0.03498964 9.30175781 -0.03466797 C12.49078257 -0.03902853 15.67840854 -0.07533133 18.8671875 -0.11328125 C20.91145363 -0.11915247 22.9557263 -0.12311982 25 -0.125 C25.94405701 -0.13937103 26.88811401 -0.15374207 27.86077881 -0.16854858 C35.52146122 -0.11641246 41.54020189 1.69695496 47.515625 6.5859375 C53.39315206 13.76958168 55.52422612 18.70533371 55.39453125 28.08203125 C55.39694321 29.09258072 55.39935516 30.10313019 55.40184021 31.14430237 C55.40086514 33.27145326 55.38755343 35.39863062 55.36254883 37.52563477 C55.32825877 40.7608164 55.34190528 43.99325924 55.36132812 47.22851562 C55.35442798 49.304699 55.34475407 51.38087539 55.33203125 53.45703125 C55.33947105 54.89181068 55.33947105 54.89181068 55.34706116 56.35557556 C55.21655143 63.89190027 53.52332123 70.05177199 48.6171875 75.89453125 C47.88242187 76.51457031 47.14765625 77.13460937 46.390625 77.7734375 C45.66101563 78.41152344 44.93140625 79.04960937 44.1796875 79.70703125 C38.35339443 83.63836492 32.47220743 83.66756804 25.6875 83.70703125 C24.7208844 83.71605972 23.7542688 83.7250882 22.75836182 83.73439026 C20.71768269 83.74885959 18.67695753 83.75777122 16.63623047 83.76147461 C13.53922882 83.77334701 10.44423665 83.82254576 7.34765625 83.87304688 C5.35678047 83.88251531 3.36589255 83.88974833 1.375 83.89453125 C0.46111511 83.91406357 -0.45276978 83.93359589 -1.39434814 83.95372009 C-8.94168423 83.90164242 -15.50264002 81.7456309 -21.15582275 76.58030701 C-27.45194538 69.85511069 -28.70116795 63.0684254 -28.703125 54.16015625 C-28.71454529 52.71235527 -28.71454529 52.71235527 -28.72619629 51.23530579 C-28.73696167 49.20059789 -28.73986495 47.16583489 -28.73535156 45.13110352 C-28.73438109 42.04282872 -28.77600602 38.95705624 -28.8203125 35.86914062 C-28.82552187 33.88281762 -28.82820765 31.89648608 -28.828125 29.91015625 C-28.84452026 28.99940842 -28.86091553 28.08866058 -28.87780762 27.15031433 C-28.79451564 19.29513229 -26.2616118 12.91358099 -21.171875 6.8984375 C-20.2128125 6.125 -20.2128125 6.125 -19.234375 5.3359375 C-18.595 4.7996875 -17.955625 4.2634375 -17.296875 3.7109375 C-11.6939062 -0.02437503 -6.5386882 0.0152841 0 0 Z M-17.546875 14.8984375 C-19.790594 18.13936494 -20.3597252 20.64784445 -20.42724609 24.49682617 C-20.44330902 25.33167038 -20.45937195 26.16651459 -20.47592163 27.0266571 C-20.5206205 30.84922286 -20.56145331 34.6716183 -20.58447266 38.49438477 C-20.60100159 40.50491943 -20.62825101 42.51539608 -20.66650391 44.52563477 C-20.72154448 47.43536642 -20.7431898 50.34372263 -20.7578125 53.25390625 C-20.78048187 54.14377731 -20.80315125 55.03364838 -20.82650757 55.95048523 C-20.8054322 62.24051406 -19.4902158 66.60399338 -15.234375 71.3359375 C-10.15540461 75.85266099 -4.66764101 75.92545821 1.86328125 75.8671875 C2.81577255 75.8710144 3.76826385 75.87484131 4.74961853 75.87878418 C6.75406965 75.88149477 8.75855667 75.8741936 10.76293945 75.85742188 C13.82258182 75.83597635 16.87988259 75.8572649 19.93945312 75.8828125 C21.89323432 75.88016954 23.84701407 75.87504521 25.80078125 75.8671875 C26.71030045 75.87528442 27.61981964 75.88338135 28.55690002 75.89172363 C34.12423944 75.80989665 37.35822957 75.0601845 41.765625 71.3359375 C45.1460069 67.49874724 46.87811065 65.16471688 46.94262695 60.07324219 C46.95546219 59.19182556 46.96829742 58.31040894 46.98152161 57.40228271 C46.98890854 56.44710754 46.99629547 55.49193237 47.00390625 54.5078125 C47.01601387 53.03516937 47.01601387 53.03516937 47.02836609 51.53277588 C47.04221292 49.45139332 47.05293239 47.369988 47.06079102 45.28857422 C47.07798115 42.11251452 47.12185956 38.93750176 47.16601562 35.76171875 C47.1761445 33.73959099 47.18465999 31.71745438 47.19140625 29.6953125 C47.21766838 28.27469513 47.21766838 28.27469513 47.24446106 26.82537842 C47.22585253 21.13878992 46.60766684 17.82439027 42.765625 13.3359375 C38.92843474 9.9555556 36.59440438 8.22345185 31.50292969 8.15893555 C30.62151306 8.14610031 29.74009644 8.13326508 28.83197021 8.12004089 C27.39920746 8.10896049 27.39920746 8.10896049 25.9375 8.09765625 C24.95573792 8.0895845 23.97397583 8.08151276 22.96246338 8.07319641 C20.88108082 8.05934958 18.7996755 8.04863011 16.71826172 8.04077148 C13.54220202 8.02358135 10.36718926 7.97970294 7.19140625 7.93554688 C5.16927849 7.925418 3.14714188 7.91690251 1.125 7.91015625 C0.17792175 7.89264816 -0.76915649 7.87514008 -1.74493408 7.85710144 C-8.83236118 7.88029401 -12.68986294 9.51634306 -17.546875 14.8984375 Z " fill="#3D2E62" transform="translate(391.234375,359.6640625)"/>
<path d="M0 0 C1.11521027 -0.01606293 2.23042053 -0.03212585 3.37942505 -0.04867554 C8.49690924 -0.09313397 13.61430399 -0.13465434 18.73193359 -0.15722656 C21.42857082 -0.17052607 24.12444412 -0.19830091 26.82080078 -0.23925781 C30.71002943 -0.2941365 34.59822877 -0.3159217 38.48779297 -0.33056641 C39.687034 -0.35323578 40.88627502 -0.37590515 42.12185669 -0.39926147 C49.26086941 -0.38132123 54.28708279 0.27091972 59.66748047 5.19287109 C64.75940978 10.49091671 64.24957262 16.17927125 64.19873047 23.12646484 C64.20447083 24.85341331 64.20447083 24.85341331 64.21032715 26.61524963 C64.21304392 29.0451851 64.20569933 31.47514993 64.18896484 33.9050293 C64.1675733 37.61427403 64.1887664 41.32157743 64.21435547 45.03076172 C64.21171177 47.39600035 64.20658593 49.76123778 64.19873047 52.12646484 C64.20682739 53.23082382 64.21492432 54.3351828 64.2232666 55.4730072 C64.14498334 61.93753483 63.52706261 65.94088002 59.66748047 71.19287109 C55.30246439 75.23849575 52.14832003 76.31270946 46.28149414 76.35400391 C44.62914009 76.36841522 44.62914009 76.36841522 42.94340515 76.38311768 C41.15746696 76.38949249 41.15746696 76.38949249 39.33544922 76.39599609 C38.11094559 76.40169617 36.88644196 76.40739624 35.62483215 76.41326904 C33.0315538 76.42272223 30.43826342 76.42925428 27.8449707 76.43310547 C23.88129667 76.44280668 19.91814204 76.47382631 15.95458984 76.50537109 C13.43571272 76.51190159 10.91683188 76.51715188 8.39794922 76.52099609 C7.21339645 76.5333429 6.02884369 76.5456897 4.80839539 76.55841064 C-1.80541726 76.54054544 -6.85964119 76.3605321 -11.97705078 71.69287109 C-15.3531711 67.35698413 -16.45127121 64.50705968 -16.50952148 59.08227539 C-16.52235672 58.04076828 -16.53519196 56.99926117 -16.54841614 55.92619324 C-16.55580307 54.80118912 -16.56319 53.676185 -16.57080078 52.51708984 C-16.57887253 51.35917435 -16.58694427 50.20125885 -16.59526062 49.008255 C-16.60909808 46.55621843 -16.61982174 44.10416262 -16.62768555 41.65209961 C-16.6449038 37.90555288 -16.68879529 34.15988723 -16.73291016 30.41357422 C-16.74303667 28.03141925 -16.7515529 25.64925678 -16.75830078 23.26708984 C-16.77580887 22.14815842 -16.79331696 21.02922699 -16.81135559 19.87638855 C-16.79403286 13.65347297 -16.54391761 9.90165188 -12.33251953 5.19287109 C-8.02188924 1.39541107 -5.69523078 0.07443184 0 0 Z M-6.54174805 10.02246094 C-9.22624148 14.77513057 -9.04828654 19.06766004 -8.99658203 24.44287109 C-9.00136566 25.53374023 -9.00614929 26.62460938 -9.01107788 27.74853516 C-9.01447566 30.05160975 -9.00528196 32.35473264 -8.984375 34.65771484 C-8.95761013 38.18094527 -8.98412955 41.70098965 -9.01611328 45.22412109 C-9.01280916 47.46371145 -9.0064029 49.70329983 -8.99658203 51.94287109 C-9.00670319 52.99506836 -9.01682434 54.04726562 -9.0272522 55.13134766 C-8.95600451 59.58193771 -8.75659976 62.44586316 -6.53515625 66.35888672 C-1.60633413 69.18136818 2.98866912 68.86853828 8.57373047 68.78662109 C9.73118774 68.78666138 10.88864502 68.78670166 12.08117676 68.78674316 C14.52552731 68.78138762 16.96987741 68.76380377 19.4140625 68.73486328 C23.1540188 68.6930217 26.89217339 68.69379475 30.63232422 68.70068359 C33.00863881 68.69019055 35.38494412 68.67725184 37.76123047 68.66162109 C38.87904907 68.66141968 39.99686768 68.66121826 41.14855957 68.66101074 C42.19314331 68.64509888 43.23772705 68.62918701 44.31396484 68.61279297 C45.68699768 68.60016418 45.68699768 68.60016418 47.08776855 68.58728027 C50.20806273 68.11022209 52.11630682 67.02360482 54.66748047 65.19287109 C55.8838205 62.76019103 55.81377583 61.15862786 55.84448242 58.43945312 C55.85731766 57.45147736 55.87015289 56.46350159 55.88337708 55.44558716 C55.89076401 54.37476898 55.89815094 53.30395081 55.90576172 52.20068359 C55.91786934 50.55445511 55.91786934 50.55445511 55.93022156 48.87496948 C55.94406836 46.54980045 55.95478784 44.22461104 55.96264648 41.89941406 C55.9798768 38.339291 56.02376075 34.78009215 56.06787109 31.22021484 C56.07799619 28.96371127 56.08651286 26.70719979 56.09326172 24.45068359 C56.11952385 22.85052902 56.11952385 22.85052902 56.14631653 21.2180481 C56.24329986 15.50689624 56.24329986 15.50689624 53.76586914 10.55175781 C50.46039771 8.41118143 48.57804696 8.05472557 44.65454102 8 C43.60973068 7.98393707 42.56492035 7.96787415 41.4884491 7.95132446 C36.70804441 7.90693303 31.92777931 7.86581229 27.1472168 7.84277344 C24.62433655 7.82620653 22.10150338 7.79890726 19.57885742 7.76074219 C15.94538977 7.7060392 12.31302294 7.6841086 8.67919922 7.66943359 C7.55196945 7.64676422 6.42473969 7.62409485 5.26335144 7.60073853 C0.60611073 7.61332861 -2.45077264 7.69018481 -6.54174805 10.02246094 Z " fill="#3B2E62" transform="translate(378.33251953125,54.80712890625)"/>
<path d="M0 0 C11.54959997 7.21357268 19.30330476 17.36642888 22.4765625 30.6796875 C23.78934707 44.38760085 21.26860269 56.89505876 12.4765625 67.6796875 C11.92484375 68.36675781 11.373125 69.05382812 10.8046875 69.76171875 C3.84826576 77.53566869 -6.80329228 83.24954179 -17.24609375 83.91796875 C-30.95739316 84.2709611 -41.55698907 81.40299875 -52.5234375 72.6796875 C-62.7490103 62.16244568 -66.99313466 50.74991609 -66.95507812 36.26147461 C-66.63895396 24.49477222 -61.68186641 15.01975119 -53.5234375 6.6796875 C-38.41157318 -6.90631867 -18.06402456 -9.45145557 0 0 Z M-50.5234375 15.6796875 C-58.05834938 25.14503135 -59.45134499 33.68919462 -58.5234375 45.6796875 C-56.60668838 56.52411374 -50.56290555 63.9289328 -42.0234375 70.6171875 C-33.78222611 75.91108639 -25.1584799 76.6367397 -15.5234375 75.6796875 C-5.29859843 73.37127358 3.66974056 67.48469051 9.4765625 58.6796875 C14.16185773 48.99474815 16.37310025 39.18257588 13.67578125 28.51171875 C9.3394148 16.99277969 2.19212103 9.80706755 -8.921875 4.73828125 C-24.65337356 -1.66297417 -39.42088824 3.73487588 -50.5234375 15.6796875 Z " fill="#3E3064" transform="translate(113.5234375,362.3203125)"/>
<path d="M0 0 C1.12910294 -0.0038269 2.25820587 -0.00765381 3.42152405 -0.01159668 C5.80438124 -0.01431318 8.18726839 -0.00697046 10.57006836 0.00976562 C14.20689801 0.03115731 17.84174761 0.00996352 21.47851562 -0.015625 C23.79818142 -0.01298129 26.117846 -0.00785542 28.4375 0 C30.0612278 -0.01214539 30.0612278 -0.01214539 31.71775818 -0.02453613 C38.09932046 0.05425752 42.22873403 0.49169082 47.28515625 4.53125 C51.60437456 10.12266007 51.88873723 14.85865517 51.8515625 21.77734375 C51.85776108 22.74728775 51.86395966 23.71723175 51.87034607 24.71656799 C51.87742257 26.75968426 51.87430832 28.80285844 51.86157227 30.84594727 C51.8477116 33.95633029 51.88180453 37.06369888 51.91992188 40.17382812 C51.92087326 42.1666674 51.91901319 44.1595104 51.9140625 46.15234375 C51.92732071 47.07341415 51.94057892 47.99448456 51.95423889 48.94346619 C51.86363038 55.28908373 50.57150425 59.7396371 46.28515625 64.53125 C41.01172031 68.56672688 34.90081605 67.98202514 28.53515625 67.96484375 C27.40368164 67.9700856 26.27220703 67.97532745 25.10644531 67.98072815 C22.71940937 67.98713816 20.33234181 67.98582462 17.9453125 67.97729492 C14.29760455 67.96877906 10.65145989 67.9975726 7.00390625 68.02929688 C4.68099005 68.0309089 2.35807109 68.03033134 0.03515625 68.02734375 C-1.05249023 68.03857773 -2.14013672 68.04981171 -3.26074219 68.06138611 C-9.39769725 68.00501409 -13.04991224 67.64514126 -17.71484375 63.53125 C-20.89862291 59.90832888 -21.83260147 56.83219608 -21.8918457 52.06323242 C-21.90468094 51.16187057 -21.91751617 50.26050873 -21.93074036 49.33183289 C-21.93812729 48.35994522 -21.94551422 47.38805756 -21.953125 46.38671875 C-21.96119675 45.38417557 -21.96926849 44.38163239 -21.97758484 43.34870911 C-21.99141738 41.22622402 -22.00214325 39.10371676 -22.01000977 36.98120117 C-22.02722237 33.74159439 -22.0711165 30.50300825 -22.11523438 27.26367188 C-22.12536162 25.20052833 -22.13387762 23.13737612 -22.140625 21.07421875 C-22.15813309 20.10840378 -22.17564117 19.14258881 -22.19367981 18.14750671 C-22.1753572 12.44312014 -21.70641492 8.93529874 -17.71484375 4.53125 C-12.35363514 -0.45514707 -6.93542944 -0.05177977 0 0 Z M-12.3671875 9.9609375 C-14.46429465 13.96063751 -14.28582764 17.73473398 -14.24609375 22.1875 C-14.24992065 23.12678345 -14.25374756 24.06606689 -14.25769043 25.03381348 C-14.26040951 27.01750766 -14.25304859 29.0012377 -14.23632812 30.98486328 C-14.21491836 34.02067016 -14.23612982 37.05411046 -14.26171875 40.08984375 C-14.25907547 42.01823439 -14.2539505 43.94662356 -14.24609375 45.875 C-14.25419067 46.78237915 -14.2622876 47.6897583 -14.27062988 48.62463379 C-14.21633745 52.27471574 -14.07748856 54.84018827 -12.3671875 58.09936523 C-8.01169758 60.45070437 -3.61672135 60.12091561 1.25390625 60.09765625 C2.86259583 60.10695412 2.86259583 60.10695412 4.50378418 60.11643982 C6.76992892 60.12353981 9.03612579 60.12036092 11.30224609 60.10766602 C14.77278413 60.09379943 18.2406272 60.12787223 21.7109375 60.16601562 C23.91276108 60.16696679 26.11458804 60.16510813 28.31640625 60.16015625 C29.35502808 60.17341446 30.3936499 60.18667267 31.46374512 60.20033264 C37.08977583 60.16223073 37.08977583 60.16223073 41.9375 57.58789062 C43.81825639 53.32211707 43.85887682 49.61373847 43.81640625 44.99609375 C43.82023315 44.0804213 43.82406006 43.16474884 43.82800293 42.22132874 C43.83071853 40.29068905 43.82338199 38.36001236 43.80664062 36.42944336 C43.78520099 33.47491552 43.80646647 30.52281246 43.83203125 27.56835938 C43.82938839 25.6900988 43.82426428 23.81183974 43.81640625 21.93359375 C43.82450317 21.05122543 43.8326001 20.16885712 43.84094238 19.25975037 C43.78598885 15.66654884 43.6286113 13.18225908 41.9375 9.97680664 C37.58450918 7.60437856 33.19229085 7.96198841 28.31640625 8 C27.24394653 7.9961731 26.17148682 7.99234619 25.06652832 7.98840332 C22.80036479 7.98568284 20.53416994 7.99305347 18.26806641 8.00976562 C14.79779097 8.03117206 11.32958598 8.00996725 7.859375 7.984375 C5.65754751 7.98701825 3.45572131 7.99214317 1.25390625 8 C0.21528442 7.99190308 -0.8233374 7.98380615 -1.89343262 7.97546387 C-7.35351192 8.03872436 -7.35351192 8.03872436 -12.3671875 9.9609375 Z " fill="#402F62" transform="translate(76.71484375,60.46875)"/>
<path d="M0 0 C2.93230193 1.32120828 4.98664899 2.74638197 7.234375 5.0390625 C7.80800781 5.61914062 8.38164062 6.19921875 8.97265625 6.796875 C9.55917969 7.40015625 10.14570313 8.0034375 10.75 8.625 C11.35199219 9.23601562 11.95398438 9.84703125 12.57421875 10.4765625 C14.05405305 11.97988624 15.52764676 13.48934856 17 15 C13.62379723 23.72679312 1.47011391 29.08927098 -6.50390625 32.7109375 C-15.23027614 35.9284817 -23.12555881 37.51209007 -32.4375 37.375 C-33.4473999 37.36412354 -34.4572998 37.35324707 -35.49780273 37.34204102 C-52.54822445 36.97745119 -67.52409543 30.74455844 -80 19 C-82.77722147 16.08664022 -85.43195879 13.09886538 -88 10 C-84.38465971 10 -82.84572983 11.02344404 -79.6875 12.75 C-64.39701638 20.46840202 -47.38019485 22.9558813 -30.76171875 17.97265625 C-29.85035156 17.65167969 -28.93898437 17.33070313 -28 17 C-26.99582031 16.64808594 -25.99164063 16.29617187 -24.95703125 15.93359375 C-15.41995429 12.2710661 -7.66448876 6.6560034 0 0 Z " fill="#E5E6E7" transform="translate(140,141)"/>
<path d="M0 0 C0.88141663 -0.01283524 1.76283325 -0.02567047 2.67095947 -0.03889465 C3.62613464 -0.04628159 4.58130981 -0.05366852 5.56542969 -0.0612793 C6.54719177 -0.06935104 7.52895386 -0.07742279 8.54046631 -0.08573914 C10.62184887 -0.09958597 12.70325419 -0.11030543 14.78466797 -0.11816406 C17.96072767 -0.1353542 21.13574042 -0.17923261 24.31152344 -0.22338867 C26.3336512 -0.23351754 28.35578781 -0.24203304 30.37792969 -0.2487793 C31.32500793 -0.26628738 32.27208618 -0.28379547 33.24786377 -0.30183411 C38.93445226 -0.28322557 42.24885192 0.33496011 46.73730469 4.17700195 C50.11768659 8.01419222 51.84979034 10.34822258 51.91430664 15.43969727 C51.93355949 16.7618222 51.93355949 16.7618222 51.95320129 18.11065674 C51.96058823 19.06583191 51.96797516 20.02100708 51.97558594 21.00512695 C51.98365768 21.98688904 51.99172943 22.96865112 52.00004578 23.98016357 C52.01389261 26.06154613 52.02461208 28.14295145 52.0324707 30.22436523 C52.04966084 33.40042494 52.09353925 36.57543769 52.13769531 39.7512207 C52.14782419 41.77334846 52.15633968 43.79548508 52.16308594 45.81762695 C52.18059402 46.7647052 52.19810211 47.71178345 52.21614075 48.68756104 C52.19753221 54.37414953 51.57934653 57.68854919 47.73730469 62.17700195 C43.95126039 65.5123267 41.61085891 67.28853323 36.58227539 67.35400391 C35.29502312 67.37325676 35.29502312 67.37325676 33.98176575 67.39289856 C32.58651924 67.40397896 32.58651924 67.40397896 31.16308594 67.4152832 C30.20589157 67.42335495 29.2486972 67.4314267 28.26249695 67.43974304 C26.23238947 67.45359067 24.20225864 67.46430978 22.17211914 67.47216797 C19.07946008 67.48933732 15.98788206 67.53321228 12.89550781 67.57739258 C10.92220838 67.58752337 8.94889985 67.59603826 6.97558594 67.6027832 C6.05554276 67.62029129 5.13549957 67.63779938 4.18757629 67.65583801 C-1.51915785 67.63673413 -5.90354878 67.07931599 -10.26269531 63.17700195 C-15.20661934 57.64709598 -16.00067905 52.45347639 -15.89160156 45.2355957 C-15.8952195 43.84583275 -15.8952195 43.84583275 -15.89891052 42.42799377 C-15.89793634 40.48076064 -15.88464578 38.53349833 -15.85961914 36.58642578 C-15.82524637 33.61890997 -15.83899915 30.65436674 -15.85839844 27.68676758 C-15.85150055 25.78636438 -15.84182868 23.8859688 -15.82910156 21.9855957 C-15.83406143 21.10624863 -15.8390213 20.22690155 -15.84413147 19.32090759 C-15.73276437 13.45209176 -14.64700399 10.00291202 -11.26269531 5.17700195 C-7.47498357 1.75002466 -5.07379625 0.06429229 0 0 Z M-7.26269531 10.17700195 C-8.39639237 12.44439606 -8.4120353 13.75236713 -8.45556641 16.27197266 C-8.47162933 17.11657547 -8.48769226 17.96117828 -8.50424194 18.83137512 C-8.54871077 22.69584347 -8.58975751 26.5601403 -8.61279297 30.42480469 C-8.62935183 32.46268128 -8.6566409 34.50049981 -8.69482422 36.53808594 C-8.74960771 39.47662476 -8.77146907 42.4138024 -8.78613281 45.3527832 C-8.80880219 46.26127518 -8.83147156 47.16976715 -8.85482788 48.10578918 C-8.84072086 52.33318533 -8.62170593 54.60406908 -6.33740234 58.24951172 C-2.02758336 60.95127612 1.45903147 60.89731707 6.45605469 60.84106445 C7.39155151 60.84584808 8.32704834 60.85063171 9.29089355 60.8555603 C11.26442145 60.85895556 13.23800587 60.84977934 15.21142578 60.82885742 C18.22784125 60.80208594 21.24053586 60.82861731 24.25683594 60.8605957 C26.17741705 60.85729154 28.09799585 60.85088516 30.01855469 60.84106445 C31.3671759 60.85624619 31.3671759 60.85624619 32.74304199 60.87173462 C37.25614745 60.78749472 39.13981396 60.65118117 42.78222656 57.76049805 C46.12692843 53.34071343 45.9287453 49.7906322 45.97558594 44.4074707 C45.98365768 43.53431717 45.99172943 42.66116364 46.00004578 41.7615509 C46.01388833 39.91136665 46.02460972 38.06115684 46.0324707 36.2109375 C46.04967389 33.38597998 46.09355635 30.56219574 46.13769531 27.73754883 C46.14782316 25.94003139 46.15633898 24.14250401 46.16308594 22.3449707 C46.18059402 21.50210007 46.19810211 20.65922943 46.21614075 19.79081726 C46.20152248 15.82342859 46.04899136 13.69419539 43.96069336 10.22900391 C39.26241891 5.89288919 35.28146058 5.85817539 29.02636719 5.84106445 C28.18061127 5.83440765 27.33485535 5.82775085 26.46347046 5.82089233 C24.6765154 5.81078072 22.8895227 5.80607485 21.10253906 5.80639648 C18.37859366 5.80202808 15.65627556 5.76570756 12.93261719 5.7277832 C11.19303937 5.72191363 9.45345389 5.71794518 7.71386719 5.71606445 C6.90430573 5.70169342 6.09474426 5.68732239 5.26065063 5.67251587 C-0.03511703 5.71497652 -3.06308259 6.65778715 -7.26269531 10.17700195 Z " fill="#FEF6F9" transform="translate(386.2626953125,367.822998046875)"/>
<path d="M0 0 C12.45016867 5.91450529 20.3861991 19.46131757 25 32 C25.31839844 32.86238281 25.63679688 33.72476563 25.96484375 34.61328125 C31.04227084 51.15586628 29.13374726 70.41251993 21.21508789 85.65820312 C19.8684761 88.14090152 18.453625 90.57865274 17 93 C14 93 14 93 12.2824707 91.62304688 C11.66976318 90.99462891 11.05705566 90.36621094 10.42578125 89.71875 C9.75869141 89.04199219 9.09160156 88.36523438 8.40429688 87.66796875 C7.71400391 86.95253906 7.02371094 86.23710937 6.3125 85.5 C5.61060547 84.78457031 4.90871094 84.06914062 4.18554688 83.33203125 C2.45013639 81.56120423 0.7220927 79.78376544 -1 78 C-0.46890625 77.01902344 0.0621875 76.03804688 0.609375 75.02734375 C9.95360517 57.36339258 13.89004335 40.47658538 9.19921875 20.68359375 C6.85202128 13.47379827 3.43698213 6.74334261 0 0 Z " fill="#E4E5E7" transform="translate(147,56)"/>
<path d="M0 0 C-0.33 1.32 -0.66 2.64 -1 4 C-0.2575 4.20625 0.485 4.4125 1.25 4.625 C4.8424014 6.4212007 6.08309537 8.52117309 8 12 C8 12.99 8 13.98 8 15 C9.98 15 11.96 15 14 15 C13.01 15.99 12.02 16.98 11 18 C12.32 18.66 13.64 19.32 15 20 C14.113125 20.33 13.22625 20.66 12.3125 21 C8.51026223 23.29569073 7.42704162 25.2608221 5.27734375 29.00390625 C2.14110563 33.90487774 -2.70470744 36.79927888 -8 39 C-10.92660475 39.46542651 -13.7902795 39.52388873 -16.75 39.5 C-17.54696289 39.49572998 -18.34392578 39.49145996 -19.16503906 39.48706055 C-28.68282041 39.21277011 -35.11499417 35.34145273 -42 29 C-39 29 -39 29 -37 30 C-34.92435324 30.19758231 -34.92435324 30.19758231 -32.625 30.1875 C-31.85414062 30.20167969 -31.08328125 30.21585937 -30.2890625 30.23046875 C-27.78165112 29.97801607 -26.16738098 29.25193467 -24 28 C-24.66 27.34 -25.32 26.68 -26 26 C-26.12375 25.34 -26.2475 24.68 -26.375 24 C-26.82123176 21.79734983 -26.82123176 21.79734983 -29.0625 20.75 C-29.701875 20.5025 -30.34125 20.255 -31 20 C-31 19.01 -31 18.02 -31 17 C-30.34 16.67 -29.68 16.34 -29 16 C-29.66 15.54625 -30.32 15.0925 -31 14.625 C-31.66 14.08875 -32.32 13.5525 -33 13 C-33 12.34 -33 11.68 -33 11 C-32.01 10.67 -31.02 10.34 -30 10 C-30.66 9.05125 -31.32 8.1025 -32 7.125 C-34 4 -34 4 -34 2 C-28.95372432 2.47028901 -26.21462565 3.95760671 -22.25 7.0625 C-18.97844526 9.9834255 -18.97844526 9.9834255 -15 11 C-13.74164736 9.30900174 -13.74164736 9.30900174 -12.5625 7.1875 C-9.00705494 1.06856791 -7.35178452 -0.41613875 0 0 Z " fill="#FBFDFE" transform="translate(105,382)"/>
<path d="M0 0 C1.80404297 0.74443359 1.80404297 0.74443359 3.64453125 1.50390625 C24.13661333 10.88010698 39.34981375 27.2850803 48 48 C47.67 48.99 47.34 49.98 47 51 C46.62230469 50.27296875 46.24460937 49.5459375 45.85546875 48.796875 C41.23106695 40.34948998 35.77898512 33.77898512 29 27 C28.33097656 26.33097656 27.66195312 25.66195312 26.97265625 24.97265625 C16.59650988 15.29849018 4.38479508 10.00300581 -9 6 C-10.24136719 5.62230469 -11.48273438 5.24460938 -12.76171875 4.85546875 C-33.33906977 -0.09093736 -57.81700763 4.39444424 -75.83447266 15.08886719 C-79.70713591 17.53173849 -83.36948479 20.20806853 -87 23 C-87.73605469 23.55171875 -88.47210938 24.1034375 -89.23046875 24.671875 C-100.75847186 33.96790944 -109.34825042 48.04475125 -114 62 C-115.32 61.67 -116.64 61.34 -118 61 C-117.67 58.69 -117.34 56.38 -117 54 C-116.25621094 53.82597656 -115.51242188 53.65195313 -114.74609375 53.47265625 C-110.87465064 51.39650539 -109.77651116 48.28780859 -108.0625 44.4375 C-107.36871568 42.97329523 -106.67081357 41.51103432 -105.96875 40.05078125 C-105.63230469 39.34775879 -105.29585937 38.64473633 -104.94921875 37.92041016 C-95.88848179 19.58919696 -78.05891226 5.38043128 -58.91674805 -1.28442383 C-40.13350784 -7.48217485 -18.37623211 -7.67466442 0 0 Z " fill="#FAF6F8" transform="translate(278,170)"/>
<path d="M0 0 C1.8871875 0.00773438 1.8871875 0.00773438 3.8125 0.015625 C5.070625 0.01046875 6.32875 0.0053125 7.625 0 C10.8125 0.265625 10.8125 0.265625 12.8125 2.265625 C13.06646729 4.42883301 13.06646729 4.42883301 13.07128906 7.14257812 C13.07759338 8.15703003 13.08389771 9.17148193 13.09039307 10.2166748 C13.0863446 11.31564087 13.08229614 12.41460693 13.078125 13.546875 C13.08003845 14.67130005 13.0819519 15.7957251 13.08392334 16.95422363 C13.08528617 19.33488183 13.08158294 21.71554743 13.07324219 24.09619141 C13.06254429 27.75049453 13.07313444 31.40430601 13.0859375 35.05859375 C13.08461592 37.36718859 13.08205357 39.67578312 13.078125 41.984375 C13.08217346 43.08334106 13.08622192 44.18230713 13.09039307 45.3145752 C13.08408875 46.3290271 13.07778442 47.343479 13.07128906 48.38867188 C13.06890228 49.73197571 13.06890228 49.73197571 13.06646729 51.10241699 C12.8125 53.265625 12.8125 53.265625 10.8125 55.265625 C7.625 55.53125 7.625 55.53125 3.8125 55.515625 C2.554375 55.52078125 1.29625 55.5259375 0 55.53125 C-3.1875 55.265625 -3.1875 55.265625 -5.1875 53.265625 C-5.44146729 51.10241699 -5.44146729 51.10241699 -5.44628906 48.38867188 C-5.45259338 47.37421997 -5.45889771 46.35976807 -5.46539307 45.3145752 C-5.4613446 44.21560913 -5.45729614 43.11664307 -5.453125 41.984375 C-5.45503845 40.85994995 -5.4569519 39.7355249 -5.45892334 38.57702637 C-5.46028617 36.19636817 -5.45658294 33.81570257 -5.44824219 31.43505859 C-5.43754429 27.78075547 -5.44813444 24.12694399 -5.4609375 20.47265625 C-5.45961592 18.16406141 -5.45705357 15.85546688 -5.453125 13.546875 C-5.45717346 12.44790894 -5.46122192 11.34894287 -5.46539307 10.2166748 C-5.45908875 9.2022229 -5.45278442 8.187771 -5.44628906 7.14257812 C-5.44469788 6.24704224 -5.44310669 5.35150635 -5.44146729 4.42883301 C-5.0008378 0.67569909 -3.60134003 0.30011167 0 0 Z " fill="#0185E9" transform="translate(283.1875,234.734375)"/>
<path d="M0 0 C5.12376615 1.80838805 8.10548047 4.40282192 11 9 C12.06258117 14.59358766 11.20377323 19.24957762 8 24 C3.57466189 28.09343776 0.14035745 29.36336397 -5.9375 29.28515625 C-10.20991019 28.69446317 -13.00980103 26.09263335 -15.8125 23 C-18.29134393 18.82510497 -18.41461134 14.80949154 -18 10 C-14.10855406 2.36677912 -8.47082324 -1.37502341 0 0 Z " fill="#FEF8FA" transform="translate(408,387)"/>
<path d="M0 0 C1.546875 0.00580078 1.546875 0.00580078 3.125 0.01171875 C5.92633186 0.30479287 7.61170203 0.87148368 10 2.3125 C9.125 7.1875 9.125 7.1875 8 8.3125 C6.48530552 8.54442865 4.96245438 8.72465238 3.4375 8.875 C2.61121094 8.95878906 1.78492188 9.04257813 0.93359375 9.12890625 C0.29550781 9.18949219 -0.34257812 9.25007813 -1 9.3125 C-1.33 11.9525 -1.66 14.5925 -2 17.3125 C-0.865625 17.291875 0.26875 17.27125 1.4375 17.25 C5 17.3125 5 17.3125 6 18.3125 C6.125 20.8125 6.125 20.8125 6 23.3125 C5 24.3125 5 24.3125 1.4375 24.375 C0.303125 24.354375 -0.83125 24.33375 -2 24.3125 C-1.94779297 26.19195312 -1.94779297 26.19195312 -1.89453125 28.109375 C-1.86638872 29.76040324 -1.83908906 31.41144601 -1.8125 33.0625 C-1.78736328 33.8875 -1.76222656 34.7125 -1.73632812 35.5625 C-1.662361 41.67711594 -1.662361 41.67711594 -3.35546875 44.86328125 C-5 46.3125 -5 46.3125 -7.5 46.75 C-10.45425127 46.23300603 -11.18362484 45.64718834 -13 43.3125 C-13.34057617 41.2277832 -13.34057617 41.2277832 -13.29296875 38.86328125 C-13.28330078 38.01572266 -13.27363281 37.16816406 -13.26367188 36.29492188 C-13.23853516 35.41384766 -13.21339844 34.53277344 -13.1875 33.625 C-13.17396484 32.73232422 -13.16042969 31.83964844 -13.14648438 30.91992188 C-13.11114079 28.71683834 -13.06180493 26.51497418 -13 24.3125 C-15.31 23.9825 -17.62 23.6525 -20 23.3125 C-20.125 20.9375 -20.125 20.9375 -20 18.3125 C-18 16.3125 -18 16.3125 -15.375 16.1875 C-14.59125 16.22875 -13.8075 16.27 -13 16.3125 C-13.061875 15.095625 -13.12375 13.87875 -13.1875 12.625 C-13.18056162 8.69787846 -12.50730421 6.44663027 -10 3.3125 C-6.71890543 0.25310101 -4.43495054 -0.07206795 0 0 Z " fill="#F3F9FE" transform="translate(415,72.6875)"/>
<path d="M0 0 C0.88141663 -0.01283524 1.76283325 -0.02567047 2.67095947 -0.03889465 C3.62613464 -0.04628159 4.58130981 -0.05366852 5.56542969 -0.0612793 C6.54719177 -0.06935104 7.52895386 -0.07742279 8.54046631 -0.08573914 C10.62184887 -0.09958597 12.70325419 -0.11030543 14.78466797 -0.11816406 C17.96072767 -0.1353542 21.13574042 -0.17923261 24.31152344 -0.22338867 C26.3336512 -0.23351754 28.35578781 -0.24203304 30.37792969 -0.2487793 C31.32500793 -0.26628738 32.27208618 -0.28379547 33.24786377 -0.30183411 C38.93445226 -0.28322557 42.24885192 0.33496011 46.73730469 4.17700195 C50.11768659 8.01419222 51.84979034 10.34822258 51.91430664 15.43969727 C51.93355949 16.7618222 51.93355949 16.7618222 51.95320129 18.11065674 C51.96058823 19.06583191 51.96797516 20.02100708 51.97558594 21.00512695 C51.98365768 21.98688904 51.99172943 22.96865112 52.00004578 23.98016357 C52.01389261 26.06154613 52.02461208 28.14295145 52.0324707 30.22436523 C52.04966084 33.40042494 52.09353925 36.57543769 52.13769531 39.7512207 C52.14782419 41.77334846 52.15633968 43.79548508 52.16308594 45.81762695 C52.18059402 46.7647052 52.19810211 47.71178345 52.21614075 48.68756104 C52.19753221 54.37414953 51.57934653 57.68854919 47.73730469 62.17700195 C43.95126039 65.5123267 41.61085891 67.28853323 36.58227539 67.35400391 C35.29502312 67.37325676 35.29502312 67.37325676 33.98176575 67.39289856 C32.58651924 67.40397896 32.58651924 67.40397896 31.16308594 67.4152832 C30.20589157 67.42335495 29.2486972 67.4314267 28.26249695 67.43974304 C26.23238947 67.45359067 24.20225864 67.46430978 22.17211914 67.47216797 C19.07946008 67.48933732 15.98788206 67.53321228 12.89550781 67.57739258 C10.92220838 67.58752337 8.94889985 67.59603826 6.97558594 67.6027832 C6.05554276 67.62029129 5.13549957 67.63779938 4.18757629 67.65583801 C-1.51915785 67.63673413 -5.90354878 67.07931599 -10.26269531 63.17700195 C-15.20661934 57.64709598 -16.00067905 52.45347639 -15.89160156 45.2355957 C-15.8952195 43.84583275 -15.8952195 43.84583275 -15.89891052 42.42799377 C-15.89793634 40.48076064 -15.88464578 38.53349833 -15.85961914 36.58642578 C-15.82524637 33.61890997 -15.83899915 30.65436674 -15.85839844 27.68676758 C-15.85150055 25.78636438 -15.84182868 23.8859688 -15.82910156 21.9855957 C-15.83406143 21.10624863 -15.8390213 20.22690155 -15.84413147 19.32090759 C-15.73276437 13.45209176 -14.64700399 10.00291202 -11.26269531 5.17700195 C-7.47498357 1.75002466 -5.07379625 0.06429229 0 0 Z M-10.26269531 6.17700195 C-13.4906072 11.67285352 -13.71762315 16.56007092 -13.69628906 22.8371582 C-13.70153091 23.74525742 -13.70677277 24.65335663 -13.71217346 25.588974 C-13.71856769 27.49924705 -13.71729053 29.4095596 -13.70874023 31.31982422 C-13.7002099 34.23451896 -13.72906014 37.147265 -13.76074219 40.06176758 C-13.76235399 41.9243972 -13.76177708 43.78703028 -13.75878906 45.6496582 C-13.77002304 46.51542984 -13.78125702 47.38120148 -13.79283142 48.27320862 C-13.71490162 55.06707257 -11.72633161 58.47258453 -7.12939453 63.51879883 C-2.92462234 65.95099204 0.8259806 65.75055224 5.60449219 65.70825195 C6.55744171 65.71207886 7.51039124 65.71590576 8.49221802 65.71984863 C10.50442564 65.72256563 12.51666871 65.7152193 14.52880859 65.69848633 C17.59521081 65.67712106 20.6592575 65.69827087 23.72558594 65.72387695 C25.68522649 65.72123272 27.64486559 65.71610575 29.60449219 65.70825195 C30.51512421 65.71634888 31.42575623 65.7244458 32.36398315 65.73278809 C38.33065838 65.64573916 41.83064935 64.61671909 46.73730469 61.17700195 C50.12399062 57.56453696 50.83821292 54.02327628 50.93017578 49.17797852 C50.95427017 48.01591888 50.95427017 48.01591888 50.97885132 46.8303833 C51.02371816 43.2952198 51.06436445 39.76023571 51.08740234 36.22485352 C51.1039413 34.36665301 51.13120425 32.50851559 51.16943359 30.65063477 C51.22451479 27.95596698 51.24612284 25.26278367 51.26074219 22.56762695 C51.29474625 21.33595795 51.29474625 21.33595795 51.32943726 20.07940674 C51.30750599 14.02095278 49.69873452 9.80550104 45.73730469 5.17700195 C42.8508199 2.57204274 41.02923541 1.79943388 37.15576172 1.77294922 C36.2544754 1.76026505 35.35318909 1.74758087 34.42459106 1.73451233 C32.9745015 1.73891579 32.9745015 1.73891579 31.49511719 1.7434082 C29.99342484 1.73554543 29.99342484 1.73554543 28.46139526 1.7275238 C26.3448784 1.72110437 24.22832586 1.72243957 22.11181641 1.73095703 C18.88085993 1.73945316 15.65167965 1.71072599 12.42089844 1.67895508 C10.36230522 1.67734256 8.30370887 1.67792156 6.24511719 1.6809082 C5.28243927 1.66967422 4.31976135 1.65844025 3.32791138 1.64686584 C-2.30883584 1.70512785 -5.9918794 2.11589521 -10.26269531 6.17700195 Z " fill="#F488AB" transform="translate(386.2626953125,367.822998046875)"/>
<path d="M0 0 C4.51506182 0.64500883 7.27007075 3.2744797 10.73828125 6.10546875 C11.43115234 6.63591797 12.12402344 7.16636719 12.83789062 7.71289062 C17.61273269 11.54687711 17.61273269 11.54687711 18.82421875 14.91796875 C17.34140236 19.04406652 14.14511367 21.12226124 10.73828125 23.73046875 C10.06474609 24.28025391 9.39121094 24.83003906 8.69726562 25.39648438 C3.72147844 29.30429772 3.72147844 29.30429772 0 29.8359375 C-2.07421875 29.41796875 -2.07421875 29.41796875 -3.07421875 28.41796875 C-3.17404933 26.43039847 -3.20502628 24.43929355 -3.20703125 22.44921875 C-3.20832031 21.23878906 -3.20960937 20.02835938 -3.2109375 18.78125 C-3.20707031 17.50636719 -3.20320313 16.23148438 -3.19921875 14.91796875 C-3.20308594 13.64308594 -3.20695312 12.36820313 -3.2109375 11.0546875 C-3.20964844 9.84425781 -3.20835938 8.63382813 -3.20703125 7.38671875 C-3.20590332 6.26716797 -3.20477539 5.14761719 -3.20361328 3.99414062 C-3.03370239 0.61131103 -3.03370239 0.61131103 0 0 Z " fill="#FEFDFD" transform="translate(86.07421875,79.58203125)"/>
<path d="M0 0 C3.4375 2 3.4375 2 6 5 C6.74640732 7.82609184 6.68717509 10.16540277 6 13 C4.20636089 15.8100346 2.98119065 17.50940468 0 19 C-3.91093991 19.3689566 -6.33546589 19.33226705 -9.875 17.5625 C-12.4860565 14.41387305 -12.95903508 12.21521594 -13.2109375 8.19140625 C-12.88957522 4.85280918 -11.42147504 3.21392004 -9 1 C-5.85088521 -0.57455739 -3.47991184 -0.34799118 0 0 Z " fill="#FA779F" transform="translate(408,392)"/>
<path d="M0 0 C3.125 0.375 3.125 0.375 6 1 C6.04937279 5.66307014 6.08570627 10.32598873 6.10986328 14.98925781 C6.11993188 16.57619883 6.13358767 18.16312125 6.15087891 19.75 C6.17509001 22.02869247 6.18647422 24.30714006 6.1953125 26.5859375 C6.20563507 27.29744965 6.21595764 28.00896179 6.22659302 28.74203491 C6.22699422 30.49631665 6.12202209 32.24996709 6 34 C5.34 34.66 4.68 35.32 4 36 C1.375 35.625 1.375 35.625 -1 35 C-2.73127919 29.0487278 -3.19283698 23.53320346 -3.1875 17.375 C-3.1884668 16.30100952 -3.1884668 16.30100952 -3.18945312 15.20532227 C-3.06639989 3.06639989 -3.06639989 3.06639989 0 0 Z " fill="#3D2D61" transform="translate(157,231)"/>
<path d="M0 0 C2.40654305 2.40654305 2.25826691 2.97519912 2.29052734 6.26269531 C2.30328705 7.14411194 2.31604675 8.02552856 2.32919312 8.93365479 C2.33141876 9.88882996 2.33364441 10.84400513 2.3359375 11.828125 C2.3425943 12.80988708 2.3492511 13.79164917 2.35610962 14.80316162 C2.3662495 16.88454308 2.37092623 18.96595714 2.37060547 21.04736328 C2.37496368 24.22353294 2.41122807 27.39829654 2.44921875 30.57421875 C2.4550897 32.59634942 2.45905723 34.61848668 2.4609375 36.640625 C2.47530853 37.58770325 2.48967957 38.53478149 2.50448608 39.51055908 C2.46538712 45.1913641 1.83459553 48.51563651 -2 53 C-5.85076155 56.39233756 -8.15295762 58.12813441 -13.26611328 58.11352539 C-14.58725632 58.11341209 -14.58725632 58.11341209 -15.93508911 58.11329651 C-16.88721283 58.10813522 -17.83933655 58.10297394 -18.8203125 58.09765625 C-19.79410858 58.0962413 -20.76790466 58.09482635 -21.77120972 58.09336853 C-24.88917073 58.08775973 -28.0070606 58.07520573 -31.125 58.0625 C-33.23567605 58.05748613 -35.34635322 58.05292303 -37.45703125 58.04882812 C-42.63804521 58.03778745 -47.81901752 58.02104073 -53 58 C-53 57.67 -53 57.34 -53 57 C-51.19982422 56.98598145 -51.19982422 56.98598145 -49.36328125 56.97167969 C-44.88260683 56.9316088 -40.40260671 56.86580316 -35.92236328 56.79248047 C-33.98853257 56.76436965 -32.05458907 56.74310621 -30.12060547 56.72900391 C-27.32982045 56.70743679 -24.54037741 56.66071744 -21.75 56.609375 C-20.89446533 56.60814636 -20.03893066 56.60691772 -19.1574707 56.60565186 C-12.4969645 56.4455341 -6.80686152 54.89740544 -2.0625 50 C-0.22917735 46.54903971 0.12465082 43.37848657 0.11352539 39.50683594 C0.11344986 38.62622498 0.11337433 37.74561401 0.11329651 36.83831787 C0.10813522 35.89651672 0.10297394 34.95471558 0.09765625 33.984375 C0.0962413 33.01340881 0.09482635 32.04244263 0.09336853 31.04205322 C0.08777663 27.94467065 0.07522559 24.84736068 0.0625 21.75 C0.05748395 19.64843854 0.05292123 17.54687596 0.04882812 15.4453125 C0.03780985 10.29684708 0.02055074 5.14843584 0 0 Z " fill="#EF719A" transform="translate(436,377)"/>
<path d="M0 0 C0.33 0 0.66 0 1 0 C1.00410889 1.20011719 1.00821777 2.40023438 1.01245117 3.63671875 C1.03433153 8.11745315 1.08871296 12.59732049 1.15258789 17.07763672 C1.17569051 19.01147103 1.19014534 20.94542979 1.19555664 22.87939453 C1.20490306 25.67037817 1.24601618 28.45942541 1.29296875 31.25 C1.2890361 32.10553467 1.28510345 32.96106934 1.28105164 33.8425293 C1.45522548 41.11559346 4.00506745 45.56094711 8.71386719 50.96801758 C12.53454042 52.69270636 16.43556835 52.48224321 20.578125 52.51171875 C21.96798615 52.53864555 21.96798615 52.53864555 23.38592529 52.56611633 C26.3405708 52.62022701 29.29505469 52.65411757 32.25 52.6875 C34.25523083 52.7206724 36.26044032 52.75516198 38.265625 52.79101562 C43.17696674 52.87595402 48.08826048 52.94276173 53 53 C53 53.33 53 53.66 53 54 C46.84366144 54.12385849 40.68805253 54.21446257 34.53076172 54.2746582 C32.4375342 54.2997588 30.34439395 54.33384677 28.25146484 54.37719727 C25.23773641 54.43804451 22.22516941 54.4662545 19.2109375 54.48828125 C18.27945892 54.51408768 17.34798035 54.5398941 16.38827515 54.56648254 C12.14952223 54.56830067 8.99069001 54.48573171 5.54931641 51.84448242 C0.06579536 45.72606605 -0.42732582 40.90066766 -0.29296875 33.0078125 C-0.28872391 32.06187225 -0.28447906 31.11593201 -0.28010559 30.1413269 C-0.26338306 27.13558867 -0.22574263 24.1305338 -0.1875 21.125 C-0.17244486 19.08073889 -0.15875791 17.03646721 -0.14648438 14.9921875 C-0.11350055 9.99453046 -0.06176253 4.99738089 0 0 Z " fill="#EC81A5" transform="translate(371,380)"/>
<path d="M0 0 C0.33 0.66 0.66 1.32 1 2 C-0.36944858 4.64977903 -1.78798982 7.19157389 -3.3125 9.75 C-6.07703128 14.4159477 -8.50277989 18.73904977 -10 24 C-11.32 23.67 -12.64 23.34 -14 23 C-13.67 20.69 -13.34 18.38 -13 16 C-11.86111328 15.70802734 -11.86111328 15.70802734 -10.69921875 15.41015625 C-6.96997989 13.4618853 -6.38610931 11.28081926 -4.8125 7.4375 C-2.17691776 1.08845888 -2.17691776 1.08845888 0 0 Z " fill="#FCEEF3" transform="translate(174,208)"/>
<path d="M0 0 C2.5 0.125 2.5 0.125 3.5 1.125 C3.625 3.625 3.625 3.625 3.5 6.125 C2.5 7.125 2.5 7.125 0 7.25 C-2.5 7.125 -2.5 7.125 -3.5 6.125 C-3.625 3.625 -3.625 3.625 -3.5 1.125 C-2.5 0.125 -2.5 0.125 0 0 Z " fill="#FEF7F9" transform="translate(421.5,382.875)"/>
<path d="M0 0 C0.33 0.66 0.66 1.32 1 2 C-0.07674702 4.28258633 -1.19546116 6.4356434 -2.4375 8.625 C-2.77587891 9.23601562 -3.11425781 9.84703125 -3.46289062 10.4765625 C-4.30146192 11.988353 -5.14982577 13.49470399 -6 15 C-7.29257726 11.12226821 -6.39023724 10.01070374 -4.6875 6.375 C-4.23761719 5.39273438 -3.78773438 4.41046875 -3.32421875 3.3984375 C-2 1 -2 1 0 0 Z " fill="#ECDAE4" transform="translate(174,208)"/>
<path d="M0 0 C3 1 3 1 4.203125 2.7421875 C4.54859375 3.44601563 4.8940625 4.14984375 5.25 4.875 C5.60578125 5.57367188 5.9615625 6.27234375 6.328125 6.9921875 C7 9 7 9 6 12 C4.99466333 10.37829621 3.99588093 8.75252763 3 7.125 C2.443125 6.22007812 1.88625 5.31515625 1.3125 4.3828125 C0 2 0 2 0 0 Z " fill="#F0E4EB" transform="translate(319,209)"/>
<path d="M0 0 C0.33 0.99 0.66 1.98 1 3 C-2.32307692 6.93846154 -2.32307692 6.93846154 -5.75 7.25 C-6.4925 7.1675 -7.235 7.085 -8 7 C-7.13375 6.38125 -7.13375 6.38125 -6.25 5.75 C-3.97483401 3.98042645 -2.00004601 2.07147622 0 0 Z " fill="#EF81A6" transform="translate(434,426)"/>
</svg>
