<?xml version="1.0" encoding="UTF-8"?>
<svg version="1.1" xmlns="http://www.w3.org/2000/svg" width="512" height="512">
<path d="M0 0 C11.90993615 8.84916585 21.20187244 19.51457551 26.609375 33.41015625 C27.50615967 33.41158127 28.40294434 33.41300629 29.3269043 33.41447449 C37.80116984 33.4323449 46.27491582 33.47407797 54.74893188 33.54224682 C59.10498871 33.57645718 63.46069704 33.60161747 67.81689453 33.60571289 C72.02529682 33.61000872 76.23291377 33.63857669 80.44107056 33.68358803 C82.0420778 33.69652223 83.64317922 33.7008852 85.24423218 33.69631004 C101.54908267 33.6605873 101.54908267 33.6605873 107.609375 39.41015625 C112.39210186 44.23310556 114.82749537 48.12864254 114.86753762 55.00406575 C114.86171193 55.74725836 114.85588625 56.49045096 114.84988403 57.25616455 C114.85244731 58.44960484 114.85244731 58.44960484 114.85506237 59.66715503 C114.85835923 62.33581187 114.84735034 65.00421784 114.83642578 67.67285156 C114.83586171 69.58474725 114.83617815 71.49664338 114.83731079 73.40853882 C114.83788546 78.60238902 114.8261126 83.79614716 114.81216288 88.98997593 C114.79967461 94.41655068 114.79848652 99.84312745 114.79611206 105.26971436 C114.78989169 115.54731525 114.77347333 125.82487368 114.75341308 136.10245585 C114.73107141 147.80244099 114.72006501 159.50242814 114.71002221 171.20242929 C114.6891076 195.27169517 114.65392079 219.34092333 114.609375 243.41015625 C115.75937988 243.38659058 115.75937988 243.38659058 116.93261719 243.36254883 C120.40812802 243.30016651 123.88352101 243.26115463 127.359375 243.22265625 C128.5659375 243.19751953 129.7725 243.17238281 131.015625 243.14648438 C132.75585938 243.13198242 132.75585938 243.13198242 134.53125 243.1171875 C136.13371582 243.09362183 136.13371582 243.09362183 137.76855469 243.06958008 C140.97815863 243.45436845 142.3313621 244.15006523 144.609375 246.41015625 C145.12695312 248.93457031 145.12695312 248.93457031 145.140625 251.92578125 C145.14578125 253.01246094 145.1509375 254.09914063 145.15625 255.21875 C145.14078125 256.35441406 145.1253125 257.49007813 145.109375 258.66015625 C145.12484375 259.78035156 145.1403125 260.90054687 145.15625 262.0546875 C145.11923003 269.89366553 144.21802625 274.514365 138.79296875 280.37109375 C138.21675781 280.83773438 137.64054687 281.304375 137.046875 281.78515625 C136.17869141 282.50832031 136.17869141 282.50832031 135.29296875 283.24609375 C131.92161202 285.57710142 128.87005378 285.53825658 124.90581989 285.54717064 C123.11205354 285.55478245 123.11205354 285.55478245 121.28204948 285.56254804 C119.94831236 285.56314973 118.6145752 285.56364881 117.28083801 285.5640564 C115.86914263 285.56807084 114.4574484 285.57250904 113.04575557 285.57733595 C109.15723953 285.58930924 105.2687359 285.59495165 101.38020504 285.59951711 C97.18987327 285.60547031 92.99955637 285.61708083 88.80923462 285.62780762 C78.68504048 285.65233758 68.56084142 285.66695938 58.4366267 285.67986768 C55.57769308 285.6835791 52.71875994 285.68755237 49.8598268 285.69162035 C32.11073556 285.71685566 14.36164356 285.73891135 -3.38746166 285.7513485 C-7.4992746 285.75427825 -11.61108751 285.7572399 -15.72290039 285.76025391 C-16.74488627 285.76099996 -17.76687215 285.76174601 -18.8198273 285.76251467 C-35.37829207 285.77517042 -51.93664951 285.80839616 -68.4950641 285.85005574 C-85.49058494 285.89246497 -102.48605081 285.91604234 -119.48162442 285.92126906 C-129.02591581 285.92468426 -138.57003945 285.93645228 -148.11427879 285.9693718 C-156.24203574 285.99735953 -164.36959056 286.00837725 -172.49739196 285.99717633 C-176.64428611 285.99198645 -180.79075688 285.99489754 -184.93758965 286.01964188 C-188.73581162 286.04211683 -192.53330568 286.04140884 -196.33154026 286.022438 C-198.35258936 286.01831028 -200.37364274 286.03879663 -202.39458245 286.06022489 C-209.60475751 285.99717036 -214.94609469 285.43353994 -220.390625 280.41015625 C-226.4113198 273.52213638 -226.62282184 267.72570069 -226.703125 258.97265625 C-226.74663086 257.39774414 -226.74663086 257.39774414 -226.79101562 255.79101562 C-226.79939453 254.77974609 -226.80777344 253.76847656 -226.81640625 252.7265625 C-226.83098877 251.80302979 -226.84557129 250.87949707 -226.8605957 249.92797852 C-226.23102601 246.55512022 -225.05963127 245.53019376 -222.390625 243.41015625 C-219.54980469 242.95605469 -219.54980469 242.95605469 -216.3125 243.01953125 C-215.15234375 243.03242188 -213.9921875 243.0453125 -212.796875 243.05859375 C-210.98703125 243.10886719 -210.98703125 243.10886719 -209.140625 243.16015625 C-207.91859375 243.17820312 -206.6965625 243.19625 -205.4375 243.21484375 C-202.42108422 243.26197525 -199.40625009 243.32776212 -196.390625 243.41015625 C-196.39431217 242.42893579 -196.39799934 241.44771532 -196.40179825 240.4367609 C-196.49063884 216.5496741 -196.55634814 192.66260876 -196.59787369 168.77539158 C-196.61848945 157.22365506 -196.64659133 145.67202775 -196.69238281 134.12036133 C-196.73228061 124.05066683 -196.75806498 113.98105144 -196.76697898 103.9112801 C-196.7721887 98.58053509 -196.78441316 93.25001636 -196.81354523 87.91934395 C-196.84076069 82.89854612 -196.84905755 77.87806711 -196.84305573 72.85720253 C-196.84415322 71.01781225 -196.85207045 69.17841096 -196.8674469 67.33908463 C-197.02652091 47.32342595 -197.02652091 47.32342595 -190.64044571 40.55526066 C-185.26615825 35.51450523 -180.48619494 34.15766723 -173.12182617 34.18310547 C-172.40908539 34.18281342 -171.6963446 34.18252136 -170.96200562 34.18222046 C-168.61907544 34.18360768 -166.27646799 34.19913989 -163.93359375 34.21484375 C-162.30406366 34.21857605 -160.67453131 34.221422 -159.04499817 34.22341919 C-154.76569371 34.23103858 -150.486526 34.25067245 -146.20727539 34.27282715 C-141.83677012 34.29332214 -137.46624265 34.30242871 -133.09570312 34.3125 C-124.52728115 34.33392 -115.95897011 34.3680354 -107.390625 34.41015625 C-107.09963425 33.49490173 -107.09963425 33.49490173 -106.80276489 32.56115723 C-106.5418808 31.75658081 -106.2809967 30.95200439 -106.01220703 30.12304688 C-105.62840378 28.92935486 -105.62840378 28.92935486 -105.23684692 27.71154785 C-99.47405658 12.03901926 -84.64075616 0.84886996 -70.20703125 -6.12890625 C-47.41323443 -16.05945213 -20.74100573 -13.79344662 0 0 Z M-41.390625 2.41015625 C-47.81469024 6.26459539 -50.85504328 12.52131676 -53.390625 19.41015625 C-54.380625 24.85515625 -54.380625 24.85515625 -55.390625 30.41015625 C-45.820625 30.41015625 -36.250625 30.41015625 -26.390625 30.41015625 C-27.64637832 20.3641297 -30.31339207 10.22945946 -38.390625 3.41015625 C-39.380625 3.08015625 -40.370625 2.75015625 -41.390625 2.41015625 Z M-82.73046875 18.4765625 C-87.31096726 23.52789052 -94.390625 31.3645259 -94.390625 38.41015625 C-93.75898438 38.22839844 -93.12734375 38.04664063 -92.4765625 37.859375 C-84.84470612 35.71497731 -77.15374433 34.0081122 -69.390625 32.41015625 C-69.14828125 31.38277344 -68.9059375 30.35539062 -68.65625 29.296875 C-66.69346818 21.129807 -64.50573368 13.23106741 -61.390625 5.41015625 C-69.11770904 5.41015625 -77.47268559 13.50625526 -82.73046875 18.4765625 Z M-19.390625 5.41015625 C-19.22046875 5.93480469 -19.0503125 6.45945312 -18.875 7 C-16.25930409 15.36187896 -14.34130928 23.87467479 -12.390625 32.41015625 C-10.58078125 32.79107422 -10.58078125 32.79107422 -8.734375 33.1796875 C-7.11972315 33.5270254 -5.50514363 33.87469965 -3.890625 34.22265625 C-3.09914063 34.38830078 -2.30765625 34.55394531 -1.4921875 34.72460938 C3.76303705 35.86611307 8.61546542 37.41144703 13.609375 39.41015625 C12.06722951 28.80552617 3.47090411 20.09011625 -4.390625 13.41015625 C-9.15066974 10.06843879 -13.96154641 7.4856978 -19.390625 5.41015625 Z M-57.390625 43.41015625 C-58.25286819 51.939681 -58.25286819 51.939681 -58.515625 60.41015625 C-58.51820313 61.50328125 -58.52078125 62.59640625 -58.5234375 63.72265625 C-58.35865518 68.29778881 -57.84616288 72.85477741 -57.390625 77.41015625 C-46.500625 77.41015625 -35.610625 77.41015625 -24.390625 77.41015625 C-23.49212577 73.81615933 -23.26177432 71.13564397 -23.2578125 67.47265625 C-23.25652344 66.33054687 -23.25523437 65.1884375 -23.25390625 64.01171875 C-23.25970703 62.22894531 -23.25970703 62.22894531 -23.265625 60.41015625 C-23.26175781 59.22164062 -23.25789063 58.033125 -23.25390625 56.80859375 C-23.25583984 55.09542969 -23.25583984 55.09542969 -23.2578125 53.34765625 C-23.25950439 51.78337891 -23.25950439 51.78337891 -23.26123047 50.1875 C-23.31021651 47.17327353 -23.31021651 47.17327353 -24.390625 43.41015625 C-35.280625 43.41015625 -46.170625 43.41015625 -57.390625 43.41015625 Z M-10.390625 45.41015625 C-10.390625 55.31015625 -10.390625 65.21015625 -10.390625 75.41015625 C4.83373028 71.98876015 4.83373028 71.98876015 16.609375 62.41015625 C17.08690177 59.86698887 17.08690177 59.86698887 15.609375 57.41015625 C8.83113193 49.50561902 -0.61610177 47.58227252 -10.390625 45.41015625 Z M-97.390625 57.41015625 C-98.79278623 59.26475904 -98.79278623 59.26475904 -98.390625 61.41015625 C-94.63200476 67.50171319 -89.92355284 69.66335704 -83.390625 72.41015625 C-79.100625 73.40015625 -74.810625 74.39015625 -70.390625 75.41015625 C-70.390625 65.51015625 -70.390625 55.61015625 -70.390625 45.41015625 C-80.16829682 45.41015625 -90.54430093 50.73081569 -97.390625 57.41015625 Z M-182.390625 52.41015625 C-183.89655706 55.42202037 -183.52406917 58.52303511 -183.51087952 61.82583618 C-183.51173553 62.59746597 -183.51259155 63.36909576 -183.51347351 64.16410828 C-183.51513572 66.77170075 -183.50959371 69.37922975 -183.50415039 71.98681641 C-183.50384423 73.87938625 -183.50397725 75.7719562 -183.50451565 77.66452599 C-183.50474202 82.74671248 -183.49893339 87.82887556 -183.49190521 92.91105652 C-183.4862231 97.67467322 -183.48594279 102.43828414 -183.48522949 107.2019043 C-183.47997581 121.14632473 -183.46601474 135.09074078 -183.453125 149.03515625 C-183.4325 180.17890625 -183.411875 211.32265625 -183.390625 243.41015625 C-89.340625 243.41015625 4.709375 243.41015625 101.609375 243.41015625 C101.691875 212.16328125 101.774375 180.91640625 101.859375 148.72265625 C101.89579102 138.84884033 101.93220703 128.97502441 101.96972656 118.80200195 C101.98310258 109.96712773 101.98310258 109.96712773 101.9911499 101.13224792 C101.99488326 97.19070976 102.00989968 93.24938613 102.03167725 89.3079071 C102.05907367 84.2830726 102.06734716 79.25855092 102.0616641 74.23364866 C102.0628528 72.38779622 102.07080859 70.54193306 102.08623552 68.6961447 C102.1060903 66.20522001 102.10135222 63.71551546 102.09039307 61.2245636 C102.10204372 60.50005603 102.11369438 59.77554846 102.12569809 59.02908611 C102.06873726 54.22237445 101.0178968 51.78477593 97.609375 48.41015625 C95.20877683 47.20985717 93.71576851 47.29555882 91.0390625 47.3125 C89.69521484 47.31733398 89.69521484 47.31733398 88.32421875 47.32226562 C87.38707031 47.33064453 86.44992187 47.33902344 85.484375 47.34765625 C84.06705078 47.35442383 84.06705078 47.35442383 82.62109375 47.36132812 C80.28379113 47.37313268 77.94661439 47.38959866 75.609375 47.41015625 C79.18498706 52.4949705 79.18498706 52.4949705 84.53125 55.171875 C85.93117188 55.13513672 85.93117188 55.13513672 87.359375 55.09765625 C90.21875 55.046875 90.21875 55.046875 92.609375 55.41015625 C95.08450386 58.87073038 94.86335493 62.2846119 94.87007141 66.42527771 C94.87389696 67.13162214 94.87772251 67.83796657 94.88166398 68.56571537 C94.8919825 70.93247645 94.88800407 73.29899441 94.8840332 75.66577148 C94.88838031 77.36266301 94.89356345 79.05955257 94.89952087 80.75643921 C94.91292209 85.36591727 94.91348831 89.9753134 94.91095757 94.58480716 C94.90988865 98.43183143 94.9147692 102.27883908 94.919563 106.1258598 C94.93066201 115.20086252 94.93109333 124.27582385 94.92504883 133.35083008 C94.91900732 142.71553446 94.93132363 152.08008866 94.9526189 161.44476742 C94.97022648 169.48308599 94.9762376 177.52135672 94.97298115 185.55969387 C94.97116685 190.36146156 94.97381918 195.16312211 94.98769569 199.96487236 C95.00025574 204.48010814 94.99834726 208.99510954 94.98528481 213.51034164 C94.98291551 215.1675671 94.98566633 216.82480896 94.99390793 218.48201561 C95.00434753 220.74430048 94.99629785 223.00579484 94.9835968 225.26805115 C94.98384841 227.16698702 94.98384841 227.16698702 94.98410511 229.10428524 C94.34843731 234.71214991 94.34843731 234.71214991 91.609375 237.41015625 C88.16492401 238.16989495 84.76058525 238.07489613 81.24633789 238.03161621 C79.62858129 238.04119944 79.62858129 238.04119944 77.97814274 238.05097628 C74.34573387 238.06629907 70.71440301 238.04571558 67.08203125 238.02539062 C64.48550046 238.02888961 61.8889718 238.03454565 59.29244995 238.04220581 C52.96104031 238.05675146 46.62995071 238.04447945 40.29857135 238.02309257 C32.92964572 237.99911223 25.56079389 238.0007951 18.19183791 238.00339848 C5.04611962 238.00709087 -8.09944762 237.98624408 -21.24511719 237.95214844 C-34.0088279 237.91905563 -46.77238006 237.90488987 -59.53613281 237.91113281 C-73.4260041 237.91789311 -87.3158089 237.91544686 -101.20567036 237.89577341 C-102.30687516 237.89421418 -102.30687516 237.89421418 -103.43032652 237.89262345 C-104.90491316 237.89053252 -106.37949976 237.88842154 -107.85408634 237.88629028 C-112.99386548 237.87938755 -118.13362417 237.87872656 -123.27340698 237.88017273 C-130.18775281 237.88176073 -137.10190466 237.86689731 -144.01620102 237.8409462 C-146.55954948 237.83376119 -149.10291817 237.83171191 -151.64627457 237.83506393 C-155.10692166 237.83875605 -158.56700563 237.82410987 -162.02758789 237.80456543 C-163.04401336 237.80989336 -164.06043882 237.81522128 -165.10766506 237.82071066 C-166.03140454 237.81165402 -166.95514402 237.80259738 -167.90687561 237.7932663 C-168.70607957 237.79169509 -169.50528353 237.79012389 -170.32870579 237.78850508 C-172.93565107 237.31014749 -173.82190265 236.5194058 -175.390625 234.41015625 C-175.76535511 231.28232479 -175.76535511 231.28232479 -175.7648468 227.34324646 C-175.77080841 226.25733509 -175.77080841 226.25733509 -175.77689046 225.14948612 C-175.7865355 222.7172164 -175.77468245 220.28552514 -175.76293945 217.85327148 C-175.76536668 216.11225161 -175.76908532 214.37123313 -175.77400208 212.63021851 C-175.78342356 207.89686761 -175.77397548 203.16372303 -175.76066995 198.43038821 C-175.74937324 193.48387025 -175.75346153 188.53736272 -175.75541687 183.59083557 C-175.75630033 175.28423684 -175.74520795 166.97771965 -175.72680664 158.67114258 C-175.70563127 149.05705602 -175.70213031 139.44308888 -175.7083686 129.82898372 C-175.71405586 120.59240985 -175.70842459 111.35587817 -175.69719505 102.11931038 C-175.6925413 98.18273198 -175.69167855 94.24617933 -175.6937809 90.30959892 C-175.69565941 85.67786492 -175.68759372 81.04625311 -175.6717205 76.41454697 C-175.6674647 74.71091657 -175.66663575 73.00727381 -175.66941071 71.30364037 C-175.67261454 68.98565195 -175.66359669 66.66803282 -175.65132141 64.3500824 C-175.64926854 63.05056357 -175.64721567 61.75104475 -175.64510059 60.41214657 C-175.390625 57.41015625 -175.390625 57.41015625 -173.390625 55.41015625 C-170.65761464 55.22091399 -167.95393062 55.22350341 -165.21484375 55.2421875 C-161.01453693 54.00475271 -159.55848517 51.05483786 -157.390625 47.41015625 C-160.61931246 47.26431561 -163.84714865 47.17591519 -167.078125 47.09765625 C-167.99013672 47.05576172 -168.90214844 47.01386719 -169.84179688 46.97070312 C-175.79328103 46.86249432 -178.64785634 47.32578415 -182.390625 52.41015625 Z M-143.390625 47.41015625 C-139.38468373 53.26375378 -139.38468373 53.26375378 -136.31005859 54.13549805 C-135.64312988 54.12687744 -134.97620117 54.11825684 -134.2890625 54.109375 C-133.55171875 54.12162109 -132.814375 54.13386719 -132.0546875 54.14648438 C-131.29929688 54.13037109 -130.54390625 54.11425781 -129.765625 54.09765625 C-121.95518842 54.05147968 -121.95518842 54.05147968 -119.35546875 55.703125 C-117.68452157 58.65941617 -118.62933886 61.24789073 -119.390625 64.41015625 C-123.10587265 66.26778007 -127.95990218 65.65712651 -132.09375 65.6640625 C-137.02352637 65.79960422 -137.02352637 65.79960422 -140.8046875 68.89453125 C-141.32804687 69.7246875 -141.85140625 70.55484375 -142.390625 71.41015625 C-144.94981682 72.68975216 -146.84546528 72.57832161 -149.703125 72.59765625 C-151.12044922 72.61892578 -151.12044922 72.61892578 -152.56640625 72.640625 C-155.59299893 72.39364164 -157.71238718 71.83696967 -160.390625 70.41015625 C-160.720625 69.42015625 -161.050625 68.43015625 -161.390625 67.41015625 C-162.050625 67.41015625 -162.710625 67.41015625 -163.390625 67.41015625 C-163.390625 119.55015625 -163.390625 171.69015625 -163.390625 225.41015625 C-82.540625 225.41015625 -1.690625 225.41015625 81.609375 225.41015625 C81.609375 173.27015625 81.609375 121.13015625 81.609375 67.41015625 C78.969375 69.06015625 76.329375 70.71015625 73.609375 72.41015625 C68.99651294 73.39079266 64.92018224 72.98363442 60.609375 71.09765625 C58.609375 69.41015625 58.609375 69.41015625 56.609375 66.41015625 C52.98228691 66.09022848 49.45456786 66.02238255 45.81835938 66.05859375 C43.55078125 66.01171875 43.55078125 66.01171875 39.609375 65.41015625 C37.52734375 63.04296875 37.52734375 63.04296875 36.609375 60.41015625 C37.27217883 57.97987553 37.8104722 56.20905905 39.609375 54.41015625 C43.13289067 54.30808015 46.65078917 54.21144677 50.17578125 54.24414062 C50.92214844 54.22287109 51.66851562 54.20160156 52.4375 54.1796875 C53.4569873 54.17352417 53.4569873 54.17352417 54.49707031 54.16723633 C57.59533775 53.25826247 57.59533775 53.25826247 61.609375 47.41015625 C51.379375 47.41015625 41.149375 47.41015625 30.609375 47.41015625 C30.67125 50.05015625 30.733125 52.69015625 30.796875 55.41015625 C30.94691646 76.48136364 24.50893693 95.57125217 9.953125 111.21875 C-0.45136266 120.94694596 -14.16020249 128.50795087 -28.390625 130.41015625 C-29.32777344 130.54292969 -30.26492188 130.67570312 -31.23046875 130.8125 C-50.62543263 132.94618577 -68.8156898 128.36211692 -84.48828125 116.7578125 C-98.10471167 105.74371468 -108.52265996 90.21297293 -111.17675781 72.59814453 C-111.99108379 64.26710635 -111.53690304 55.74800479 -111.390625 47.41015625 C-121.950625 47.41015625 -132.510625 47.41015625 -143.390625 47.41015625 Z M-94.390625 82.41015625 C-90.94912523 94.16287796 -81.61499011 104.27706794 -71.0859375 110.30078125 C-68.21470036 111.7465336 -65.33469354 113.12022931 -62.390625 114.41015625 C-62.56078125 113.87390625 -62.7309375 113.33765625 -62.90625 112.78515625 C-65.39381581 104.74026255 -67.39211019 96.58682089 -69.390625 88.41015625 C-70.525 88.14460938 -71.659375 87.8790625 -72.828125 87.60546875 C-74.34896548 87.24872839 -75.86979841 86.89195583 -77.390625 86.53515625 C-78.13441406 86.36113281 -78.87820313 86.18710938 -79.64453125 86.0078125 C-84.57114859 84.85112843 -89.48376316 83.64802367 -94.390625 82.41015625 Z M12.609375 81.41015625 C11.28486328 81.91675781 11.28486328 81.91675781 9.93359375 82.43359375 C2.53142877 85.18455947 -4.52675008 87.33489172 -12.390625 88.41015625 C-12.65617188 89.57933594 -12.92171875 90.74851562 -13.1953125 91.953125 C-13.55187351 93.50135042 -13.90865602 95.04952484 -14.265625 96.59765625 C-14.43964844 97.36658203 -14.61367188 98.13550781 -14.79296875 98.92773438 C-15.72026216 102.9288337 -16.84342868 106.59792028 -18.390625 110.41015625 C-18.390625 111.40015625 -18.390625 112.39015625 -18.390625 113.41015625 C-8.25432436 111.95698749 0.25752578 102.91592474 6.609375 95.41015625 C9.24580432 91.56226909 11.73390644 87.68920364 13.609375 83.41015625 C13.279375 82.75015625 12.949375 82.09015625 12.609375 81.41015625 Z M-55.390625 90.41015625 C-52.56949013 104.76245736 -52.56949013 104.76245736 -44.390625 116.41015625 C-43.0768754 117.11463067 -41.74614118 117.78983528 -40.390625 118.41015625 C-31.96398611 112.16118809 -28.66343166 104.53447684 -26.390625 94.41015625 C-26.390625 93.09015625 -26.390625 91.77015625 -26.390625 90.41015625 C-35.960625 90.41015625 -45.530625 90.41015625 -55.390625 90.41015625 Z M-213.390625 256.41015625 C-214.01298225 265.15335892 -214.01298225 265.15335892 -210.390625 271.41015625 C-207.77586435 272.71753658 -205.85643362 272.5404379 -202.92667675 272.54717064 C-201.75884063 272.55224518 -200.59100451 272.55731972 -199.38777941 272.56254804 C-198.09354802 272.5630458 -196.79931662 272.56354356 -195.46586609 272.5640564 C-194.08589406 272.56806966 -192.7059232 272.57250766 -191.32595378 272.57733595 C-187.52059917 272.58932229 -183.71525724 272.59495465 -179.90988743 272.59951711 C-175.810939 272.60546533 -171.7120058 272.61707703 -167.61306763 272.62780762 C-157.70797709 272.65234828 -147.80288149 272.66696056 -137.8977699 272.67986768 C-135.10156604 272.68357819 -132.30536268 272.68755153 -129.50915933 272.69162035 C-112.15600945 272.71685378 -94.80285881 272.73891326 -77.44969463 272.7513485 C-73.42878402 272.75427833 -69.40787344 272.75723998 -65.38696289 272.76025391 C-63.8878428 272.76137298 -63.8878428 272.76137298 -62.35843746 272.76251467 C-46.16000677 272.77517467 -29.9616857 272.80840553 -13.76330628 272.85005574 C2.8558743 272.89243875 19.47499871 272.91603926 36.09423321 272.92126906 C45.42997065 272.92468715 54.76553674 272.93648916 64.10122108 272.9693718 C72.05012594 272.99732352 79.99882437 273.00839315 87.94777457 272.99717633 C92.00518176 272.99197723 96.06215631 272.99495687 100.11950111 273.01964188 C103.83249257 273.04204379 107.54473835 273.04146625 111.25774207 273.022438 C113.24029679 273.01829052 115.22285537 273.03885043 117.2052992 273.06022489 C122.14836818 273.01577508 125.57803693 272.98300031 129.94098186 270.55965614 C132.46757526 266.38411192 132.46757526 266.38411192 131.609375 256.41015625 C95.309375 256.41015625 59.009375 256.41015625 21.609375 256.41015625 C20.619375 259.38015625 19.629375 262.35015625 18.609375 265.41015625 C17.609375 268.41015625 17.609375 268.41015625 15.68455505 269.57949829 C11.24765659 270.77797934 6.98378467 270.70498826 2.40649414 270.70068359 C0.86903786 270.71075943 0.86903786 270.71075943 -0.69947815 270.72103882 C-4.08485776 270.74002385 -7.47003923 270.74394309 -10.85546875 270.74609375 C-13.21049583 270.75252056 -15.5655221 270.75924884 -17.92054749 270.76626587 C-22.85582328 270.77823936 -27.79102906 270.78194653 -32.72631836 270.78076172 C-39.04934594 270.78055836 -45.37192494 270.80787852 -51.69484615 270.84230614 C-56.55817222 270.864544 -61.42138972 270.86860023 -66.28476143 270.86754227 C-68.61595775 270.86990222 -70.94715689 270.87874783 -73.27830315 270.894207 C-76.53863853 270.91380626 -79.79799847 270.90805246 -83.05834961 270.89599609 C-84.50097672 270.91285461 -84.50097672 270.91285461 -85.9727478 270.93005371 C-91.75475935 270.87573191 -94.95746341 270.2074546 -99.390625 266.41015625 C-101.71704783 263.08669506 -101.67404525 260.70963473 -102.390625 256.41015625 C-139.020625 256.41015625 -175.650625 256.41015625 -213.390625 256.41015625 Z M-89.390625 256.41015625 C-89.390625 257.07015625 -89.390625 257.73015625 -89.390625 258.41015625 C-57.380625 258.41015625 -25.370625 258.41015625 7.609375 258.41015625 C7.939375 257.75015625 8.269375 257.09015625 8.609375 256.41015625 C-23.730625 256.41015625 -56.070625 256.41015625 -89.390625 256.41015625 Z " fill="#5365AF" transform="translate(361.390625,39.58984375)"/>
<path d="M0 0 C2.46962235 0.57194295 4.91754282 1.24276771 7.34057617 1.98779297 C8.03743027 2.19915894 8.73428436 2.4105249 9.45225525 2.6282959 C11.73550134 3.32349631 14.01417125 4.03255411 16.29296875 4.7421875 C17.88740842 5.23139502 19.48208305 5.71983735 21.07698059 6.20755005 C24.40988141 7.2289173 27.74071939 8.25666545 31.07006836 9.28955078 C35.33434191 10.61235915 39.60209135 11.92348215 43.87125683 13.23040581 C47.16044747 14.23791518 50.44841405 15.24936708 53.73595619 16.26224136 C55.30939458 16.74695087 56.88305115 17.23095273 58.45693016 17.71422958 C60.65497677 18.39029355 62.85149155 19.07111216 65.04760742 19.75341797 C66.29668381 20.13980438 67.54576019 20.5261908 68.83268738 20.92428589 C75.61365219 23.22730438 75.61365219 23.22730438 77 26 C77.37613228 30.51358738 76.83750986 33.91996845 75.484375 38.25 C75.20819336 39.14203125 74.93201172 40.0340625 74.64746094 40.953125 C74.43379883 41.62859375 74.22013672 42.3040625 74 43 C89.38382407 44.44341168 89.38382407 44.44341168 102.63671875 37.9453125 C115.99878663 26.94645332 136.41993289 25.5104362 153 27 C158.49426079 27.81712517 163.72312353 29.29242649 169 31 C169.92039063 31.28875 170.84078125 31.5775 171.7890625 31.875 C186.21345267 37.00367206 197.85447223 47.76056024 207.078125 59.640625 C213.7787667 67.86661603 221.56751061 72.18422183 232 74 C233.6645067 74.08985903 235.33186289 74.13499787 236.9987793 74.1418457 C238.45135384 74.15239738 238.45135384 74.15239738 239.93327332 74.16316223 C240.96978531 74.16732651 242.0062973 74.17149078 243.07421875 74.17578125 C245.29102506 74.19898538 247.50782196 74.22310295 249.72460938 74.24804688 C253.2024562 74.2830826 256.67995752 74.31247082 260.15795898 74.32592773 C263.52630013 74.34149419 266.89364434 74.38176242 270.26171875 74.42578125 C271.80130501 74.42291862 271.80130501 74.42291862 273.37199402 74.41999817 C281.13480528 74.55007674 287.34321619 76.37035516 294.10302734 80.18756104 C296.13329112 81.30167904 296.13329112 81.30167904 298.86791992 80.08813477 C299.97756104 79.54471436 301.08720215 79.00129395 302.23046875 78.44140625 C302.84498901 78.14655838 303.45950928 77.85171051 304.09265137 77.54792786 C305.42817707 76.90503914 306.76024915 76.25493811 308.08920288 75.59857178 C310.94882698 74.18658117 313.82484614 72.80957725 316.70014954 71.42987061 C318.20386178 70.7077704 319.70668805 69.9838226 321.20866394 69.25811768 C330.33569431 64.85237377 339.56558357 60.6765191 348.80883789 56.52148438 C350.17600768 55.90639149 351.54311405 55.29115764 352.91015625 54.67578125 C353.58136002 54.373909 354.25256378 54.07203674 354.94410706 53.76101685 C358.99483735 51.93115463 363.01601734 50.04909806 367.01979065 48.11871338 C369.60180632 46.87657723 372.19366276 45.65584365 374.78677368 44.43707275 C376.55076129 43.59782055 378.30056799 42.72895659 380.04956055 41.85888672 C389.23237788 37.56927194 398.72505053 35.85831554 408.54150391 39.20874023 C417.91011304 43.40697344 423.18471743 49.61160833 427 59 C429.2906495 66.63549834 428.29908489 74.81632709 425 82 C421.72939014 86.43336608 418.45401571 89.36640853 413.875 92.5 C412.62648272 93.36687664 411.37915162 94.2354634 410.1328125 95.10546875 C409.46668945 95.56872559 408.80056641 96.03198242 408.11425781 96.50927734 C404.27941178 99.21315377 400.51930649 102.01837189 396.75 104.8125 C390.52737164 109.4137305 384.28145993 113.97941966 378 118.5 C371.80341727 122.96015531 365.64023905 127.46259688 359.5 132 C349.6460488 139.27959514 339.71425404 146.44830513 329.77050781 153.60449219 C327.53389856 155.21465509 325.2979439 156.82571961 323.0625 158.4375 C322.32322266 158.97052734 321.58394531 159.50355469 320.82226562 160.05273438 C316.14020318 163.43535191 311.48284786 166.84963275 306.83984375 170.28564453 C303.67409202 172.62714261 300.50155697 174.95931809 297.32714844 177.2890625 C295.78371722 178.42380505 294.24266936 179.56179695 292.70410156 180.703125 C276.48120864 192.710731 262.63841023 199.12145732 242 197 C233.11383598 195.41607028 224.44928558 192.81188936 215.78553391 190.31493759 C212.41522115 189.349918 209.03652335 188.41518993 205.65844727 187.4777832 C200.60470932 186.0726883 195.55372067 184.65834336 190.50566387 183.23297215 C180.06330223 180.28517013 169.60130349 177.41204809 159.1328125 174.55859375 C157.46951542 174.10497985 155.80622094 173.65135643 154.14292908 173.19772339 C151.67131662 172.52372521 149.19968406 171.84980112 146.72799587 171.1760807 C138.90202247 169.04261154 131.07823475 166.9012243 123.25605392 164.7538929 C121.86466888 164.37203749 120.47320588 163.99046601 119.08165359 163.6092205 C117.15115962 163.08029743 115.22096198 162.55029315 113.29077148 162.02026367 C112.07345337 161.688461 110.85613525 161.35665833 109.60192871 161.01480103 C107.19309179 160.33613957 104.79397033 159.62203793 102.40588379 158.87362671 C94.46311507 156.4150431 87.33934904 155.40000637 79.0390625 155.390625 C77.88248138 155.37408875 76.72590027 155.35755249 75.53427124 155.34051514 C71.89779075 155.29254801 68.26172671 155.27077853 64.625 155.25 C62.13539628 155.22179746 59.64581154 155.19186416 57.15625 155.16015625 C51.10424105 155.08680355 45.05234672 155.03486275 39 155 C38.79068848 156.41031494 38.79068848 156.41031494 38.57714844 157.84912109 C37.50550939 163.69961751 33.75894135 168.28615971 29.5625 172.375 C20.1753679 178.32781548 12.96915812 178.46131716 2.53637695 176.14111328 C-6.33431912 173.98451026 -15.04955126 171.21335816 -23.77148438 168.52978516 C-27.14927151 167.49254679 -30.53140945 166.47046154 -33.9140625 165.44921875 C-36.07058929 164.78996724 -38.22684943 164.12984272 -40.3828125 163.46875 C-41.39006378 163.16553833 -42.39731506 162.86232666 -43.43508911 162.54992676 C-44.83837967 162.11432434 -44.83837967 162.11432434 -46.27001953 161.66992188 C-47.08938995 161.41915894 -47.90876038 161.168396 -48.75296021 160.91003418 C-51.25075736 159.89844516 -53.02826855 158.84057924 -55 157 C-55.81348457 150.38231679 -54.03910929 144.77546053 -52.0546875 138.5 C-51.73700912 137.46352829 -51.41933075 136.42705658 -51.09202576 135.35917664 C-50.03004972 131.90282802 -48.95246161 128.45154954 -47.875 125 C-47.12021618 122.55348706 -46.36658105 120.10661947 -45.61401367 117.65942383 C-44.19090837 113.03415812 -42.76376676 108.41016979 -41.33227825 103.7874918 C-38.25550953 93.84966956 -35.21574171 83.90073366 -32.18359375 73.94921875 C-31.6905079 72.33146653 -31.19740488 70.71371953 -30.70428467 69.09597778 C-29.9675465 66.67891461 -29.23082824 64.26184538 -28.49417877 61.84475517 C-24.89889924 50.04832177 -21.30157234 38.25256966 -17.67440796 26.4658947 C-16.47591209 22.56641724 -15.29740786 18.66143564 -14.13037109 14.75244141 C-13.6014322 13.00807881 -13.07231658 11.26376979 -12.54296875 9.51953125 C-12.32135574 8.75879807 -12.09974274 7.99806488 -11.87141418 7.21427917 C-9.74980773 0.30408194 -6.95790958 -0.4598349 0 0 Z M0 15 C-8.82313921 43.03170667 -17.50570908 71.1026962 -26.01147461 99.23242188 C-26.34643448 100.33978699 -26.68139435 101.4471521 -27.02650452 102.58807373 C-27.68770608 104.77505605 -28.34815125 106.96226722 -29.00779724 109.14971924 C-30.73779256 114.87609128 -32.49291799 120.59346546 -34.28173828 126.30175781 C-34.65359756 127.49298248 -35.02545685 128.68420715 -35.40858459 129.91152954 C-36.12285846 132.19557802 -36.84174737 134.47818993 -37.56590271 136.75912476 C-37.88519241 137.78172394 -38.20448212 138.80432312 -38.53344727 139.85791016 C-38.81728775 140.75675934 -39.10112823 141.65560852 -39.39356995 142.58169556 C-40.16215695 145.23111461 -40.16215695 145.23111461 -40 149 C-38.06441401 149.67220351 -36.12645628 150.33758077 -34.1875 151 C-32.56908203 151.556875 -32.56908203 151.556875 -30.91796875 152.125 C-28.02879198 153.14361512 -28.02879198 153.14361512 -25 153 C-24.77893585 152.26750534 -24.5578717 151.53501068 -24.33010864 150.78031921 C-22.24600972 143.87786628 -20.15714133 136.97688363 -18.06289864 130.07750225 C-16.98639479 126.53040611 -15.91174467 122.98277032 -14.84130859 119.43383789 C-13.80823364 116.00901861 -12.77031891 112.58570078 -11.72903061 109.16337013 C-11.33259191 107.85736213 -10.93790065 106.55082237 -10.54498672 105.24374962 C-9.99441663 103.41329881 -9.43705508 101.58489492 -8.87939453 99.7565918 C-8.56406769 98.71512497 -8.24874084 97.67365814 -7.92385864 96.60063171 C-7 94 -7 94 -5 91 C-1.99201135 90.59278132 0.97321367 90.87028059 4 91 C4.44938741 98.73888693 2.85303608 104.97889306 0.53515625 112.33203125 C0.00600868 114.06328499 0.00600868 114.06328499 -0.53382874 115.82951355 C-1.65665457 119.49423956 -2.79662234 123.15335829 -3.9375 126.8125 C-4.70104298 129.29065446 -5.46342491 131.76916696 -6.22460938 134.24804688 C-7.29462479 137.73235536 -8.36632398 141.2160357 -9.44725037 144.69697571 C-9.76750687 145.72872421 -10.08776337 146.76047272 -10.41772461 147.82348633 C-10.69974228 148.72899734 -10.98175995 149.63450836 -11.27232361 150.56745911 C-11.91066127 152.70135061 -12.48182831 154.83425246 -13 157 C-9.69533112 158.18969888 -6.38025555 159.34735253 -3.0625 160.5 C-1.67321289 161.00080078 -1.67321289 161.00080078 -0.25585938 161.51171875 C6.7943957 163.93601699 13.25435435 165.62546887 20.3125 162.5625 C27.27097436 155.92767561 29.0451682 144.85133811 31.74609375 135.8828125 C32.19822914 134.39686735 32.6508726 132.91107671 33.10398865 131.4254303 C34.30746771 127.47438536 35.50388757 123.52123753 36.69869232 119.5675621 C37.93294161 115.48702717 39.17309789 111.40828816 40.41259766 107.3293457 C42.3750105 100.86887388 44.33354197 94.40723759 46.28955078 87.94482422 C48.62759507 80.22122754 50.98084299 72.50238041 53.33984375 64.78515625 C54.24237104 61.8260838 55.14427841 58.86682375 56.04568481 55.90740967 C56.59599216 54.10256358 57.1474746 52.29807534 57.70016479 50.49395752 C58.44728939 48.05314177 59.18924398 45.61081802 59.9296875 43.16796875 C60.14419052 42.4714772 60.35869354 41.77498566 60.57969666 41.05738831 C61.42553113 38.24982186 62 35.95269443 62 33 C54.36067439 30.64816175 46.71998343 28.30083559 39.07750225 25.95927429 C35.52892713 24.87187963 31.9808446 23.7829306 28.43383789 22.69042969 C25.01146518 21.63637935 21.58786458 20.58641175 18.16337013 19.53927612 C16.85637563 19.13883953 15.54983207 18.73692804 14.24374962 18.33352661 C12.41589332 17.76924251 10.58627958 17.21066068 8.7565918 16.65234375 C7.71512497 16.33257568 6.67365814 16.01280762 5.60063171 15.68334961 C2.96456789 14.87293199 2.96456789 14.87293199 0 15 Z M106.44140625 51.50146484 C99.87796672 57.52812417 92.3905482 56.89403914 84 56.875 C82.54293289 56.89315256 81.08589634 56.91396325 79.62890625 56.9375 C76.08576647 56.9890087 72.54356293 57.00445491 69 57 C63.40144788 74.29567346 57.99856791 91.64734194 52.70605469 109.03857422 C51.68163733 112.40480007 50.65431646 115.77013233 49.62622833 119.13523865 C48.63484073 122.38140101 47.64561592 125.62822088 46.65625 128.875 C46.28761841 130.08196533 45.91898682 131.28893066 45.53918457 132.5324707 C45.20463257 133.63292725 44.87008057 134.73338379 44.52539062 135.8671875 C44.08193298 137.32294189 44.08193298 137.32294189 43.6295166 138.80810547 C42.95399285 140.78010709 42.95399285 140.78010709 43 142 C44.19294678 141.92555664 45.38589355 141.85111328 46.61499023 141.77441406 C75.98692452 140.18955009 101.88102765 143.64709513 129.9375 151.75 C130.69130447 151.96737823 131.44510895 152.18475647 132.22175598 152.40872192 C139.24816644 154.44061851 146.26346328 156.50924005 153.26885986 158.61242676 C169.60943744 163.51821697 186.02940151 168.12039031 202.48339939 172.62984085 C207.55229967 174.01982853 212.61464487 175.43073466 217.67212105 176.86171722 C220.82213824 177.7496306 223.97619774 178.62247693 227.13140106 179.49176025 C228.58312509 179.89489824 230.03321589 180.30397814 231.48136139 180.7197876 C244.41730112 184.42653384 257.68018454 186.6792255 270 180 C275.88484252 176.31231257 281.43093593 172.14121956 287 168 C288.56050677 166.85192455 290.12171066 165.7047961 291.68359375 164.55859375 C294.87569762 162.21320004 298.06237171 159.86066231 301.24609375 157.50390625 C305.80592679 154.13448445 310.39785879 150.81130287 315 147.5 C321.19663348 143.03991624 327.35976195 138.53740238 333.5 134 C343.3539512 126.72040486 353.28574596 119.55169487 363.22949219 112.39550781 C372.57492265 105.66761586 381.88808891 98.90035945 391.13818359 92.04174805 C394.80763301 89.32656967 398.48915593 86.63952394 402.23828125 84.03515625 C403.2123291 83.3558606 403.2123291 83.3558606 404.20605469 82.6628418 C405.40320561 81.83236164 406.60536247 81.00902955 407.81347656 80.19458008 C410.80872727 78.11485019 412.86648288 76.52272687 414 73 C414.69598255 68.16858627 414.65219791 63.51809429 412.375 59.125 C409.18431734 54.92673335 405.98613407 52.66204469 401 51 C393.83107475 50.3011672 389.36628841 52.30319959 383.0625 55.5625 C381.01079123 56.58280559 378.9572967 57.59952549 376.90234375 58.61328125 C375.79487793 59.16193848 374.68741211 59.7105957 373.54638672 60.27587891 C367.13109817 63.39475318 360.62586311 66.31485964 354.125 69.25 C352.73706696 69.87825239 351.34920929 70.50667128 349.96142578 71.13525391 C347.11842011 72.42264027 344.2749223 73.70893181 341.43115234 74.99462891 C334.50517536 78.12732651 327.58658306 81.27628901 320.66717529 84.42346191 C317.13124062 86.03157608 313.59490788 87.63881425 310.05859375 89.24609375 C308.88611084 89.77904053 307.71362793 90.3119873 306.50561523 90.86108398 C305.26533569 91.42484741 305.26533569 91.42484741 304 92 C304.2158374 92.87390381 304.4316748 93.74780762 304.65405273 94.64819336 C304.93192627 95.80456299 305.2097998 96.96093262 305.49609375 98.15234375 C305.77380615 99.29437256 306.05151855 100.43640137 306.33764648 101.61303711 C308.2759755 111.52473577 305.4149925 119.65137726 300 128 C294.68962754 134.32428606 287.00795223 137.61344721 279 139 C277.39305358 139.08974858 275.78313082 139.13457569 274.1736908 139.14044189 C272.75847389 139.14900711 272.75847389 139.14900711 271.31466675 139.15774536 C270.29164459 139.15886322 269.26862244 139.15998108 268.21459961 139.16113281 C267.12789474 139.16609772 266.04118988 139.17106262 264.92155457 139.17617798 C261.33181117 139.19076734 257.7421119 139.19759462 254.15234375 139.203125 C251.65800475 139.20887707 249.16366576 139.2146348 246.66932678 139.22039795 C241.44320469 139.23089733 236.21709795 139.23674763 230.9909668 139.24023438 C224.95206183 139.24447612 218.91332764 139.26384594 212.87448114 139.2898953 C207.0593805 139.31410778 201.24434779 139.32183838 195.42920113 139.32357025 C192.95680189 139.32660204 190.48440363 139.33464818 188.01203728 139.34775543 C184.55986853 139.36475764 181.10819917 139.36295027 177.65600586 139.35644531 C176.63095947 139.3656601 175.60591309 139.37487488 174.54980469 139.3843689 C173.60914658 139.37879974 172.66848846 139.37323059 171.69932556 139.36749268 C170.47570769 139.36969252 170.47570769 139.36969252 169.22737026 139.3719368 C166.48534311 138.91406016 165.07811228 137.79889342 163 136 C163.875 129.125 163.875 129.125 165 128 C166.41119874 127.89673426 167.82749136 127.86205918 169.2424469 127.85523987 C170.6155024 127.84489212 170.6155024 127.84489212 172.01629639 127.83433533 C173.53492279 127.83041527 173.53492279 127.83041527 175.08422852 127.82641602 C176.14441696 127.819729 177.20460541 127.81304199 178.29692078 127.80615234 C180.60885512 127.79206192 182.92080371 127.78018073 185.23275948 127.77020454 C188.89382669 127.75383956 192.55478932 127.73060086 196.21580505 127.70530701 C206.62859911 127.63442619 217.04143738 127.57452585 227.4543457 127.52319336 C233.8162679 127.49134711 240.17807281 127.45004907 246.53989983 127.40299797 C248.96430276 127.38700237 251.38873277 127.37466956 253.81317329 127.36609077 C257.21223928 127.35389601 260.6110315 127.32972566 264.01000977 127.30297852 C265.00825775 127.30238937 266.00650574 127.30180023 267.03500366 127.30119324 C275.21454862 127.21618555 282.51084264 126.47973288 289 121 C293.55476939 115.91644472 294.71158038 111.30822492 294.34765625 104.54296875 C293.50430759 98.37420493 290.46885343 95.16532757 285.9140625 91.296875 C282.10634662 88.71695322 278.60147221 87.75198435 274.03295898 87.72875977 C273.07103134 87.71857315 272.1091037 87.70838654 271.11802673 87.69789124 C270.08778885 87.69575119 269.05755096 87.69361115 267.99609375 87.69140625 C265.78840901 87.66622944 263.58072678 87.64083168 261.37304688 87.61523438 C257.91301221 87.58661479 254.4530215 87.56258471 250.99291992 87.54370117 C247.63957317 87.52184666 244.2867539 87.48237712 240.93359375 87.44140625 C239.40949135 87.44123253 239.40949135 87.44123253 237.854599 87.4410553 C224.57605125 87.26105441 211.63723695 83.609621 201.52734375 74.61328125 C198.56574906 71.48504952 195.91049148 68.10030291 193.24609375 64.71875 C190.97219461 61.96634339 188.55842672 59.4875908 186 57 C185.071875 56.071875 184.14375 55.14375 183.1875 54.1875 C171.1871924 44.09573805 155.15392388 39.25635122 139.67578125 39.65234375 C128.68255705 40.69208546 114.61273793 43.62964626 106.44140625 51.50146484 Z " fill="#5365AF" transform="translate(61,305)"/>
<path d="M0 0 C1.09376953 -0.04125 2.18753906 -0.0825 3.31445312 -0.125 C11.14460751 -0.2013452 11.14460751 -0.2013452 13.9453125 1.68212891 C15.23828125 3.1953125 15.23828125 3.1953125 17.1875 6.5 C18.06535156 7.84191406 18.06535156 7.84191406 18.9609375 9.2109375 C19.48945313 10.09007812 20.01796875 10.96921875 20.5625 11.875 C31.29845461 28.88700517 48.30770967 40.13146451 67.875 44.83984375 C89.29497783 48.63637131 110.14536557 44.52808962 128.1875 32.5 C138.58264431 24.76553457 146.67108129 14.69559887 152.9609375 3.43359375 C154.1875 1.5 154.1875 1.5 156.1875 0.5 C159.951382 0.17864835 163.72409322 0.17562154 167.5 0.125 C168.54607422 0.08761719 169.59214844 0.05023438 170.66992188 0.01171875 C178.40490576 -0.07690614 178.40490576 -0.07690614 182.30859375 2.80078125 C184.1875 5.5 184.1875 5.5 185.9375 9.0625 C188.05408052 13.07012377 190.96310902 14.02667254 195.0625 15.59765625 C198.5021349 17.05823651 200.53828219 19.20156438 202.1875 22.5 C202.73067573 27.4509132 202.70991949 31.39488185 200.5625 35.9375 C196.92085668 39.86664148 193.51747533 41.62217703 188.1875 41.9375 C183.15653178 41.73549172 180.00887956 39.33420617 176.5234375 35.82421875 C174.61175175 32.49833272 174.97060395 29.86214904 175.125 26.0625 C175.31009324 21.28329771 175.32928829 17.82524562 173.1875 13.5 C169.50164506 12.95104288 166.67759183 13.14620922 163.1875 14.5 C160.8608834 17.10670688 159.03874837 19.72940474 157.14208984 22.64575195 C144.81990356 41.49353708 126.00766684 53.00589511 104.375 58.3125 C98.99563995 59.43182828 93.67384602 60.20293896 88.1875 60.5 C87.15302734 60.561875 87.15302734 60.561875 86.09765625 60.625 C60.33642886 61.39255985 37.00106294 50.46192663 18.4375 33.1875 C13.34483601 27.86451452 8.48019904 21.08539808 5.1875 14.5 C1.80839173 14.21470943 -1.44285009 14.06118707 -4.8125 14.5 C-7.18495277 16.59108405 -7.18495277 16.59108405 -7.8125 19.5 C-7.52697643 21.39667109 -7.52697643 21.39667109 -6.8125 23.5 C-6.28576599 29.92615492 -6.92837331 33.28709312 -10.8125 38.5 C-15.50911775 41.80898069 -19.25949067 42.02885803 -24.8125 41.5 C-29.5156093 39.46911189 -32.53039119 36.06421761 -34.8125 31.5 C-35.21581428 26.25691431 -34.67301133 22.93872447 -31.8125 18.5 C-28.08635398 14.67034992 -25.08466362 13.91350303 -19.8125 13.5 C-19.565 12.79875 -19.3175 12.0975 -19.0625 11.375 C-14.50981511 0.90382475 -10.63311678 0.09920109 0 0 Z " fill="#5365AF" transform="translate(236.8125,129.5)"/>
<path d="M0 0 C9.96460754 7.73830848 18.1644068 16.13829933 24.47265625 27.15625 C24.47265625 27.81625 24.47265625 28.47625 24.47265625 29.15625 C28.10265625 29.15625 31.73265625 29.15625 35.47265625 29.15625 C37.42126976 24.28471622 37.599542 22.26194081 37.34765625 17.21875 C37.25035187 9.46683416 37.25035187 9.46683416 39.09765625 6.46875 C42.79776882 2.86600881 45.77914863 1.37178733 50.91015625 0.71875 C56.24160597 1.37348944 59.72178371 3.23593819 63.41015625 7.28125 C65.01067629 11.61206893 65.12268598 15.59873821 64.47265625 20.15625 C62.11322267 25.1473595 59.56108787 27.14207915 54.47265625 29.15625 C53.81394531 29.24390625 53.15523437 29.3315625 52.4765625 29.421875 C49.51288619 30.5079786 48.87926564 32.36316536 47.41015625 35.09375 C45.56513458 38.49504989 44.75226248 39.96984584 41.47265625 42.15625 C37.69723824 42.64381427 33.90119729 42.57272305 30.09765625 42.59375 C29.05609375 42.62662109 28.01453125 42.65949219 26.94140625 42.69335938 C19.28366575 42.74721816 19.28366575 42.74721816 15.44921875 39.953125 C13.59779054 37.33331749 11.8423377 34.73775086 10.22265625 31.96875 C-0.48169497 14.80487649 -17.39567789 2.9968913 -37.07299805 -1.76074219 C-57.77975774 -6.02773895 -78.52839348 -2.22267241 -96.25097656 9.27441406 C-107.00158916 16.58580629 -114.9268445 25.69453206 -121.23828125 37.0625 C-122.55610892 39.20297161 -123.56022955 40.59310896 -125.52734375 42.15625 C-129.4757296 42.79948049 -133.46998713 42.61946294 -137.46484375 42.59375 C-139.11129883 42.6237207 -139.11129883 42.6237207 -140.79101562 42.65429688 C-141.84740234 42.65365234 -142.90378906 42.65300781 -143.9921875 42.65234375 C-145.44032837 42.65512329 -145.44032837 42.65512329 -146.91772461 42.65795898 C-150.88116232 41.89597334 -152.58982994 39.52779798 -154.79296875 36.3046875 C-157.52734375 31.37847222 -157.52734375 31.37847222 -157.52734375 29.15625 C-158.55859375 29.094375 -159.58984375 29.0325 -160.65234375 28.96875 C-165.93357624 27.8613948 -168.60389968 25.691699 -171.90234375 21.34375 C-173.37377159 16.19375258 -173.23454201 12.49487529 -170.77734375 7.84375 C-167.03087441 3.36880051 -164.11505389 1.4003736 -158.21484375 0.84375 C-152.55370391 1.32350761 -149.79535234 3.68802953 -146.15234375 7.90625 C-143.88458792 12.44176167 -143.66080429 16.39907901 -145.21484375 21.34375 C-145.69540263 23.33324301 -145.69540263 23.33324301 -144.71484375 25.90625 C-142.20922937 28.48345336 -141.26913917 28.75232846 -137.77734375 29.15625 C-135.05154036 29.13705535 -135.05154036 29.13705535 -132.52734375 28.15625 C-130.37043027 25.73607299 -128.97994772 23.20648572 -127.41796875 20.3671875 C-116.63116681 2.04745363 -96.28606668 -9.39154842 -76.39453125 -15.15234375 C-50.02869239 -21.51031852 -21.82199024 -15.91959721 0 0 Z " fill="#5365AF" transform="translate(374.52734375,26.84375)"/>
</svg>
