<?xml version="1.0" encoding="UTF-8"?>
<svg version="1.1" xmlns="http://www.w3.org/2000/svg" width="64" height="64">
<path d="M0 0 C17.16 0 34.32 0 52 0 C52 6.6 52 13.2 52 20 C53.32 20 54.64 20 56 20 C56 27.92 56 35.84 56 44 C50.72 44 45.44 44 40 44 C40 40.7 40 37.4 40 34 C36.7 34 33.4 34 30 34 C30 35.32 30 36.64 30 38 C32.31 38 34.62 38 37 38 C37 39.98 37 41.96 37 44 C23.47 44 9.94 44 -4 44 C-4 34.1 -4 24.2 -4 14 C-2.68 14 -1.36 14 0 14 C0 9.38 0 4.76 0 0 Z M2 3 C1.92773498 4.85287502 1.9161878 6.70833878 1.9375 8.5625 C1.958125 10.356875 1.97875 12.15125 2 14 C7.94 14 13.88 14 20 14 C20 17.96 20 21.92 20 26 C26.6 26 33.2 26 40 26 C40 24.02 40 22.04 40 20 C43.3 20 46.6 20 50 20 C50.02684312 17.18743719 50.04676188 14.37512759 50.0625 11.5625 C50.07506836 10.35883789 50.07506836 10.35883789 50.08789062 9.13085938 C50.0965143 7.08704779 50.0522815 5.04316098 50 3 C48.42699672 1.42699672 46.86315955 1.87274496 44.6796875 1.87060547 C43.76203613 1.86745331 42.84438477 1.86430115 41.89892578 1.86105347 C40.40208252 1.86408981 40.40208252 1.86408981 38.875 1.8671875 C37.34915283 1.86575241 37.34915283 1.86575241 35.79248047 1.86428833 C33.63704364 1.86360639 31.48160478 1.86546165 29.32617188 1.86962891 C26.01427629 1.87497695 22.70251633 1.86968437 19.390625 1.86328125 C17.30208303 1.86394203 15.21354115 1.86522319 13.125 1.8671875 C12.12710449 1.86516327 11.12920898 1.86313904 10.10107422 1.86105347 C9.18342285 1.86420563 8.26577148 1.86735779 7.3203125 1.87060547 C6.50836426 1.87140106 5.69641602 1.87219666 4.85986328 1.87301636 C2.98454247 1.79635811 2.98454247 1.79635811 2 3 Z M-2 17 C-2.08685603 18.56172745 -2.10702219 20.12729344 -2.09765625 21.69140625 C-2.09443359 22.63564453 -2.09121094 23.57988281 -2.08789062 24.55273438 C-2.07951172 25.54595703 -2.07113281 26.53917969 -2.0625 27.5625 C-2.05798828 28.55958984 -2.05347656 29.55667969 -2.04882812 30.58398438 C-2.03700023 33.05601487 -2.01906415 35.52801472 -2 38 C4.6 38 11.2 38 18 38 C18.02683201 34.52078265 18.0467567 31.04176961 18.0625 27.5625 C18.07087891 26.56927734 18.07925781 25.57605469 18.08789062 24.55273438 C18.09111328 23.60849609 18.09433594 22.66425781 18.09765625 21.69140625 C18.10289307 20.81685791 18.10812988 19.94230957 18.11352539 19.04125977 C18.22784809 17.00559794 18.22784809 17.00559794 17 16 C15.66956375 15.9016279 14.33406656 15.86921408 13 15.8671875 C12.195625 15.86589844 11.39125 15.86460938 10.5625 15.86328125 C9.716875 15.86714844 8.87125 15.87101562 8 15.875 C7.154375 15.87113281 6.30875 15.86726563 5.4375 15.86328125 C4.633125 15.86457031 3.82875 15.86585937 3 15.8671875 C1.88625 15.86887939 1.88625 15.86887939 0.75 15.87060547 C-1.02825811 15.81057784 -1.02825811 15.81057784 -2 17 Z M42 22 C42 26.62 42 31.24 42 36 C45.96 36 49.92 36 54 36 C54 31.38 54 26.76 54 22 C50.04 22 46.08 22 42 22 Z M20 28 C20 29.32 20 30.64 20 32 C26.6 32 33.2 32 40 32 C40 30.68 40 29.36 40 28 C33.4 28 26.8 28 20 28 Z M20 34 C20 35.32 20 36.64 20 38 C20.66 38 21.32 38 22 38 C22 36.68 22 35.36 22 34 C21.34 34 20.68 34 20 34 Z M24 34 C24 35.32 24 36.64 24 38 C25.32 38 26.64 38 28 38 C28 36.68 28 35.36 28 34 C26.68 34 25.36 34 24 34 Z M42 38 C42 39.32 42 40.64 42 42 C45.96 42 49.92 42 54 42 C54 40.68 54 39.36 54 38 C50.04 38 46.08 38 42 38 Z M-2 40 C-1.67 40.66 -1.34 41.32 -1 42 C4.94 42 10.88 42 17 42 C17.33 41.34 17.66 40.68 18 40 C11.4 40 4.8 40 -2 40 Z M20 40 C20 40.66 20 41.32 20 42 C24.95 42 29.9 42 35 42 C35 41.34 35 40.68 35 40 C30.05 40 25.1 40 20 40 Z " fill="#228AE6" transform="translate(6,10)"/>
<path d="M0 0 C0.598125 0.165 1.19625 0.33 1.8125 0.5 C4.25988354 1.05940195 5.63996734 0.75858193 8 0 C7.45925627 3.78520613 5.92427254 5.59177555 3 8 C2.01 8 1.02 8 0 8 C-0.38063221 5.6739143 -0.71269945 3.33944736 -1 1 C-0.67 0.67 -0.34 0.34 0 0 Z " fill="#218CE6" transform="translate(11,14)"/>
<path d="M0 0 C-0.54074373 3.78520613 -2.07572746 5.59177555 -5 8 C-5.99 8 -6.98 8 -8 8 C-7.32253522 3.25774652 -4.9532836 0 0 0 Z " fill="#218BE6" transform="translate(14,28)"/>
<path d="M0 0 C0.99 0 1.98 0 3 0 C2.67 1.32 2.34 2.64 2 4 C1.01 4 0.02 4 -1 4 C-0.67 2.68 -0.34 1.36 0 0 Z " fill="#218AE5" transform="translate(6,27)"/>
<path d="M0 0 C1.98 0 3.96 0 6 0 C6 0.66 6 1.32 6 2 C4.02 2 2.04 2 0 2 C0 1.34 0 0.68 0 0 Z " fill="#218AE6" transform="translate(29,39)"/>
<path d="M0 0 C0.66 0 1.32 0 2 0 C2 0.66 2 1.32 2 2 C1.34 2 0.68 2 0 2 C0 1.34 0 0.68 0 0 Z " fill="#218AE6" transform="translate(53,49)"/>
</svg>
