<?xml version="1.0" encoding="UTF-8"?>
<svg version="1.1" xmlns="http://www.w3.org/2000/svg" width="512" height="512">
<path d="M0 0 C13.65632152 -0.60582572 26.6449786 3.53162615 37.05078125 12.28125 C54.78939608 29.18706602 58.86297087 55.73532826 59.86328125 79.15625 C59.85313287 81.15384455 59.82295808 83.15143106 59.7734375 85.1484375 C59.73923706 86.62376953 59.73923706 86.62376953 59.7043457 88.12890625 C59.64515223 90.01548003 59.55796765 91.90145565 59.43823242 93.78515625 C59.27211878 98.57782578 59.49879746 101.31296283 62.73046875 104.9921875 C63.27638672 105.54213379 63.82230469 106.09208008 64.38476562 106.65869141 C68.75832487 111.08858117 70.10790162 117.62929084 70.36328125 123.65625 C70.06375274 130.97920575 67.42255392 136.99842473 63.30078125 142.96875 C60.9852576 146.42800199 60.2228583 149.58177964 59.42578125 153.65625 C57.91953598 160.99174955 55.18349809 165.74154685 49.11328125 170.15625 C46.86328125 171.15625 46.86328125 171.15625 44.86328125 171.15625 C44.90453125 172.27 44.94578125 173.38375 44.98828125 174.53125 C44.81281529 191.31749365 35.68873225 205.8744603 24.86328125 218.15625 C22.15845777 220.72236459 19.44913236 223.23770817 16.6015625 225.64453125 C14.14015601 229.20112535 15.17978995 232.11726604 15.86328125 236.15625 C16.06453613 237.37296387 16.26579102 238.58967773 16.47314453 239.84326172 C19.081499 258.66193907 19.081499 258.66193907 29.1796875 273.50805664 C31.73033865 274.9402215 34.30884193 276.18763469 37.00878906 277.3125 C39.97821259 278.66351734 42.41872309 280.60353519 44.98828125 282.59375 C45.94605469 283.32722656 46.90382813 284.06070312 47.890625 284.81640625 C48.87160156 285.58855469 49.85257813 286.36070312 50.86328125 287.15625 C51.67176514 287.79216064 51.67176514 287.79216064 52.49658203 288.44091797 C73.65321942 305.23979135 73.65321942 305.23979135 75.234375 314.27734375 C75.25628906 315.04175781 75.27820313 315.80617188 75.30078125 316.59375 C75.34074219 317.35558594 75.38070312 318.11742187 75.421875 318.90234375 C74.56157918 322.37360729 72.85544513 323.27214482 69.86328125 325.15625 C66.86663723 325.54395829 64.24055802 325.70148308 61.24731445 325.6709137 C60.38085706 325.67785922 59.51439966 325.68480475 58.62168598 325.69196075 C55.71888284 325.71025438 52.81689478 325.6999599 49.9140625 325.68969727 C47.83278796 325.69675449 45.75151855 325.70549867 43.67025757 325.71580505 C38.01742173 325.73832947 32.36486546 325.7353523 26.7120018 325.72648358 C21.99504979 325.72137832 17.27815053 325.72866243 12.56120396 325.73595566 C1.43561262 325.75296402 -9.68984158 325.7493789 -20.81542969 325.73266602 C-32.29958371 325.7157378 -43.78335783 325.73158695 -55.26747036 325.7638889 C-65.12322271 325.79056214 -74.97885663 325.79786708 -84.83464146 325.78937382 C-90.72296645 325.78443874 -96.61106273 325.78669195 -102.49935913 325.80716133 C-108.03494565 325.82548308 -113.56998436 325.81960235 -119.10554123 325.79496193 C-121.13848979 325.7899432 -123.17147983 325.79347119 -125.20439529 325.80611038 C-127.97714827 325.82198727 -130.74808546 325.80714115 -133.52075195 325.78443909 C-134.32765819 325.79627482 -135.13456442 325.80811054 -135.96592236 325.82030493 C-139.97647342 325.75346504 -141.91613586 325.32484972 -145.13883972 322.86161709 C-147.3441876 319.87531238 -147.82988708 317.87143413 -147.57666016 314.15917969 C-144.65634359 300.86379837 -126.83684595 289.53940516 -116.63671875 281.96875 C-115.81300781 281.35708984 -114.98929687 280.74542969 -114.140625 280.11523438 C-110.72329882 277.61774759 -107.37585748 275.17908045 -103.609375 273.234375 C-99.49457132 271.09136315 -96.81632714 269.59892746 -94.80078125 265.3203125 C-93.90894843 262.14538767 -93.2223652 258.99105964 -92.63623047 255.74707031 C-91.79957598 251.40758966 -90.74792435 247.11842796 -89.73364258 242.81762695 C-88.50661173 237.60354171 -87.32144408 232.38008147 -86.13671875 227.15625 C-86.75603271 226.85928223 -87.37534668 226.56231445 -88.01342773 226.25634766 C-100.17649379 219.95454524 -110.8393596 201.7553257 -115.13671875 189.15625 C-116.83746286 183.10413398 -117.36882073 177.42300351 -117.13671875 171.15625 C-118.21953125 170.8159375 -118.21953125 170.8159375 -119.32421875 170.46875 C-124.46971332 168.0675192 -127.53624858 164.09430128 -130.13671875 159.15625 C-130.62056928 157.12945387 -131.03352008 155.08484796 -131.38671875 153.03125 C-132.6822903 146.90672996 -135.04289811 142.69933836 -138.55078125 137.578125 C-142.25574251 131.92030238 -142.85364341 125.7409273 -142.13671875 119.15625 C-140.75327917 113.04690002 -138.42938387 106.95509063 -133.53491211 102.79467773 C-131.64387088 100.57872214 -131.76805232 99.20357121 -131.765625 96.31640625 C-131.74399292 94.86028931 -131.74399292 94.86028931 -131.72192383 93.37475586 C-131.71443115 92.33327393 -131.70693848 91.29179199 -131.69921875 90.21875 C-131.16548334 69.37176488 -127.51221931 48.81644207 -114.13671875 32.15625 C-113.6159375 31.46144531 -113.09515625 30.76664063 -112.55859375 30.05078125 C-103.12462858 18.21252884 -88.86047138 12.1708194 -74.13671875 10.15625 C-71.90622296 10.13263795 -69.67476098 10.16206686 -67.4453125 10.234375 C-66.16978516 10.26015625 -64.89425781 10.2859375 -63.58007812 10.3125 C-60.93512351 10.36934601 -58.2946762 10.45210717 -55.65039062 10.546875 C-47.554649 10.67686182 -41.49108873 9.62097371 -34.05981445 6.40332031 C-30.12554727 4.72485737 -26.18917098 3.76203923 -22.01171875 2.90625 C-21.24674072 2.74350586 -20.4817627 2.58076172 -19.69360352 2.41308594 C-13.12537682 1.06127341 -6.67191079 0.4878911 0 0 Z " fill="#52A1FE" transform="translate(437.13671875,186.84375)"/>
<path d="M0 0 C6.34088486 3.70665847 10.74289639 8.67461034 13.03125 15.703125 C14.6582232 23.45836394 13.58641786 29.77701056 10.5 36.9375 C9.57631183 39.92377249 9.24482591 41.33160571 10.47216797 44.24584961 C10.97377441 45.01936768 11.47538086 45.79288574 11.9921875 46.58984375 C12.53230469 47.44900391 13.07242188 48.30816406 13.62890625 49.19335938 C14.20511719 50.07830078 14.78132812 50.96324219 15.375 51.875 C22.62638453 63.11382387 22.62638453 63.11382387 22.5 67.9375 C20.3888917 72.2866702 17.57941079 74.78078796 13.8125 77.75 C12.81863281 78.54019531 11.82476562 79.33039063 10.80078125 80.14453125 C10.04152344 80.73621094 9.28226563 81.32789062 8.5 81.9375 C9.35920044 81.94336624 10.21840088 81.94923248 11.1036377 81.95527649 C19.22463797 82.01332483 27.34536676 82.08547074 35.4661026 82.17321491 C39.6404678 82.21782786 43.81473745 82.25710359 47.98925781 82.28393555 C52.02245219 82.31005962 56.05527706 82.35052529 60.08824158 82.40068626 C61.6222624 82.41729372 63.15634704 82.42884596 64.69044495 82.43511391 C74.88670751 82.48096581 84.01218095 82.57070581 91.7746582 90.02392578 C98.26508398 97.22244811 99.26138261 105.2136966 99.3125 114.5625 C99.33763672 115.66207031 99.36277344 116.76164062 99.38867188 117.89453125 C99.44696211 120.57588185 99.48366661 123.25562194 99.5 125.9375 C100.60952026 126.31515503 100.60952026 126.31515503 101.74145508 126.70043945 C102.72009521 127.04292725 103.69873535 127.38541504 104.70703125 127.73828125 C105.67358643 128.07255127 106.6401416 128.40682129 107.63598633 128.7512207 C116.54460223 132.44118445 124.71448184 140.49087889 129.07421875 149.015625 C134.03598594 161.01485567 135.05633253 172.82015069 130.2734375 185.08203125 C124.88582816 196.53430244 118.1059651 203.62945663 106.5 208.9375 C103.84633485 209.72070603 101.20411862 210.33658475 98.5 210.9375 C98.52618408 211.61216309 98.55236816 212.28682617 98.5793457 212.98193359 C98.68442935 216.0918775 98.74867417 219.20144648 98.8125 222.3125 C98.8753418 223.90384766 98.8753418 223.90384766 98.93945312 225.52734375 C99.06679409 233.82997438 97.48405991 240.59739415 91.7434082 246.85107422 C84.38882196 253.77630085 77.27598704 254.36014959 67.5625 254.125 C66.49708984 254.11146484 65.43167969 254.09792969 64.33398438 254.08398438 C61.72212412 254.04884724 59.11133366 253.99965184 56.5 253.9375 C56.52356567 255.13125244 56.52356567 255.13125244 56.54760742 256.34912109 C56.61050425 260.00350657 56.64916375 263.65777761 56.6875 267.3125 C56.71263672 268.56417969 56.73777344 269.81585938 56.76367188 271.10546875 C56.842834 281.18544542 55.90595587 290.12925885 49.37109375 298.1796875 C42.32965876 304.79481431 33.75118211 306.05370433 24.4440918 306.08276367 C23.42570724 306.08780159 23.42570724 306.08780159 22.38674927 306.09294128 C20.15755346 306.10238656 17.92843329 306.10439121 15.69921875 306.10546875 C14.13751699 306.10868602 12.57581552 306.11205044 11.01411438 306.11555481 C7.74516095 306.12153019 4.47623389 306.12339637 1.20727539 306.12280273 C-2.96186655 306.12270126 -7.13083764 306.13634582 -11.29993916 306.15357494 C-14.52490501 306.16474631 -17.74983025 306.16672036 -20.97481346 306.16619301 C-22.5108518 306.16736568 -24.04689144 306.17174703 -25.58291054 306.17952538 C-37.54579276 306.23443065 -48.07790356 306.18869513 -57.5 297.9375 C-65.20869148 289.02842834 -64.77979319 278.07369164 -64.625 266.875 C-64.61597656 265.62783203 -64.60695313 264.38066406 -64.59765625 263.09570312 C-64.57426209 260.04276496 -64.54148174 256.99023694 -64.5 253.9375 C-65.14437012 253.96368408 -65.78874023 253.98986816 -66.45263672 254.0168457 C-69.42650079 254.1220092 -72.39997223 254.18619732 -75.375 254.25 C-76.38820313 254.29189453 -77.40140625 254.33378906 -78.4453125 254.37695312 C-86.59237207 254.50751498 -93.28615832 252.8017099 -99.41552734 247.1809082 C-106.47731422 239.67167092 -106.91679743 232.40682505 -106.6875 222.5 C-106.66719727 220.8303418 -106.66719727 220.8303418 -106.64648438 219.12695312 C-106.61132997 216.39662788 -106.56212106 213.66732256 -106.5 210.9375 C-107.48492432 210.66595093 -107.48492432 210.66595093 -108.48974609 210.38891602 C-120.22469863 207.03437908 -128.9516116 201.45640445 -135.5 190.9375 C-141.38635043 180.28464142 -142.31916898 168.46421939 -139.80078125 156.66015625 C-136.12530134 145.60269982 -128.92465448 135.94303649 -118.58203125 130.36328125 C-114.93823323 128.68337965 -111.30605043 127.20618348 -107.5 125.9375 C-107.49589111 125.26283691 -107.49178223 124.58817383 -107.48754883 123.89306641 C-107.45428292 120.78203839 -107.38360492 117.67288435 -107.3125 114.5625 C-107.30669922 113.50160156 -107.30089844 112.44070312 -107.29492188 111.34765625 C-107.0446933 102.2838211 -104.8568511 94.90364399 -98.1875 88.5 C-90.58809196 82.08740127 -81.93554075 82.6434482 -72.5703125 82.91796875 C-70.51483753 82.9463724 -68.45940951 82.96451742 -66.40382195 82.98276997 C-61.37924903 83.02818053 -56.35728237 83.09503155 -51.33496094 83.25610352 C-29.30794139 83.93495517 -29.30794139 83.93495517 -10.61550903 73.12089539 C-9.41828973 71.95309715 -8.241238 70.76381523 -7.09664917 69.54438782 C-5.34421515 67.78071617 -3.56391903 66.32363785 -1.5 64.9375 C-0.84 64.9375 -0.18 64.9375 0.5 64.9375 C0.09007812 64.18984375 -0.31984375 63.4421875 -0.7421875 62.671875 C-1.28101563 61.68703125 -1.81984375 60.7021875 -2.375 59.6875 C-2.90867188 58.71296875 -3.44234375 57.7384375 -3.9921875 56.734375 C-5.20419466 54.48619592 -6.37547567 52.2302195 -7.5 49.9375 C-9.170625 50.0303125 -9.170625 50.0303125 -10.875 50.125 C-19.22086232 50.06601864 -25.76497968 47.61485275 -31.80859375 41.83984375 C-37.46186256 35.48154834 -38.869923 29.13340629 -38.78125 20.8203125 C-38.09715305 13.80831881 -34.54118736 7.7595053 -29.5 2.9375 C-20.74381936 -3.36695006 -9.88609562 -4.48149817 0 0 Z " fill="#51A1FE" transform="translate(140.5,2.0625)"/>
<path d="M0 0 C1.05505996 -0.00551503 1.05505996 -0.00551503 2.13143426 -0.01114148 C4.49423115 -0.02217645 6.85698406 -0.02602185 9.21980286 -0.02983093 C10.91167846 -0.03609577 12.60355269 -0.04274259 14.29542542 -0.04974365 C19.85720359 -0.07078561 25.41898204 -0.08114679 30.98078918 -0.09111023 C32.89583666 -0.09515786 34.81088399 -0.09927479 36.72593117 -0.10346031 C45.72382377 -0.12251299 54.72170817 -0.13674335 63.71961707 -0.14507228 C74.10318629 -0.15484266 84.48654223 -0.18115667 94.8700363 -0.22157317 C102.89733345 -0.25174515 110.92456949 -0.26654222 118.95192224 -0.26985329 C123.74547143 -0.27220273 128.53879279 -0.28114923 133.33228111 -0.30631447 C137.84426149 -0.32961883 142.35586441 -0.33381894 146.8678894 -0.32355309 C148.52064076 -0.32305817 150.17341084 -0.32936547 151.82610512 -0.34310913 C168.76773922 -0.47606991 168.76773922 -0.47606991 176.14875793 5.89326477 C176.81778137 6.73051086 176.81778137 6.73051086 177.50032043 7.58467102 C178.192547 8.41804993 178.192547 8.41804993 178.89875793 9.26826477 C182.47848467 14.75185891 182.42196209 19.78052352 182.41584778 26.13471985 C182.422565 27.13697098 182.42928223 28.13922211 182.436203 29.17184448 C182.45518897 32.48268096 182.45910761 35.79331475 182.46125793 39.10420227 C182.46768571 41.40959761 182.47441406 43.71499212 182.48143005 46.02038574 C182.49340452 50.8531127 182.49711072 55.68576817 182.4959259 60.51850891 C182.49572277 66.70233963 182.52301869 72.88571048 182.55747032 79.06943226 C182.57974017 83.83161513 182.5837634 88.59368737 182.58270645 93.35591698 C182.58506251 95.63522106 182.59388626 97.9145282 182.60937119 100.1937809 C182.62903102 103.38665816 182.62319238 106.57854438 182.61116028 109.7714386 C182.62239929 110.70729797 182.63363831 111.64315735 182.6452179 112.6073761 C182.57738147 119.71403606 180.86279694 124.96637848 176.19563293 130.38935852 C175.55367981 130.92818665 174.91172668 131.46701477 174.25032043 132.02217102 C173.61352356 132.5764679 172.97672668 133.13076477 172.32063293 133.70185852 C166.21361301 137.72249442 160.02202864 137.39334021 152.98616028 137.29145813 C150.67987572 137.27566123 148.37359113 137.25986858 146.06730652 137.24407959 C144.84884411 137.23204435 143.6303817 137.22000912 142.37499619 137.20760918 C136.56981286 137.15690124 130.76465102 137.15357988 124.9592793 137.1446563 C116.05960113 137.12984525 107.1607327 137.09838299 98.2615509 136.99995422 C91.60162893 136.92650417 84.94372861 136.91134895 78.28332901 136.92921638 C75.75325515 136.92610408 73.22312243 136.90333947 70.6934166 136.860075 C55.59330822 136.01685761 55.59330822 136.01685761 42.32663918 141.94198704 C40.07033847 144.19343826 38.11302753 146.65867246 36.12532043 149.14717102 C34.28712148 150.73253714 32.41593622 152.28127287 30.50032043 153.77217102 C26.94347908 156.63598885 23.49992991 159.5706343 20.12532043 162.64717102 C15.83346259 166.55873766 11.38472946 170.22668498 6.86750793 173.87373352 C3.26621511 176.85942074 -0.16597496 180.01095502 -3.58561707 183.20185852 C-7.09624884 186.18529644 -9.77895553 187.99063902 -14.37467957 188.64717102 C-18.88464092 188.00289083 -20.05537057 186.66503132 -22.87467957 183.14717102 C-23.50388527 179.96738148 -23.50388527 179.96738148 -23.50959778 176.31118774 C-23.51739773 175.63610159 -23.52519768 174.96101543 -23.533234 174.26547211 C-23.55313252 172.00973958 -23.53739985 169.75569839 -23.52165222 167.49995422 C-23.52842971 165.87998471 -23.53733358 164.26002291 -23.54820251 162.64007568 C-23.57099627 158.2429542 -23.56215698 153.84641938 -23.54630709 149.44928765 C-23.5336376 144.84150134 -23.54539212 140.23376487 -23.55323792 135.62597656 C-23.562336 127.88270572 -23.55034721 120.13967324 -23.52653503 112.3964386 C-23.49937141 103.46054445 -23.50810247 94.52522157 -23.53566706 85.58934146 C-23.55841006 77.90756975 -23.56153147 70.22596938 -23.54847372 62.54417485 C-23.54070147 57.96074431 -23.53957502 53.37758152 -23.55615616 48.79416847 C-23.57067567 44.47898302 -23.56044387 40.1645277 -23.53168488 35.84942055 C-23.52511169 34.27171029 -23.52690675 32.69393787 -23.5379982 31.1162529 C-23.59414869 22.3125884 -23.36441755 14.45729337 -17.87467957 7.14717102 C-12.14664401 1.82426644 -7.87099346 0.02664058 0 0 Z " fill="#EDF4FD" transform="translate(329.8746795654297,-0.1471710205078125)"/>
<path d="M0 0 C0.91702001 -0.00311998 1.83404003 -0.00623996 2.77884853 -0.00945449 C5.8465177 -0.01742126 8.91398835 -0.01111598 11.98165894 -0.00482178 C14.18292354 -0.00753218 16.38418724 -0.0110934 18.58544922 -0.01544189 C24.56040116 -0.02456115 30.53528406 -0.0210238 36.51023722 -0.01468372 C42.75973606 -0.00962264 49.00922896 -0.01431536 55.25872803 -0.01745605 C66.42384583 -0.02132793 77.58893827 -0.01511135 88.75405 -0.00493738 C98.87811229 0.00400224 109.00212872 0.00244204 119.12619019 -0.0067749 C130.88605564 -0.01747607 142.64589876 -0.02146328 154.40576923 -0.01555037 C160.62987995 -0.01242906 166.85395908 -0.0120259 173.07806778 -0.01862335 C178.92704039 -0.02439016 184.77592617 -0.02041209 190.62488937 -0.00883484 C192.77436427 -0.00618494 194.92384645 -0.00695894 197.07331848 -0.01136017 C200.00128966 -0.01680384 202.92898041 -0.0099958 205.85693359 0 C206.71276193 -0.00446144 207.56859026 -0.00892289 208.45035279 -0.01351953 C212.45566008 0.01310695 215.38513767 0.1208114 218.80148315 2.25396729 C221.30452693 6.00853295 221.2542839 7.80142663 220.80148315 12.25396729 C218.2246913 17.15322602 215.01487063 19.82893254 210.5806427 23.06767273 C196.56436405 33.37500152 179.80772291 46.09803156 176.98556519 64.27789307 C175.01430571 79.79144219 175.9644628 95.88319869 177.43711853 111.40827942 C178.06663902 118.73075795 177.9146975 123.06115664 173.80148315 129.25396729 C171.58273315 131.53131104 171.58273315 131.53131104 169.30148315 133.19146729 C168.54867065 133.75736572 167.79585815 134.32326416 167.02023315 134.90631104 C162.76324826 137.49197968 158.80251518 137.38427641 153.88247681 137.40113831 C153.18641618 137.40481499 152.49035555 137.40849168 151.77320218 137.41227978 C149.44115031 137.42329152 147.10914304 137.42715617 144.77706909 137.43096924 C143.10475016 137.43723575 141.43243261 137.44388272 139.76011658 137.45088196 C134.26870693 137.47190113 128.77729706 137.48228184 123.28585815 137.49224854 C121.39402502 137.49629679 119.50219203 137.50041373 117.61035919 137.50459862 C108.72246086 137.52364499 99.8345708 137.53787761 90.94665599 137.54621059 C80.6927068 137.55598355 70.43897345 137.58230693 60.18510032 137.62271148 C52.25544673 137.65288378 44.32585498 137.66768049 36.39614511 137.6709916 C31.6618544 137.67334066 26.92779442 137.68228252 22.19356537 137.70745277 C17.73820386 137.73075825 13.28322462 137.73495682 8.82781792 137.72469139 C7.1960288 137.72419653 5.5642207 137.7305022 3.9324894 137.74424744 C-6.01816686 137.82335411 -12.9914755 137.51427384 -20.94851685 131.00396729 C-26.41202609 124.32634488 -27.79097869 118.54278722 -27.71609497 110.01763916 C-27.72310425 109.02470352 -27.73011353 108.03176788 -27.73733521 107.00874329 C-27.75485268 103.746445 -27.74331422 100.48502347 -27.72976685 97.22271729 C-27.73246354 94.94402908 -27.73634744 92.665342 -27.74136353 90.38665771 C-27.74725014 85.6188457 -27.7387223 80.85133413 -27.72000122 76.08355713 C-27.69721259 69.98383415 -27.71034011 63.88481527 -27.73429108 57.7851181 C-27.74877146 53.08209973 -27.7441327 48.37924723 -27.73377991 43.67622375 C-27.73111883 41.42763688 -27.73436049 39.17903476 -27.74369812 36.9304657 C-27.75390029 33.78333866 -27.73831041 30.63733888 -27.71609497 27.49029541 C-27.72419189 26.56849991 -27.73228882 25.64670441 -27.7406311 24.69697571 C-27.64878067 17.6441335 -25.9000204 12.3929613 -21.26882935 7.01177979 C-20.62687622 6.47295166 -19.9849231 5.93412354 -19.32351685 5.37896729 C-18.68671997 4.82467041 -18.0499231 4.27037354 -17.39382935 3.69927979 C-11.86573924 0.05978986 -6.38133558 -0.0334403 0 0 Z " fill="#E5EAF4" transform="translate(78.19851684570313,374.74603271484375)"/>
<path d="M0 0 C1.3066864 -0.00571014 2.6133728 -0.01142029 3.95965576 -0.01730347 C5.41632071 -0.0185489 6.87298576 -0.01967398 8.32965088 -0.02069092 C9.85713827 -0.02531808 11.3846245 -0.0303426 12.91210938 -0.03573608 C17.06928557 -0.0488737 21.22644561 -0.05530792 25.38363934 -0.05974674 C27.98043473 -0.06267584 30.57722569 -0.06678038 33.17401886 -0.07125092 C41.29732612 -0.08493067 49.42062327 -0.09459446 57.54394126 -0.09845281 C66.92344878 -0.10293209 76.30281046 -0.12047195 85.68227363 -0.1494534 C92.92990917 -0.1710707 100.17750369 -0.18115715 107.42517114 -0.18249393 C111.75473395 -0.18354211 116.08415977 -0.18945239 120.41368866 -0.20731354 C124.48813792 -0.22379463 128.56234722 -0.2259496 132.63681793 -0.21717453 C134.1307591 -0.21640412 135.62471316 -0.22074746 137.11862183 -0.23063278 C139.16139872 -0.24335505 141.20427204 -0.23568276 143.24707031 -0.22705078 C144.38933956 -0.22851734 145.53160881 -0.2299839 146.70849228 -0.2314949 C150.366257 0.19780549 152.74853189 1.21899478 155.87750244 3.14044189 C158.06907391 6.42779909 158.13091538 7.39796222 158.14492798 11.21304321 C158.15772293 12.78604439 158.15772293 12.78604439 158.17077637 14.39082336 C158.16941681 16.11612526 158.16941681 16.11612526 158.16802979 17.87628174 C158.17474701 19.08788467 158.18146423 20.29948761 158.18838501 21.54780579 C158.20414515 24.87231453 158.21074105 28.19657349 158.21201658 31.52110243 C158.21391583 34.29690438 158.22127372 37.07268237 158.22836077 39.8484751 C158.24464857 46.39828368 158.2495294 52.94803727 158.24810791 59.49786377 C158.24690658 66.25249109 158.26800548 73.00679882 158.29959524 79.76134527 C158.3257557 85.5618758 158.3364753 91.36230196 158.33519709 97.16289103 C158.33468735 100.62670728 158.34037662 104.09023959 158.36155319 107.55399704 C158.38453184 111.41806243 158.37541602 115.28169039 158.36334229 119.14581299 C158.3745813 120.29196579 158.38582031 121.43811859 158.3973999 122.6190033 C158.33569438 130.37400974 158.33569438 130.37400974 155.97213745 134.3276062 C152.43948692 137.38499565 150.25087836 137.27066669 145.63438416 137.28761292 C144.98691831 137.2912896 144.33945246 137.29496629 143.67236644 137.29875439 C141.49293444 137.30980749 139.31355009 137.3136378 137.13409424 137.31744385 C135.57542773 137.32370725 134.01676273 137.33035394 132.45809937 137.33735657 C128.21628702 137.35477714 123.97448596 137.3653211 119.7326467 137.3735621 C117.0835963 137.37870978 114.43454941 137.38478561 111.78550148 137.39107323 C103.5004164 137.41012785 95.21534026 137.42435868 86.93023747 137.4326852 C77.36050744 137.44246106 67.79100849 137.46878848 58.22135991 137.50918609 C50.82851929 137.53932556 43.43574499 137.55415198 36.04284412 137.55746621 C31.62551652 137.55981909 27.20843573 137.56881028 22.79117393 137.59392738 C18.63542324 137.61717548 14.48008242 137.62145466 10.3242836 137.611166 C8.79927649 137.61066974 7.27424943 137.61701688 5.74930382 137.63072205 C3.6662339 137.64839526 1.58464224 137.64135953 -0.49842834 137.62818909 C-1.66374242 137.63057744 -2.82905649 137.63296579 -4.02968311 137.63542652 C-7.77749191 137.03561435 -9.43145593 135.76387246 -12.12249756 133.14044189 C-13.36634056 130.65275589 -13.2594137 128.9722472 -13.27639771 126.18809509 C-13.28499817 125.14080231 -13.29359863 124.09350952 -13.30245972 123.01448059 C-13.30884964 121.28378578 -13.30884964 121.28378578 -13.31536865 119.51812744 C-13.32354614 118.30667053 -13.33172363 117.09521362 -13.34014893 115.8470459 C-13.36503458 111.8237542 -13.38167638 107.80050012 -13.39593506 103.77716064 C-13.40129474 102.39231675 -13.40667224 101.00747292 -13.41206741 99.62262917 C-13.43369602 93.8621991 -13.45243285 88.10177185 -13.4636898 82.34131145 C-13.47993015 74.08495403 -13.51310938 65.82906715 -13.57009065 57.57288712 C-13.60878749 51.76814569 -13.62832213 45.96353013 -13.63361037 40.15866309 C-13.63726426 36.69137892 -13.64928798 33.22459659 -13.6817131 29.75745201 C-13.71737752 25.88847409 -13.71342348 22.02008695 -13.70599365 18.15093994 C-13.72239899 17.00321609 -13.73880432 15.85549225 -13.75570679 14.67298889 C-13.69443499 6.89658938 -13.69443499 6.89658938 -10.71102905 2.95228577 C-6.78178087 0.2020066 -4.7885844 0.01248677 0 0 Z " fill="#E5EAF4" transform="translate(64.12249755859375,101.85955810546875)"/>
<path d="M0 0 C0.88284668 0.01160156 1.76569336 0.02320313 2.67529297 0.03515625 C15.31789595 0.34931558 25.38519872 4.07237696 36.71484375 9.3046875 C41.13886442 11.33122892 45.62726582 13.11764373 50.1875 14.8125 C50.8472583 15.05911377 51.5070166 15.30572754 52.18676758 15.55981445 C67.75503808 21.27964302 85.83645532 19.57798925 101.3125 14.375 C103.97067481 13.66734673 106.63799922 13.01966794 109.3125 12.375 C109.31660889 13.19701904 109.32071777 14.01903809 109.32495117 14.8659668 C109.35789243 18.59887042 109.42854104 22.33014334 109.5 26.0625 C109.50580078 27.35607422 109.51160156 28.64964844 109.51757812 29.98242188 C109.54658203 31.22958984 109.57558594 32.47675781 109.60546875 33.76171875 C109.62903442 35.48201294 109.62903442 35.48201294 109.65307617 37.23706055 C110.5027537 41.28034278 112.22205182 42.72326722 115.3125 45.375 C118.33610767 48.39860767 119.23318673 49.84624484 119.875 54.125 C119.61310182 59.28536408 116.97135504 63.08457482 114.3125 67.375 C111.33811962 72.46275592 109.85456973 76.56161432 109.5859375 82.4921875 C109.3125 84.375 109.3125 84.375 107.3125 86.375 C105.03431286 87.18681669 102.73232471 87.83527707 100.40625 88.49609375 C97.96834352 89.29269717 97.96834352 89.29269717 96.3125 92.375 C95.98574193 94.33394686 95.98574193 94.33394686 95.9609375 96.48046875 C94.85171631 117.90908929 85.76644823 132.07027424 69.89990234 146.38745117 C65.69467153 150.10684787 61.35921725 153.65876653 56.98046875 157.171875 C53.41716938 160.11433597 50.05322136 163.25221134 46.69921875 166.4296875 C40.59905617 171.40166944 35.38201292 171.98238988 27.70703125 171.7734375 C19.29493918 170.7860573 14.12903291 164.54284474 8.1640625 158.98046875 C5.47364128 156.52223457 2.71646764 154.21804391 -0.125 151.9375 C-10.78489073 143.25447917 -19.54115645 135.20747047 -26.6875 123.375 C-27.2134375 122.5396875 -27.739375 121.704375 -28.28125 120.84375 C-32.115886 113.79872108 -32.49677458 106.51761083 -32.79272461 98.63476562 C-33.01789423 93.20681862 -33.01789423 93.20681862 -36.01171875 88.82421875 C-38.22357323 87.62626545 -40.06692577 86.69748805 -42.5 86.125 C-44.0778125 85.75375 -44.0778125 85.75375 -45.6875 85.375 C-45.90792969 84.14136719 -45.90792969 84.14136719 -46.1328125 82.8828125 C-47.53203217 75.91888012 -49.35362202 70.42840875 -53.28515625 64.49609375 C-56.34515884 59.86773329 -57.59572766 55.99255624 -56.6875 50.375 C-54.82873813 47.34590657 -53.12537757 45.67056736 -50.1875 43.6875 C-47.58182108 41.277247 -47.04865838 40.11677887 -45.875 36.875 C-40.71979004 22.81721863 -29.54487257 9.10471492 -15.93432617 2.52783203 C-10.59333681 0.27344467 -5.75393208 -0.09754306 0 0 Z " fill="#D2DEF2" transform="translate(369.6875,255.625)"/>
<path d="M0 0 C1.05505996 -0.00551503 1.05505996 -0.00551503 2.13143426 -0.01114148 C4.49423115 -0.02217645 6.85698406 -0.02602185 9.21980286 -0.02983093 C10.91167846 -0.03609577 12.60355269 -0.04274259 14.29542542 -0.04974365 C19.85720359 -0.07078561 25.41898204 -0.08114679 30.98078918 -0.09111023 C32.89583666 -0.09515786 34.81088399 -0.09927479 36.72593117 -0.10346031 C45.72382377 -0.12251299 54.72170817 -0.13674335 63.71961707 -0.14507228 C74.10318629 -0.15484266 84.48654223 -0.18115667 94.8700363 -0.22157317 C102.89733345 -0.25174515 110.92456949 -0.26654222 118.95192224 -0.26985329 C123.74547143 -0.27220273 128.53879279 -0.28114923 133.33228111 -0.30631447 C137.84426149 -0.32961883 142.35586441 -0.33381894 146.8678894 -0.32355309 C148.52064076 -0.32305817 150.17341084 -0.32936547 151.82610512 -0.34310913 C168.76773922 -0.47606991 168.76773922 -0.47606991 176.14875793 5.89326477 C176.81778137 6.73051086 176.81778137 6.73051086 177.50032043 7.58467102 C178.192547 8.41804993 178.192547 8.41804993 178.89875793 9.26826477 C182.47848467 14.75185891 182.42196209 19.78052352 182.41584778 26.13471985 C182.422565 27.13697098 182.42928223 28.13922211 182.436203 29.17184448 C182.45518897 32.48268096 182.45910761 35.79331475 182.46125793 39.10420227 C182.46768571 41.40959761 182.47441406 43.71499212 182.48143005 46.02038574 C182.49340452 50.8531127 182.49711072 55.68576817 182.4959259 60.51850891 C182.49572277 66.70233963 182.52301869 72.88571048 182.55747032 79.06943226 C182.57974017 83.83161513 182.5837634 88.59368737 182.58270645 93.35591698 C182.58506251 95.63522106 182.59388626 97.9145282 182.60937119 100.1937809 C182.62903102 103.38665816 182.62319238 106.57854438 182.61116028 109.7714386 C182.62239929 110.70729797 182.63363831 111.64315735 182.6452179 112.6073761 C182.57738147 119.71403606 180.86279694 124.96637848 176.19563293 130.38935852 C175.55367981 130.92818665 174.91172668 131.46701477 174.25032043 132.02217102 C173.61352356 132.5764679 172.97672668 133.13076477 172.32063293 133.70185852 C166.21361301 137.72249442 160.02202864 137.39334021 152.98616028 137.29145813 C150.67987572 137.27566123 148.37359113 137.25986858 146.06730652 137.24407959 C144.84884411 137.23204435 143.6303817 137.22000912 142.37499619 137.20760918 C136.56981286 137.15690124 130.76465102 137.15357988 124.9592793 137.1446563 C116.05960113 137.12984525 107.1607327 137.09838299 98.2615509 136.99995422 C91.60162893 136.92650417 84.94372861 136.91134895 78.28332901 136.92921638 C75.75325515 136.92610408 73.22312243 136.90333947 70.6934166 136.860075 C55.59330822 136.01685761 55.59330822 136.01685761 42.32663918 141.94198704 C40.07033847 144.19343826 38.11302753 146.65867246 36.12532043 149.14717102 C34.28712148 150.73253714 32.41593622 152.28127287 30.50032043 153.77217102 C26.94347908 156.63598885 23.49992991 159.5706343 20.12532043 162.64717102 C15.83346259 166.55873766 11.38472946 170.22668498 6.86750793 173.87373352 C3.26621511 176.85942074 -0.16597496 180.01095502 -3.58561707 183.20185852 C-7.09624884 186.18529644 -9.77895553 187.99063902 -14.37467957 188.64717102 C-18.88464092 188.00289083 -20.05537057 186.66503132 -22.87467957 183.14717102 C-23.50388527 179.96738148 -23.50388527 179.96738148 -23.50959778 176.31118774 C-23.51739773 175.63610159 -23.52519768 174.96101543 -23.533234 174.26547211 C-23.55313252 172.00973958 -23.53739985 169.75569839 -23.52165222 167.49995422 C-23.52842971 165.87998471 -23.53733358 164.26002291 -23.54820251 162.64007568 C-23.57099627 158.2429542 -23.56215698 153.84641938 -23.54630709 149.44928765 C-23.5336376 144.84150134 -23.54539212 140.23376487 -23.55323792 135.62597656 C-23.562336 127.88270572 -23.55034721 120.13967324 -23.52653503 112.3964386 C-23.49937141 103.46054445 -23.50810247 94.52522157 -23.53566706 85.58934146 C-23.55841006 77.90756975 -23.56153147 70.22596938 -23.54847372 62.54417485 C-23.54070147 57.96074431 -23.53957502 53.37758152 -23.55615616 48.79416847 C-23.57067567 44.47898302 -23.56044387 40.1645277 -23.53168488 35.84942055 C-23.52511169 34.27171029 -23.52690675 32.69393787 -23.5379982 31.1162529 C-23.59414869 22.3125884 -23.36441755 14.45729337 -17.87467957 7.14717102 C-12.14664401 1.82426644 -7.87099346 0.02664058 0 0 Z M-4.25975418 18.81862164 C-6.28155689 21.73384453 -6.36844886 23.3730769 -6.35569763 26.90516663 C-6.36119629 28.0802327 -6.36669495 29.25529877 -6.37236023 30.4659729 C-6.35797913 31.75134445 -6.34359802 33.036716 -6.32878113 34.36103821 C-6.32765258 35.73106859 -6.32828665 37.10110139 -6.33055115 38.47113037 C-6.33169898 42.18792917 -6.30817908 45.90421179 -6.28025532 49.62089062 C-6.2552529 53.50594657 -6.25290059 57.39101431 -6.24815369 61.27613831 C-6.23572046 68.63201565 -6.20289429 75.98765525 -6.16275573 83.3434279 C-6.11804871 91.71817656 -6.09605369 100.09293658 -6.07597399 108.46777487 C-6.03416185 125.69437778 -5.9638032 142.92074926 -5.87467957 160.14717102 C-2.46638019 158.52899927 -0.07937198 156.66951138 2.68782043 154.08467102 C6.24828971 150.81698629 9.86464963 147.68237909 13.62532043 144.64717102 C17.16548874 141.78532867 20.58755666 138.8537557 23.93782043 135.77217102 C25.12174629 134.73636902 25.12174629 134.73636902 26.32958984 133.67964172 C29.17224837 131.17873005 29.17224837 131.17873005 31.7348938 128.33100891 C39.95327255 120.05193 47.72197368 118.94812999 59.12163258 118.8120575 C62.88837015 118.82579641 66.6521601 118.89242578 70.41828918 118.95967102 C73.05909626 118.96537454 75.6999196 118.96577648 78.34072876 118.96113586 C84.54937697 118.95782053 90.75629929 119.00750038 96.96449023 119.07920456 C108.76795606 119.213166 120.57206858 119.23145469 132.3761692 119.25566101 C136.25150706 119.27199492 140.12599752 119.3125087 144.00109863 119.3573761 C146.36175809 119.37359317 148.72241985 119.38948058 151.08308411 119.40498352 C152.16304153 119.4237001 153.24299896 119.44241669 154.35568237 119.46170044 C155.8334465 119.46673836 155.8334465 119.46673836 157.34106445 119.47187805 C158.62596158 119.48639511 158.62596158 119.48639511 159.93681622 119.50120544 C162.18411284 119.30422423 162.18411284 119.30422423 163.90010643 117.87594604 C165.37832875 115.79017669 165.50420014 114.7018719 165.51300049 112.1620636 C165.52290512 111.3545163 165.53280975 110.54696899 165.54301453 109.71495056 C165.53626205 108.39169266 165.53626205 108.39169266 165.52937317 107.04170227 C165.53623642 106.1097403 165.54309967 105.17777832 165.5501709 104.21757507 C165.56849934 101.13145288 165.5645931 98.04583605 165.55891418 94.95967102 C165.56347278 92.81880019 165.56877738 90.67793082 165.57479858 88.5370636 C165.58374135 84.04798949 165.5812929 79.55909317 165.57136536 75.07002258 C165.55986881 69.30933938 165.58009207 63.5492685 165.60928249 57.78866577 C165.62760246 53.36722396 165.62736052 48.94593006 165.62164497 44.52445984 C165.62149127 42.40012248 165.62757565 40.2757754 165.63993645 38.151474 C165.65476682 35.18480159 165.64422828 32.21927558 165.62702942 29.25263977 C165.63669739 28.37046783 165.64636536 27.4882959 165.65632629 26.57939148 C165.64649216 25.77184418 165.63665802 24.96429687 165.62652588 24.13227844 C165.6263166 23.43100327 165.62610731 22.72972809 165.62589169 22.00720215 C165.24245043 20.00101891 165.24245043 20.00101891 163.50913334 18.42233181 C160.35727863 16.73632636 158.05524051 16.76676584 154.48310852 16.75949097 C153.81689405 16.75410543 153.15067958 16.74871989 152.46427679 16.74317116 C150.23326457 16.72887044 148.00284391 16.73600011 145.77180481 16.74311829 C144.17180911 16.73741584 142.57181748 16.73045207 140.97183228 16.72232056 C136.62683926 16.70436125 132.28204789 16.70556256 127.93702888 16.71126294 C124.31109645 16.71435041 120.685203 16.70826737 117.0592761 16.7022242 C108.50687647 16.68817184 99.95457671 16.68974651 91.4021759 16.7011261 C82.57475889 16.71261195 73.74764553 16.69852549 64.92026854 16.67172962 C57.34394548 16.64959123 49.76771788 16.64293092 42.19136477 16.64880604 C37.6651409 16.65218082 33.13911176 16.64972592 28.61291504 16.63255501 C24.35779137 16.61711719 20.10311858 16.62100588 15.84801292 16.63986015 C14.28551 16.64355467 12.7229739 16.64041249 11.16050148 16.62997437 C9.02898826 16.6168207 6.89898021 16.62825915 4.76753235 16.64596558 C3.57439674 16.64617486 2.38126114 16.64638414 1.15196991 16.64659977 C-1.9348695 16.93294405 -1.9348695 16.93294405 -4.25975418 18.81862164 Z " fill="#51A1FE" transform="translate(329.8746795654297,-0.1471710205078125)"/>
<path d="M0 0 C0.91702001 -0.00311998 1.83404003 -0.00623996 2.77884853 -0.00945449 C5.8465177 -0.01742126 8.91398835 -0.01111598 11.98165894 -0.00482178 C14.18292354 -0.00753218 16.38418724 -0.0110934 18.58544922 -0.01544189 C24.56040116 -0.02456115 30.53528406 -0.0210238 36.51023722 -0.01468372 C42.75973606 -0.00962264 49.00922896 -0.01431536 55.25872803 -0.01745605 C66.42384583 -0.02132793 77.58893827 -0.01511135 88.75405 -0.00493738 C98.87811229 0.00400224 109.00212872 0.00244204 119.12619019 -0.0067749 C130.88605564 -0.01747607 142.64589876 -0.02146328 154.40576923 -0.01555037 C160.62987995 -0.01242906 166.85395908 -0.0120259 173.07806778 -0.01862335 C178.92704039 -0.02439016 184.77592617 -0.02041209 190.62488937 -0.00883484 C192.77436427 -0.00618494 194.92384645 -0.00695894 197.07331848 -0.01136017 C200.00128966 -0.01680384 202.92898041 -0.0099958 205.85693359 0 C206.71276193 -0.00446144 207.56859026 -0.00892289 208.45035279 -0.01351953 C212.45566008 0.01310695 215.38513767 0.1208114 218.80148315 2.25396729 C221.30452693 6.00853295 221.2542839 7.80142663 220.80148315 12.25396729 C218.2246913 17.15322602 215.01487063 19.82893254 210.5806427 23.06767273 C196.56436405 33.37500152 179.80772291 46.09803156 176.98556519 64.27789307 C175.01430571 79.79144219 175.9644628 95.88319869 177.43711853 111.40827942 C178.06663902 118.73075795 177.9146975 123.06115664 173.80148315 129.25396729 C171.58273315 131.53131104 171.58273315 131.53131104 169.30148315 133.19146729 C168.54867065 133.75736572 167.79585815 134.32326416 167.02023315 134.90631104 C162.96412815 137.36996636 159.23983037 137.38633938 154.55172729 137.4151001 C153.28683975 137.42470764 152.02195221 137.43431519 150.71873474 137.44421387 C149.34137147 137.44906142 147.9640061 137.45334035 146.5866394 137.45709229 C145.16943867 137.46284797 143.75223795 137.46860565 142.33503723 137.47436523 C139.36689899 137.48485579 136.3987877 137.49071155 133.43063354 137.49420166 C129.6331266 137.49969042 125.83597746 137.52373438 122.0385828 137.55217361 C119.11229925 137.5708219 116.18610166 137.57600669 113.25976372 137.57753754 C111.85995967 137.58055833 110.46015694 137.58856753 109.06041145 137.60172272 C107.10055802 137.61883134 105.14055617 137.61505119 103.18063354 137.6104126 C102.0668483 137.61405823 100.95306305 137.61770386 99.80552673 137.62145996 C95.44911474 137.08852844 92.86177917 135.3142633 89.80148315 132.25396729 C89.27218745 128.24644269 89.32103275 126.03535448 91.45724487 122.56109619 C95.99270121 118.36483636 102.97546911 119.59376349 108.74679565 119.65240479 C110.12253067 119.64690186 111.49825746 119.63877475 112.8739624 119.62814331 C116.48642767 119.60529885 120.09828676 119.6094638 123.71078491 119.62194824 C129.49942203 119.64028589 135.28770712 119.63033038 141.07625961 119.59608841 C143.09676658 119.58998045 145.11651552 119.60324484 147.13696289 119.61807251 C148.97434525 119.61258896 148.97434525 119.61258896 150.84884644 119.60699463 C152.46836716 119.61296158 152.46836716 119.61296158 154.12060547 119.61904907 C156.77382878 119.43856602 156.77382878 119.43856602 158.65740967 118.13142395 C160.35836325 115.34011144 160.12088482 113.11238633 160.05929565 109.8616333 C160.05181808 109.21722794 160.04434052 108.57282257 160.03663635 107.90888977 C160.0196419 106.50925329 159.99639585 105.10968198 159.96765137 103.7102375 C159.92604235 101.48429177 159.90986956 99.2595554 159.90182495 97.0332489 C159.87797394 90.70374626 159.83767171 84.37552549 159.709198 78.04718018 C159.63238542 74.17209734 159.61049352 70.29983641 159.62246704 66.4240551 C159.61688346 64.95727141 159.59156774 63.49040833 159.54495239 62.02435493 C159.32029248 54.72431976 159.6618642 48.81744838 164.58911896 43.12081051 C166.89682283 40.71082839 169.31999405 38.48645657 171.80148315 36.25396729 C173.38630345 34.63406342 174.96260766 33.0057072 176.5241394 31.36334229 C177.96820439 29.90768356 179.41476799 28.45449872 180.86398315 27.00396729 C181.60841675 26.2472876 182.35285034 25.49060791 183.11984253 24.71099854 C183.8307605 23.99814697 184.54167847 23.28529541 185.2741394 22.55084229 C186.22172119 21.59709717 186.22172119 21.59709717 187.18844604 20.62408447 C188.80148315 19.25396729 188.80148315 19.25396729 190.80148315 19.25396729 C190.80148315 18.59396729 190.80148315 17.93396729 190.80148315 17.25396729 C165.16761342 17.314433 139.53384404 17.39188395 113.90008831 17.4896822 C101.99849519 17.53469117 90.09693234 17.574094 78.19528198 17.60040283 C67.82454461 17.62334166 57.4539026 17.65669338 47.08324081 17.70266885 C41.58956939 17.7266567 36.09599276 17.74534895 30.60227013 17.75158119 C25.43536616 17.75760696 20.26870488 17.77751541 15.10189056 17.8082428 C13.20196273 17.81706343 11.30200323 17.82073734 9.40205574 17.81897545 C6.81479617 17.81733319 4.22828572 17.83393145 1.64112854 17.85523987 C0.88335025 17.85039229 0.12557196 17.84554472 -0.65516931 17.84055024 C-3.57075162 17.88038157 -5.68282943 17.91798157 -8.16468525 19.53498459 C-10.08706527 22.73138331 -9.61225017 26.53369045 -9.58670044 30.15997314 C-9.5919574 31.07082169 -9.59721436 31.98167023 -9.60263062 32.92012024 C-9.61585392 35.93652403 -9.60708349 38.9524017 -9.59695435 41.96881104 C-9.59897458 44.06244508 -9.6018856 46.15607845 -9.60565186 48.24971008 C-9.61007852 52.64043875 -9.60363373 57.03098447 -9.58963013 61.42169189 C-9.5725487 67.05215764 -9.5823708 72.68219407 -9.60034752 78.312644 C-9.61118506 82.63718402 -9.60773894 86.96162217 -9.59996414 91.28616524 C-9.59796151 93.36221937 -9.60042361 95.43828273 -9.6074028 97.5143261 C-9.6150155 100.41598902 -9.60341492 103.31695585 -9.58670044 106.21856689 C-9.59277313 107.07844208 -9.59884583 107.93831726 -9.60510254 108.82424927 C-9.56802741 112.29573955 -9.49907109 114.65787378 -7.92007446 117.78952026 C-4.90198739 120.35686311 -1.10222656 119.75216834 2.66867065 119.68756104 C4.45903609 119.69716842 6.24940066 119.70693914 8.0397644 119.71685791 C10.85968964 119.70826207 13.67938685 119.69144443 16.49923706 119.66925049 C19.22283495 119.6547151 21.94511916 119.66999551 24.66867065 119.68756104 C25.50840424 119.67108017 26.34813782 119.6545993 27.21331787 119.63761902 C31.53897641 119.67444614 33.28448169 119.85839989 36.82931519 122.57061768 C38.80148315 125.25396729 38.80148315 125.25396729 39.48898315 128.75396729 C38.74219146 132.55581591 37.7322437 133.86810138 34.71255493 136.22171021 C31.03270031 138.20936762 27.18386176 137.9442297 23.09054565 137.88287354 C21.70009537 137.88649147 21.70009537 137.88649147 20.28155518 137.8901825 C18.32656567 137.88920594 16.37154785 137.87585805 14.41671753 137.85089111 C11.44244161 137.816651 8.47115159 137.83022535 5.49679565 137.84967041 C3.59053313 137.84276911 1.68427823 137.83309415 -0.22195435 137.82037354 C-1.10241425 137.8253334 -1.98287415 137.83029327 -2.89001465 137.83540344 C-10.20104976 137.69772123 -15.30240665 135.62351199 -20.94851685 131.00396729 C-26.41202609 124.32634488 -27.79097869 118.54278722 -27.71609497 110.01763916 C-27.72310425 109.02470352 -27.73011353 108.03176788 -27.73733521 107.00874329 C-27.75485268 103.746445 -27.74331422 100.48502347 -27.72976685 97.22271729 C-27.73246354 94.94402908 -27.73634744 92.665342 -27.74136353 90.38665771 C-27.74725014 85.6188457 -27.7387223 80.85133413 -27.72000122 76.08355713 C-27.69721259 69.98383415 -27.71034011 63.88481527 -27.73429108 57.7851181 C-27.74877146 53.08209973 -27.7441327 48.37924723 -27.73377991 43.67622375 C-27.73111883 41.42763688 -27.73436049 39.17903476 -27.74369812 36.9304657 C-27.75390029 33.78333866 -27.73831041 30.63733888 -27.71609497 27.49029541 C-27.72419189 26.56849991 -27.73228882 25.64670441 -27.7406311 24.69697571 C-27.64878067 17.6441335 -25.9000204 12.3929613 -21.26882935 7.01177979 C-20.62687622 6.47295166 -19.9849231 5.93412354 -19.32351685 5.37896729 C-18.68671997 4.82467041 -18.0499231 4.27037354 -17.39382935 3.69927979 C-11.86573924 0.05978986 -6.38133558 -0.0334403 0 0 Z " fill="#51A1FE" transform="translate(78.19851684570313,374.74603271484375)"/>
<path d="M0 0 C8.05123569 7.79532844 14.6102571 21.52158998 15.484375 32.59375 C15.49764281 34.95542075 15.43743531 37.27164557 15.25 39.625 C12.91793649 40.42057375 10.58445914 41.21151096 8.25 42 C7.60160156 42.22171875 6.95320312 42.4434375 6.28515625 42.671875 C-11.41541719 48.63048388 -27.76340106 48.64536379 -44.75 40.625 C-65.64991046 30.95552185 -86.91118797 23.63520978 -110.1875 30.25 C-120.32932537 34.14131535 -127.95571802 40.16238959 -135.75 47.625 C-137.42580393 44.27339213 -135.82887018 41.23871862 -134.82421875 37.765625 C-130.14129468 24.07445789 -122.90742107 13.15297498 -109.75 6.625 C-102.22837903 2.95390449 -94.75524411 3.49795382 -86.62463379 3.79940796 C-72.95831769 4.25862258 -62.19691254 3.29846991 -49.65087891 -2.54589844 C-35.19662726 -8.85037295 -13.16849512 -9.54494948 0 0 Z " fill="#E5EAF4" transform="translate(461.75,211.375)"/>
<path d="M0 0 C1.36089001 -0.00337441 2.72177708 -0.00823221 4.08265686 -0.01449585 C6.92641058 -0.02184063 9.76937559 -0.01124299 12.61303711 0.01220703 C16.23913234 0.04066852 19.86337473 0.02429585 23.48940182 -0.00565529 C26.29754825 -0.02381805 29.10526334 -0.01792939 31.91342354 -0.00501633 C33.89411257 -0.00010753 35.87481907 -0.01516554 37.85545349 -0.03067017 C45.09392943 0.06298821 50.57735037 0.58733104 56.03515625 5.6640625 C59.38182447 9.57983429 60.6602438 13.60990264 60.34765625 18.69921875 C59.18882248 25.98538609 54.68417366 31.19976855 50.03515625 36.6640625 C49.51050781 37.29699219 48.98585938 37.92992187 48.4453125 38.58203125 C41.31709655 46.47709684 30.74801161 51.07324489 20.23046875 51.87890625 C7.98670952 52.2683388 -2.06517426 48.58284198 -11.3828125 40.58984375 C-18.51230508 33.74696393 -24.4518624 26.92243498 -25.27734375 16.8515625 C-25.1913381 12.22445878 -23.77863995 9.2694951 -20.96484375 5.6640625 C-14.59773545 -0.44187412 -8.52746484 -0.06664957 0 0 Z " fill="#53A2FE" transform="translate(118.96484375,170.3359375)"/>
<path d="M0 0 C28.05 0 56.1 0 85 0 C85 9.57 85 19.14 85 29 C79.37357411 34.62642589 79.37357411 34.62642589 72.62695312 34.64697266 C71.54062843 34.66011505 71.54062843 34.66011505 70.43235779 34.67352295 C68.04803842 34.69545752 65.66558687 34.68098755 63.28125 34.6640625 C61.61885219 34.6674324 59.95645678 34.67228647 58.29406738 34.67855835 C54.81380707 34.68592155 51.33418938 34.67524267 47.85400391 34.65185547 C43.39813334 34.6233672 38.94376853 34.63977425 34.48795319 34.66971779 C31.0563019 34.6878062 27.62500625 34.68202584 24.19334412 34.66907883 C22.55073365 34.66574904 20.90809065 34.66981691 19.26551819 34.68147659 C16.96716096 34.69421185 14.67122426 34.67477609 12.37304688 34.64697266 C11.06686401 34.64299469 9.76068115 34.63901672 8.41491699 34.63491821 C5 34 5 34 0 29 C0 19.43 0 9.86 0 0 Z " fill="#E6EBF4" transform="translate(94,256)"/>
<path d="M0 0 C28.98099795 6.49057407 59.30596493 8.3831613 87.82397461 -1.51831055 C91.73452196 -2.38395735 93.79504665 -1.12236773 97.1796875 0.8984375 C98.41668911 1.71609943 99.64818084 2.5421382 100.875 3.375 C101.52686279 3.81400635 102.17872559 4.2530127 102.8503418 4.70532227 C107.6240076 7.96341094 112.25608154 11.38270284 116.8125 14.9375 C117.70074463 15.62755127 117.70074463 15.62755127 118.60693359 16.33154297 C121.24173146 18.42467901 123.11676122 20.17514184 125 23 C70.22 23 15.44 23 -41 23 C-33.34608993 15.34608993 -25.10296573 8.55417227 -16.3125 2.25 C-15.71969238 1.79536377 -15.12688477 1.34072754 -14.51611328 0.87231445 C-9.21483759 -2.80043147 -5.91874899 -1.76852106 0 0 Z " fill="#E4E9F4" transform="translate(359,472)"/>
<path d="M0 0 C20.23622607 -0.07008671 40.47242749 -0.12298653 60.70874977 -0.15543652 C70.10486534 -0.1709042 79.50090549 -0.19199187 88.89697266 -0.22631836 C97.08675829 -0.2562237 105.2764893 -0.27557572 113.46632802 -0.28226548 C117.80263937 -0.28617582 122.13879444 -0.29536361 126.47505569 -0.31719017 C130.55767151 -0.33757324 134.64006687 -0.34383013 138.72272873 -0.33932304 C140.21989897 -0.34014743 141.71707669 -0.34610233 143.21420288 -0.35761642 C145.26177423 -0.37258962 147.30851827 -0.3689368 149.35610962 -0.36076355 C150.50097651 -0.36352893 151.64584339 -0.36629431 152.82540321 -0.36914349 C156.48787553 0.05673038 158.86795871 1.07558406 162 3 C164.19157147 6.2873572 164.25341294 7.25752033 164.26742554 11.07260132 C164.28022049 12.64560249 164.28022049 12.64560249 164.29327393 14.25038147 C164.29191437 15.97568336 164.29191437 15.97568336 164.29052734 17.73583984 C164.29724457 18.94744278 164.30396179 20.15904572 164.31088257 21.40736389 C164.3266427 24.73187264 164.33323861 28.05613159 164.33451414 31.38066053 C164.33641339 34.15646249 164.34377128 36.93224048 164.35085833 39.7080332 C164.36714613 46.25784178 164.37202696 52.80759537 164.37060547 59.35742188 C164.36940414 66.11204919 164.39050304 72.86635693 164.4220928 79.62090337 C164.44825326 85.42143391 164.45897286 91.22186006 164.45769465 97.02244914 C164.45718491 100.48626538 164.46287418 103.9497977 164.48405075 107.41355515 C164.5070294 111.27762053 164.49791358 115.14124849 164.48583984 119.00537109 C164.49707886 120.1515239 164.50831787 121.2976767 164.51989746 122.4785614 C164.45819194 130.23356785 164.45819194 130.23356785 162.09463501 134.18716431 C158.46462542 137.32881472 156.11490167 137.10896962 151.375 137.0625 C150.18648437 137.05347656 148.99796875 137.04445312 147.7734375 137.03515625 C146.85820312 137.02355469 145.94296875 137.01195312 145 137 C145.24357144 135.92963973 145.24357144 135.92963973 145.49206352 134.83765602 C145.99651333 132.01947876 146.12582175 129.45746699 146.12698364 126.59750366 C146.12980347 125.52636826 146.13262329 124.45523285 146.13552856 123.35163879 C146.13350433 122.18678452 146.1314801 121.02193024 146.12939453 119.82177734 C146.13114685 118.58716263 146.13289917 117.35254791 146.13470459 116.08052063 C146.13834765 112.70260223 146.13749955 109.32474521 146.1343255 105.94683027 C146.13179056 102.41016019 146.1341425 98.8734927 146.13571167 95.33682251 C146.13752957 89.40032481 146.1351365 83.46383956 146.13037109 77.52734375 C146.12492419 70.66255903 146.12669576 63.797804 146.1321975 56.93302 C146.13673345 51.03737712 146.13737696 45.14174318 146.13475883 39.24609911 C146.13319936 35.72547648 146.13299338 32.2048678 146.13629532 28.68424606 C146.13971669 24.76263013 146.13497642 20.84104755 146.12939453 16.91943359 C146.13243088 15.16607948 146.13243088 15.16607948 146.13552856 13.37730408 C146.13270874 12.31180832 146.12988892 11.24631256 146.12698364 10.14852905 C146.12660662 9.22124685 146.12622959 8.29396465 146.12584114 7.33858299 C146.09511263 4.84401252 146.09511263 4.84401252 145 2 C73.225 1.505 73.225 1.505 0 1 C0 0.67 0 0.34 0 0 Z " fill="#B0CCF8" transform="translate(58,102)"/>
<path d="M0 0 C4.95 0 9.9 0 15 0 C15 33.33 15 66.66 15 101 C10.05 101 5.1 101 0 101 C-3.37512852 96.49982863 -3.37512852 96.49982863 -3.38095093 92.9705658 C-3.39364014 91.78242531 -3.39364014 91.78242531 -3.40658569 90.57028198 C-3.400513 89.7104068 -3.39444031 88.85053162 -3.38818359 87.96459961 C-3.39344055 87.05199875 -3.39869751 86.13939789 -3.40411377 85.19914246 C-3.41731502 82.18336868 -3.40857588 79.16812287 -3.3984375 76.15234375 C-3.40045802 74.05774331 -3.40336928 71.96314356 -3.40713501 69.86854553 C-3.41155839 65.47959696 -3.4051261 61.09083158 -3.39111328 56.7019043 C-3.37401095 51.07024802 -3.38386927 45.43902032 -3.40183067 39.80737972 C-3.41265906 35.48288225 -3.40922668 31.15848679 -3.4014473 26.83398628 C-3.39944322 24.75710563 -3.4019118 22.68021578 -3.40888596 20.60334587 C-3.41648598 17.70398201 -3.40491696 14.80531749 -3.38818359 11.90600586 C-3.39425629 11.04410645 -3.40032898 10.18220703 -3.40658569 9.29418945 C-3.34279842 3.34279842 -3.34279842 3.34279842 0 0 Z " fill="#FBFDFE" transform="translate(71,393)"/>
<path d="M0 0 C3.38192416 1.50480112 5.92826099 3.49359606 8.75 5.875 C19.38350872 14.50395921 28.54013406 15.54586436 42 15 C51.80816492 13.90148553 59.22890138 8.18018404 66.15234375 1.57421875 C68 0 68 0 70 0 C71.03622938 3.91275927 72.05128673 7.83070776 73.0625 11.75 C73.35705078 12.86117188 73.65160156 13.97234375 73.95507812 15.1171875 C74.22900391 16.18710937 74.50292969 17.25703125 74.78515625 18.359375 C75.17006226 19.83615723 75.17006226 19.83615723 75.56274414 21.34277344 C75.99725787 23.98333592 75.87325 25.50203857 75 28 C72.04304082 28.65271686 69.08466702 29.29727263 66.125 29.9375 C65.30257812 30.11990234 64.48015625 30.30230469 63.6328125 30.49023438 C46.93430416 34.07780453 29.56052641 34.07171551 12.6875 31.6875 C11.84727295 31.56987305 11.0070459 31.45224609 10.14135742 31.33105469 C4.53415494 30.45435123 -0.67487564 28.95230605 -6 27 C-4.48851685 17.86298706 -2.31567089 8.9591733 0 0 Z " fill="#D0DDF2" transform="translate(366,428)"/>
<path d="M0 0 C0.71446289 -0.0071553 1.42892578 -0.01431061 2.16503906 -0.02168274 C4.51693483 -0.03853429 6.86691465 -0.01919084 9.21875 0.00219727 C10.85872556 0.00136823 12.49870103 -0.00109248 14.13867188 -0.00511169 C17.57186972 -0.00796724 21.00441429 0.00670688 24.4375 0.03417969 C28.83268672 0.06826273 33.22670561 0.06224233 37.62194824 0.04351711 C41.00726003 0.03293578 44.39230125 0.0418951 47.77758789 0.05690193 C49.39785966 0.06207593 51.01815978 0.06161143 52.63842773 0.05535698 C54.90540063 0.04989075 57.17071613 0.07032154 59.4375 0.09765625 C60.72591797 0.10385483 62.01433594 0.11005341 63.34179688 0.11643982 C67.27362643 0.71566932 68.92411625 1.85737205 71.71875 4.63110352 C73.16305855 7.51972061 73.09563506 9.42758053 72.71875 12.63110352 C70.08050375 16.03188366 68.58400078 17.47023182 64.30383301 18.26602173 C62.34455872 18.27198868 62.34455872 18.27198868 60.34570312 18.27807617 C59.25937843 18.29121857 59.25937843 18.29121857 58.15110779 18.30462646 C55.76678842 18.32656104 53.38433687 18.31209106 51 18.29516602 C49.33760219 18.29853591 47.67520678 18.30338998 46.01281738 18.30966187 C42.53255707 18.31702506 39.05293938 18.30634619 35.57275391 18.28295898 C31.11688334 18.25447071 26.66251853 18.27087777 22.20670319 18.3008213 C18.7750519 18.31890972 15.34375625 18.31312936 11.91209412 18.30018234 C10.26948365 18.29685256 8.62684065 18.30092042 6.98426819 18.31258011 C4.68591096 18.32531537 2.38997426 18.3058796 0.09179688 18.27807617 C-1.21438599 18.27409821 -2.52056885 18.27012024 -3.86633301 18.26602173 C-8.15411752 17.46881568 -9.63744226 16.03827677 -12.28125 12.63110352 C-12.90625 9.13110352 -12.90625 9.13110352 -12.28125 5.63110352 C-8.53004924 0.80831552 -6.01951893 0.00449337 0 0 Z " fill="#53A2FE" transform="translate(149.28125,451.368896484375)"/>
<path d="M0 0 C0.7354303 -0.00700928 1.4708606 -0.01401855 2.22857666 -0.02124023 C4.65537467 -0.03882069 7.08100299 -0.02719827 9.5078125 -0.01367188 C11.1964541 -0.0163668 12.88509418 -0.02024922 14.57373047 -0.02526855 C18.11115304 -0.03116364 21.64817133 -0.02260061 25.18554688 -0.00390625 C29.71870095 0.01888364 34.25090777 0.00576057 38.7840271 -0.01819611 C42.27049897 -0.03265401 45.75674645 -0.0280482 49.2432251 -0.01768494 C50.91457227 -0.01501761 52.58593985 -0.01828764 54.25726318 -0.02760315 C56.59393225 -0.03776907 58.92906994 -0.02226936 61.265625 0 C61.95561584 -0.00809692 62.64560669 -0.01619385 63.35650635 -0.02453613 C66.72024206 0.03482079 68.38095908 0.31966977 71.06005859 2.42492676 C73.23375429 5.31717026 73.20358358 7.11001993 73.02734375 10.61523438 C72.41893143 13.54886608 71.02134736 14.8114818 68.6328125 16.51757812 C65.16616538 17.67312716 62.42045083 17.6730314 58.76220703 17.71044922 C58.06754333 17.71862671 57.37287964 17.7268042 56.65716553 17.73522949 C54.35999404 17.76002766 52.06288403 17.77658342 49.765625 17.79101562 C48.98027248 17.7963393 48.19491997 17.80166298 47.38576889 17.80714798 C43.23033373 17.83385294 39.07492836 17.85323789 34.91943359 17.86767578 C31.48166356 17.88102571 28.04448561 17.90890038 24.60693359 17.94970703 C20.45369905 17.99900674 16.3010023 18.02379294 12.14748764 18.03090286 C10.56622317 18.0376165 8.98497075 18.05284171 7.40387344 18.07679367 C5.18934844 18.10843252 2.97689891 18.1084857 0.76220703 18.10107422 C-1.12617386 18.1132045 -1.12617386 18.1132045 -3.05270386 18.12557983 C-7.25336069 17.35502043 -8.7229856 15.79439667 -11.3671875 12.51757812 C-12.27456891 9.49109478 -11.83151883 7.76789743 -11.3671875 4.51757812 C-8.24514293 0.1285643 -5.05432763 -0.05931166 0 0 Z " fill="#53A2FF" transform="translate(353.3671875,42.482421875)"/>
<path d="M0 0 C1.30336304 -0.00361794 1.30336304 -0.00361794 2.63305664 -0.00730896 C4.46537858 -0.00633191 6.29773055 0.0070278 8.12988281 0.03198242 C10.92875811 0.06629907 13.7244755 0.05263353 16.5234375 0.03320312 C18.30730506 0.04010189 20.09116449 0.04977456 21.875 0.0625 C23.12518921 0.0550602 23.12518921 0.0550602 24.40063477 0.04747009 C28.42977322 0.12882372 30.46201069 0.32650834 33.94140625 2.53930664 C36.31400732 5.02305084 36.85868873 6.0378217 37.3125 9.44140625 C36.9375 12.62890625 36.9375 12.62890625 34.99414062 15.28662109 C30.82433491 18.4819179 27.77502441 18.35353919 22.65625 18.29296875 C21.76514526 18.29775238 20.87404053 18.30253601 19.95593262 18.3074646 C18.07656076 18.31085897 16.1971295 18.30168887 14.31787109 18.28076172 C11.44624802 18.25398781 8.57853321 18.28052336 5.70703125 18.3125 C3.87759557 18.30919582 2.04816231 18.30278941 0.21875 18.29296875 C-0.63658325 18.3030899 -1.4919165 18.31321106 -2.37316895 18.32363892 C-6.72342176 18.23839645 -8.54196804 18.02649304 -12.10351562 15.30615234 C-14.0625 12.62890625 -14.0625 12.62890625 -14.6875 9.12890625 C-13.17249018 0.64485127 -7.37787149 -0.11736307 0 0 Z " fill="#53A2FE" transform="translate(185.0625,417.37109375)"/>
<path d="M0 0 C1.33877953 -0.00574036 1.33877953 -0.00574036 2.7046051 -0.01159668 C4.58994679 -0.01431546 6.47532622 -0.00695659 8.3605957 0.00976562 C11.24060603 0.03115124 14.1181147 0.00997659 16.99804688 -0.015625 C18.83203674 -0.01298122 20.66602505 -0.00785521 22.5 0 C23.35847031 -0.00809692 24.21694061 -0.01619385 25.10142517 -0.02453613 C29.11837212 0.03818131 31.32985934 0.24552811 34.85961914 2.31835938 C37.19800167 4.96278847 37.41105857 6.94226162 37.48046875 10.43359375 C36.39819868 13.85229391 34.60488882 15.30924125 31.81640625 17.53125 C28.79277982 18.26001849 25.85303802 18.23294695 22.75390625 18.1953125 C21.45054321 18.20248795 21.45054321 18.20248795 20.12084961 18.20980835 C18.28855574 18.21320225 16.4562009 18.20403544 14.62402344 18.18310547 C11.82479406 18.15633023 9.02957392 18.18286803 6.23046875 18.21484375 C4.44660576 18.21153956 2.66274526 18.20513313 0.87890625 18.1953125 C-0.37128296 18.21049423 -0.37128296 18.21049423 -1.64672852 18.22598267 C-6.00414965 18.13842021 -7.68460664 17.92858041 -11.21069336 15.12084961 C-13.14722092 12.57899243 -13.85164994 11.59197126 -13.74609375 8.46875 C-13.18359375 4.53125 -13.18359375 4.53125 -11.72241211 2.31835938 C-7.93452169 -0.34798911 -4.52972308 -0.04262296 0 0 Z " fill="#53A2FF" transform="translate(355.18359375,76.46875)"/>
<path d="M0 0 C9.03998221 0.65745325 16.48603978 3.48603978 23 10 C30.64028577 20.88944645 35.79171525 32.54084071 35 46 C27.08 48.475 27.08 48.475 19 51 C18.938125 49.55625 18.87625 48.1125 18.8125 46.625 C17.23104046 29.79220465 10.98202991 12.95316349 0 0 Z " fill="#B1CCF8" transform="translate(442,205)"/>
<path d="M0 0 C7.6403485 2.54678283 11.81491577 6.09293283 15.4375 13.3125 C18.14454612 20.22660049 17.83091521 26.40957598 15.25 33.3125 C12.40863892 39.66085571 9.09254811 43.50002555 3 47 C2.01 47 1.02 47 0 47 C0 31.49 0 15.98 0 0 Z " fill="#E5EAF4" transform="translate(239,147)"/>
<path d="M0 0 C0 15.51 0 31.02 0 47 C-6.76278124 45.30930469 -9.72512339 42.84131587 -13.3125 37 C-16.92310505 30.78331518 -17.88224362 25.15027676 -17 18 C-14.62269448 10.5237074 -10.29410809 5.54342902 -4 1 C-2 0 -2 0 0 0 Z " fill="#FCFDFF" transform="translate(34,147)"/>
<path d="M0 0 C16.17 0 32.34 0 49 0 C45.96267813 7.59330468 41.24925146 11.82825288 33.89453125 15.2734375 C27.28029865 17.8100298 20.97308355 17.55607784 14.34375 15.18359375 C8.58303732 12.27443385 3.55919951 7.36118417 0 2 C0 1.34 0 0.68 0 0 Z " fill="#E4E9F4" transform="translate(112,188)"/>
<path d="M0 0 C5.61 0 11.22 0 17 0 C17.11512589 4.03963959 17.21454033 8.07507667 17.2746582 12.11547852 C17.29972617 13.48807102 17.33379082 14.86053102 17.37719727 16.23266602 C17.43817531 18.21050696 17.46361009 20.18934184 17.48828125 22.16796875 C17.51446533 23.35672607 17.54064941 24.5454834 17.56762695 25.77026367 C16.83136169 29.95953385 15.30926189 31.41358849 12 34 C8.44921875 34.48828125 8.44921875 34.48828125 4.6875 34.3125 C3.43324219 34.26738281 2.17898437 34.22226562 0.88671875 34.17578125 C-0.54220703 34.08876953 -0.54220703 34.08876953 -2 34 C-1.84152588 33.31591064 -1.68305176 32.63182129 -1.51977539 31.92700195 C-0.9370438 28.64547588 -0.78632513 25.49940079 -0.68359375 22.16796875 C-0.64169922 20.87568359 -0.59980469 19.58339844 -0.55664062 18.25195312 C-0.51683648 16.89713808 -0.47712409 15.54232033 -0.4375 14.1875 C-0.39426277 12.81313895 -0.35064688 11.43878976 -0.30664062 10.06445312 C-0.20070266 6.70975096 -0.09986052 3.35488857 0 0 Z " fill="#B2CDF7" transform="translate(162,256)"/>
<path d="M0 0 C5.61 0 11.22 0 17 0 C17.06058594 2.11921875 17.12117188 4.2384375 17.18359375 6.421875 C17.24545043 8.48050262 17.30881017 10.53907888 17.37231445 12.59765625 C17.41555318 14.02534388 17.45723585 15.45307954 17.49731445 16.88085938 C17.55528602 18.93634496 17.61890175 20.99159128 17.68359375 23.046875 C17.72025146 24.28276367 17.75690918 25.51865234 17.79467773 26.79199219 C17.95979819 29.37187658 18.2464387 31.54355106 19 34 C16.77252674 34.13563775 14.54265677 34.23227853 12.3125 34.3125 C11.07113281 34.37050781 9.82976562 34.42851562 8.55078125 34.48828125 C3.99680593 33.86204702 2.834115 32.55583126 0 29 C-0.56762695 25.77026367 -0.56762695 25.77026367 -0.48828125 22.16796875 C-0.47216797 20.87568359 -0.45605469 19.58339844 -0.43945312 18.25195312 C-0.39768274 16.89711843 -0.35535809 15.54230072 -0.3125 14.1875 C-0.28740069 12.81319134 -0.26459036 11.43883884 -0.24414062 10.06445312 C-0.18527592 6.70916483 -0.09559843 3.35444266 0 0 Z " fill="#FEFEFE" transform="translate(94,256)"/>
<path d="M0 0 C1.05316406 0.31710938 2.10632812 0.63421875 3.19140625 0.9609375 C6.19085566 1.77924883 8.86257674 2.34116093 11.9375 2.625 C12.70964844 2.69976562 13.48179688 2.77453125 14.27734375 2.8515625 C15.13005859 2.92503906 15.13005859 2.92503906 16 3 C16.02505615 3.8878418 16.0501123 4.77568359 16.07592773 5.69042969 C16.17121797 8.99296037 16.27044207 12.29532459 16.37231445 15.59765625 C16.41555318 17.02534388 16.45723585 18.45307954 16.49731445 19.88085938 C16.55528602 21.93634496 16.61890175 23.99159128 16.68359375 26.046875 C16.72025146 27.28276367 16.75690918 28.51865234 16.79467773 29.79199219 C16.95979819 32.37187658 17.2464387 34.54355106 18 37 C15.56183415 37.0809723 13.12635616 37.14046972 10.6875 37.1875 C9.99720703 37.21263672 9.30691406 37.23777344 8.59570312 37.26367188 C3.55465245 37.33673058 3.55465245 37.33673058 1.29492188 35.96484375 C-0.71098441 32.92119108 -0.36780844 29.78933323 -0.29296875 26.26953125 C-0.28872391 25.51911057 -0.28447906 24.76868988 -0.28010559 23.99552917 C-0.2633245 21.60081974 -0.2256749 19.20695466 -0.1875 16.8125 C-0.17245235 15.1881632 -0.15876409 13.5638132 -0.14648438 11.93945312 C-0.11342305 7.95931052 -0.06164594 3.97979837 0 0 Z " fill="#FEFEFE" transform="translate(52,201)"/>
<path d="M0 0 C1.26328125 0.03609375 2.5265625 0.0721875 3.828125 0.109375 C5.27445313 0.17898437 5.27445313 0.17898437 6.75 0.25 C6.51228882 1.0248877 6.51228882 1.0248877 6.26977539 1.81542969 C5.59791934 4.96232894 5.52900563 7.98638152 5.43359375 11.203125 C5.41281265 11.86334656 5.39203156 12.52356812 5.37062073 13.20379639 C5.30549853 15.30243015 5.24641498 17.40118372 5.1875 19.5 C5.14427921 20.92709547 5.1006638 22.35417905 5.05664062 23.78125 C4.94985589 27.27070722 4.84848434 30.76029753 4.75 34.25 C4.01394531 34.37117188 3.27789062 34.49234375 2.51953125 34.6171875 C1.05580078 34.86855469 1.05580078 34.86855469 -0.4375 35.125 C-1.88189453 35.36863281 -1.88189453 35.36863281 -3.35546875 35.6171875 C-6.16032604 36.23039517 -8.62224747 37.10666343 -11.25 38.25 C-11.34900135 33.48118124 -11.42152928 28.7129627 -11.46972656 23.94335938 C-11.48982144 22.32150857 -11.51710254 20.69973003 -11.55175781 19.078125 C-11.6003727 16.7446102 -11.62298889 14.41205443 -11.640625 12.078125 C-11.66127014 11.35506165 -11.68191528 10.63199829 -11.70318604 9.88702393 C-11.70470719 6.46128829 -11.49265576 4.58070364 -9.44140625 1.78515625 C-6.26686947 -0.43871711 -3.82287632 -0.14158801 0 0 Z " fill="#FEFEFE" transform="translate(63.25,102.75)"/>
<path d="M0 0 C2.67991935 2.05103713 3.84708894 3.23840193 4.51757812 6.57788086 C4.52208984 7.53057861 4.52660156 8.48327637 4.53125 9.46484375 C4.53640625 10.51220703 4.5415625 11.55957031 4.546875 12.63867188 C4.53140625 13.72728516 4.5159375 14.81589844 4.5 15.9375 C4.51546875 17.02224609 4.5309375 18.10699219 4.546875 19.22460938 C4.52393523 23.8899857 4.50625511 27.08829769 2.21484375 31.21484375 C-0.43431791 33.3500587 -2.53070271 33.59703186 -5.90234375 33.6640625 C-9.48174399 32.53091903 -10.80259969 31.05757923 -13 28 C-13.73864775 24.15298652 -13.69815115 20.40627149 -13.625 16.5 C-13.64433594 15.46746094 -13.66367188 14.43492187 -13.68359375 13.37109375 C-13.65224979 8.51278057 -13.60185139 5.83847672 -10.71484375 1.81640625 C-6.59804289 -0.93800008 -4.8731035 -0.69615764 0 0 Z " fill="#53A2FE" transform="translate(175,120)"/>
<path d="M0 0 C1.03253906 -0.01933594 2.06507812 -0.03867187 3.12890625 -0.05859375 C8.00984243 -0.02710384 10.65885866 0.01119416 14.6796875 2.9453125 C17.09801378 6.50533789 17.25375341 8.40398092 16.5 12.625 C14.71484375 15.30859375 14.71484375 15.30859375 11.5 17.625 C7.4667301 18.34501 3.52356916 18.2773304 -0.5625 18.1875 C-1.65111328 18.19845703 -2.73972656 18.20941406 -3.86132812 18.22070312 C-11.82692276 18.14717456 -11.82692276 18.14717456 -14.80639648 15.83569336 C-16.84480277 13.17492229 -17.01702465 11.03303524 -17.12890625 7.72265625 C-14.5978924 -0.71929679 -7.32442397 -0.1371615 0 0 Z " fill="#53A2FE" transform="translate(102.5,451.375)"/>
<path d="M0 0 C3.09202161 2.10041118 4.75820718 3.74646918 5.47949219 7.48583984 C5.67453966 10.50597968 5.68166069 13.47431898 5.625 16.5 C5.65400391 18.04880859 5.65400391 18.04880859 5.68359375 19.62890625 C5.6521044 24.50975583 5.60943869 27.16137947 2.68359375 31.1875 C-0.82481428 33.5570798 -2.84459736 33.6044222 -7 33 C-10.1850357 31.23984869 -10.83296972 30.50109084 -12 27 C-12.30610389 23.3802246 -12.32359317 19.75619167 -12.375 16.125 C-12.41238281 15.13113281 -12.44976562 14.13726562 -12.48828125 13.11328125 C-12.57651912 5.78953805 -12.57651912 5.78953805 -9.6953125 1.84375 C-6.12732835 -0.596958 -4.23960606 -0.75707251 0 0 Z " fill="#52A1FE" transform="translate(106,120)"/>
<path d="M0 0 C1.08861328 -0.01095703 2.17722656 -0.02191406 3.29882812 -0.03320312 C11.26442276 0.04032544 11.26442276 0.04032544 14.24389648 2.35180664 C16.28230277 5.01257771 16.45452465 7.15446476 16.56640625 10.46484375 C15.4946583 14.03955586 13.95477554 15.37254194 10.9375 17.5625 C7.27649659 18.29786029 3.72278983 18.26092781 0 18.1875 C-0.97646484 18.20683594 -1.95292969 18.22617187 -2.95898438 18.24609375 C-7.52591078 18.21513154 -11.02438296 18.12489038 -14.7109375 15.2421875 C-17.0625 12.5625 -17.0625 12.5625 -17.75 9.0625 C-15.82536426 -0.73564558 -8.29368936 -0.18233304 0 0 Z " fill="#54A2FF" transform="translate(461.0625,42.4375)"/>
<path d="M0 0 C8.25 0 16.5 0 25 0 C23.68 1.65 22.36 3.3 21 5 C20.3751827 9.69506273 20.3751827 9.69506273 22.3125 13.8125 C23.85776736 14.89991036 25.42781846 15.95187897 27 17 C17.1 17 7.2 17 -3 17 C-1.35 15.35 0.3 13.7 2 12 C2.62098195 7.03214439 1.90194682 4.75486705 0 0 Z " fill="#FCFDFF" transform="translate(148,495)"/>
<path d="M0 0 C8.58 0 17.16 0 26 0 C26 0.66 26 1.32 26 2 C25.505 2.391875 25.01 2.78375 24.5 3.1875 C22.68877551 5.04811094 22.68877551 5.04811094 22.5625 8.375 C22.74771183 12.58430052 22.74771183 12.58430052 27 17 C17.76 17 8.52 17 -1 17 C0.65 15.35 2.3 13.7 4 12 C4.75 8.5 4.75 8.5 4 5 C2.68 3.35 1.36 1.7 0 0 Z " fill="#FDFEFF" transform="translate(112,495)"/>
<path d="M0 0 C3.34265205 1.20706879 3.94704566 1.92056849 6 5 C6.5 8.375 6.5 8.375 6 12 C3.11949992 15.22341676 1.19081827 16.75697586 -3.0625 17.625 C-7.12569154 16.76049116 -8.57855492 15.34729173 -11 12 C-11.625 8.5 -11.625 8.5 -11 5 C-7.76968443 0.53456377 -5.48257884 -0.81655429 0 0 Z " fill="#57A4FF" transform="translate(145,495)"/>
<path d="M0 0 C4.14182881 0.862881 5.56226471 2.18349135 8 5.625 C8.7226174 9.12901268 8.6782494 12.31089178 7 15.5625 C3.75643661 17.28564305 0.67182449 17.96789412 -3 17.625 C-6 15.625 -6 15.625 -8 12.625 C-8.625 9.125 -8.625 9.125 -8 5.625 C-5.55401113 2.24378009 -4.10703441 0.85563217 0 0 Z " fill="#54A2FE" transform="translate(145,417.375)"/>
<path d="M0 0 C3.88265681 0.72799815 5.46228253 1.50231129 8 4.5625 C8.7725396 7.72816981 8.82294948 10.4039967 8 13.5625 C5.19389471 16.23808877 3.20138224 17.29878195 -0.5625 18.125 C-4.29485555 17.26368718 -5.73829392 15.59964817 -8 12.5625 C-8.625 9.0625 -8.625 9.0625 -8 5.5625 C-5.54999553 2.17572911 -4.13607554 0.77551416 0 0 Z " fill="#55A3FF" transform="translate(418,76.4375)"/>
<path d="M0 0 C2.61904157 0.53863308 3.76638607 0.97425118 5.875 2.6875 C7.27283678 6.00736236 7.25714572 8.49580664 6.875 12.0625 C5.875 14.4375 5.875 14.4375 3.875 16.0625 C1.13974073 17.02753736 -1.23615485 17.38285831 -4.125 17.0625 C-7.125 15.0625 -7.125 15.0625 -9.125 12.0625 C-9.91653944 7.62987912 -9.62916232 5.81874348 -7.125 2.0625 C-4.05807963 0.01788642 -3.45606293 -0.26143649 0 0 Z " fill="#FAFCFF" transform="translate(129.125,16.9375)"/>
</svg>
