<?xml version="1.0" standalone="no"?>
<!DOCTYPE svg PUBLIC "-//W3C//DTD SVG 20010904//EN"
 "http://www.w3.org/TR/2001/REC-SVG-20010904/DTD/svg10.dtd">
<svg version="1.0" xmlns="http://www.w3.org/2000/svg"
 width="512.000000pt" height="512.000000pt" viewBox="0 0 512.000000 512.000000"
 preserveAspectRatio="xMidYMid meet">

<g transform="translate(0.000000,512.000000) scale(0.100000,-0.100000)"
fill="#000000" stroke="none">
<path d="M1059 4957 c-103 -29 -181 -96 -228 -197 -22 -46 -26 -69 -26 -145 0
-109 20 -159 92 -236 76 -81 147 -111 266 -110 125 0 250 80 303 194 13 29 24
58 24 65 0 9 59 12 260 12 l260 0 0 -340 0 -339 -350 -3 c-349 -3 -350 -3
-372 -26 l-23 -23 -3 -419 -3 -420 -339 0 -340 0 0 260 c0 201 3 260 13 260
29 0 118 51 156 89 107 107 134 276 67 410 -30 58 -112 135 -174 164 -37 17
-66 22 -137 22 -82 0 -97 -3 -157 -33 -77 -38 -130 -92 -166 -171 -22 -46 -26
-71 -27 -141 0 -72 4 -94 27 -142 35 -75 95 -138 162 -171 30 -15 60 -27 65
-27 8 0 11 -93 11 -294 0 -302 5 -347 40 -366 11 -6 174 -10 409 -10 l391 0 0
-395 0 -395 -394 0 c-373 0 -395 -1 -417 -19 l-24 -19 -5 -328 -5 -327 -38
-13 c-128 -45 -227 -189 -227 -333 0 -44 25 -133 48 -170 55 -90 149 -154 248
-170 170 -27 333 70 390 231 23 64 19 173 -7 244 -29 78 -111 161 -191 194
l-58 24 0 268 0 268 340 0 339 0 3 -285 c3 -281 3 -285 26 -307 22 -23 24 -23
372 -26 l350 -3 0 -339 0 -340 -260 0 c-201 0 -260 3 -260 13 0 6 -11 35 -24
64 -53 114 -178 194 -303 194 -38 0 -82 -3 -99 -7 -92 -22 -186 -101 -232
-194 -23 -47 -27 -67 -27 -145 0 -76 4 -99 26 -146 37 -79 90 -133 167 -171
59 -29 76 -33 152 -33 71 0 94 4 142 27 75 35 138 95 171 162 15 30 27 60 27
65 0 8 93 11 294 11 302 0 347 5 366 40 6 11 10 174 10 409 l0 391 395 0 395
0 0 -391 c0 -235 4 -398 10 -409 19 -35 64 -40 377 -40 280 0 304 -1 310 -17
32 -97 100 -175 191 -220 49 -24 69 -28 142 -28 72 0 94 4 145 28 290 135 273
546 -27 653 -64 23 -173 19 -244 -7 -78 -29 -161 -111 -194 -191 l-24 -58
-268 0 -268 0 0 340 0 339 355 3 c354 3 355 3 377 26 23 22 23 26 26 307 l3
285 339 0 340 0 0 -268 0 -268 -57 -24 c-81 -33 -163 -116 -192 -194 -26 -71
-30 -180 -7 -244 57 -161 220 -258 390 -231 195 32 327 225 287 421 -23 108
-117 217 -218 252 l-38 13 -5 327 -5 328 -24 19 c-22 18 -44 19 -417 19 l-394
0 0 395 0 395 391 0 c235 0 398 4 409 10 35 19 40 64 40 366 0 201 3 294 11
294 5 0 35 12 65 27 67 33 127 96 162 171 23 48 27 71 27 142 0 76 -4 93 -33
152 -38 77 -92 130 -171 167 -48 22 -70 26 -146 26 -109 0 -159 -20 -236 -92
-81 -76 -111 -147 -110 -266 0 -125 80 -250 194 -303 29 -13 58 -24 65 -24 9
0 12 -59 12 -260 l0 -260 -340 0 -339 0 -3 420 -3 419 -23 23 c-22 23 -23 23
-377 26 l-355 3 0 339 0 340 268 0 268 0 24 -57 c33 -81 116 -163 194 -192
131 -49 274 -21 370 72 88 87 126 200 105 315 -15 81 -50 141 -114 200 -119
109 -289 121 -423 32 -62 -42 -115 -107 -136 -167 l-13 -38 -327 -5 -328 -5
-19 -24 c-18 -22 -19 -44 -19 -417 l0 -394 -395 0 -395 0 0 391 c0 235 -4 398
-10 409 -19 35 -64 40 -366 40 -201 0 -294 3 -294 11 0 28 -58 124 -98 160
-88 82 -224 117 -333 86z m201 -181 c84 -56 107 -195 44 -272 -41 -51 -88 -74
-152 -74 -165 0 -251 185 -144 312 60 71 173 87 252 34z m2829 1 c52 -35 84
-96 84 -162 0 -56 -12 -85 -52 -128 -39 -43 -76 -58 -137 -58 -165 0 -252 186
-146 313 61 72 172 87 251 35z m-3512 -772 c48 -20 71 -41 95 -89 41 -81 18
-181 -55 -240 -78 -62 -213 -41 -271 42 -107 156 57 359 231 287z m4111 0
c153 -65 162 -275 15 -346 -64 -31 -149 -24 -200 17 -50 39 -75 92 -75 154 2
137 135 227 260 175z m-993 -1445 l0 -1135 -1135 0 -1135 0 -3 1125 c-1 619 0
1131 3 1138 3 10 236 12 1137 10 l1133 -3 0 -1135z m-3090 -1400 c52 -32 86
-97 86 -164 0 -60 -10 -86 -50 -129 -38 -42 -79 -60 -136 -60 -207 0 -268 277
-80 365 51 24 131 18 180 -12z m4090 11 c188 -85 126 -364 -80 -364 -57 0 -98
18 -136 60 -40 43 -50 69 -50 129 0 143 138 233 266 175z m-3438 -506 c76 -50
105 -163 64 -248 -70 -144 -274 -140 -342 8 -42 91 -8 199 76 243 62 32 149
31 202 -3z m2785 20 c35 -7 94 -58 115 -99 23 -44 20 -123 -6 -174 -73 -143
-289 -129 -347 23 -42 112 28 235 145 255 36 6 44 6 93 -5z"/>
<path d="M2735 3443 c-33 -8 -65 -44 -65 -74 0 -75 31 -89 195 -89 l125 0 0
-690 0 -690 -135 0 c-131 0 -137 -1 -160 -25 -16 -15 -25 -36 -25 -55 0 -19 9
-40 25 -55 l24 -25 329 0 c318 0 330 1 356 21 35 27 36 86 3 117 -21 20 -34
22 -140 22 l-117 0 0 689 0 689 121 4 c113 3 122 5 140 27 21 25 25 71 9 101
-19 35 -63 40 -369 39 -163 -1 -305 -3 -316 -6z"/>
<path d="M2036 3378 c-22 -20 -53 -123 -236 -782 -115 -417 -210 -769 -210
-783 0 -56 78 -92 127 -58 24 17 27 27 114 338 l52 187 193 0 c175 0 193 -2
198 -17 3 -10 30 -115 61 -233 69 -268 63 -247 88 -270 38 -36 107 -17 127 35
7 18 -39 207 -190 792 -178 688 -202 770 -225 791 -14 12 -37 22 -50 22 -13 0
-35 -10 -49 -22z m118 -649 c36 -141 66 -262 66 -268 0 -8 -44 -11 -146 -11
-134 0 -145 1 -140 18 3 9 33 116 66 237 68 245 81 288 85 283 2 -2 33 -118
69 -259z"/>
</g>
</svg>
