<?xml version="1.0" encoding="UTF-8"?>
<svg version="1.1" xmlns="http://www.w3.org/2000/svg" width="512" height="512">
<path d="M0 0 C0.70569136 -0.00205263 1.41138272 -0.00410527 2.13845867 -0.0062201 C4.50304109 -0.01187436 6.86756497 -0.0104348 9.23215294 -0.00901413 C10.94469659 -0.01159867 12.65723964 -0.01461208 14.36978185 -0.01801753 C19.07611612 -0.02608036 23.78243513 -0.0278767 28.48877549 -0.028615 C33.56461575 -0.0304668 38.64044811 -0.03801478 43.7162838 -0.04475021 C54.81555272 -0.058329 65.91481803 -0.06435756 77.01409388 -0.06876087 C83.94543757 -0.07152408 90.87677988 -0.07576158 97.80812263 -0.08026505 C117.00156186 -0.09245715 136.19499998 -0.10275656 155.38844299 -0.10614014 C156.6167398 -0.1063597 157.84503661 -0.10657927 159.11055454 -0.10680549 C160.34177879 -0.10702377 161.57300304 -0.10724204 162.84153712 -0.10746694 C165.33643762 -0.1079104 167.83133813 -0.10835696 170.32623863 -0.10880661 C172.18257115 -0.10913875 172.18257115 -0.10913875 174.07640533 -0.10947761 C194.12709896 -0.11342523 214.17775624 -0.13087842 234.22843583 -0.15416613 C254.81751111 -0.177886 275.40656816 -0.19034228 295.99565732 -0.19150805 C307.55430288 -0.19242446 319.11290108 -0.1981681 330.67153358 -0.21632767 C340.51440727 -0.23173721 350.35721895 -0.23684405 360.2001024 -0.22858956 C365.22028802 -0.22468611 370.24034881 -0.22559788 375.26051903 -0.23964691 C379.8611318 -0.25240384 384.46152617 -0.25117256 389.06213872 -0.2390562 C390.72165255 -0.23710231 392.38118195 -0.24016332 394.04067393 -0.24890056 C410.70195663 -0.33103031 424.05563644 2.04140766 436.4702816 13.71345901 C445.76470277 23.36655751 449.42180163 34.51100241 449.30634117 47.7443428 C449.31570112 49.41901367 449.31570112 49.41901367 449.32525015 51.12751627 C449.34110958 54.84062827 449.32860294 58.55307739 449.31598473 62.26619339 C449.32140897 64.93960845 449.32838951 67.61297898 449.33722496 70.28638077 C449.35495276 76.77707057 449.35119597 83.26757469 449.3395744 89.75827157 C449.33051763 95.03634365 449.32932574 100.31436393 449.33366966 105.59244156 C449.33428259 106.34544884 449.33489553 107.09845611 449.33552703 107.87428179 C449.33680602 109.40430289 449.33810287 110.93432397 449.3394174 112.46434504 C449.35080638 126.79015571 449.33773597 141.11586377 449.31621593 155.4416576 C449.29834646 167.7170425 449.30145104 179.99227606 449.31989098 192.26765823 C449.34132749 206.54440789 449.3497079 220.82106775 449.33744192 235.09783125 C449.33616781 236.62202548 449.33491032 238.14621972 449.33366966 239.67041397 C449.33274401 240.79512808 449.33274401 240.79512808 449.33179966 241.94256368 C449.32835509 247.21044052 449.33415577 252.47826011 449.34358788 257.74612808 C449.35484022 264.17146148 449.35170022 270.59659958 449.3304649 277.02191079 C449.3199976 280.29630818 449.31793416 283.57031582 449.32906151 286.84472084 C449.34003634 290.40297271 449.32622836 293.96031817 449.30634117 297.51851273 C449.3197255 299.05253919 449.3197255 299.05253919 449.33338022 300.6175561 C449.19363642 313.56017957 443.77663838 323.89464067 435.1734066 333.31892776 C424.4559507 343.58555378 411.48183799 345.4481941 397.30206871 345.35847855 C396.08155815 345.3587706 394.86104759 345.35906265 393.60355186 345.35936356 C390.2838431 345.35821559 386.96438845 345.34824108 383.64472461 345.33421564 C380.1654065 345.32164458 376.68608437 345.32053279 373.20674706 345.31816483 C366.63026946 345.31196868 360.053859 345.29558334 353.47741085 345.27546585 C345.9852139 345.2530485 338.49301361 345.24209879 331.00079143 345.23207498 C315.59995108 345.21121527 300.19920312 345.1745626 284.7984066 345.13142776 C284.7984066 358.99142776 284.7984066 372.85142776 284.7984066 387.13142776 C288.77387535 387.08502151 292.7493441 387.03861526 296.8452816 386.99080276 C300.04771491 386.96501549 303.25011823 386.94334694 306.45259666 386.92442703 C309.8153984 386.90344584 313.17747605 386.87327102 316.54010582 386.82966995 C320.41277319 386.78073993 324.28485976 386.75836406 328.1577816 386.74080276 C329.3426516 386.72015762 330.52752159 386.69951248 331.74829674 386.67824173 C344.50988247 386.67486046 354.64161513 390.04678137 363.7359066 399.04939651 C373.07729338 409.11084853 372.97888168 419.60577302 372.9859066 432.75642776 C372.99815269 433.97072464 373.01039879 435.18502151 373.02301598 436.43611526 C373.02494957 437.60658401 373.02688316 438.77705276 373.02887535 439.98299026 C373.03298424 441.0434053 373.03709312 442.10382034 373.04132652 443.19636917 C372.78133046 446.33774873 372.34688916 448.3839415 370.7984066 451.13142776 C367.12775634 453.8088588 364.55259309 454.50675023 360.04340172 454.50895119 C358.30881329 454.52068605 358.30881329 454.52068605 356.53918266 454.53265798 C355.27314453 454.52596582 354.0071064 454.51927365 352.70270348 454.51237869 C351.34076373 454.51583567 349.97882677 454.52060051 348.61689568 454.52656043 C344.87525002 454.53909465 341.13383365 454.53288912 337.39218712 454.52360177 C333.3566793 454.5168215 329.32121124 454.52728742 325.28571129 454.53554153 C317.38051065 454.548892 309.47539539 454.54599529 301.57019138 454.53730361 C295.14633737 454.53053264 288.7225073 454.5296078 282.29865074 454.53287506 C280.92802852 454.53356461 280.92802852 454.53356461 279.52971697 454.53426809 C277.67354329 454.53522725 275.81736961 454.53619989 273.96119595 454.53718586 C256.5496404 454.5457436 239.13813221 454.5358996 221.72658443 454.51978476 C206.78175144 454.50638123 191.83698834 454.50870922 176.8921566 454.52254105 C159.54355022 454.53859008 142.19498537 454.54491959 124.8463726 454.53570426 C122.99696923 454.53474859 121.14756585 454.53380548 119.29816246 454.53287506 C118.38818457 454.53241223 117.47820668 454.53194941 116.54065371 454.53147256 C110.12338738 454.52888064 103.70614737 454.53325802 97.28888512 454.54031372 C89.4699953 454.5487214 81.65119585 454.54646403 73.8323164 454.53047149 C69.84183655 454.52257888 65.85150746 454.51951395 61.86102867 454.52941895 C58.20935961 454.53834598 54.55798131 454.53346615 50.90633869 454.51748629 C48.95676903 454.51253774 47.00717925 454.52235284 45.05763054 454.53265798 C43.32304211 454.52092312 43.32304211 454.52092312 41.55341148 454.50895119 C40.55555878 454.50846413 39.55770607 454.50797707 38.5296154 454.50747526 C35.29921742 454.06269672 33.41933017 453.04377565 30.7984066 451.13142776 C28.74181219 447.46574583 28.5417827 444.24342895 28.5327816 440.08845901 C28.53020348 438.93152542 28.52762535 437.77459183 28.5249691 436.58259964 C28.53270348 435.38183792 28.54043785 434.1810762 28.5484066 432.94392776 C28.53680504 431.17178909 28.53680504 431.17178909 28.5249691 429.36384964 C28.55333833 416.56223581 29.96500406 407.48746148 38.84137535 397.93220901 C46.31740664 390.77374365 55.13160424 386.99499679 65.48493004 387.01790237 C66.62581078 387.01797791 67.76669151 387.01805344 68.94214439 387.01813126 C70.16830467 387.02329254 71.39446495 387.02845383 72.6577816 387.03377151 C73.91729637 387.03518646 75.17681114 387.03660141 76.47449303 387.03805923 C79.81505779 387.04270704 83.15555381 387.05168495 86.49609947 387.06276321 C89.90806029 387.07301178 93.32002844 387.0776191 96.73200035 387.08259964 C103.42084107 387.09277743 110.10956163 387.11235311 116.7984066 387.13142776 C116.7984066 373.27142776 116.7984066 359.41142776 116.7984066 345.13142776 C113.06939049 345.14713821 109.34037437 345.16284866 105.49835777 345.17903519 C93.15706652 345.22881626 80.81577672 345.2620639 68.47441196 345.28686428 C60.99422314 345.30229726 53.51412981 345.323318 46.0340023 345.35774612 C39.51016732 345.38775835 32.98640154 345.40702868 26.46249944 345.41369325 C23.01188827 345.41758562 19.56147498 345.42665753 16.11092758 345.44861794 C12.2478473 345.47300173 8.38495613 345.47339022 4.52179527 345.47200394 C3.39250099 345.48278976 2.26320671 345.49357559 1.09969139 345.50468826 C-12.23639377 345.45313853 -24.45803744 341.84490077 -34.3890934 332.69392776 C-41.55091583 325.18192159 -47.31281278 314.97543482 -47.33581448 304.40642071 C-47.34027232 303.45427321 -47.34473016 302.50212571 -47.34932309 301.52112526 C-47.34913873 300.47805106 -47.34895437 299.43497685 -47.34876442 298.36029434 C-47.35244111 297.24982807 -47.3561178 296.1393618 -47.3599059 294.99524504 C-47.37095111 291.26060534 -47.37478803 287.52599347 -47.37859535 283.79133987 C-47.3848594 281.11897491 -47.39149337 278.44661292 -47.39850807 275.77425003 C-47.41825978 267.74465259 -47.42833753 259.71505391 -47.43723586 251.68543825 C-47.4416213 247.90180956 -47.44698749 244.11818226 -47.45222473 240.33455467 C-47.46923651 227.75253814 -47.48372958 215.17052247 -47.49097347 202.58849621 C-47.49288329 199.32424226 -47.49480363 196.05998832 -47.49675941 192.79573441 C-47.49724315 191.98444399 -47.4977269 191.17315358 -47.49822529 190.33727861 C-47.50652149 177.20170545 -47.53185167 164.06622347 -47.56434009 150.9306901 C-47.59744145 137.43703045 -47.61542505 123.94341709 -47.61861771 110.44971663 C-47.62078008 102.87664832 -47.62948843 95.30371295 -47.65507889 87.73068428 C-47.67682807 81.27959099 -47.68481571 74.82866292 -47.67511211 68.37753712 C-47.67057935 65.08899129 -47.67459308 61.80085583 -47.69187355 58.51234245 C-47.70959944 54.93842523 -47.70248166 51.36536503 -47.68934059 47.79144669 C-47.70030984 46.76398754 -47.71127908 45.73652839 -47.72258073 44.67793411 C-47.61048162 32.00079488 -42.4629077 21.5095595 -33.8265934 12.38142776 C-24.25818678 3.31662149 -13.02193021 0.01293447 0 0 Z M-0.2015934 48.13142776 C-0.2015934 124.36142776 -0.2015934 200.59142776 -0.2015934 279.13142776 C132.4584066 279.13142776 265.1184066 279.13142776 401.7984066 279.13142776 C401.7984066 202.90142776 401.7984066 126.67142776 401.7984066 48.13142776 C269.1384066 48.13142776 136.4784066 48.13142776 -0.2015934 48.13142776 Z M133.7984066 345.13142776 C133.7984066 358.99142776 133.7984066 372.85142776 133.7984066 387.13142776 C178.0184066 387.13142776 222.2384066 387.13142776 267.7984066 387.13142776 C267.7984066 373.27142776 267.7984066 359.41142776 267.7984066 345.13142776 C223.5784066 345.13142776 179.3584066 345.13142776 133.7984066 345.13142776 Z " fill="#9AC8FF" transform="translate(55.20159339904785,28.868572235107422)"/>
<path d="M0 0 C0.70569136 -0.00205263 1.41138272 -0.00410527 2.13845867 -0.0062201 C4.50304109 -0.01187436 6.86756497 -0.0104348 9.23215294 -0.00901413 C10.94469659 -0.01159867 12.65723964 -0.01461208 14.36978185 -0.01801753 C19.07611612 -0.02608036 23.78243513 -0.0278767 28.48877549 -0.028615 C33.56461575 -0.0304668 38.64044811 -0.03801478 43.7162838 -0.04475021 C54.81555272 -0.058329 65.91481803 -0.06435756 77.01409388 -0.06876087 C83.94543757 -0.07152408 90.87677988 -0.07576158 97.80812263 -0.08026505 C117.00156186 -0.09245715 136.19499998 -0.10275656 155.38844299 -0.10614014 C156.6167398 -0.1063597 157.84503661 -0.10657927 159.11055454 -0.10680549 C160.34177879 -0.10702377 161.57300304 -0.10724204 162.84153712 -0.10746694 C165.33643762 -0.1079104 167.83133813 -0.10835696 170.32623863 -0.10880661 C172.18257115 -0.10913875 172.18257115 -0.10913875 174.07640533 -0.10947761 C194.12709896 -0.11342523 214.17775624 -0.13087842 234.22843583 -0.15416613 C254.81751111 -0.177886 275.40656816 -0.19034228 295.99565732 -0.19150805 C307.55430288 -0.19242446 319.11290108 -0.1981681 330.67153358 -0.21632767 C340.51440727 -0.23173721 350.35721895 -0.23684405 360.2001024 -0.22858956 C365.22028802 -0.22468611 370.24034881 -0.22559788 375.26051903 -0.23964691 C379.8611318 -0.25240384 384.46152617 -0.25117256 389.06213872 -0.2390562 C390.72165255 -0.23710231 392.38118195 -0.24016332 394.04067393 -0.24890056 C410.70195663 -0.33103031 424.05563644 2.04140766 436.4702816 13.71345901 C445.76470277 23.36655751 449.42180163 34.51100241 449.30634117 47.7443428 C449.31570112 49.41901367 449.31570112 49.41901367 449.32525015 51.12751627 C449.34110958 54.84062827 449.32860294 58.55307739 449.31598473 62.26619339 C449.32140897 64.93960845 449.32838951 67.61297898 449.33722496 70.28638077 C449.35495276 76.77707057 449.35119597 83.26757469 449.3395744 89.75827157 C449.33051763 95.03634365 449.32932574 100.31436393 449.33366966 105.59244156 C449.33428259 106.34544884 449.33489553 107.09845611 449.33552703 107.87428179 C449.33680602 109.40430289 449.33810287 110.93432397 449.3394174 112.46434504 C449.35080638 126.79015571 449.33773597 141.11586377 449.31621593 155.4416576 C449.29834646 167.7170425 449.30145104 179.99227606 449.31989098 192.26765823 C449.34132749 206.54440789 449.3497079 220.82106775 449.33744192 235.09783125 C449.33616781 236.62202548 449.33491032 238.14621972 449.33366966 239.67041397 C449.33274401 240.79512808 449.33274401 240.79512808 449.33179966 241.94256368 C449.32835509 247.21044052 449.33415577 252.47826011 449.34358788 257.74612808 C449.35484022 264.17146148 449.35170022 270.59659958 449.3304649 277.02191079 C449.3199976 280.29630818 449.31793416 283.57031582 449.32906151 286.84472084 C449.34003634 290.40297271 449.32622836 293.96031817 449.30634117 297.51851273 C449.3197255 299.05253919 449.3197255 299.05253919 449.33338022 300.6175561 C449.19363642 313.56017957 443.77663838 323.89464067 435.1734066 333.31892776 C424.4559507 343.58555378 411.48183799 345.4481941 397.30206871 345.35847855 C396.08155815 345.3587706 394.86104759 345.35906265 393.60355186 345.35936356 C390.2838431 345.35821559 386.96438845 345.34824108 383.64472461 345.33421564 C380.1654065 345.32164458 376.68608437 345.32053279 373.20674706 345.31816483 C366.63026946 345.31196868 360.053859 345.29558334 353.47741085 345.27546585 C345.9852139 345.2530485 338.49301361 345.24209879 331.00079143 345.23207498 C315.59995108 345.21121527 300.19920312 345.1745626 284.7984066 345.13142776 C284.7984066 358.99142776 284.7984066 372.85142776 284.7984066 387.13142776 C288.77387535 387.08502151 292.7493441 387.03861526 296.8452816 386.99080276 C300.04771491 386.96501549 303.25011823 386.94334694 306.45259666 386.92442703 C309.8153984 386.90344584 313.17747605 386.87327102 316.54010582 386.82966995 C320.41277319 386.78073993 324.28485976 386.75836406 328.1577816 386.74080276 C329.3426516 386.72015762 330.52752159 386.69951248 331.74829674 386.67824173 C344.50988247 386.67486046 354.64161513 390.04678137 363.7359066 399.04939651 C373.07729338 409.11084853 372.97888168 419.60577302 372.9859066 432.75642776 C372.99815269 433.97072464 373.01039879 435.18502151 373.02301598 436.43611526 C373.02494957 437.60658401 373.02688316 438.77705276 373.02887535 439.98299026 C373.03298424 441.0434053 373.03709312 442.10382034 373.04132652 443.19636917 C372.78133046 446.33774873 372.34688916 448.3839415 370.7984066 451.13142776 C367.12775634 453.8088588 364.55259309 454.50675023 360.04340172 454.50895119 C358.30881329 454.52068605 358.30881329 454.52068605 356.53918266 454.53265798 C355.27314453 454.52596582 354.0071064 454.51927365 352.70270348 454.51237869 C351.34076373 454.51583567 349.97882677 454.52060051 348.61689568 454.52656043 C344.87525002 454.53909465 341.13383365 454.53288912 337.39218712 454.52360177 C333.3566793 454.5168215 329.32121124 454.52728742 325.28571129 454.53554153 C317.38051065 454.548892 309.47539539 454.54599529 301.57019138 454.53730361 C295.14633737 454.53053264 288.7225073 454.5296078 282.29865074 454.53287506 C280.92802852 454.53356461 280.92802852 454.53356461 279.52971697 454.53426809 C277.67354329 454.53522725 275.81736961 454.53619989 273.96119595 454.53718586 C256.5496404 454.5457436 239.13813221 454.5358996 221.72658443 454.51978476 C206.78175144 454.50638123 191.83698834 454.50870922 176.8921566 454.52254105 C159.54355022 454.53859008 142.19498537 454.54491959 124.8463726 454.53570426 C122.99696923 454.53474859 121.14756585 454.53380548 119.29816246 454.53287506 C118.38818457 454.53241223 117.47820668 454.53194941 116.54065371 454.53147256 C110.12338738 454.52888064 103.70614737 454.53325802 97.28888512 454.54031372 C89.4699953 454.5487214 81.65119585 454.54646403 73.8323164 454.53047149 C69.84183655 454.52257888 65.85150746 454.51951395 61.86102867 454.52941895 C58.20935961 454.53834598 54.55798131 454.53346615 50.90633869 454.51748629 C48.95676903 454.51253774 47.00717925 454.52235284 45.05763054 454.53265798 C43.32304211 454.52092312 43.32304211 454.52092312 41.55341148 454.50895119 C40.55555878 454.50846413 39.55770607 454.50797707 38.5296154 454.50747526 C35.29921742 454.06269672 33.41933017 453.04377565 30.7984066 451.13142776 C28.74181219 447.46574583 28.5417827 444.24342895 28.5327816 440.08845901 C28.53020348 438.93152542 28.52762535 437.77459183 28.5249691 436.58259964 C28.53270348 435.38183792 28.54043785 434.1810762 28.5484066 432.94392776 C28.53680504 431.17178909 28.53680504 431.17178909 28.5249691 429.36384964 C28.55333833 416.56223581 29.96500406 407.48746148 38.84137535 397.93220901 C46.31740664 390.77374365 55.13160424 386.99499679 65.48493004 387.01790237 C66.62581078 387.01797791 67.76669151 387.01805344 68.94214439 387.01813126 C70.16830467 387.02329254 71.39446495 387.02845383 72.6577816 387.03377151 C73.91729637 387.03518646 75.17681114 387.03660141 76.47449303 387.03805923 C79.81505779 387.04270704 83.15555381 387.05168495 86.49609947 387.06276321 C89.90806029 387.07301178 93.32002844 387.0776191 96.73200035 387.08259964 C103.42084107 387.09277743 110.10956163 387.11235311 116.7984066 387.13142776 C116.7984066 373.27142776 116.7984066 359.41142776 116.7984066 345.13142776 C113.06939049 345.14713821 109.34037437 345.16284866 105.49835777 345.17903519 C93.15706652 345.22881626 80.81577672 345.2620639 68.47441196 345.28686428 C60.99422314 345.30229726 53.51412981 345.323318 46.0340023 345.35774612 C39.51016732 345.38775835 32.98640154 345.40702868 26.46249944 345.41369325 C23.01188827 345.41758562 19.56147498 345.42665753 16.11092758 345.44861794 C12.2478473 345.47300173 8.38495613 345.47339022 4.52179527 345.47200394 C3.39250099 345.48278976 2.26320671 345.49357559 1.09969139 345.50468826 C-12.23639377 345.45313853 -24.45803744 341.84490077 -34.3890934 332.69392776 C-41.55091583 325.18192159 -47.31281278 314.97543482 -47.33581448 304.40642071 C-47.34027232 303.45427321 -47.34473016 302.50212571 -47.34932309 301.52112526 C-47.34913873 300.47805106 -47.34895437 299.43497685 -47.34876442 298.36029434 C-47.35244111 297.24982807 -47.3561178 296.1393618 -47.3599059 294.99524504 C-47.37095111 291.26060534 -47.37478803 287.52599347 -47.37859535 283.79133987 C-47.3848594 281.11897491 -47.39149337 278.44661292 -47.39850807 275.77425003 C-47.41825978 267.74465259 -47.42833753 259.71505391 -47.43723586 251.68543825 C-47.4416213 247.90180956 -47.44698749 244.11818226 -47.45222473 240.33455467 C-47.46923651 227.75253814 -47.48372958 215.17052247 -47.49097347 202.58849621 C-47.49288329 199.32424226 -47.49480363 196.05998832 -47.49675941 192.79573441 C-47.49724315 191.98444399 -47.4977269 191.17315358 -47.49822529 190.33727861 C-47.50652149 177.20170545 -47.53185167 164.06622347 -47.56434009 150.9306901 C-47.59744145 137.43703045 -47.61542505 123.94341709 -47.61861771 110.44971663 C-47.62078008 102.87664832 -47.62948843 95.30371295 -47.65507889 87.73068428 C-47.67682807 81.27959099 -47.68481571 74.82866292 -47.67511211 68.37753712 C-47.67057935 65.08899129 -47.67459308 61.80085583 -47.69187355 58.51234245 C-47.70959944 54.93842523 -47.70248166 51.36536503 -47.68934059 47.79144669 C-47.70030984 46.76398754 -47.71127908 45.73652839 -47.72258073 44.67793411 C-47.61048162 32.00079488 -42.4629077 21.5095595 -33.8265934 12.38142776 C-24.25818678 3.31662149 -13.02193021 0.01293447 0 0 Z M-25.2015934 27.13142776 C-33.72018694 38.10585578 -32.03203128 51.60672908 -31.94622231 64.7530098 C-31.95108294 67.35921687 -31.95852623 69.96542021 -31.96834755 72.57161331 C-31.98724089 78.89415964 -31.97419813 85.21624665 -31.94982167 91.53875865 C-31.92246345 98.91155398 -31.92586765 106.28424219 -31.93008833 113.65707539 C-31.93645579 126.81642601 -31.91320222 139.9755595 -31.87395668 153.13484573 C-31.83593804 165.88621504 -31.82178712 178.63733005 -31.83294106 191.38875198 C-31.84507173 205.29781517 -31.84467613 219.2067668 -31.82196939 233.11582077 C-31.81955497 234.60038177 -31.817143 236.08494277 -31.81473351 237.56950378 C-31.81352643 238.29981014 -31.81231935 239.0301165 -31.81107569 239.78255335 C-31.80333613 244.91464675 -31.80409727 250.04669846 -31.8079052 255.17879486 C-31.81260608 262.09169354 -31.79541066 269.00426127 -31.76378441 275.91708755 C-31.75531411 278.45104883 -31.75358726 280.98504316 -31.75916481 283.51901245 C-31.76563252 286.98344399 -31.74738636 290.44691104 -31.72298622 293.91124344 C-31.73432419 295.40776103 -31.73432419 295.40776103 -31.74589121 296.9345113 C-31.63367263 305.96916686 -29.14808047 313.88893023 -22.91643715 320.59627151 C-16.84838567 326.02849072 -11.39974339 328.25358546 -3.26985264 328.26844215 C-2.55689338 328.27109398 -1.84393411 328.27374581 -1.10937002 328.27647799 C1.29797672 328.28418414 3.70527257 328.28473067 6.11263084 328.28532791 C7.84875984 328.28934168 9.5848879 328.29377975 11.32101482 328.29860747 C16.10639411 328.31058855 20.89176331 328.31622498 25.67715466 328.32078862 C30.83276732 328.32673895 35.98836789 328.33835025 41.1439724 328.34907913 C53.60264489 328.37361681 66.06132139 328.3882326 78.52001062 328.4011392 C82.03806397 328.40485023 85.55611692 328.40882354 89.07416987 328.41289186 C110.91363651 328.43812824 132.75310375 328.46018473 154.59258175 328.47262001 C159.65280789 328.47554979 164.71303402 328.47851144 169.77326012 328.48152542 C171.03097994 328.48227147 172.28869977 328.48301752 173.58453231 328.48378618 C193.96012 328.49644054 214.33562044 328.52966382 234.71116734 328.57132725 C255.62332068 328.61373788 276.53542934 328.63731407 297.44762558 328.64254057 C309.19185072 328.64595575 320.93593953 328.65772353 332.68012238 328.69064331 C342.68198573 328.71863299 352.68368483 328.72964787 362.68558431 328.71844785 C367.78862178 328.71325841 372.89131518 328.71616673 377.99430275 328.74091339 C382.66845154 328.76339114 387.34200882 328.76267737 392.01616787 328.74370952 C393.70467836 328.74090745 395.39322884 328.74651959 397.081675 328.76152246 C407.28450447 328.84661787 416.056117 328.4717533 423.92407805 321.15455472 C430.10931643 314.67470999 432.90578658 307.38463486 432.9382143 298.42672253 C432.94390554 297.50455124 432.94959679 296.58237995 432.95546049 295.63226408 C432.9572303 294.12557302 432.9572303 294.12557302 432.95903587 292.58844376 C432.96412369 291.5145806 432.96921151 290.44071744 432.97445351 289.33431298 C432.99017198 285.72949509 432.99870151 282.12469725 433.00714684 278.5198555 C433.01668576 275.93763477 433.02657694 273.35541531 433.03679466 270.77319717 C433.06603436 263.01988578 433.08525893 255.26656276 433.10218701 247.51321587 C433.1069854 245.32184725 433.11196831 243.13047911 433.11699224 240.93911099 C433.14796546 227.3189305 433.17463879 213.69874567 433.19141102 200.07853985 C433.19536024 196.9258403 433.19936327 193.77314083 433.2034359 190.62044144 C433.20494844 189.44512084 433.20494844 189.44512084 433.20649154 188.24605639 C433.22348889 175.5605927 433.26459028 162.87532441 433.31545889 150.18995606 C433.36730194 137.15391739 433.39636197 124.11797906 433.4036079 111.08183819 C433.40826156 103.76744657 433.42292216 96.45337502 433.4633522 89.13908577 C433.50135925 82.25498074 433.50861522 75.37142918 433.49534607 68.48723412 C433.49539995 65.96537086 433.50566962 63.44348319 433.5270977 60.92171097 C434.09039741 41.56811727 434.09039741 41.56811727 424.96055317 25.14394665 C418.44576867 18.97065917 411.56539918 17.00961252 402.80608749 16.99720669 C402.09872788 16.99485446 401.39136827 16.99250223 400.66257352 16.99007872 C398.28029477 16.98339493 395.89807064 16.98384675 393.51578331 16.98425674 C391.79529062 16.98095774 390.0747987 16.97723209 388.35430777 16.97311527 C383.61679228 16.9630914 378.87928947 16.95937785 374.14176488 16.95672596 C369.03593294 16.95282407 363.93011104 16.94324567 358.82428551 16.93451309 C346.48912883 16.91474572 334.15397133 16.90468226 321.81880277 16.8957853 C316.0112693 16.89140297 310.20373674 16.88603603 304.39620399 16.88079643 C285.09303985 16.8637841 265.78987627 16.84928953 246.48670578 16.84204769 C241.47683651 16.84013777 236.46696725 16.83821744 231.45709801 16.83626175 C230.21190614 16.83577801 228.96671428 16.83529427 227.68378933 16.83479587 C207.50874183 16.82649409 187.3337536 16.80115467 167.15873198 16.76868107 C146.44994861 16.73561982 125.74119537 16.71759978 105.03238547 16.71440345 C93.40333356 16.71223752 81.77436808 16.70347669 70.14534187 16.67794228 C60.24233075 16.65624809 50.33942705 16.64817859 40.43639486 16.65790906 C35.38402941 16.6624574 30.33188567 16.66053631 25.27955055 16.64114761 C20.65176934 16.6235416 16.02437199 16.62449292 11.39658685 16.64004491 C9.72493328 16.64242486 8.05325331 16.63807734 6.38164012 16.62621626 C-5.54538487 16.5468481 -16.98361875 17.38970009 -25.2015934 27.13142776 Z M133.7984066 345.13142776 C133.7984066 358.99142776 133.7984066 372.85142776 133.7984066 387.13142776 C178.0184066 387.13142776 222.2384066 387.13142776 267.7984066 387.13142776 C267.7984066 373.27142776 267.7984066 359.41142776 267.7984066 345.13142776 C223.5784066 345.13142776 179.3584066 345.13142776 133.7984066 345.13142776 Z " fill="#57A4FF" transform="translate(55.20159339904785,28.868572235107422)"/>
<path d="M0 0 C1.62035156 -0.02900391 1.62035156 -0.02900391 3.2734375 -0.05859375 C11.08948577 -0.01034654 11.08948577 -0.01034654 15.1796875 2.84375 C17.02345423 5.66083564 17.65172641 7.45722416 18.125 10.75 C18.70046128 13.3980372 18.70046128 13.3980372 20 15.625 C22.71041927 16.97795471 25.17648458 17.4979972 28.15234375 18.0390625 C30.94849518 18.6144023 32.80402139 19.44857803 35.25 20.875 C39.11223818 22.94857869 41.71825268 22.77777812 46 21.625 C46.639375 21.274375 47.27875 20.92375 47.9375 20.5625 C51.32927128 19.02078578 54.42569453 18.78360327 58 19.625 C61.06159646 21.57706441 63.47496678 24.03185414 66 26.625 C66.74121094 27.34300781 67.48242188 28.06101562 68.24609375 28.80078125 C73.79130435 34.2076087 73.79130435 34.2076087 75 36.625 C74.95397321 42.37834887 73.61460523 46.51463524 71 51.625 C71.53927495 55.66026429 73.46733155 59.43896891 75 63.1875 C77.8930131 70.3040393 77.8930131 70.3040393 79 73.625 C81.97608434 75.0419715 85.02187706 76.11611898 88.1171875 77.24609375 C91.26623688 78.75234636 92.2292879 79.6779856 94 82.625 C94.61597353 86.41500511 94.46361909 90.22774281 94.4375 94.0625 C94.45748047 95.09955078 94.47746094 96.13660156 94.49804688 97.20507812 C94.49517352 101.67889291 94.48824579 104.74459341 92.29296875 108.703125 C89.86805095 110.73559443 87.84327788 111.86094549 84.875 112.9375 C84.00617188 113.26363281 83.13734375 113.58976562 82.2421875 113.92578125 C80 114.625 80 114.625 78 114.625 C77.6596875 116.5121875 77.6596875 116.5121875 77.3125 118.4375 C76.47849004 122.40215927 75.07386401 125.54897839 73.1875 129.125 C71.224866 133.19331713 70.67577995 135.36757613 72.125 139.6875 C72.70780185 141.01927448 73.32620766 142.33686758 74 143.625 C75.50889469 146.64278937 75.50026276 148.24822637 75 151.625 C72.99477504 154.61083653 70.50899079 157.0605619 68 159.625 C67.28972656 160.45386719 66.57945312 161.28273438 65.84765625 162.13671875 C60.4173782 168.21595797 60.4173782 168.21595797 56.671875 169.296875 C52.8127294 169.42813846 49.79593138 168.67789345 46.3125 167.0625 C41.6406538 165.03509504 38.63773046 166.00110268 33.96484375 167.78125 C32.96582031 168.2246875 31.96679688 168.668125 30.9375 169.125 C27.27931885 170.74458084 23.95615303 171.98620832 20 172.625 C19.82984375 173.28886719 19.6596875 173.95273437 19.484375 174.63671875 C19.12085938 175.96123047 19.12085938 175.96123047 18.75 177.3125 C18.51796875 178.18261719 18.2859375 179.05273438 18.046875 179.94921875 C16.78853648 183.16549443 15.41029222 185.14299112 13 187.625 C10.22265625 188.27197266 10.22265625 188.27197266 7.0625 188.2890625 C5.92039062 188.29550781 4.77828125 188.30195313 3.6015625 188.30859375 C2.41304688 188.28925781 1.22453125 188.26992188 0 188.25 C-1.18851562 188.26933594 -2.37703125 188.28867187 -3.6015625 188.30859375 C-5.31472656 188.29892578 -5.31472656 188.29892578 -7.0625 188.2890625 C-8.10535156 188.28342285 -9.14820313 188.2777832 -10.22265625 188.27197266 C-13.95034589 187.4036202 -14.98004831 185.79267165 -17 182.625 C-17.66015625 180.0546875 -17.66015625 180.0546875 -18.0625 177.5 C-18.66455352 174.84870019 -18.66455352 174.84870019 -20 172.625 C-22.71122572 171.27389084 -25.17648857 170.75200208 -28.15234375 170.2109375 C-30.94849518 169.6355977 -32.80402139 168.80142197 -35.25 167.375 C-39.11223818 165.30142131 -41.71825268 165.47222188 -46 166.625 C-46.9590625 167.12894287 -46.9590625 167.12894287 -47.9375 167.64306641 C-51.61734218 169.39499885 -55.04240984 169.51153938 -59 168.625 C-62.13422704 166.5793675 -64.50631565 164.02188443 -67 161.25 C-67.66644531 160.55132812 -68.33289063 159.85265625 -69.01953125 159.1328125 C-74.83557921 152.97325051 -74.83557921 152.97325051 -75.3125 149.0625 C-74.94712463 145.04337091 -73.62460888 142.31869382 -71.77734375 138.7734375 C-69.91244121 133.61918424 -73.90469415 127.82586727 -75.91601562 123.02539062 C-77.12950129 120.06660112 -78 117.85587587 -78 114.625 C-78.59167969 114.44324219 -79.18335937 114.26148438 -79.79296875 114.07421875 C-90.67494824 110.61257764 -90.67494824 110.61257764 -94 105.625 C-94.46241172 101.84876714 -94.37032982 98.05152457 -94.375 94.25 C-94.39949219 93.2084375 -94.42398438 92.166875 -94.44921875 91.09375 C-94.46649977 86.58916303 -94.46730205 83.49578275 -92.3125 79.48046875 C-89.67613117 77.36513903 -87.92194517 76.91740171 -84.625 76.3125 C-81.63981871 75.37190883 -79.64130723 74.64707417 -77.93994141 71.93554688 C-76.35811185 68.47482269 -75.21295826 64.91759801 -74.12109375 61.27734375 C-73 57.625 -73 57.625 -71 54.625 C-71.2672092 51.41848963 -72.22349067 49.13332053 -73.5625 46.1875 C-75.08746008 42.40825111 -75.81318528 40.60960787 -75 36.625 C-72.96017314 33.6641604 -70.52804955 31.17202178 -68 28.625 C-67.28199219 27.88121094 -66.56398438 27.13742188 -65.82421875 26.37109375 C-59.30828974 19.71221932 -59.30828974 19.71221932 -54.25 19.375 C-51.07066603 19.39218559 -49.88975732 19.68124626 -46.9375 21.1875 C-43.20904016 23.01206545 -40.83595785 22.80963404 -37 21.625 C-33.92081495 20.41298035 -30.88851778 19.13103911 -27.8671875 17.78125 C-25.22177966 16.71443703 -22.80759543 16.07750622 -20 15.625 C-19.84144531 14.96113281 -19.68289062 14.29726562 -19.51953125 13.61328125 C-19.28621094 12.73027344 -19.05289063 11.84726563 -18.8125 10.9375 C-18.48185547 9.63232422 -18.48185547 9.63232422 -18.14453125 8.30078125 C-14.40490018 -0.44204224 -8.49672567 -0.15208936 0 0 Z M-21 73.625 C-26.8299773 80.85417185 -29.52377275 87.42526353 -29.30859375 96.75390625 C-28.40659481 105.14592169 -24.35494277 112.14660106 -18 117.625 C-10.77362901 122.58233983 -3.06070337 124.56777608 5.63671875 123.21484375 C14.58216416 120.92711116 21.41469055 115.65031172 26.125 107.734375 C29.77578986 100.68632236 30.2153684 93.60872959 28.33984375 85.91796875 C25.48458776 77.87133823 20.73916823 71.84814902 13.25 67.6875 C1.16020717 62.28372896 -11.53427483 64.24052569 -21 73.625 Z " fill="#9AC8FF" transform="translate(172,98.375)"/>
<path d="M0 0 C0.70486153 -0.00205263 1.40972307 -0.00410527 2.13594404 -0.0062201 C4.521721 -0.01191996 6.90744077 -0.0104292 9.29322338 -0.00901413 C11.01142846 -0.01159606 12.72963294 -0.01460873 14.44783658 -0.01801753 C19.18812409 -0.02611105 23.92839648 -0.02787841 28.66869009 -0.028615 C33.77377855 -0.03046147 38.87885908 -0.03800673 43.98394299 -0.04475021 C55.15529053 -0.05835066 66.32663449 -0.06436089 77.49798894 -0.06876087 C84.46878877 -0.07152036 91.4395872 -0.07575716 98.41038609 -0.08026505 C117.69718145 -0.09245985 136.9839757 -0.10275881 156.27077484 -0.10614014 C157.50594068 -0.1063597 158.74110652 -0.10657927 160.01370163 -0.10680549 C161.25188144 -0.10702377 162.49006126 -0.10724204 163.76576167 -0.10746694 C166.27493084 -0.10791041 168.7841 -0.10835697 171.29326916 -0.10880661 C173.16023486 -0.10913875 173.16023486 -0.10913875 175.06491705 -0.10947761 C195.24022456 -0.11342703 215.41549597 -0.13088451 235.59078953 -0.15416613 C256.28705555 -0.17785686 276.98330345 -0.19034094 297.67958325 -0.19150805 C309.3068114 -0.19242609 320.93399254 -0.19821066 332.56120777 -0.21632767 C342.46073908 -0.23169792 352.36020884 -0.23686735 362.25974981 -0.22858956 C367.31346949 -0.22467215 372.36706513 -0.22566566 377.42076969 -0.23964691 C382.04399763 -0.25232062 386.66700748 -0.25124616 391.29023483 -0.2390562 C392.96589428 -0.23708782 394.64156884 -0.24022986 396.31720702 -0.24890056 C398.5895159 -0.25991759 400.86104482 -0.25255937 403.1333313 -0.24050903 C404.39709557 -0.24110612 405.66085985 -0.24170321 406.96292001 -0.24231839 C411.60429292 0.28454309 414.13022061 2.11649933 417.53534031 5.18789291 C420.05615362 9.50168728 419.81556891 13.31353571 419.77682018 18.22798538 C419.78447128 19.25370132 419.79212237 20.27941726 419.80000532 21.3362155 C419.82066578 24.77792624 419.81268148 28.2189697 419.80474377 31.66072464 C419.81343666 34.12623081 419.8238025 36.59173157 419.83571911 39.05722427 C419.85974848 45.06146326 419.86480053 51.06543932 419.86011858 57.06970227 C419.85655251 61.94942347 419.86005087 66.82909037 419.86856747 71.70880508 C419.86975784 72.40329969 419.87094822 73.0977943 419.87217467 73.8133342 C419.87459817 75.22418488 419.87702643 76.63503555 419.87945943 78.04588622 C419.9012104 91.27558071 419.89688514 104.50517324 419.88468973 117.73487347 C419.87434798 129.83987702 419.89687088 141.94455884 419.93488617 154.04949874 C419.97362074 166.47871807 419.99015915 178.90778511 419.98263967 191.33706522 C419.97881257 198.31529358 419.98382018 205.29324799 420.01206875 212.27142715 C420.03835539 218.8313172 420.0334073 225.39066836 420.00724697 231.95059395 C420.00250056 234.3608859 420.00803793 236.77122279 420.02449322 239.18146324 C420.04530867 242.46668953 420.02932929 245.74972437 420.00387096 249.03487015 C420.01861953 249.99352336 420.0333681 250.95217658 420.0485636 251.93987989 C420.02694397 253.26168595 420.02694397 253.26168595 420.00488758 254.61019516 C420.00499761 255.36806462 420.00510764 256.12593408 420.00522101 256.90676928 C418.82120157 260.41978768 416.38596967 262.35812581 413.25542736 264.13142776 C409.81126404 264.75817358 409.81126404 264.75817358 405.94336987 264.76063347 C404.86694109 264.77153427 404.86694109 264.77153427 403.76876628 264.7826553 C401.36315012 264.80090895 398.95912767 264.78355004 396.55352306 264.76634598 C394.81194684 264.77210706 393.07037669 264.7800481 391.32881927 264.7899822 C386.54232971 264.81088058 381.75633775 264.80052676 376.96984625 264.78505111 C371.8082 264.77375378 366.64664025 264.79119228 361.4850111 264.80495071 C351.37309362 264.82720492 341.26136151 264.82237218 331.14943671 264.80788751 C322.93260503 264.79660387 314.71582536 264.79506058 306.49898815 264.80050659 C305.33033099 264.80127276 304.16167382 264.80203892 302.9576028 264.8028283 C300.58363237 264.8044269 298.20966197 264.80604797 295.83569157 264.80769126 C273.56549385 264.82195516 251.29539898 264.80554596 229.02521813 264.77868943 C209.90886917 264.7563501 190.79267202 264.76023005 171.6763258 264.78328323 C149.48680623 264.81002989 127.29737684 264.8205818 105.1078434 264.80522192 C102.7425178 264.80362914 100.37719219 264.80205729 98.01186657 264.80050659 C96.84802624 264.79973521 95.6841859 264.79896384 94.48507768 264.79816908 C86.27639499 264.79384869 78.06776942 264.80114597 69.85909557 264.81290436 C59.8578923 264.82691527 49.85688528 264.82315901 39.85570455 264.79650064 C34.75113798 264.78334356 29.64689884 264.77824236 24.54233456 264.7947464 C19.87156288 264.80961971 15.20142285 264.80150108 10.53070867 264.77485864 C8.83900878 264.76926254 7.14725578 264.77213936 5.45558989 264.78423758 C3.1587923 264.79940646 0.86416833 264.78389158 -1.43251514 264.76063347 C-2.70892022 264.75982171 -3.9853253 264.75900995 -5.30040932 264.75817358 C-9.92364243 263.91686853 -11.52860057 262.53701139 -14.74457264 259.13142776 C-15.49666762 256.90907061 -15.49666762 256.90907061 -15.49961948 254.61578178 C-15.51526597 253.73581114 -15.53091245 252.8558405 -15.54703307 251.94920409 C-15.53364874 250.99191511 -15.52026441 250.03462613 -15.50647449 249.0483284 C-15.51583444 248.02402359 -15.52519438 246.99971879 -15.53483796 245.94437444 C-15.55879857 242.50701478 -15.53980245 239.07124107 -15.52093983 235.63386917 C-15.52906875 233.17160484 -15.5397511 230.70934781 -15.55280018 228.24710464 C-15.57734652 222.25007929 -15.57371611 216.25367782 -15.55632433 210.25667669 C-15.54277227 205.38172269 -15.54093702 200.50689492 -15.54746723 195.63192749 C-15.54838663 194.93801033 -15.54930603 194.24409317 -15.55025329 193.52914821 C-15.55217166 192.11942897 -15.55411694 190.70970975 -15.55608884 189.29999058 C-15.57319949 176.07970858 -15.55352548 162.85967616 -15.52128664 149.6394351 C-15.49449162 138.30070337 -15.49912612 126.9623403 -15.5267992 115.62361526 C-15.55892652 102.45367087 -15.57153905 89.28394541 -15.55312562 76.1139673 C-15.55121435 74.70883142 -15.54932813 73.30369551 -15.54746723 71.89855957 C-15.54654158 71.20722782 -15.54561593 70.51589606 -15.54466222 69.80361486 C-15.53948619 64.93665254 -15.54821638 60.06982928 -15.56234455 55.20288849 C-15.58095473 48.64787872 -15.56765698 42.09345669 -15.53297901 35.53847694 C-15.52504387 33.13226413 -15.52732681 30.72599277 -15.540555 28.31980324 C-15.55694736 25.03524241 -15.53639588 21.75291296 -15.50647449 18.46849442 C-15.51985883 17.51566688 -15.53324316 16.56283935 -15.54703307 15.58113825 C-15.44358077 9.72841462 -14.3203632 6.63170051 -10.22559953 2.39692152 C-6.96415343 -0.38988789 -4.19158852 0.00413591 0 0 Z M1.25542736 16.13142776 C1.25542736 92.36142776 1.25542736 168.59142776 1.25542736 247.13142776 C133.91542736 247.13142776 266.57542736 247.13142776 403.25542736 247.13142776 C403.25542736 170.90142776 403.25542736 94.67142776 403.25542736 16.13142776 C270.59542736 16.13142776 137.93542736 16.13142776 1.25542736 16.13142776 Z " fill="#57A4FF" transform="translate(53.74457263946533,60.86857223510742)"/>
<path d="M0 0 C1.1034375 -0.03738281 2.206875 -0.07476562 3.34375 -0.11328125 C7.36795099 0.42958745 8.90884382 1.16540546 11.5 4.3125 C12.80242793 8.65469653 12.02331205 12.15422306 10.18408203 16.22509766 C8.40329728 19.42542952 6.51664781 22.52760925 4.5625 25.625 C3.25766529 27.74360259 1.95670643 29.86459855 0.66015625 31.98828125 C-0.21177368 33.3791394 -0.21177368 33.3791394 -1.10131836 34.7980957 C-2.36851207 37.07612467 -3.20694198 38.73486799 -3.5 41.3125 C-2.14185993 44.52962945 -2.14185993 44.52962945 -0.5 47.3125 C2.47 47.3125 5.44 47.3125 8.5 47.3125 C9.1501709 46.16249512 9.1501709 46.16249512 9.81347656 44.98925781 C11.43346675 42.13111371 13.05923548 39.27642171 14.68896484 36.42382812 C15.39148537 35.19142673 16.09171545 33.95771662 16.78955078 32.72265625 C17.7963255 30.94177088 18.8113992 29.16584363 19.828125 27.390625 C20.4355957 26.32231445 21.04306641 25.25400391 21.66894531 24.15332031 C24.13739706 20.32359971 26.04150677 17.77797656 30.4375 16.375 C34.22551228 16.29769363 35.57546533 16.9266954 38.5 19.3125 C45.56091763 28.03481002 47.25930908 39.40094731 46.5 50.3125 C45.21936021 58.73433452 42.31980046 65.33477279 37.5 72.3125 C36.9225 73.199375 36.345 74.08625 35.75 75 C28.83139406 82.11078944 18.36046087 88.9871498 8.140625 89.41015625 C6.95726562 89.39275391 6.95726562 89.39275391 5.75 89.375 C4.95078125 89.36597656 4.1515625 89.35695313 3.328125 89.34765625 C2.72484375 89.33605469 2.1215625 89.32445312 1.5 89.3125 C1.22994141 90.02696289 0.95988281 90.74142578 0.68164062 91.47753906 C-0.511935 94.34113414 -1.88826523 96.96718893 -3.40625 99.671875 C-3.98012451 100.69651855 -4.55399902 101.72116211 -5.14526367 102.77685547 C-5.75732666 103.86111816 -6.36938965 104.94538086 -7 106.0625 C-7.63075439 107.18414551 -8.26150879 108.30579102 -8.91137695 109.46142578 C-12.44962865 115.73555966 -16.02497984 121.9851001 -19.6875 128.1875 C-20.07333252 128.84298828 -20.45916504 129.49847656 -20.85668945 130.17382812 C-23.07492415 133.93251639 -25.32509242 137.66996024 -27.59375 141.3984375 C-28.6252716 143.11962892 -29.65652676 144.84098006 -30.6875 146.5625 C-31.18209717 147.36155762 -31.67669434 148.16061523 -32.1862793 148.98388672 C-34.74376477 153.12074996 -34.74376477 153.12074996 -35.48828125 157.796875 C-35.16214844 158.62703125 -34.83601563 159.4571875 -34.5 160.3125 C-32.15388209 166.58382378 -30.97599141 171.9769047 -31.0625 178.6875 C-31.07007324 179.51749512 -31.07764648 180.34749023 -31.08544922 181.20263672 C-31.36931456 191.81339867 -34.99931828 199.99289274 -41.5 208.3125 C-41.97824219 208.92867187 -42.45648438 209.54484375 -42.94921875 210.1796875 C-49.80412018 217.9497269 -60.69011167 222.83666588 -70.91015625 223.55078125 C-72.11542969 223.57527344 -73.32070313 223.59976563 -74.5625 223.625 C-76.37427734 223.68107422 -76.37427734 223.68107422 -78.22265625 223.73828125 C-81.5 223.3125 -81.5 223.3125 -83.87109375 221.73046875 C-86.03296036 218.521367 -86.27511289 216.16514476 -86.5 212.3125 C-85.36010742 209.30224609 -85.36010742 209.30224609 -83.60546875 206.3359375 C-82.97962891 205.253125 -82.35378906 204.1703125 -81.70898438 203.0546875 C-81.04189453 201.94351563 -80.37480469 200.83234375 -79.6875 199.6875 C-78.3869713 197.46752181 -77.08870542 195.24621607 -75.79296875 193.0234375 C-75.2105542 192.04681152 -74.62813965 191.07018555 -74.02807617 190.06396484 C-72.60236961 187.49682744 -71.36074002 185.12110565 -70.5 182.3125 C-71.80027975 179.61730288 -71.80027975 179.61730288 -73.5 177.3125 C-73.5 176.6525 -73.5 175.9925 -73.5 175.3125 C-76.8 175.3125 -80.1 175.3125 -83.5 175.3125 C-83.77094482 176.19405762 -84.04188965 177.07561523 -84.32104492 177.98388672 C-86.16157706 183.18036947 -89.01230085 187.70730787 -91.8125 192.4375 C-92.38162109 193.42621094 -92.95074219 194.41492188 -93.53710938 195.43359375 C-99.0275444 204.75031357 -99.0275444 204.75031357 -103.5 207.3125 C-107.34626127 207.3125 -109.56837561 207.09478002 -112.546875 204.59375 C-114.67680914 202.10598693 -115.88229461 199.80994328 -117.1875 196.8125 C-117.60386719 195.8740625 -118.02023437 194.935625 -118.44921875 193.96875 C-122.40540305 183.96798671 -121.77057796 171.02434678 -117.88671875 161.08984375 C-111.94438807 149.18844344 -103.40735766 141.63348367 -91.390625 136.24609375 C-88.28134578 135.2418806 -85.68997855 135.16674611 -82.4375 135.0625 C-78.15265897 134.42526723 -76.83710157 133.72260445 -74.046875 130.328125 C-71.79455287 126.69581312 -69.87097916 122.89440259 -67.94140625 119.08349609 C-65.7954684 114.9580905 -63.45275929 110.95370669 -61.11401367 106.93530273 C-59.82633107 104.72269489 -58.54787387 102.50469308 -57.27856445 100.28149414 C-54.14575368 94.79897546 -50.94794413 89.38873692 -47.54296875 84.0703125 C-46.92526611 83.08764404 -46.30756348 82.10497559 -45.67114258 81.0925293 C-44.50496837 79.24697182 -43.31454582 77.41643499 -42.09643555 75.60473633 C-39.16527711 71.07572107 -39.16527711 71.07572107 -38.79907227 65.87158203 C-39.56012652 63.59288363 -40.47166107 61.48143371 -41.5 59.3125 C-45.14728874 45.58153064 -43.60308082 33.06952558 -36.80078125 20.48828125 C-31.18938389 11.10225023 -21.74956056 4.84945411 -11.5 1.3125 C-7.65583791 0.36261584 -3.95539333 0.08779495 0 0 Z " fill="#57A4FF" transform="translate(387.5,80.6875)"/>
<path d="M0 0 C1.67672799 -0.00679667 1.67672799 -0.00679667 3.38732928 -0.01373065 C7.12884171 -0.02637977 10.87020868 -0.02475392 14.61174011 -0.02310181 C17.296026 -0.02908671 19.98030054 -0.03583571 22.6645813 -0.04345703 C29.19687252 -0.06004484 35.72912764 -0.06556556 42.26143817 -0.06668179 C47.57297579 -0.06763328 52.88450153 -0.07174861 58.19603539 -0.07808304 C73.26651053 -0.09568909 88.33695723 -0.10492286 103.40744273 -0.10342209 C104.62522032 -0.10330222 104.62522032 -0.10330222 105.86759949 -0.10317993 C106.68044632 -0.10309817 107.49329315 -0.10301641 108.33077171 -0.10293217 C121.5024011 -0.10211936 134.67391611 -0.12125733 147.84551243 -0.14945666 C161.38107901 -0.17820581 174.91658984 -0.19199586 188.45218772 -0.19026911 C196.04696878 -0.18960593 203.64162993 -0.19506671 211.23638344 -0.21662521 C217.70281266 -0.23486374 224.16906759 -0.2391625 230.63551144 -0.22560637 C233.9320481 -0.21909014 237.22818235 -0.22109732 240.52470016 -0.23631287 C244.10538694 -0.2517676 247.68520092 -0.24245431 251.26586914 -0.22705078 C252.29808572 -0.23733791 253.3303023 -0.24762503 254.39379817 -0.25822389 C263.11490983 -0.1755336 271.47992911 1.92394462 277.82341003 8.26742554 C280.82341003 13.26742554 280.82341003 13.26742554 280.82341003 34.26742554 C178.52341003 34.26742554 76.22341003 34.26742554 -29.17658997 34.26742554 C-29.17658997 13.26742554 -29.17658997 13.26742554 -25.17658997 7.26742554 C-23.50080872 5.65805054 -23.50080872 5.65805054 -21.86408997 4.51742554 C-21.33170715 4.13070679 -20.79932434 3.74398804 -20.25080872 3.34555054 C-13.6923628 -0.0633592 -7.23027392 -0.02155496 0 0 Z " fill="#9AC8FF" transform="translate(130.1765899658203,431.7325744628906)"/>
<path d="M0 0 C1.62035156 -0.02900391 1.62035156 -0.02900391 3.2734375 -0.05859375 C11.08948577 -0.01034654 11.08948577 -0.01034654 15.1796875 2.84375 C17.02345423 5.66083564 17.65172641 7.45722416 18.125 10.75 C18.70046128 13.3980372 18.70046128 13.3980372 20 15.625 C22.71041927 16.97795471 25.17648458 17.4979972 28.15234375 18.0390625 C30.94849518 18.6144023 32.80402139 19.44857803 35.25 20.875 C39.11223818 22.94857869 41.71825268 22.77777812 46 21.625 C46.639375 21.274375 47.27875 20.92375 47.9375 20.5625 C51.32927128 19.02078578 54.42569453 18.78360327 58 19.625 C61.06159646 21.57706441 63.47496678 24.03185414 66 26.625 C66.74121094 27.34300781 67.48242188 28.06101562 68.24609375 28.80078125 C73.79130435 34.2076087 73.79130435 34.2076087 75 36.625 C74.95397321 42.37834887 73.61460523 46.51463524 71 51.625 C71.53927495 55.66026429 73.46733155 59.43896891 75 63.1875 C77.8930131 70.3040393 77.8930131 70.3040393 79 73.625 C81.97608434 75.0419715 85.02187706 76.11611898 88.1171875 77.24609375 C91.26623688 78.75234636 92.2292879 79.6779856 94 82.625 C94.61597353 86.41500511 94.46361909 90.22774281 94.4375 94.0625 C94.45748047 95.09955078 94.47746094 96.13660156 94.49804688 97.20507812 C94.49517352 101.67889291 94.48824579 104.74459341 92.29296875 108.703125 C89.86805095 110.73559443 87.84327788 111.86094549 84.875 112.9375 C84.00617188 113.26363281 83.13734375 113.58976562 82.2421875 113.92578125 C80 114.625 80 114.625 78 114.625 C77.6596875 116.5121875 77.6596875 116.5121875 77.3125 118.4375 C76.47849004 122.40215927 75.07386401 125.54897839 73.1875 129.125 C71.224866 133.19331713 70.67577995 135.36757613 72.125 139.6875 C72.70780185 141.01927448 73.32620766 142.33686758 74 143.625 C75.50889469 146.64278937 75.50026276 148.24822637 75 151.625 C72.99477504 154.61083653 70.50899079 157.0605619 68 159.625 C67.28972656 160.45386719 66.57945312 161.28273438 65.84765625 162.13671875 C60.4173782 168.21595797 60.4173782 168.21595797 56.671875 169.296875 C52.8127294 169.42813846 49.79593138 168.67789345 46.3125 167.0625 C41.6406538 165.03509504 38.63773046 166.00110268 33.96484375 167.78125 C32.96582031 168.2246875 31.96679688 168.668125 30.9375 169.125 C27.27931885 170.74458084 23.95615303 171.98620832 20 172.625 C19.82984375 173.28886719 19.6596875 173.95273437 19.484375 174.63671875 C19.12085938 175.96123047 19.12085938 175.96123047 18.75 177.3125 C18.51796875 178.18261719 18.2859375 179.05273438 18.046875 179.94921875 C16.78853648 183.16549443 15.41029222 185.14299112 13 187.625 C10.22265625 188.27197266 10.22265625 188.27197266 7.0625 188.2890625 C5.92039062 188.29550781 4.77828125 188.30195313 3.6015625 188.30859375 C2.41304688 188.28925781 1.22453125 188.26992188 0 188.25 C-1.18851562 188.26933594 -2.37703125 188.28867187 -3.6015625 188.30859375 C-5.31472656 188.29892578 -5.31472656 188.29892578 -7.0625 188.2890625 C-8.10535156 188.28342285 -9.14820313 188.2777832 -10.22265625 188.27197266 C-13.95034589 187.4036202 -14.98004831 185.79267165 -17 182.625 C-17.66015625 180.0546875 -17.66015625 180.0546875 -18.0625 177.5 C-18.66455352 174.84870019 -18.66455352 174.84870019 -20 172.625 C-22.71122572 171.27389084 -25.17648857 170.75200208 -28.15234375 170.2109375 C-30.94849518 169.6355977 -32.80402139 168.80142197 -35.25 167.375 C-39.11223818 165.30142131 -41.71825268 165.47222188 -46 166.625 C-46.9590625 167.12894287 -46.9590625 167.12894287 -47.9375 167.64306641 C-51.61734218 169.39499885 -55.04240984 169.51153938 -59 168.625 C-62.13422704 166.5793675 -64.50631565 164.02188443 -67 161.25 C-67.66644531 160.55132812 -68.33289063 159.85265625 -69.01953125 159.1328125 C-74.83557921 152.97325051 -74.83557921 152.97325051 -75.3125 149.0625 C-74.94712463 145.04337091 -73.62460888 142.31869382 -71.77734375 138.7734375 C-69.91244121 133.61918424 -73.90469415 127.82586727 -75.91601562 123.02539062 C-77.12950129 120.06660112 -78 117.85587587 -78 114.625 C-78.59167969 114.44324219 -79.18335937 114.26148438 -79.79296875 114.07421875 C-90.67494824 110.61257764 -90.67494824 110.61257764 -94 105.625 C-94.46241172 101.84876714 -94.37032982 98.05152457 -94.375 94.25 C-94.39949219 93.2084375 -94.42398438 92.166875 -94.44921875 91.09375 C-94.46649977 86.58916303 -94.46730205 83.49578275 -92.3125 79.48046875 C-89.67613117 77.36513903 -87.92194517 76.91740171 -84.625 76.3125 C-81.63981871 75.37190883 -79.64130723 74.64707417 -77.93994141 71.93554688 C-76.35811185 68.47482269 -75.21295826 64.91759801 -74.12109375 61.27734375 C-73 57.625 -73 57.625 -71 54.625 C-71.2672092 51.41848963 -72.22349067 49.13332053 -73.5625 46.1875 C-75.08746008 42.40825111 -75.81318528 40.60960787 -75 36.625 C-72.96017314 33.6641604 -70.52804955 31.17202178 -68 28.625 C-67.28199219 27.88121094 -66.56398438 27.13742188 -65.82421875 26.37109375 C-59.30828974 19.71221932 -59.30828974 19.71221932 -54.25 19.375 C-51.07066603 19.39218559 -49.88975732 19.68124626 -46.9375 21.1875 C-43.20904016 23.01206545 -40.83595785 22.80963404 -37 21.625 C-33.92081495 20.41298035 -30.88851778 19.13103911 -27.8671875 17.78125 C-25.22177966 16.71443703 -22.80759543 16.07750622 -20 15.625 C-19.84144531 14.96113281 -19.68289062 14.29726562 -19.51953125 13.61328125 C-19.28621094 12.73027344 -19.05289063 11.84726563 -18.8125 10.9375 C-18.48185547 9.63232422 -18.48185547 9.63232422 -18.14453125 8.30078125 C-14.40490018 -0.44204224 -8.49672567 -0.15208936 0 0 Z M-3 16.625 C-3.32871094 17.45644531 -3.65742188 18.28789063 -3.99609375 19.14453125 C-7.80561854 27.84759195 -7.80561854 27.84759195 -10.98046875 29.9140625 C-13.125 30.5625 -13.125 30.5625 -15.4375 31.0625 C-18.50965712 31.73687595 -21.22626784 32.84503249 -24.125 34.0625 C-25.14207031 34.48789063 -26.15914062 34.91328125 -27.20703125 35.3515625 C-29.54910322 36.41941629 -31.64468893 37.56374107 -33.8125 38.9375 C-38.31065854 41.31887805 -41.56778506 41.30602018 -46.44140625 39.94140625 C-48.65001789 39.21902779 -50.82872969 38.45215059 -53 37.625 C-54.57158518 38.94097883 -54.57158518 38.94097883 -56 40.625 C-55.79400357 43.78361198 -55.20107185 46.18934432 -53.875 49.0625 C-52.51760394 53.03773131 -53.18798411 56.65939799 -54.78759766 60.53149414 C-55.77576803 62.52476773 -56.8125179 64.48286459 -57.875 66.4375 C-60.3059286 71.04810257 -62.40840223 75.35102934 -63.6875 80.4375 C-64.74177661 84.40264097 -64.74177661 84.40264097 -67.25 86.5625 C-68.1575 86.913125 -69.065 87.26375 -70 87.625 C-71.27171406 88.18550599 -72.5425243 88.74806636 -73.8125 89.3125 C-74.864375 89.745625 -75.91625 90.17875 -77 90.625 C-77 92.935 -77 95.245 -77 97.625 C-76.21496094 97.82609375 -75.42992188 98.0271875 -74.62109375 98.234375 C-69.96461449 99.90270867 -66.27239651 101.33087861 -63.82519531 105.74316406 C-62.09307009 109.96995361 -60.83352276 114.28753738 -59.59765625 118.6796875 C-58.36951948 122.96571045 -56.56979192 126.27654628 -53.98608398 129.89526367 C-53 131.625 -53 131.625 -53 135.0625 C-54.19105572 139.305636 -55.50527267 143.47924683 -57 147.625 C-55.58017295 149.50935062 -55.58017295 149.50935062 -53 150.625 C-50.71434031 150.09550355 -48.66928858 149.30475116 -46.51171875 148.38671875 C-41.69952091 146.92734304 -37.70141971 147.06999533 -33.203125 149.26953125 C-31.8791242 149.98059327 -30.561543 150.70371375 -29.25 151.4375 C-24.45596591 154.00803661 -20.10852274 156.07602257 -14.75 157.25 C-10.99641821 158.13782324 -10.21231096 158.39145794 -7.5 161.375 C-5.93128042 164.77389243 -4.3903916 168.14902101 -3 171.625 C-1.02 171.625 0.96 171.625 3 171.625 C3.3403125 170.79355469 3.680625 169.96210938 4.03125 169.10546875 C7.88896695 160.45638528 7.88896695 160.45638528 10.72265625 158.3359375 C12.79356372 157.60606353 14.86150445 157.12490805 17 156.625 C19.19806491 155.84153132 21.38503525 155.02652311 23.5625 154.1875 C24.68011719 153.76210937 25.79773438 153.33671875 26.94921875 152.8984375 C29.45091089 151.85419725 31.5997951 150.76082456 33.875 149.3125 C37.63559899 147.28177654 39.78067298 147.08799474 44 147.625 C46 148.625 48 149.625 50 150.625 C52.73295895 150.729597 52.73295895 150.729597 55 149.625 C56.3674438 147.86988567 56.3674438 147.86988567 57 145.625 C56.37251773 143.37214445 56.37251773 143.37214445 55.125 141.1875 C53.3447289 137.79791098 52.53153958 135.47478373 53 131.625 C54.171875 129.3359375 54.171875 129.3359375 55.75 127 C59.77255355 120.63411926 62.2568838 113.94878617 63.9375 106.625 C65 103.625 65 103.625 67.1875 101.875 C68.115625 101.4625 69.04375 101.05 70 100.625 C70.62132812 100.34785156 71.24265625 100.07070312 71.8828125 99.78515625 C73.57795722 99.0405279 75.2879748 98.32995155 77 97.625 C77 95.315 77 93.005 77 90.625 C76.31292969 90.39425781 75.62585938 90.16351563 74.91796875 89.92578125 C74.01691406 89.59964844 73.11585938 89.27351563 72.1875 88.9375 C71.29417969 88.62425781 70.40085938 88.31101562 69.48046875 87.98828125 C64.28894563 85.13498744 63.30923236 79.8154097 61.6875 74.4375 C60.17003193 69.54536414 58.47725414 65.43316112 55.625 61.125 C53.58521089 57.94209 53.00582142 56.95682092 52.9375 53.0625 C54.22690508 48.89089534 55.51885733 44.73307496 57 40.625 C55.58017295 38.74064938 55.58017295 38.74064938 53 37.625 C50.71434031 38.15449645 48.66928858 38.94524884 46.51171875 39.86328125 C41.84083117 41.27980237 38.20521632 41.13456889 33.7109375 39.234375 C32.05964844 38.31398438 32.05964844 38.31398438 30.375 37.375 C24.62140071 34.26551517 19.01855059 32.24000095 12.64453125 30.64453125 C8.72963708 29.13524413 7.63887327 26.91556674 5.83203125 23.265625 C5.49558594 22.47671875 5.15914063 21.6878125 4.8125 20.875 C4.46832031 20.07578125 4.12414062 19.2765625 3.76953125 18.453125 C3.51558594 17.84984375 3.26164062 17.2465625 3 16.625 C1.02 16.625 -0.96 16.625 -3 16.625 Z " fill="#57A4FF" transform="translate(172,98.375)"/>
<path d="M0 0 C11.31971037 7.21701468 20.07630242 18.07000872 23.01171875 31.3046875 C25.03356881 44.07311019 21.96160879 56.86972009 14.74609375 67.57421875 C7.77740494 76.3014844 -1.91773015 82.75982437 -12.81640625 85.32421875 C-29.41839092 86.41287348 -39.68345165 84.03702871 -53.37890625 74.69921875 C-62.35141788 66.22517999 -67.74436916 54.81404539 -68.91796875 42.5546875 C-69.11053947 35.73593346 -68.10971257 29.91645404 -65.62890625 23.57421875 C-65.37367188 22.89875 -65.1184375 22.22328125 -64.85546875 21.52734375 C-59.93269512 10.23657855 -49.68577497 1.58766194 -38.62890625 -3.30078125 C-25.85874513 -7.86788748 -11.9084048 -6.45849592 0 0 Z M-43.62890625 19.57421875 C-49.45888355 26.8033906 -52.152679 33.37448228 -51.9375 42.703125 C-51.03550106 51.09514044 -46.98384902 58.09581981 -40.62890625 63.57421875 C-33.40253526 68.53155858 -25.68960962 70.51699483 -16.9921875 69.1640625 C-8.04674209 66.87632991 -1.2142157 61.59953047 3.49609375 53.68359375 C7.14688361 46.63554111 7.58646215 39.55794834 5.7109375 31.8671875 C2.85568151 23.82055698 -1.88973802 17.79736777 -9.37890625 13.63671875 C-21.46869908 8.23294771 -34.16318108 10.18974444 -43.62890625 19.57421875 Z " fill="#57A4FF" transform="translate(194.62890625,152.42578125)"/>
<path d="M0 0 C0 4.88652349 -3.04284777 8.5315316 -5.46875 12.67578125 C-7.16886347 16.36658882 -7.6567797 18.0050017 -7 22 C-5.6293474 25.22499954 -3.94371099 28.22120775 -2.1875 31.25 C-1.73568359 32.0646875 -1.28386719 32.879375 -0.81835938 33.71875 C1.8452487 38.50079923 1.8452487 38.50079923 6 42 C10.29674216 42.49421789 14.61541074 42.41655288 18.9375 42.4375 C20.13052734 42.47037109 21.32355469 42.50324219 22.55273438 42.53710938 C23.69935547 42.54419922 24.84597656 42.55128906 26.02734375 42.55859375 C27.07656006 42.57204834 28.12577637 42.58550293 29.20678711 42.59936523 C32.98078914 41.7895431 33.92347539 40.16563939 36 37 C37.26297942 34.91595321 38.49217834 32.8110758 39.6875 30.6875 C40.76430722 28.77599424 41.86069145 26.87492509 43 25 C43.33 25 43.66 25 44 25 C44.81740925 31.21231032 42.30733023 35.92232269 39 41 C33.39443232 47.55018662 26.21660343 51.50661882 17.61328125 52.3203125 C15.37166217 52.43578224 13.12729938 52.50961639 10.8828125 52.53125 C7.24247643 53.12317456 6.40471278 54.2602907 4 57 C2.9527278 58.63478281 1.96862795 60.3111597 1.0390625 62.015625 C0.49258057 63.0068335 -0.05390137 63.99804199 -0.61694336 65.01928711 C-1.19710205 66.08542236 -1.77726074 67.15155762 -2.375 68.25 C-3.63231524 70.52833766 -4.89147654 72.80565738 -6.15234375 75.08203125 C-6.47278152 75.66155045 -6.7932193 76.24106964 -7.12336731 76.83815002 C-10.30976489 82.58818324 -13.6119917 88.26716707 -16.9375 93.9375 C-17.78344727 95.38805786 -17.78344727 95.38805786 -18.64648438 96.86791992 C-21.45319118 101.67642255 -24.27806635 106.4727733 -27.14241028 111.24711609 C-28.55470973 113.60695006 -29.95478142 115.97390763 -31.35305786 118.34207153 C-32.35070118 120.0215932 -33.36449709 121.69148686 -34.37866211 123.36108398 C-38.84574413 130.66322653 -38.84574413 130.66322653 -39 139 C-37.73756288 141.99809807 -37.73756288 141.99809807 -36 144.8125 C-32.02321572 152.36180916 -32.07576373 157.97773337 -34.125 166.125 C-35.97467353 171.68278681 -38.93418675 177.29494878 -44.19140625 180.21875 C-44.78824219 180.4765625 -45.38507813 180.734375 -46 181 C-44.64621544 175.85561867 -42.16958091 171.93258011 -39.2421875 167.5625 C-37.6530924 164.28436672 -37.46121403 162.62256907 -38 159 C-39.35995658 155.94747273 -41.05273872 153.14916665 -42.8125 150.3125 C-43.49022461 149.17458008 -43.49022461 149.17458008 -44.18164062 148.01367188 C-47.03952053 143.04142782 -47.03952053 143.04142782 -51 139 C-55.2351305 138.24772517 -59.5180428 138.35211246 -63.8125 138.3125 C-64.98876953 138.25900391 -66.16503906 138.20550781 -67.37695312 138.15039062 C-73.63702134 137.9485752 -73.63702134 137.9485752 -79.04296875 140.63623047 C-80.60273337 142.68536154 -81.82024998 144.7139526 -83 147 C-83.62648438 147.9796875 -84.25296875 148.959375 -84.8984375 149.96875 C-85.38570313 150.8040625 -85.87296875 151.639375 -86.375 152.5 C-86.87773437 153.3559375 -87.38046875 154.211875 -87.8984375 155.09375 C-88.26195312 155.7228125 -88.62546875 156.351875 -89 157 C-90.55162226 152.54929406 -89.1589384 149.76377741 -87.34375 145.59375 C-82.90728007 137.03033131 -76.1613086 131.94433994 -67 129 C-61.69868555 128.12688567 -56.36252804 128.01361048 -51 128 C-50.58838623 126.90957397 -50.58838623 126.90957397 -50.16845703 125.79711914 C-49.05067064 123.12129827 -47.78052047 120.73916327 -46.3046875 118.24609375 C-45.76191162 117.3236084 -45.21913574 116.40112305 -44.65991211 115.45068359 C-43.77638062 113.95915771 -43.77638062 113.95915771 -42.875 112.4375 C-38.87243686 105.63288123 -34.88180986 98.82352584 -30.97265625 91.96484375 C-30.47306396 91.08830643 -30.47306396 91.08830643 -29.96337891 90.19406128 C-28.61769382 87.83101908 -27.273298 85.46725856 -25.93206787 83.10168457 C-22.40270535 76.87723888 -18.83582888 70.68434038 -15.09765625 64.58203125 C-14.48994385 63.58381348 -13.88223145 62.5855957 -13.25610352 61.55712891 C-12.12017816 59.70092612 -10.97170337 57.85232013 -9.80834961 56.01318359 C-6.86257159 51.18785321 -5.12795971 47.83823587 -6 42 C-7.83973235 38.9070643 -7.83973235 38.9070643 -10 36 C-12.91024279 28.72953479 -13.38208903 20.61519017 -11.125 13.078125 C-8.46793174 7.30948995 -5.06113036 3.7710383 0 0 Z " fill="#98C7FF" transform="translate(373,102)"/>
</svg>
